<?xml version="1.0" encoding="utf-8"?>
<!-- Generator: Adobe Illustrator 26.0.1, SVG Export Plug-In . SVG Version: 6.00 Build 0)  -->
<svg version="1.1" id="Ebene_1" xmlns="http://www.w3.org/2000/svg" xmlns:xlink="http://www.w3.org/1999/xlink" x="0px" y="0px"
	 viewBox="0 0 24 24" style="enable-background:new 0 0 24 24;" xml:space="preserve">
<style type="text/css">
	.st0{fill:#FFFFFF;}
	.st1{fill:#A35B21;}
</style>
<g id="Ebene_2_00000110448080337804119570000016221879098048840344_">
	<g id="Rand_weiß">
		<path class="st0" d="M5.8,0h12.5C21.4,0,24,2.6,24,5.8v12.5c0,3.2-2.6,5.8-5.8,5.8H5.8C2.6,24,0,21.4,0,18.2V5.8
			C0,2.6,2.6,0,5.8,0z"/>
		<path class="st0" d="M24,5.8v12.5c0,3.2-2.6,5.8-5.8,5.8H5.8C2.6,24,0,21.4,0,18.2V5.8C0,2.6,2.6,0,5.8,0h12.5
			C21.4,0,24,2.6,24,5.8z"/>
	</g>
	<g id="Flächen_aktiv">
		<path class="st1" d="M5.8,2h12.5C20.3,2,22,3.7,22,5.8v12.5c0,2.1-1.7,3.8-3.8,3.8H5.8C3.7,22,2,20.3,2,18.2V5.8
			C2,3.7,3.7,2,5.8,2z"/>
	</g>
	<g id="Symbole_weiß">
		<path class="st0" d="M19,11.9l-6.7-6.7c-0.2-0.2-0.5-0.2-0.7,0L5,11.8c-0.2,0.2-0.2,0.5,0,0.7c0.1,0.1,0.2,0.1,0.3,0.1l1,0V18
			c0,0.4,0.3,0.7,0.7,0.7c0,0,0,0,0,0h2.8v-4.1c0-0.6,0.4-1,1-1c0,0,0,0,0,0h2.2c0.6,0,1,0.4,1,1c0,0,0,0,0,0v4.1h2.8
			c0.4,0,0.7-0.3,0.7-0.7v-5.4l1.1,0c0.3,0,0.5-0.2,0.5-0.5C19.1,12.1,19.1,11.9,19,11.9z"/>
	</g>
</g>
</svg>
