<svg xmlns="http://www.w3.org/2000/svg" viewBox="0 0 28 28"><defs><style>.cls-1{fill:#043eb2;}.cls-2{fill:#61c620;}.cls-3{fill:#fff;}</style></defs><g id="Ebene_2" data-name="Ebene 2"><g id="Rand_blau" data-name="Rand blau"><rect class="cls-1" x="4" y="4" width="24" height="24" rx="5.75"/></g><g id="Flächen_aktiv" data-name="Flächen aktiv"><rect class="cls-2" x="6" y="6" width="20" height="20" rx="3.75"/></g><g id="Symbole_weiß" data-name="Symbole weiß"><polyline class="cls-3" points="22.562 12.655 22.562 12.655 13.904 21.313 9.438 16.847 11.409 14.875 13.908 17.373 20.594 10.687 22.562 12.655"/></g><g id="OC_LOgo" data-name="OC LOgo"><circle class="cls-1" cx="6.954" cy="6.954" r="6.954"/><path class="cls-3" d="M1.435,6.817a2.661,2.661,0,0,1,.7-1.968,2.653,2.653,0,0,1,1.961-.7,2.7,2.7,0,0,1,1.985.692,2.606,2.606,0,0,1,.7,1.937,3.178,3.178,0,0,1-.3,1.484,2.174,2.174,0,0,1-.879.9,2.9,2.9,0,0,1-1.435.322A3.308,3.308,0,0,1,2.718,9.2a2.181,2.181,0,0,1-.927-.88A2.919,2.919,0,0,1,1.435,6.817Zm1.595.007a1.737,1.737,0,0,0,.29,1.123.985.985,0,0,0,.79.341.986.986,0,0,0,.8-.334,1.911,1.911,0,0,0,.281-1.2,1.6,1.6,0,0,0-.293-1.065,1.006,1.006,0,0,0-.8-.336.968.968,0,0,0-.774.342A1.733,1.733,0,0,0,3.03,6.824Z"/><path class="cls-3" d="M11.076,7.281l1.4.423a2.571,2.571,0,0,1-.443.981,1.923,1.923,0,0,1-.752.595,2.806,2.806,0,0,1-1.142.2,3.3,3.3,0,0,1-1.375-.245,2.18,2.18,0,0,1-.92-.859A2.919,2.919,0,0,1,7.454,6.8a2.677,2.677,0,0,1,.681-1.968,2.589,2.589,0,0,1,1.927-.688,2.623,2.623,0,0,1,1.533.394,2.32,2.32,0,0,1,.829,1.211l-1.408.313a1.2,1.2,0,0,0-.155-.345.917.917,0,0,0-.327-.281,1.006,1.006,0,0,0-1.264.337A1.859,1.859,0,0,0,9.052,6.79a1.935,1.935,0,0,0,.26,1.176.9.9,0,0,0,.733.318.886.886,0,0,0,.691-.257A1.594,1.594,0,0,0,11.076,7.281Z"/></g></g></svg>