<svg xmlns="http://www.w3.org/2000/svg" viewBox="0 0 16 16"><defs><style>.cls-1{fill:#ff332e;}.cls-2{fill:red;}.cls-3{fill:#fff;}.cls-4{fill:none;}</style></defs><g id="Ebene_2" data-name="Ebene 2"><g id="Icons"><g id="path4201"><path class="cls-1" d="M8,1a.7.7,0,0,0-.49.2l-.11.15L7,2H7L.11,14h0a1.08,1.08,0,0,0-.08.19A.69.69,0,0,0,.51,15L.7,15H15.31a.69.69,0,0,0,.69-.69.68.68,0,0,0-.09-.35h0L8.71,1.49a1.18,1.18,0,0,0-.22-.31A.7.7,0,0,0,8,1Z"/><path class="cls-2" d="M8,1a.7.7,0,0,0-.49.2l-.11.15L7,2H7L.11,14h0a1.08,1.08,0,0,0-.08.19A.69.69,0,0,0,.51,15L.7,15H15.31a.69.69,0,0,0,.69-.69.68.68,0,0,0-.09-.35h0L8.71,1.49a1.18,1.18,0,0,0-.22-.31A.7.7,0,0,0,8,1Z"/></g><path class="cls-3" d="M8.7,7.64a.78.78,0,0,0-.88-.76,1.81,1.81,0,0,0-1.24.56l-1-.9A3.11,3.11,0,0,1,7.94,5.46c1.37,0,2.45.63,2.45,2,0,1.58-2,1.78-1.81,3.16H7C6.78,9,8.7,8.53,8.7,7.64Zm-2,4.93a1.15,1.15,0,0,1,1.2-1.2,1.15,1.15,0,0,1,1.2,1.2,1.2,1.2,0,1,1-2.4,0Z"/></g><g id="_16x16_transparent" data-name="16x16 transparent"><rect class="cls-4" width="16" height="16"/></g></g></svg>