<?xml version="1.0" encoding="utf-8"?>
<!-- Generator: Adobe Illustrator 26.0.1, SVG Export Plug-In . SVG Version: 6.00 Build 0)  -->
<svg version="1.1" id="Ebene_1" xmlns="http://www.w3.org/2000/svg" xmlns:xlink="http://www.w3.org/1999/xlink" x="0px" y="0px"
	 viewBox="0 0 16 16" style="enable-background:new 0 0 16 16;" xml:space="preserve">
<style type="text/css">
	.st0{fill:#5381A9;}
	.st1{fill-rule:evenodd;clip-rule:evenodd;fill:#FF332E;}
	.st2{fill:none;}
</style>
<g>
	<path id="location1_00000036235808170101581500000011488133191954376887_" class="st0" d="M5.191,14.341
		c-0.025,0.035-0.055,0.066-0.09,0.09c-0.17,0.12-0.404,0.079-0.524-0.09l0,0c-0.937-1.328-1.6-2.299-1.988-2.912
		C0.863,8.708,0,6.693,0,5.384C0,2.686,2.186,0.5,4.884,0.5s4.884,2.186,4.884,4.884c0,1.307-0.86,3.317-2.579,6.031
		C6.798,12.03,6.132,13.006,5.191,14.341z M4.897,8.533c1.66,0,3.005-1.346,3.005-3.005S6.556,2.523,4.897,2.523
		S1.891,3.868,1.891,5.528S3.237,8.533,4.897,8.533z M4.884,7.366c-1.037,0-1.878-0.841-1.878-1.878S3.846,3.61,4.884,3.61
		s1.878,0.841,1.878,1.878S5.921,7.366,4.884,7.366z"/>
	<path class="st1" d="M16.053,11.5l-4-4v2.333H8.991c-0.39,0.718-0.845,1.489-1.37,2.318c-0.173,0.272-0.406,0.624-0.67,1.016h5.102
		V15.5L16.053,11.5z"/>
</g>
<rect x="0.027" class="st2" width="16" height="16"/>
</svg>
