<?xml version="1.0" encoding="utf-8"?>
<!-- Generator: Adobe Illustrator 26.0.1, SVG Export Plug-In . SVG Version: 6.00 Build 0)  -->
<svg version="1.1" id="Ebene_1" xmlns="http://www.w3.org/2000/svg" xmlns:xlink="http://www.w3.org/1999/xlink" x="0px" y="0px"
	 viewBox="0 0 16 16" style="enable-background:new 0 0 16 16;" xml:space="preserve">
<style type="text/css">
	.st0{fill:#60C51F;}
	.st1{fill:none;}
</style>
<path class="st0" d="M9.053,0H2v11.324l1.303-1.32c-0.241-1.187,0.09-2.468,0.998-3.389C5.367,5.534,6.926,5.256,8.245,5.78
	L6.087,7.968C5.887,8.17,5.764,8.45,5.764,8.759c0,0.309,0.123,0.589,0.323,0.791l0.52,0.527c0.2,0.203,0.476,0.328,0.781,0.328
	c0.304,0,0.58-0.125,0.78-0.328l2.159-2.188c0.517,1.338,0.243,2.917-0.823,3.998c-0.908,0.921-2.173,1.256-3.344,1.012L3.099,16H14
	V5.014L9.053,0z"/>
<rect class="st1" width="16" height="16"/>
</svg>
