<svg xmlns="http://www.w3.org/2000/svg" viewBox="0 0 16 16"><defs><style>.cls-1{fill:#60c51f;}.cls-2{fill:none;}</style></defs><g id="Ebene_2" data-name="Ebene 2"><g id="Icons"><path class="cls-1" d="M15.74,2.9,13.56,5.09a1.15,1.15,0,0,1-1.59,0l-.52-.53a1.11,1.11,0,0,1,0-1.58L13.63.79A3.73,3.73,0,1,0,15.74,2.9Z"/><path class="cls-1" d="M4,9.65l-2.27,2.1a2.09,2.09,0,0,0-.06,3l.1.09a2.06,2.06,0,0,0,1.51.62,2.12,2.12,0,0,0,1.49-.67l2.11-2.27Z"/><path class="cls-1" d="M7.56,6.06a.52.52,0,0,0-.37.15L4.76,8.64A.52.52,0,0,0,4.61,9a.56.56,0,0,0,.15.37l5.43,5.43a2.24,2.24,0,0,0,3.17-3.17L7.93,6.21A.56.56,0,0,0,7.56,6.06Z"/><path class="cls-1" d="M1.52,4.37l.59,0L5.68,7.92l.85-.73L2.9,3.56l0-.59a.37.37,0,0,0,0-.15.43.43,0,0,0-.11-.12l-2-1.25L0,2.24l1.25,2a.43.43,0,0,0,.12.11A.37.37,0,0,0,1.52,4.37Z"/></g><g id="_16x16_transparent" data-name="16x16 transparent"><rect class="cls-2" width="16" height="16"/></g></g></svg>