<svg xmlns="http://www.w3.org/2000/svg" viewBox="0 0 16 16"><defs><style>.cls-1{fill:#ea7819;}.cls-2{fill:#fff;}.cls-3{fill:none;}</style></defs><g id="Ebene_2" data-name="Ebene 2"><g id="Icons"><g id="g2989"><rect id="rect2989" class="cls-1" width="16" height="16" rx="2.19"/><path id="path3844" class="cls-2" d="M2.53,8.35a5.07,5.07,0,0,1,3.62,1.5,5.15,5.15,0,0,1,1.5,3.64h2.1A7.24,7.24,0,0,0,2.53,6.24V8.35Zm0-3.74a8.87,8.87,0,0,1,8.82,8.88h2.11a11,11,0,0,0-10.93-11ZM5.45,12A1.46,1.46,0,1,1,4,10.56,1.46,1.46,0,0,1,5.45,12Z"/></g></g><g id="_16x16_transparent" data-name="16x16 transparent"><rect class="cls-3" width="16" height="16"/></g></g></svg>