<svg xmlns="http://www.w3.org/2000/svg" viewBox="0 0 20 20"><defs><style>.cls-1{fill:none;}.cls-2{fill:#5381a9;}</style></defs><g id="Ebene_2" data-name="Ebene 2"><g id="Boxen_transparent" data-name="Boxen transparent"><rect class="cls-1" width="20" height="20"/><path class="cls-2" d="M10,1.36a6,6,0,0,0-6,6C4,9,5,11.49,7.17,14.85c.48.76,1.29,2,2.45,3.6a.47.47,0,0,0,.65.11.57.57,0,0,0,.11-.11q1.74-2.47,2.47-3.62Q16,9.81,16,7.39A6,6,0,0,0,10,1.36Zm0,9.78a3.71,3.71,0,1,1,3.71-3.71A3.71,3.71,0,0,1,10,11.14Zm0-6.09a2.32,2.32,0,1,0,2.32,2.32A2.32,2.32,0,0,0,10,5.05Z"/></g></g></svg>