<?xml version="1.0" encoding="utf-8"?>
<!-- Generator: Adobe Illustrator 26.0.1, SVG Export Plug-In . SVG Version: 6.00 Build 0)  -->
<svg version="1.1" id="Ebene_1" xmlns="http://www.w3.org/2000/svg" xmlns:xlink="http://www.w3.org/1999/xlink" x="0px" y="0px"
	 viewBox="0 0 22 22" style="enable-background:new 0 0 22 22;" xml:space="preserve">
<style type="text/css">
	.st0{fill:#5381A9;}
	.st1{fill:none;}
</style>
<path class="st0" d="M1.769,15.231c0-0.004,0.001-0.007,0.001-0.01l-0.001,0V15.231z M18.692,8.692
	c-0.615,0-1.142,0.364-1.388,0.885c-0.103-0.069-0.15-0.116-0.15-0.116c0-0.85-0.689-1.539-1.539-1.539s-1.538,0.689-1.538,1.539
	c0-0.134,0-0.635,0-0.769c0-0.85-0.688-1.539-1.538-1.539C11.688,7.154,11,7.842,11,8.692V2.538C11,1.688,10.312,1,9.462,1
	c-0.85,0-1.538,0.688-1.538,1.538v6.154v0.769v5c-1.963-0.999-2.855-1.154-3.846-1.154c-1.151,0-2.301,0.444-2.307,1.913
	l3.461,1.549l2.428,2.428C8.813,20.352,10.378,21,12.011,21h5.143c1.699,0,3.077-1.378,3.077-3.077v-7.692
	C20.231,9.381,19.542,8.692,18.692,8.692z"/>
<rect class="st1" width="22" height="22"/>
</svg>
