<svg xmlns="http://www.w3.org/2000/svg" viewBox="0 0 22 22"><defs><style>.cls-1{fill:#5381a9;}.cls-2{fill:none;}</style></defs><g id="Ebene_2" data-name="Ebene 2"><g id="Ebene_2-2" data-name="Ebene 2"><path class="cls-1" d="M11,1A10,10,0,1,0,21,11,10,10,0,0,0,11,1ZM6.06,12.65A1.65,1.65,0,1,1,7.71,11,1.65,1.65,0,0,1,6.06,12.65Zm4.94,0A1.65,1.65,0,1,1,12.65,11,1.65,1.65,0,0,1,11,12.65Zm4.94,0A1.65,1.65,0,1,1,17.59,11,1.65,1.65,0,0,1,15.94,12.65Z"/></g><g id="Boxen_transparent" data-name="Boxen transparent"><rect class="cls-2" width="22" height="22"/></g></g></svg>