<svg xmlns="http://www.w3.org/2000/svg" viewBox="0 0 22 22"><defs><style>.cls-1{fill:#5381a9;}.cls-2{fill:none;}</style></defs><g id="Ebene_2" data-name="Ebene 2"><g id="Ebene_2-2" data-name="Ebene 2"><path class="cls-1" d="M17,1H5A2,2,0,0,0,3,3V19a2,2,0,0,0,2,2H17a2,2,0,0,0,2-2V3A2,2,0,0,0,17,1ZM11,15.45A5.44,5.44,0,1,1,16.44,10,5.45,5.45,0,0,1,11,15.45ZM7.53,9.72H9.79v3.94h2.42V9.72h2.26L11,6.26Z"/></g><g id="Boxen_transparent" data-name="Boxen transparent"><rect class="cls-2" width="22" height="22"/></g></g></svg>