<svg xmlns="http://www.w3.org/2000/svg" viewBox="0 0 22 22"><defs><style>.cls-1{fill:#5381a9;}.cls-2{fill:none;}</style></defs><g id="Ebene_2" data-name="Ebene 2"><g id="Ebene_2-2" data-name="Ebene 2"><path class="cls-1" d="M17.3,8.41H7.75A3.14,3.14,0,0,1,12.7,4.62l1,1,1.91-1.91-1-1a5.83,5.83,0,0,0-9.75,5.7H4.7A1.8,1.8,0,0,0,2.9,10.2v9A1.81,1.81,0,0,0,4.7,21H17.3a1.81,1.81,0,0,0,1.8-1.8v-9A1.8,1.8,0,0,0,17.3,8.41ZM11.86,14.8h0v3.5h-1.7V14.8a2.22,2.22,0,1,1,1.72,0Z"/></g><g id="Boxen_transparent" data-name="Boxen transparent"><rect class="cls-2" width="22" height="22"/></g></g></svg>