<svg xmlns="http://www.w3.org/2000/svg" viewBox="0 0 22 22"><defs><style>.cls-1{fill:#5381a9;}.cls-2{fill:none;}</style></defs><g id="Ebene_2" data-name="Ebene 2"><g id="Ebene_2-2" data-name="Ebene 2"><path class="cls-1" d="M7.75,6a1.5,1.5,0,1,0,1.5,1.5A1.5,1.5,0,0,0,7.75,6Zm6.5,7a1.5,1.5,0,1,0,1.5,1.5A1.5,1.5,0,0,0,14.25,13ZM17,1H5A2,2,0,0,0,3,3V19a2,2,0,0,0,2,2H17a2,2,0,0,0,2-2V3A2,2,0,0,0,17,1ZM14.75,5h1v5h-1Zm-3,0h1v5h-1ZM7.25,17h-1V12h1Zm3,0h-1V12h1Zm-2.5-7a2.5,2.5,0,1,1,2.5-2.5A2.51,2.51,0,0,1,7.75,10Zm6.5,7a2.5,2.5,0,1,1,2.5-2.5A2.51,2.51,0,0,1,14.25,17Z"/></g><g id="Boxen_transparent" data-name="Boxen transparent"><rect class="cls-2" width="22" height="22"/></g></g></svg>