<?xml version="1.0" encoding="utf-8"?>
<!-- Generator: Adobe Illustrator 26.0.1, SVG Export Plug-In . SVG Version: 6.00 Build 0)  -->
<svg version="1.1" id="Ebene_1" xmlns="http://www.w3.org/2000/svg" xmlns:xlink="http://www.w3.org/1999/xlink" x="0px" y="0px"
	 viewBox="0 0 22 22" style="enable-background:new 0 0 22 22;" xml:space="preserve">
<style type="text/css">
	.st0{fill:#5281A9;}
	.st1{fill:none;}
</style>
<path class="st0" d="M17.539,2H4.461C3.102,2,2,3.102,2,4.461v13.078C2,18.898,3.102,20,4.461,20h13.078
	C18.898,20,20,18.898,20,17.539V4.461C20,3.102,18.898,2,17.539,2z M14.877,4.896c1,0,1.811,0.811,1.811,1.811
	c0,1-0.811,1.811-1.811,1.811c-1,0-1.811-0.811-1.811-1.811C13.066,5.707,13.876,4.896,14.877,4.896z M4.281,16.86l3.967-9.983
	l3.015,7.418l2.301-3.094l4.284,5.66H4.281z"/>
<rect class="st1" width="22" height="22"/>
</svg>
