<?xml version="1.0" encoding="utf-8"?>
<!-- Generator: Adobe Illustrator 26.0.1, SVG Export Plug-In . SVG Version: 6.00 Build 0)  -->
<svg version="1.1" id="Ebene_1" xmlns="http://www.w3.org/2000/svg" xmlns:xlink="http://www.w3.org/1999/xlink" x="0px" y="0px"
	 viewBox="0 0 22 22" style="enable-background:new 0 0 22 22;" xml:space="preserve">
<style type="text/css">
	.st0{fill:none;}
	.st1{fill:#767777;}
	.st2{fill:#E2BFA1;}
	.st3{fill:#FFFFFF;}
</style>
<rect class="st0" width="22" height="22"/>
<path class="st1" d="M16.596,19.235c0,0-1.257-7.11-0.441-9.235c0.816-2.125,1.125-2.721,0.882-3.426
	C16.794,5.868,13.02,1.721,8.917,5.14S5.831,8.73,4,10c-0.671,0.466-2.537,2.86-3.066,4.206c0,0,4.601,1.274,5.976,2.356
	C10.109,19.076,16.596,19.235,16.596,19.235z"/>
<path d="M16.805,19.416l-0.214-0.005c-0.267-0.006-6.582-0.189-9.789-2.711c-1.333-1.047-5.87-2.312-5.916-2.325L0.7,14.323
	l0.071-0.181C1.309,12.774,3.21,10.335,3.9,9.856c0.767-0.532,1.01-0.854,1.379-1.34c0.497-0.655,1.177-1.553,3.526-3.511
	c1.508-1.258,3.124-1.656,4.8-1.188c2.033,0.569,3.447,2.263,3.596,2.7c0.232,0.675,0.007,1.253-0.595,2.797l-0.29,0.749
	c-0.79,2.055,0.438,9.071,0.45,9.142L16.805,19.416z M1.172,14.092c0.898,0.257,4.604,1.356,5.846,2.332
	c2.793,2.196,8.226,2.572,9.369,2.628c-0.207-1.227-1.149-7.153-0.396-9.114l0.291-0.75c0.584-1.498,0.78-2.003,0.59-2.557
	c-0.12-0.349-1.444-1.94-3.359-2.476c-1.558-0.438-3.067-0.06-4.482,1.119C6.711,7.206,6.044,8.085,5.558,8.728
	C5.183,9.223,4.912,9.581,4.1,10.144C3.485,10.57,1.768,12.769,1.172,14.092z"/>
<path d="M11,7.04c-0.072,0-0.14-0.045-0.165-0.117c-0.032-0.091,0.016-0.191,0.106-0.224c0.185-0.065,0.458-0.242,0.772-0.447
	c0.202-0.131,0.424-0.275,0.664-0.417c0.652-0.387,1.045,0.046,1.212,0.231c0.024,0.027,0.044,0.05,0.062,0.064
	c0.074,0.062,0.084,0.172,0.022,0.247C13.611,6.453,13.5,6.462,13.427,6.4C13.4,6.377,13.368,6.343,13.33,6.301
	c-0.201-0.222-0.398-0.387-0.774-0.165c-0.235,0.14-0.454,0.281-0.651,0.41c-0.348,0.226-0.622,0.404-0.846,0.483
	C11.039,7.036,11.02,7.039,11,7.04z"/>
<path class="st2" d="M17.61,5.713c-0.99-0.077-2.051-0.309-2.36-0.309s-1.015,0.287-0.993,0.816s-0.044,0.794-0.64,1.324
	c-0.596,0.529-1.61,1.346-1.324,2.36c0.287,1.015,0.662,2.051,1.434,2.625c0.772,0.574,0.926,0.904,1.434,0.574
	c0.507-0.331,1.301-1.103,1.346-1.765c0.044-0.662,1.037-1.963,1.588-2.382c0.551-0.419,2.007-1.412,2.471-1.632
	c0.463-0.221,0.684-0.794,0.728-1.368c0.044-0.574-0.176-2.36-1.301-1.5S19.115,5.83,17.61,5.713z"/>
<path d="M14.806,13.408c-0.262,0-0.482-0.179-0.766-0.41c-0.117-0.096-0.252-0.207-0.417-0.328
	c-0.811-0.603-1.199-1.663-1.498-2.718c-0.3-1.062,0.644-1.894,1.269-2.444l0.107-0.095c0.558-0.496,0.601-0.707,0.581-1.185
	c-0.009-0.212,0.073-0.414,0.236-0.584c0.249-0.259,0.669-0.414,0.932-0.414c0.149,0,0.421,0.043,0.797,0.103
	c0.458,0.073,1.028,0.164,1.577,0.207c0.953,0.072,1.112-0.097,1.497-0.511c0.18-0.194,0.405-0.436,0.765-0.711
	c0.36-0.275,0.681-0.338,0.959-0.188c0.55,0.299,0.658,1.389,0.623,1.841c-0.056,0.737-0.358,1.289-0.827,1.512
	c-0.43,0.204-1.856,1.169-2.44,1.613c-0.53,0.402-1.481,1.668-1.52,2.255c-0.049,0.738-0.9,1.557-1.425,1.899
	C15.086,13.361,14.94,13.408,14.806,13.408z M15.25,5.579c-0.161,0-0.487,0.107-0.679,0.307c-0.097,0.101-0.144,0.211-0.139,0.327
	c0.025,0.599-0.077,0.909-0.698,1.461l-0.108,0.096c-0.592,0.522-1.403,1.237-1.163,2.086c0.282,0.996,0.643,1.992,1.37,2.532
	c0.169,0.125,0.309,0.24,0.429,0.338c0.442,0.361,0.524,0.413,0.804,0.23c0.488-0.319,1.229-1.057,1.267-1.63
	c0.051-0.761,1.12-2.102,1.657-2.51c0.547-0.416,2.019-1.421,2.501-1.651C20.838,7,21.073,6.543,21.12,5.943
	c0.033-0.424-0.09-1.315-0.442-1.506c-0.144-0.08-0.339-0.025-0.579,0.159c-0.337,0.257-0.55,0.487-0.722,0.671
	c-0.445,0.478-0.703,0.706-1.781,0.621l0,0c-0.563-0.043-1.141-0.136-1.605-0.209C15.659,5.625,15.371,5.579,15.25,5.579z"/>
<path d="M19.796,6.788c-0.081,0-0.16-0.039-0.208-0.111c-0.077-0.115-0.045-0.27,0.069-0.347c0.338-0.225,0.46-0.524,0.396-0.969
	c-0.02-0.137,0.075-0.263,0.212-0.283c0.134-0.018,0.263,0.075,0.283,0.212c0.091,0.634-0.115,1.124-0.614,1.456
	C19.892,6.774,19.844,6.788,19.796,6.788z"/>
<path d="M11.806,8.1c0.093-0.269,0.329-0.808,0.464-0.389c0.135,0.42,0.36,1.026,0.757,1.345c0.396,0.319,1.974,0.971,2.619,0.645
	c0.645-0.326,0.964-0.365,0.995-0.28c0.031,0.085,0.047,0.171-0.093,0.381s-0.945,1.862-1.147,2.088
	c-0.202,0.225-0.747,0.816-1.182-0.241c-0.435-1.057-0.197-1.21-0.826-1.738C12.762,9.382,12.373,9.507,12,9.188
	S11.706,8.388,11.806,8.1z"/>
<path class="st3" d="M14.239,10.292c0.466,0.023,1.718-0.078,1.85-0.194c0,0-0.583,1.119-0.676,1.127c-0.093,0.008-0.738,0-0.863,0
	s-0.155,0-0.218-0.288C14.27,10.649,14.239,10.292,14.239,10.292z"/>
</svg>
