<svg xmlns="http://www.w3.org/2000/svg" viewBox="0 0 32 32"><defs><style>.cls-1{fill:#ea7819;}.cls-2{fill:#fff;}.cls-3{fill:none;}</style></defs><g id="Ebene_2" data-name="Ebene 2"><g id="Ebene_2-2" data-name="Ebene 2"><g id="g2989"><rect id="rect2989" class="cls-1" width="32" height="32" rx="4.38"/><path id="path3844" class="cls-2" d="M5.07,16.69a10.14,10.14,0,0,1,7.23,3,10.24,10.24,0,0,1,3,7.28H19.5A14.48,14.48,0,0,0,5.07,12.48v4.21Zm0-7.46A17.72,17.72,0,0,1,22.73,27h4.21A21.94,21.94,0,0,0,5.07,5ZM10.89,24A2.92,2.92,0,1,1,8,21.12,2.91,2.91,0,0,1,10.89,24Z"/></g><rect class="cls-3" width="32" height="32"/></g><g id="_32x32_transparent" data-name="32x32 transparent"><rect class="cls-3" width="32" height="32"/></g></g></svg>