<svg xmlns="http://www.w3.org/2000/svg" viewBox="0 0 32 32"><defs><style>.cls-1{fill:#5381a9;}.cls-2{fill:none;}</style></defs><g id="Ebene_2" data-name="Ebene 2"><g id="Ebene_2-2" data-name="Ebene 2"><path class="cls-1" d="M27.81,8.26h-2.6V4.49H21.84V8.26H10.16V4.49H6.79V8.26H4.19A2.2,2.2,0,0,0,2,10.45V25.33a2.19,2.19,0,0,0,2.19,2.18H27.81A2.19,2.19,0,0,0,30,25.33V10.45A2.2,2.2,0,0,0,27.81,8.26ZM11.88,15a2.35,2.35,0,1,1-2.35-2.35A2.36,2.36,0,0,1,11.88,15Zm2,7.3H5.16a4.58,4.58,0,0,1-.08-.83,4.71,4.71,0,0,1,2.4-4.14,3.09,3.09,0,0,0,2,.77,3.05,3.05,0,0,0,2.05-.78A4.7,4.7,0,0,1,14,21.5,4.57,4.57,0,0,1,13.92,22.33Zm12.8-2.64H16.22v-1.5h10.5Zm.06-3.1H16.28v-1.5h10.5Z"/></g><g id="Boxen_transparent" data-name="Boxen transparent"><rect class="cls-2" width="32" height="32"/></g></g></svg>