<?xml version="1.0" encoding="utf-8"?>
<!-- Generator: Adobe Illustrator 26.0.1, SVG Export Plug-In . SVG Version: 6.00 Build 0)  -->
<svg version="1.1" id="Ebene_1" xmlns="http://www.w3.org/2000/svg" xmlns:xlink="http://www.w3.org/1999/xlink" x="0px" y="0px"
	 viewBox="0 0 32 32" style="enable-background:new 0 0 32 32;" xml:space="preserve">
<style type="text/css">
	.st0{fill:none;}
	.st1{fill:#767777;}
	.st2{fill:#E2BFA1;}
	.st3{fill:#FFFFFF;}
</style>
<rect class="st0" width="32" height="32"/>
<path class="st1" d="M24.139,27.979c0,0-1.829-10.342-0.642-13.433s1.636-3.957,1.283-4.984s-5.842-7.059-11.81-2.086
	s-4.489,5.222-7.152,7.07c-0.977,0.677-3.69,4.16-4.46,6.118c0,0,6.692,1.854,8.693,3.427
	C14.704,27.747,24.139,27.979,24.139,27.979z"/>
<path d="M24.444,28.241l-0.311-0.008c-0.388-0.009-9.573-0.276-14.239-3.943c-1.938-1.523-8.538-3.363-8.604-3.381l-0.272-0.075
	l0.104-0.263c0.783-1.99,3.548-5.538,4.552-6.234c1.115-0.773,1.469-1.241,2.006-1.95c0.722-0.953,1.712-2.259,5.129-5.107
	c2.194-1.83,4.543-2.409,6.982-1.728c2.957,0.827,5.013,3.292,5.231,3.927c0.338,0.982,0.011,1.822-0.865,4.069l-0.421,1.089
	c-1.148,2.989,0.636,13.195,0.655,13.298L24.444,28.241z M1.705,20.497c1.307,0.374,6.697,1.972,8.504,3.392
	c4.062,3.194,11.965,3.741,13.627,3.822c-0.301-1.784-1.671-10.404-0.576-13.257l0.423-1.091c0.849-2.179,1.135-2.913,0.858-3.719
	c-0.174-0.507-2.1-2.822-4.886-3.602c-2.266-0.638-4.462-0.087-6.52,1.628c-3.372,2.81-4.342,4.089-5.049,5.023
	c-0.545,0.72-0.94,1.241-2.121,2.06C5.07,15.375,2.571,18.572,1.705,20.497z"/>
<path d="M16,10.239c-0.104,0-0.203-0.065-0.24-0.17c-0.047-0.133,0.023-0.278,0.155-0.325c0.269-0.095,0.665-0.352,1.124-0.65
	c0.293-0.19,0.617-0.401,0.965-0.607c0.949-0.563,1.521,0.067,1.763,0.337c0.035,0.039,0.064,0.072,0.089,0.094
	c0.108,0.09,0.122,0.251,0.032,0.359c-0.09,0.109-0.251,0.122-0.359,0.032c-0.039-0.033-0.086-0.083-0.141-0.143
	c-0.292-0.322-0.58-0.563-1.126-0.24c-0.342,0.203-0.66,0.409-0.947,0.596c-0.506,0.328-0.905,0.587-1.231,0.703
	C16.057,10.234,16.028,10.239,16,10.239z"/>
<path class="st2" d="M25.615,8.31c-1.44-0.111-2.984-0.449-3.433-0.449s-1.476,0.417-1.444,1.187c0.032,0.77-0.064,1.155-0.93,1.925
	c-0.866,0.77-2.342,1.957-1.925,3.433s0.963,2.984,2.086,3.818c1.123,0.834,1.348,1.316,2.086,0.834
	c0.738-0.481,1.893-1.604,1.957-2.567c0.064-0.963,1.508-2.856,2.31-3.465s2.92-2.053,3.594-2.374
	c0.674-0.321,0.995-1.155,1.059-1.989c0.064-0.834-0.257-3.433-1.893-2.182S27.803,8.48,25.615,8.31z"/>
<path d="M21.536,19.503c-0.381,0-0.701-0.261-1.114-0.597c-0.17-0.139-0.367-0.3-0.606-0.477c-1.18-0.876-1.744-2.418-2.179-3.953
	c-0.436-1.545,0.937-2.754,1.845-3.555l0.156-0.138c0.812-0.721,0.874-1.028,0.845-1.724c-0.013-0.308,0.106-0.602,0.343-0.85
	c0.362-0.377,0.974-0.602,1.355-0.602c0.217,0,0.612,0.062,1.159,0.15c0.666,0.107,1.495,0.239,2.294,0.3
	c1.386,0.104,1.618-0.141,2.178-0.743c0.262-0.282,0.589-0.634,1.113-1.035c0.523-0.401,0.99-0.491,1.395-0.273
	c0.8,0.435,0.957,2.021,0.906,2.678c-0.082,1.072-0.521,1.874-1.202,2.2c-0.626,0.297-2.7,1.7-3.549,2.347
	c-0.771,0.585-2.154,2.427-2.21,3.28c-0.072,1.074-1.309,2.265-2.072,2.763C21.943,19.435,21.732,19.503,21.536,19.503z
	 M22.182,8.115c-0.234,0-0.708,0.156-0.988,0.447c-0.141,0.147-0.209,0.307-0.202,0.476c0.036,0.871-0.112,1.322-1.016,2.126
	l-0.158,0.139c-0.862,0.759-2.041,1.799-1.692,3.035c0.41,1.448,0.935,2.897,1.993,3.683c0.246,0.183,0.449,0.349,0.624,0.491
	c0.643,0.525,0.763,0.601,1.17,0.335c0.71-0.464,1.787-1.538,1.842-2.371c0.074-1.107,1.629-3.058,2.411-3.651
	c0.795-0.605,2.936-2.067,3.638-2.402c0.505-0.241,0.847-0.906,0.914-1.778c0.048-0.617-0.131-1.913-0.643-2.191
	c-0.209-0.116-0.494-0.036-0.842,0.231c-0.49,0.374-0.8,0.708-1.05,0.977c-0.647,0.695-1.023,1.026-2.59,0.903l0,0
	c-0.82-0.063-1.659-0.197-2.335-0.305C22.776,8.182,22.358,8.115,22.182,8.115z"/>
<path d="M28.794,9.873c-0.117,0-0.232-0.057-0.303-0.162c-0.112-0.167-0.066-0.393,0.101-0.504c0.491-0.327,0.67-0.762,0.576-1.409
	c-0.028-0.199,0.109-0.383,0.308-0.412c0.195-0.026,0.383,0.109,0.412,0.308c0.133,0.922-0.168,1.635-0.893,2.118
	C28.934,9.853,28.864,9.873,28.794,9.873z"/>
<path d="M17.172,11.782c0.136-0.392,0.478-1.176,0.674-0.565c0.196,0.61,0.524,1.492,1.101,1.956s2.871,1.413,3.81,0.938
	c0.938-0.475,1.402-0.531,1.447-0.407s0.068,0.249-0.136,0.554c-0.203,0.305-1.375,2.709-1.669,3.036s-1.086,1.188-1.719-0.35
	c-0.633-1.537-0.286-1.76-1.202-2.528c-0.916-0.769-1.481-0.588-2.024-1.051C16.912,12.901,17.028,12.2,17.172,11.782z"/>
<path class="st3" d="M20.711,14.969c0.678,0.034,2.498-0.113,2.691-0.283c0,0-0.848,1.628-0.984,1.639s-1.074,0-1.255,0
	s-0.226,0-0.317-0.418C20.756,15.489,20.711,14.969,20.711,14.969z"/>
</svg>
