<svg xmlns="http://www.w3.org/2000/svg" viewBox="0 0 16 16"><defs><style>.cls-1{fill:#a261d0;}.cls-2{fill:#fff;}</style></defs><g id="Ebene_2" data-name="Ebene 2"><g id="aktiv"><rect class="cls-1" width="16" height="16" rx="3"/></g><g id="Icons"><path class="cls-2" d="M13,6.79a4.91,4.91,0,1,0-5.52,4.86v1.27H5.6v1.23h4.9V12.92H8.66V11.65A4.91,4.91,0,0,0,13,6.79ZM8.05,9.24A2.45,2.45,0,1,1,10.5,6.79,2.45,2.45,0,0,1,8.05,9.24Zm0-3.68A1.23,1.23,0,1,0,9.28,6.79,1.23,1.23,0,0,0,8.05,5.56Z"/><g id="Layer_2" data-name="Layer 2"><path class="cls-2" d="M7.44,11.65v1.27H5.6v1.23h4.9V12.92H8.66V11.65a4.91,4.91,0,1,0-1.22,0Zm.61-7.31A2.45,2.45,0,1,1,5.6,6.79,2.45,2.45,0,0,1,8.05,4.34Z"/><circle class="cls-2" cx="8.05" cy="6.79" r="1.23"/></g></g></g></svg>