<?xml version="1.0" encoding="utf-8"?>
<!-- Generator: Adobe Illustrator 26.0.1, SVG Export Plug-In . SVG Version: 6.00 Build 0)  -->
<svg version="1.1" id="Ebene_1" xmlns="http://www.w3.org/2000/svg" xmlns:xlink="http://www.w3.org/1999/xlink" x="0px" y="0px"
	 viewBox="0 0 16 16" style="enable-background:new 0 0 16 16;" xml:space="preserve">
<style type="text/css">
	.st0{fill:#92A525;}
	.st1{fill:#FFFFFF;}
</style>
<g>
	<path class="st0" d="M13,16H3c-1.65,0-3-1.35-3-3V3c0-1.65,1.35-3,3-3h10c1.65,0,3,1.35,3,3v10C16,14.65,14.65,16,13,16z"/>
</g>
<path class="st1" d="M13.603,7.03l-1.029-2.94c-0.28-0.801-1.039-1.339-1.888-1.339H5.314c-0.849,0-1.608,0.539-1.888,1.339
	l-1.029,2.94C1.848,7.391,1.5,8.015,1.5,8.702v3.548c0,0.552,0.447,1,1,1s1-0.448,1-1v-0.63c0,0,2.641,0.13,4.5,0.13
	s4.5-0.13,4.5-0.13v0.63c0,0.552,0.448,1,1,1s1-0.448,1-1V8.702C14.5,8.015,14.151,7.391,13.603,7.03z M3.797,6.056L4.37,4.419
	C4.511,4.018,4.89,3.75,5.314,3.75h5.371c0.425,0,0.804,0.268,0.944,0.669l0.573,1.637c0.09,0.258-0.125,0.517-0.394,0.473
	C10.828,6.372,9.568,6.25,8,6.25S5.172,6.372,4.191,6.53C3.922,6.574,3.707,6.314,3.797,6.056z M3.75,9.75C3.336,9.75,3,9.414,3,9
	s0.336-0.75,0.75-0.75S4.5,8.586,4.5,9C4.5,9.414,4.164,9.75,3.75,9.75z M9.5,9.25h-3C6.224,9.25,6,9.026,6,8.75s0.224-0.5,0.5-0.5
	h3c0.276,0,0.5,0.224,0.5,0.5S9.776,9.25,9.5,9.25z M12.25,9.75c-0.414,0-0.75-0.336-0.75-0.75s0.336-0.75,0.75-0.75S13,8.586,13,9
	C13,9.414,12.664,9.75,12.25,9.75z"/>
</svg>
