<?xml version="1.0" encoding="utf-8"?>
<!-- Generator: Adobe Illustrator 26.0.1, SVG Export Plug-In . SVG Version: 6.00 Build 0)  -->
<svg version="1.1" id="Ebene_1" xmlns="http://www.w3.org/2000/svg" xmlns:xlink="http://www.w3.org/1999/xlink" x="0px" y="0px"
	 viewBox="0 0 22 22" style="enable-background:new 0 0 22 22;" xml:space="preserve">
<style type="text/css">
	.st0{fill:#14C4DF;}
	.st1{fill:#FFFFFF;}
</style>
<g>
	<g>
		<path class="st0" d="M17.875,22H4.125C1.856,22,0,20.144,0,17.875V4.125C0,1.856,1.856,0,4.125,0h13.75
			C20.144,0,22,1.856,22,4.125v13.75C22,20.144,20.144,22,17.875,22z"/>
	</g>
	<path class="st1" d="M2.667,9.927c0,3.169,2.578,5.835,6.095,6.663l3.606,4.13l-0.146-3.933c4.089-0.466,7.241-3.356,7.241-6.86
		c0-3.829-3.76-6.933-8.398-6.933S2.667,6.098,2.667,9.927z M9.795,9.061c0,0.38-0.307,0.688-0.688,0.688S8.42,9.441,8.42,9.061
		V7.255c0-0.38,0.307-0.688,0.688-0.688s0.688,0.308,0.688,0.688V9.061z M13.939,9.061c0,0.38-0.307,0.688-0.688,0.688
		s-0.688-0.308-0.688-0.688V7.255c0-0.38,0.307-0.688,0.688-0.688s0.688,0.308,0.688,0.688V9.061z M7.735,11.236
		c0.347-0.153,0.753,0.006,0.905,0.354c0.344,0.786,1.16,1.184,2.426,1.184c1.266,0,2.081-0.398,2.424-1.183
		c0.151-0.348,0.556-0.507,0.905-0.355c0.348,0.152,0.508,0.557,0.356,0.905c-0.399,0.917-1.364,2.009-3.685,2.009
		c-2.32,0-3.285-1.092-3.685-2.008C7.228,11.793,7.387,11.388,7.735,11.236z"/>
</g>
</svg>
