<?xml version="1.0" encoding="utf-8"?>
<!-- Generator: Adobe Illustrator 26.0.0, SVG Export Plug-In . SVG Version: 6.00 Build 0)  -->
<svg version="1.1" id="Ebene_1" xmlns="http://www.w3.org/2000/svg" xmlns:xlink="http://www.w3.org/1999/xlink" x="0px" y="0px"
	 viewBox="0 0 22 22" style="enable-background:new 0 0 22 22;" xml:space="preserve">
<style type="text/css">
	.st0{fill:#469B37;}
	.st1{fill:#FFFFFF;}
	.st2{fill:none;}
</style>
<g id="Ebene_2_00000007430253776584253820000009354301412739778437_">
	<g id="Icons">
		<path class="st0" d="M4.8,1h12.5C19.3,1,21,2.7,21,4.8v12.5c0,2.1-1.7,3.8-3.8,3.8H4.8C2.7,21,1,19.3,1,17.2V4.8
			C1,2.7,2.7,1,4.8,1z"/>
		<path class="st1" d="M19.1,8.8v0.6H2.9V8.8c0-1,0.8-1.9,1.9-1.9h12.5C18.3,6.9,19.1,7.7,19.1,8.8z"/>
		<path class="st1" d="M18.1,10.3v3.6c0,1-0.8,1.9-1.9,1.9l0,0H5.8c-1,0-1.9-0.8-1.9-1.9v-3.6H18.1z"/>
		<rect class="st2" width="22" height="22"/>
	</g>
</g>
</svg>
