<svg xmlns="http://www.w3.org/2000/svg" xmlns:xlink="http://www.w3.org/1999/xlink" viewBox="0 0 16 16"><defs><style>.cls-1{fill:#fff;}.cls-2{fill:url(#Unbenannter_Verlauf_2);}.cls-3{fill:url(#Unbenannter_Verlauf_2-2);}.cls-4{fill:#654c9f;}.cls-5{fill:none;}</style><radialGradient id="Unbenannter_Verlauf_2" cx="7.79" cy="-58.65" r="23.13" gradientTransform="matrix(1, -0.05, -0.04, -0.85, -10.1, -34.85)" gradientUnits="userSpaceOnUse"><stop offset="0" stop-color="#fed576"/><stop offset="0.26" stop-color="#f47133"/><stop offset="0.61" stop-color="#bc3081"/><stop offset="1" stop-color="#4c63d2"/></radialGradient><radialGradient id="Unbenannter_Verlauf_2-2" cx="-10.86" cy="-278.2" r="11.88" gradientTransform="matrix(1, -0.05, -0.04, -0.85, 2.51, -225.39)" xlink:href="#Unbenannter_Verlauf_2"/></defs><g id="Ebene_2" data-name="Ebene 2"><g id="Icons"><rect class="cls-1" x="1.02" y="1.02" width="13.97" height="13.97" rx="2.81"/><g id="Symbol"><path class="cls-2" d="M2.76.42A4,4,0,0,0,.42,2.76,5.85,5.85,0,0,0,.05,4.7C0,5.55,0,5.83,0,8s0,2.44.05,3.3a5.85,5.85,0,0,0,.37,1.94,4,4,0,0,0,2.34,2.34A5.85,5.85,0,0,0,4.7,16C5.55,16,5.83,16,8,16s2.45,0,3.3-.05a5.85,5.85,0,0,0,1.94-.37,4,4,0,0,0,2.34-2.34A5.85,5.85,0,0,0,16,11.3c0-.86.05-1.13.05-3.3S16,5.55,16,4.7a5.85,5.85,0,0,0-.37-1.94A4,4,0,0,0,13.24.42,5.85,5.85,0,0,0,11.3.05C10.45,0,10.18,0,8,0S5.56,0,4.71.05A5.62,5.62,0,0,0,2.76.42Zm8.47,1.07a4.33,4.33,0,0,1,1.49.27,2.67,2.67,0,0,1,1.52,1.52,4.33,4.33,0,0,1,.27,1.49c0,.84.05,1.09.05,3.23s0,2.39-.05,3.23a4.28,4.28,0,0,1-.27,1.49,2.49,2.49,0,0,1-.6.92,2.57,2.57,0,0,1-.92.6,4.52,4.52,0,0,1-1.49.28c-.84,0-1.09,0-3.23,0s-2.39,0-3.23,0a4.52,4.52,0,0,1-1.49-.28,2.57,2.57,0,0,1-.92-.6,2.49,2.49,0,0,1-.6-.92,4.28,4.28,0,0,1-.27-1.49c0-.84-.05-1.09-.05-3.23s0-2.39.05-3.23a4.33,4.33,0,0,1,.27-1.49A2.67,2.67,0,0,1,3.28,1.76a4.33,4.33,0,0,1,1.49-.27c.84,0,1.09-.05,3.23-.05S10.39,1.45,11.23,1.49Z"/><path class="cls-3" d="M3.89,8A4.11,4.11,0,1,0,8,3.89,4.11,4.11,0,0,0,3.89,8Zm6.78,0A2.67,2.67,0,1,1,8,5.33,2.67,2.67,0,0,1,10.67,8Z"/><circle class="cls-4" cx="12.27" cy="3.73" r="0.96"/></g></g><g id="_16x16_transparent" data-name="16x16 transparent"><rect class="cls-5" width="16" height="16"/></g></g></svg>