<?xml version="1.0" encoding="utf-8"?>
<!-- Generator: Adobe Illustrator 26.0.1, SVG Export Plug-In . SVG Version: 6.00 Build 0)  -->
<svg version="1.1" id="Ebene_1" xmlns="http://www.w3.org/2000/svg" xmlns:xlink="http://www.w3.org/1999/xlink" x="0px" y="0px"
	 viewBox="0 0 16 16" style="enable-background:new 0 0 16 16;" xml:space="preserve">
<style type="text/css">
	.st0{fill:#1DA1F2;}
	.st1{fill:#FFFFFF;}
	.st2{fill:none;}
</style>
<path id="rect2989_00000155843485082902468690000011963171830472521870_" class="st0" d="M13.812,16H2.187
	C0.979,16,0,15.021,0,13.812V2.188C0,0.979,0.979,0,2.187,0h11.625C15.021,0,16,0.979,16,2.188v11.625
	C16,15.021,15.021,16,13.812,16z"/>
<path id="path3611" class="st1" d="M6.02,12.637c4.151,0,6.421-3.38,6.421-6.311c0-0.096-0.002-0.192-0.006-0.287
	c0.441-0.313,0.824-0.704,1.126-1.149c-0.404,0.177-0.84,0.296-1.296,0.349c0.466-0.275,0.824-0.709,0.992-1.227
	c-0.436,0.254-0.919,0.439-1.433,0.538c-0.412-0.431-0.998-0.701-1.647-0.701c-1.246,0-2.257,0.993-2.257,2.218
	c0,0.174,0.02,0.343,0.059,0.506C6.103,6.482,4.44,5.599,3.327,4.257C3.133,4.585,3.021,4.966,3.021,5.372
	c0,0.77,0.398,1.449,1.004,1.846c-0.37-0.011-0.718-0.111-1.022-0.277c0,0.009,0,0.018,0,0.028c0,1.074,0.778,1.971,1.811,2.174
	c-0.19,0.051-0.389,0.078-0.595,0.078c-0.145,0-0.287-0.014-0.424-0.04c0.287,0.881,1.12,1.523,2.108,1.541
	c-0.772,0.595-1.745,0.949-2.803,0.949c-0.182,0-0.362-0.01-0.538-0.031C3.56,12.27,4.746,12.637,6.02,12.637"/>
<rect class="st2" width="16" height="16"/>
</svg>
