<svg xmlns="http://www.w3.org/2000/svg" viewBox="0 0 16 16"><defs><style>.cls-1{fill:#221e1b;fill-rule:evenodd;}.cls-2{fill:none;}</style></defs><g id="Ebene_2" data-name="Ebene 2"><g id="Icons"><path class="cls-1" d="M8,.2A8,8,0,0,0,5.47,15.79c.4.07.55-.17.55-.39S6,14.71,6,14C3.78,14.53,3.31,13,3.31,13a2.12,2.12,0,0,0-.89-1.17c-.72-.5.06-.49.06-.49a1.68,1.68,0,0,1,1.22.83A1.7,1.7,0,0,0,6,12.8a1.71,1.71,0,0,1,.51-1.07c-1.78-.2-3.64-.89-3.64-3.95a3.11,3.11,0,0,1,.82-2.15A2.85,2.85,0,0,1,3.8,3.52s.67-.22,2.2.82a7.54,7.54,0,0,1,4,0c1.53-1,2.2-.82,2.2-.82a2.85,2.85,0,0,1,.08,2.11,3.11,3.11,0,0,1,.82,2.15c0,3.07-1.87,3.75-3.65,4A1.88,1.88,0,0,1,10,13.21c0,1.07,0,1.93,0,2.19s.15.47.55.39A8,8,0,0,0,8,.2Z"/></g><g id="_16x16_transparent" data-name="16x16 transparent"><rect class="cls-2" width="16" height="16"/></g></g></svg>