<?xml version="1.0" encoding="utf-8"?>
<!-- Generator: Adobe Illustrator 26.0.1, SVG Export Plug-In . SVG Version: 6.00 Build 0)  -->
<svg version="1.1" id="Ebene_1" xmlns="http://www.w3.org/2000/svg" xmlns:xlink="http://www.w3.org/1999/xlink" x="0px" y="0px"
	 viewBox="0 0 16 16" style="enable-background:new 0 0 16 16;" xml:space="preserve">
<style type="text/css">
	.st0{fill-rule:evenodd;clip-rule:evenodd;fill:#FFFFFF;}
	.st1{fill-rule:evenodd;clip-rule:evenodd;fill:#1777F2;}
	.st2{fill:none;}
</style>
<polygon class="st0" points="13.635,1 11,1 6,1 3,1 3,16 13.635,16 "/>
<path class="st1" d="M13.812,0H2.188C0.979,0,0,0.979,0,2.188v11.625C0,15.021,0.979,16,2.188,16h5.739V9.971H5.659V7.389h2.268
	V5.422c0-2.239,1.333-3.475,3.374-3.475c0.977,0,1.999,0.174,1.999,0.174v2.198h-1.126c-1.11,0-1.456,0.689-1.456,1.395v1.676h2.477
	l-0.396,2.582h-2.081V16h3.094C15.021,16,16,15.021,16,13.812V2.188C16,0.979,15.021,0,13.812,0z"/>
<rect class="st2" width="16" height="16"/>
</svg>
