<svg xmlns="http://www.w3.org/2000/svg" viewBox="0 0 16 16"><defs><style>.cls-1{fill:#36c5f0;}.cls-1,.cls-2,.cls-3,.cls-4{fill-rule:evenodd;}.cls-2{fill:#2eb67d;}.cls-3{fill:#ecb22e;}.cls-4{fill:#e01e5a;}.cls-5{fill:none;}</style></defs><g id="Ebene_2" data-name="Ebene 2"><g id="Icons"><path class="cls-1" d="M5.87,0a1.6,1.6,0,0,0,0,3.2h1.6V1.6A1.6,1.6,0,0,0,5.87,0h0m0,4.27H1.6a1.6,1.6,0,0,0,0,3.2H5.87a1.6,1.6,0,0,0,0-3.2Z"/><path class="cls-2" d="M16,5.87a1.6,1.6,0,1,0-3.2,0v1.6h1.6A1.6,1.6,0,0,0,16,5.87Zm-4.27,0V1.6a1.6,1.6,0,0,0-3.2,0V5.87a1.6,1.6,0,0,0,3.2,0Z"/><path class="cls-3" d="M10.13,16a1.6,1.6,0,0,0,0-3.2H8.53v1.6A1.6,1.6,0,0,0,10.13,16Zm0-4.27H14.4a1.6,1.6,0,0,0,0-3.2H10.13a1.6,1.6,0,0,0,0,3.2Z"/><path class="cls-4" d="M0,10.13a1.6,1.6,0,0,0,3.2,0V8.53H1.6A1.6,1.6,0,0,0,0,10.13Zm4.27,0V14.4a1.6,1.6,0,1,0,3.2,0V10.13a1.6,1.6,0,0,0-3.2,0h0"/></g><g id="_16x16_transparent" data-name="16x16 transparent"><rect class="cls-5" width="16" height="16"/></g></g></svg>