<svg xmlns="http://www.w3.org/2000/svg" viewBox="0 0 22 22"><defs><style>.cls-1{fill:#ea7819;}.cls-2{fill:#fff;}.cls-3{fill:none;}</style></defs><g id="Ebene_2" data-name="Ebene 2"><g id="_16x16_transparent" data-name="16x16 transparent"><rect id="rect2989" class="cls-1" width="22" height="22" rx="3.01"/><path id="path3844" class="cls-2" d="M3.48,11.47a7,7,0,0,1,5,2.07,7,7,0,0,1,2.06,5h2.9a10,10,0,0,0-9.93-10v2.89Zm0-5.13A12.19,12.19,0,0,1,15.63,18.55h2.89a15.08,15.08,0,0,0-15-15.1Zm4,10.19a2,2,0,1,1-2-2,2,2,0,0,1,2,2Z"/><rect class="cls-3" width="22" height="22"/></g></g></svg>