<?xml version="1.0" encoding="utf-8"?>
<!-- Generator: Adobe Illustrator 26.0.1, SVG Export Plug-In . SVG Version: 6.00 Build 0)  -->
<svg version="1.1" id="Ebene_1" xmlns="http://www.w3.org/2000/svg" xmlns:xlink="http://www.w3.org/1999/xlink" x="0px" y="0px"
	 viewBox="0 0 32 32" style="enable-background:new 0 0 32 32;" xml:space="preserve">
<style type="text/css">
	.st0{fill-rule:evenodd;clip-rule:evenodd;fill:#FFFFFF;}
	.st1{fill-rule:evenodd;clip-rule:evenodd;fill:#1777F2;}
	.st2{fill:none;}
</style>
<g>
	<polygon class="st0" points="30,2 22,2 12,2 6,2 6,32 22,32 22,22 30,22 	"/>
	<path class="st1" d="M28.09,0C30.248,0,32,1.752,32,3.91V28.09c0,2.158-1.752,3.91-3.91,3.91h-6.654V19.943h4.163l0.792-5.164
		h-4.955v-3.351c0-1.413,0.692-2.79,2.911-2.79H26.6V4.242c0,0-2.044-0.349-3.999-0.349c-4.08,0-6.747,2.473-6.747,6.95v3.936
		h-4.536v5.164h4.536V32H3.91C1.752,32,0,30.248,0,28.09V3.91C0,1.752,1.752,0,3.91,0L28.09,0L28.09,0z"/>
</g>
<rect class="st2" width="32" height="32"/>
</svg>
