<svg xmlns="http://www.w3.org/2000/svg" xmlns:xlink="http://www.w3.org/1999/xlink" viewBox="0 0 32 32"><defs><style>.cls-1{fill:#fff;}.cls-2{fill:url(#Unbenannter_Verlauf_2);}.cls-3{fill:url(#Unbenannter_Verlauf_2-2);}.cls-4{fill:#654c9f;}.cls-5{fill:none;}</style><radialGradient id="Unbenannter_Verlauf_2" cx="1.48" cy="-317.66" r="46.27" gradientTransform="matrix(1, -0.05, -0.04, -0.85, -15.03, -240.53)" gradientUnits="userSpaceOnUse"><stop offset="0" stop-color="#fed576"/><stop offset="0.26" stop-color="#f47133"/><stop offset="0.61" stop-color="#bc3081"/><stop offset="1" stop-color="#4c63d2"/></radialGradient><radialGradient id="Unbenannter_Verlauf_2-2" cx="-13.26" cy="-533.7" r="23.76" gradientTransform="matrix(1, -0.05, -0.04, -0.85, -2.42, -431.08)" xlink:href="#Unbenannter_Verlauf_2"/></defs><g id="Ebene_2" data-name="Ebene 2"><g id="_16x16_transparent" data-name="16x16 transparent"><rect class="cls-1" x="2.03" y="2.03" width="27.93" height="27.93" rx="5.63"/><g id="Symbol"><path class="cls-2" d="M5.52.84A7.87,7.87,0,0,0,2.69,2.69,7.79,7.79,0,0,0,.84,5.52,11.65,11.65,0,0,0,.1,9.4C0,11.1,0,11.65,0,16s0,4.89.1,6.59a12,12,0,0,0,.74,3.89,7.87,7.87,0,0,0,1.85,2.83,7.87,7.87,0,0,0,2.83,1.85,11.7,11.7,0,0,0,3.88.74c1.71.08,2.26.1,6.6.1s4.89,0,6.6-.1a12,12,0,0,0,3.88-.74,8.25,8.25,0,0,0,4.68-4.68,11.71,11.71,0,0,0,.74-3.89c.08-1.7.1-2.25.1-6.59s0-4.9-.1-6.6a11.91,11.91,0,0,0-.74-3.88,7.89,7.89,0,0,0-1.84-2.83A7.82,7.82,0,0,0,26.48.84,11.59,11.59,0,0,0,22.6.1C20.9,0,20.35,0,16,0s-4.89,0-6.6.1A11.46,11.46,0,0,0,5.52.84ZM22.47,3a8.52,8.52,0,0,1,3,.56,4.91,4.91,0,0,1,1.84,1.19,5,5,0,0,1,1.19,1.84,8.59,8.59,0,0,1,.56,3c.08,1.68.09,2.19.09,6.46s0,4.78-.09,6.47a8.46,8.46,0,0,1-.56,3,5.28,5.28,0,0,1-3,3,8.84,8.84,0,0,1-3,.55c-1.69.08-2.2.09-6.47.09s-4.78,0-6.47-.09a8.84,8.84,0,0,1-3-.55,4.94,4.94,0,0,1-1.84-1.2,4.91,4.91,0,0,1-1.19-1.84,8.46,8.46,0,0,1-.56-3c-.08-1.69-.09-2.19-.09-6.47s0-4.78.09-6.46a8.59,8.59,0,0,1,.56-3A5,5,0,0,1,4.72,4.72,4.91,4.91,0,0,1,6.56,3.53a8.52,8.52,0,0,1,3-.56c1.69-.08,2.2-.09,6.47-.09S20.78,2.89,22.47,3Z"/><path class="cls-3" d="M7.79,16A8.21,8.21,0,1,0,16,7.79,8.22,8.22,0,0,0,7.79,16Zm13.54,0A5.33,5.33,0,1,1,16,10.67,5.33,5.33,0,0,1,21.33,16Z"/><circle class="cls-4" cx="24.55" cy="7.46" r="1.92"/></g><rect class="cls-5" width="32" height="32"/></g></g></svg>