<svg xmlns="http://www.w3.org/2000/svg" viewBox="0 0 32 32"><defs><style>.cls-1{fill:#1da1f2;}.cls-2{fill:#fff;}.cls-3{fill:none;}</style></defs><g id="Ebene_2" data-name="Ebene 2"><g id="_16x16_transparent" data-name="16x16 transparent"><path id="rect2989" class="cls-1" d="M4.38,0H27.63A4.37,4.37,0,0,1,32,4.37V27.63A4.38,4.38,0,0,1,27.63,32H4.38A4.38,4.38,0,0,1,0,27.62V4.38A4.38,4.38,0,0,1,4.38,0Z"/><path id="path3611" class="cls-2" d="M12,25.27A12.64,12.64,0,0,0,24.88,12.65c0-.19,0-.38,0-.57a9.11,9.11,0,0,0,2.25-2.3,9,9,0,0,1-2.59.7,4.45,4.45,0,0,0,2-2.45A9,9,0,0,1,23.65,9.1a4.56,4.56,0,0,0-3.3-1.4,4.48,4.48,0,0,0-4.51,4.44,4.23,4.23,0,0,0,.12,1A12.91,12.91,0,0,1,6.65,8.51a4.4,4.4,0,0,0,1.4,5.93,4.63,4.63,0,0,1-2-.56v.06a4.45,4.45,0,0,0,3.62,4.35,4.68,4.68,0,0,1-1.19.15,4,4,0,0,1-.85-.08,4.48,4.48,0,0,0,4.21,3.08,9.14,9.14,0,0,1-5.6,1.9,9.64,9.64,0,0,1-1.08-.06,12.93,12.93,0,0,0,6.92,2"/><rect class="cls-3" width="32" height="32"/></g></g></svg>