<svg xmlns="http://www.w3.org/2000/svg" viewBox="0 0 32 32"><defs><style>.cls-1{fill:#ea7819;}.cls-2{fill:#fff;}.cls-3{fill:none;}</style></defs><g id="Ebene_2" data-name="Ebene 2"><g id="_16x16_transparent" data-name="16x16 transparent"><path id="rect2989" class="cls-1" d="M4.38,0H27.63A4.37,4.37,0,0,1,32,4.37V27.62A4.38,4.38,0,0,1,27.63,32H4.38A4.37,4.37,0,0,1,0,27.62V4.38A4.38,4.38,0,0,1,4.38,0Z"/><path id="path3844" class="cls-2" d="M5.07,16.69a10.14,10.14,0,0,1,7.23,3,10.24,10.24,0,0,1,3,7.28H19.5A14.48,14.48,0,0,0,5.07,12.48v4.21Zm0-7.46A17.72,17.72,0,0,1,22.73,27h4.21A21.94,21.94,0,0,0,5.07,5ZM10.89,24A2.92,2.92,0,1,1,8,21.12,2.91,2.91,0,0,1,10.89,24Z"/><rect class="cls-3" width="32" height="32"/></g></g></svg>