<svg xmlns="http://www.w3.org/2000/svg" viewBox="0 0 32 32"><defs><style>.cls-1{fill:#36c5f0;}.cls-1,.cls-2,.cls-3,.cls-4{fill-rule:evenodd;}.cls-2{fill:#2eb67d;}.cls-3{fill:#ecb22e;}.cls-4{fill:#e01e5a;}</style></defs><g id="Ebene_2" data-name="Ebene 2"><g id="_16x16_transparent" data-name="16x16 transparent"><path class="cls-1" d="M11.73,0a3.2,3.2,0,0,0,0,6.4h3.2V3.2A3.2,3.2,0,0,0,11.73,0h0m0,8.53H3.2a3.2,3.2,0,0,0,0,6.4h8.53a3.2,3.2,0,0,0,0-6.4Z"/><path class="cls-2" d="M32,11.73a3.2,3.2,0,1,0-6.4,0v3.2h3.2A3.2,3.2,0,0,0,32,11.73Zm-8.53,0V3.2a3.2,3.2,0,1,0-6.4,0v8.53a3.2,3.2,0,0,0,6.4,0Z"/><path class="cls-3" d="M20.27,32a3.2,3.2,0,0,0,0-6.4h-3.2v3.2A3.2,3.2,0,0,0,20.27,32Zm0-8.53H28.8a3.2,3.2,0,0,0,0-6.4H20.27a3.2,3.2,0,1,0,0,6.4Z"/><path class="cls-4" d="M0,20.27a3.2,3.2,0,0,0,6.4,0v-3.2H3.2A3.2,3.2,0,0,0,0,20.27Zm8.53,0V28.8a3.2,3.2,0,0,0,6.4,0V20.27a3.2,3.2,0,1,0-6.4,0h0"/></g></g></svg>