<svg xmlns="http://www.w3.org/2000/svg" viewBox="0 0 88 31"><defs><style>.cls-1{fill:#aab2ab;}.cls-2{fill:#fff;}.cls-3{isolation:isolate;}.cls-4{fill-rule:evenodd;}</style></defs><g id="Ebene_2" data-name="Ebene 2"><g id="Icons"><g id="layer1"><g id="g2370"><path id="path3817" class="cls-1" d="M2.5.33,85.63.48c1.16,0,2.19-.18,2.19,2.33l-.1,27.55H.4V2.71C.4,1.47.52.33,2.5.33Z"/><path id="path364" d="M86.35,0H1.65A1.65,1.65,0,0,0,0,1.66v29A.38.38,0,0,0,.37,31H87.63a.38.38,0,0,0,.37-.37v-29A1.65,1.65,0,0,0,86.35,0ZM1.65.75h84.7a.91.91,0,0,1,.91.91V21.75H26.71a13,13,0,0,1-22.8,0H.74V1.66A.91.91,0,0,1,1.65.75Z"/><g id="g5908"><path id="path5906" class="cls-2" d="M25.32,14.43a10,10,0,1,1-20,0h0a10,10,0,1,1,20,0Z"/><g id="g5706"><path id="path5708" d="M23.45,6.23a11.2,11.2,0,0,1,3.32,8.2,11,11,0,0,1-3.27,8.11A11.25,11.25,0,0,1,15.3,26a10.92,10.92,0,0,1-8-3.41,11.12,11.12,0,0,1-3.39-8.13,11.33,11.33,0,0,1,3.39-8.2A10.86,10.86,0,0,1,15.3,2.88,11.05,11.05,0,0,1,23.45,6.23ZM8.74,7.73a9.23,9.23,0,0,0-2.81,6.7,9.12,9.12,0,0,0,2.78,6.64,9,9,0,0,0,6.63,2.8A9.14,9.14,0,0,0,22,21a8.83,8.83,0,0,0,2.7-6.61A9.17,9.17,0,0,0,22,7.72,9,9,0,0,0,15.34,5,8.85,8.85,0,0,0,8.74,7.73Zm4.93,5.57a1.36,1.36,0,0,0-1.28-.94c-1,0-1.52.68-1.52,2.05s.5,2.06,1.52,2.06a1.49,1.49,0,0,0,1.43-1l1.4.75a3.25,3.25,0,0,1-3,1.79,3.31,3.31,0,0,1-2.47-1,3.59,3.59,0,0,1-.94-2.63,3.57,3.57,0,0,1,1-2.62,3.22,3.22,0,0,1,2.39-1,3.18,3.18,0,0,1,3,1.68Zm6.6,0A1.37,1.37,0,0,0,19,12.36c-1,0-1.54.68-1.54,2.05S18,16.47,19,16.47a1.44,1.44,0,0,0,1.41-1l1.43.75a3.25,3.25,0,0,1-3,1.79,3.31,3.31,0,0,1-2.47-1,3.63,3.63,0,0,1-.93-2.63,3.6,3.6,0,0,1,.94-2.62,3.2,3.2,0,0,1,2.4-1,3.18,3.18,0,0,1,3,1.68Z"/></g></g><g id="g370" class="cls-3"><path id="path372" class="cls-2" d="M35.27,24.17a3.06,3.06,0,0,1,.63.06,1.36,1.36,0,0,1,.49.2,1,1,0,0,1,.32.38,1.35,1.35,0,0,1,.11.57,1,1,0,0,1-.17.62,1.17,1.17,0,0,1-.49.4,1.15,1.15,0,0,1,.67.46,1.33,1.33,0,0,1,.23.78,1.29,1.29,0,0,1-.15.64,1.16,1.16,0,0,1-.38.44A1.74,1.74,0,0,1,36,29a2.74,2.74,0,0,1-.64.08H33V24.17Zm-.14,2A.77.77,0,0,0,35.6,26a.52.52,0,0,0,.19-.44.47.47,0,0,0-.07-.28.38.38,0,0,0-.16-.17.92.92,0,0,0-.23-.09l-.28,0h-1v1.14Zm.06,2.07a1.39,1.39,0,0,0,.3,0,.74.74,0,0,0,.26-.1.48.48,0,0,0,.17-.2.68.68,0,0,0,.06-.31.65.65,0,0,0-.21-.54.87.87,0,0,0-.56-.16H34.05v1.34Z"/><path id="path374" class="cls-2" d="M37.24,24.17h1.2l1.14,1.93,1.13-1.93H41.9l-1.8,3v1.88H39v-1.9Z"/></g><g id="g376" class="cls-3"><path id="path378" class="cls-2" d="M53.18,24.17l2,3.28h0V24.17h1v4.89H55.15l-2-3.27h0v3.27h-1V24.17Z"/><path id="path380" class="cls-2" d="M60.28,25.47A1.55,1.55,0,0,0,60,25.2a1,1,0,0,0-.33-.18,1.15,1.15,0,0,0-.37-.06,1.21,1.21,0,0,0-.62.14,1.09,1.09,0,0,0-.4.37,1.63,1.63,0,0,0-.23.54,2.56,2.56,0,0,0-.07.62,2.35,2.35,0,0,0,.07.6,1.53,1.53,0,0,0,.23.52,1.21,1.21,0,0,0,.4.38,1.32,1.32,0,0,0,.62.14,1,1,0,0,0,.76-.3,1.37,1.37,0,0,0,.34-.8h1a2.21,2.21,0,0,1-.21.83,1.81,1.81,0,0,1-.45.63,1.73,1.73,0,0,1-.65.4,2.39,2.39,0,0,1-.82.14,2.53,2.53,0,0,1-1-.2,2.25,2.25,0,0,1-.75-.54,2.35,2.35,0,0,1-.47-.8,3,3,0,0,1-.16-1,3,3,0,0,1,.16-1,2.45,2.45,0,0,1,.47-.82,2.15,2.15,0,0,1,.75-.55,2.53,2.53,0,0,1,1-.2,2.37,2.37,0,0,1,.76.12,2,2,0,0,1,.64.34,1.78,1.78,0,0,1,.46.55,2,2,0,0,1,.23.75h-1A1.06,1.06,0,0,0,60.28,25.47Z"/></g><g id="g382" class="cls-3"><path id="path384" class="cls-2" d="M72.13,24.17l2,3.28h0V24.17h1v4.89H74.1l-2-3.27h0v3.27h-1V24.17Z"/><path id="path386" class="cls-2" d="M78.2,24.17a2.5,2.5,0,0,1,.88.15,1.92,1.92,0,0,1,.7.45,2.06,2.06,0,0,1,.46.76,3.06,3.06,0,0,1,.17,1.06,3.41,3.41,0,0,1-.14,1,2.08,2.08,0,0,1-.41.78,1.91,1.91,0,0,1-.69.52,2.21,2.21,0,0,1-1,.19H76.11V24.17Zm-.07,4a1.41,1.41,0,0,0,.45-.07,1.18,1.18,0,0,0,.39-.25,1.36,1.36,0,0,0,.27-.46,1.91,1.91,0,0,0,.1-.68,2.76,2.76,0,0,0-.07-.67,1.34,1.34,0,0,0-.24-.51,1,1,0,0,0-.43-.32,1.63,1.63,0,0,0-.66-.11h-.76v3.07Z"/></g><g id="g6394"><path id="path6396" class="cls-2" d="M84.09,11.06a7.76,7.76,0,1,1-15.52,0h0a7.76,7.76,0,1,1,15.52,0Z"/><g id="g6398"><path id="path6400" d="M76.21,2.5a8.12,8.12,0,0,0-6,2.48,8.42,8.42,0,0,0-2.51,6.08,8.26,8.26,0,0,0,2.51,6,8.18,8.18,0,0,0,6,2.53,8.34,8.34,0,0,0,6.08-2.55,8.14,8.14,0,0,0,2.43-6A8.28,8.28,0,0,0,82.25,5,8.2,8.2,0,0,0,76.21,2.5Zm0,1.54a6.64,6.64,0,0,1,4.92,2.05,6.75,6.75,0,0,1,2,5,6.57,6.57,0,0,1-2,4.9,6.84,6.84,0,0,1-5,2.09A6.72,6.72,0,0,1,71.31,16a6.74,6.74,0,0,1-2.06-4.92,6.87,6.87,0,0,1,2.08-5A6.58,6.58,0,0,1,76.23,4Z"/><g id="g6402"><path id="path6404" d="M79.43,9H73.25V10.5h6.18Zm0,2.75H73.25v1.47h6.18Z"/></g></g></g><g id="g398"><ellipse id="circle400" class="cls-2" cx="37.96" cy="11.23" rx="7.88" ry="7.93"/><g id="g402"><path id="path404" d="M40.24,8.94a.55.55,0,0,0-.55-.55H36.21a.55.55,0,0,0-.55.55v3.5h1v4.14h2.64V12.44h1V8.94Z"/><ellipse id="circle406" cx="37.95" cy="6.73" rx="1.19" ry="1.2"/></g><path id="path408" class="cls-4" d="M37.94,2.5A8.1,8.1,0,0,0,32,5a8.38,8.38,0,0,0-2.51,6.08,8.22,8.22,0,0,0,2.51,6,8.16,8.16,0,0,0,6,2.53A8.38,8.38,0,0,0,44,17.07a8.13,8.13,0,0,0,2.42-6A8.31,8.31,0,0,0,44,5,8.24,8.24,0,0,0,37.94,2.5ZM38,4a6.64,6.64,0,0,1,4.92,2.05,6.75,6.75,0,0,1,2,5,6.53,6.53,0,0,1-2,4.9,6.82,6.82,0,0,1-5,2.09A6.72,6.72,0,0,1,33,16,6.78,6.78,0,0,1,31,11.06a6.88,6.88,0,0,1,2.09-5A6.55,6.55,0,0,1,38,4Z"/></g><g id="g2366"><path id="path6372" class="cls-2" d="M64.39,11.06a7.31,7.31,0,1,1-14.61,0h0a7.31,7.31,0,1,1,14.61,0Z"/><path id="path45" d="M63.12,5a8.19,8.19,0,0,0-6-2.48,8.06,8.06,0,0,0-6,2.48,8.42,8.42,0,0,0-2.51,6.08,8.26,8.26,0,0,0,2.51,6,8.18,8.18,0,0,0,6,2.53,8.38,8.38,0,0,0,6.09-2.55,8.14,8.14,0,0,0,2.43-6A8.31,8.31,0,0,0,63.12,5ZM62.05,16a6.81,6.81,0,0,1-5,2.09A6.68,6.68,0,0,1,52.18,16a6.75,6.75,0,0,1-2.07-4.92,6.86,6.86,0,0,1,.38-2.28l2.25,1h-.16v1h.8c0,.14,0,.29,0,.43v.24h-.78v1h.92a4.07,4.07,0,0,0,.8,1.86A4.25,4.25,0,0,0,57.77,16,4.7,4.7,0,0,0,60,15.44l-.35-1.59a3.85,3.85,0,0,1-1.62.38,2.41,2.41,0,0,1-1.84-.73,2.37,2.37,0,0,1-.47-1h3.1l4.4,2A6.67,6.67,0,0,1,62.05,16Zm-5.53-4.49h0Zm2.65-.67h.13v-1H56.89l-1-.43a1.9,1.9,0,0,1,.3-.5A2.17,2.17,0,0,1,58,8.08a4.12,4.12,0,0,1,1.58.34l.4-1.63a5.35,5.35,0,0,0-2.14-.43,4.3,4.3,0,0,0-3.29,1.46,4.66,4.66,0,0,0-.47.69l-2.8-1.24a8,8,0,0,1,1-1.18,6.55,6.55,0,0,1,4.89-2A6.64,6.64,0,0,1,62,6.09a6.75,6.75,0,0,1,2,5,7.63,7.63,0,0,1-.21,1.82Z"/></g></g></g></g></g></svg>