<svg xmlns="http://www.w3.org/2000/svg" xmlns:xlink="http://www.w3.org/1999/xlink" viewBox="0 0 32 32"><defs><style>.cls-1{fill:url(#Unbenannter_Verlauf_3);}.cls-2{fill:#fff;}.cls-3{fill:none;}</style><linearGradient id="Unbenannter_Verlauf_3" x1="16" x2="16" y2="31.76" gradientUnits="userSpaceOnUse"><stop offset="0" stop-color="#2aabee"/><stop offset="1" stop-color="#229ed9"/></linearGradient></defs><g id="Ebene_2" data-name="Ebene 2"><g id="Icons"><rect id="rect2989" class="cls-1" width="32" height="32" rx="4.38"/><path class="cls-2" d="M5.63,15.2q9.24-4,12.31-5.31C23.81,7.46,25,7,25.82,7a1.47,1.47,0,0,1,.82.24.93.93,0,0,1,.3.58,4.12,4.12,0,0,1,0,.83c-.32,3.33-1.69,11.44-2.39,15.17-.3,1.59-.88,2.12-1.44,2.17-1.23.11-2.16-.81-3.35-1.59-1.86-1.22-2.91-2-4.71-3.16-2.08-1.38-.73-2.13.46-3.37.31-.32,5.71-5.23,5.81-5.68a.39.39,0,0,0-.1-.37.47.47,0,0,0-.43,0q-.29.06-8.91,5.88a4,4,0,0,1-2.29.85,15.41,15.41,0,0,1-3.28-.78C5,17.32,4,17.09,4.06,16.36,4.11,16,4.63,15.59,5.63,15.2Z"/></g><g id="Boxen_transparent" data-name="Boxen transparent"><rect class="cls-3" width="32" height="32"/></g></g></svg>