<svg xmlns="http://www.w3.org/2000/svg" xmlns:xlink="http://www.w3.org/1999/xlink" viewBox="0 0 32 32"><defs><style>.cls-1{fill:url(#Unbenannter_Verlauf_113);}.cls-2{fill:#fff;fill-rule:evenodd;}.cls-3{fill:none;}</style><linearGradient id="Unbenannter_Verlauf_113" x1="16" y1="32" x2="16" y2="0.24" gradientUnits="userSpaceOnUse"><stop offset="0" stop-color="#26d044"/><stop offset="1" stop-color="#61fd7d"/></linearGradient></defs><g id="Ebene_2" data-name="Ebene 2"><g id="Icons"><rect id="rect2989" class="cls-1" width="32" height="32" rx="4.38"/><path class="cls-2" d="M16.52,26.7a11.63,11.63,0,0,1-5.61-1.43l-6.42,2,2.09-6.18a11.43,11.43,0,0,1-1.66-5.94A11.6,11.6,0,1,1,16.52,26.7Zm0-21.19a9.73,9.73,0,0,0-9.75,9.68,9.59,9.59,0,0,0,1.85,5.67l-1.21,3.6,3.74-1.19A9.71,9.71,0,1,0,16.52,5.51Zm5.85,12.33c-.07-.12-.26-.19-.54-.33s-1.68-.82-1.94-.92-.45-.14-.64.15-.74.91-.9,1.1-.34.21-.62.07a7.88,7.88,0,0,1-2.29-1.4,8.88,8.88,0,0,1-1.58-2c-.16-.28,0-.44.13-.58s.28-.33.42-.49A1.93,1.93,0,0,0,14.7,13a.52.52,0,0,0,0-.5c-.07-.14-.64-1.52-.87-2.09s-.48-.47-.64-.47l-.55,0a1.07,1.07,0,0,0-.76.35,3.14,3.14,0,0,0-1,2.35A5.49,5.49,0,0,0,12,15.56a11.62,11.62,0,0,0,4.86,4.26c2.89,1.13,2.89.75,3.41.7a2.85,2.85,0,0,0,1.92-1.34,2.21,2.21,0,0,0,.16-1.34Z"/></g><g id="Boxen_transparent" data-name="Boxen transparent"><rect class="cls-3" width="32" height="32"/></g></g></svg>