<svg xmlns="http://www.w3.org/2000/svg" viewBox="0 0 16 16"><defs><style>.cls-1{fill:#64bfd2;fill-rule:evenodd;}.cls-2{fill:none;}</style></defs><g id="Ebene_2" data-name="Ebene 2"><g id="Icons"><path class="cls-1" d="M8,1a7,7,0,1,0,7,7A7,7,0,0,0,8,1Zm3.25,9.77a.79.79,0,0,1-.71.44.76.76,0,0,1-.36-.08l-3-1.5a.79.79,0,0,1-.44-.71V3.68a.8.8,0,1,1,1.6,0V8.42L10.9,9.7A.8.8,0,0,1,11.25,10.77Z"/></g><g id="_16x16_transparent" data-name="16x16 transparent"><rect class="cls-2" width="16" height="16"/></g></g></svg>