<svg xmlns="http://www.w3.org/2000/svg" viewBox="0 0 16 16"><defs><style>.cls-1{fill:#ff332e;}.cls-2{fill:none;}</style></defs><g id="Ebene_2" data-name="Ebene 2"><g id="Icons"><path class="cls-1" d="M9.29,2.69A7.29,7.29,0,0,0,6.47,1.24a1,1,0,0,0-1.95-.08L3.39,5.67l-.76,3h0L1.22,14.36A1,1,0,0,0,2,15.57a1,1,0,0,0,1.21-.73l1.5-6a8,8,0,0,1,2.7,1.4c3.08,2.39,5.51,1.41,5.51,1.41l1.94-7.58S12.36,5.11,9.29,2.69Z"/></g><g id="_16x16_transparent" data-name="16x16 transparent"><rect class="cls-2" width="16" height="16"/></g></g></svg>