<svg xmlns="http://www.w3.org/2000/svg" viewBox="0 0 32 32"><defs><style>.cls-1{fill:#9d9d9e;}.cls-2{fill:none;}</style></defs><g id="Ebene_2" data-name="Ebene 2"><g id="Ebene_2-2" data-name="Ebene 2"><path class="cls-1" d="M4,29a2,2,0,0,0,2,2H26a2,2,0,0,0,2-2V16.35H4Zm6.76-7.14h2V23.5h6.48V21.86h2v1.72a1.92,1.92,0,0,1-1.92,1.92H12.68a1.92,1.92,0,0,1-1.92-1.92ZM26,1H6A2,2,0,0,0,4,3V15.35H28V3A2,2,0,0,0,26,1ZM21.24,8.08A1.93,1.93,0,0,1,19.32,10H12.68a1.93,1.93,0,0,1-1.92-1.92V6.35h2V8h6.48V6.35h2Z"/></g><g id="_32x32_transparent" data-name="32x32 transparent"><rect class="cls-2" width="32" height="32"/></g></g></svg>