<svg xmlns="http://www.w3.org/2000/svg" viewBox="0 0 32 32"><defs><style>.cls-1{fill:#9d9d9e;}.cls-2{fill:none;}</style></defs><g id="Ebene_2" data-name="Ebene 2"><g id="Ebene_2-2" data-name="Ebene 2"><path class="cls-1" d="M25.57,11.91h-.68V9.86a8.87,8.87,0,0,0-17.73,0v2.05H6.48a2.73,2.73,0,0,0-2.73,2.73V28.27A2.73,2.73,0,0,0,6.48,31H25.57a2.73,2.73,0,0,0,2.73-2.73V14.64A2.73,2.73,0,0,0,25.57,11.91ZM17.33,21.6h0v5.31H14.72V21.6a3.37,3.37,0,1,1,2.61,0Zm3.47-9.69H11.25V9.86a4.78,4.78,0,0,1,9.55,0Z"/></g><g id="_32x32_transparent" data-name="32x32 transparent"><rect class="cls-2" width="32" height="32"/></g></g></svg>