<?xml version="1.0" encoding="utf-8"?>
<!-- Generator: Adobe Illustrator 26.0.3, SVG Export Plug-In . SVG Version: 6.00 Build 0)  -->
<svg version="1.1" id="Ebene_1" xmlns="http://www.w3.org/2000/svg" xmlns:xlink="http://www.w3.org/1999/xlink" x="0px" y="0px"
	 viewBox="0 0 32 32" style="enable-background:new 0 0 32 32;" xml:space="preserve">
<style type="text/css">
	.st0{fill:#5481A9;}
	.st1{fill:none;}
</style>
<g>
	<g>
		<path class="st0" d="M24.435,16.993v1.331H0v-1.331C0,14.797,1.798,13,3.996,13h16.443C22.637,13,24.435,14.797,24.435,16.993z"/>
	</g>
	<g>
		<path class="st0" d="M22.264,20.26v7.747c0,2.196-1.798,3.993-3.996,3.993H6.167c-2.198,0-3.996-1.797-3.996-3.993V20.26H22.264z"
			/>
	</g>
</g>
<polygon class="st0" points="32,4 28,4 28,0 24,0 24,4 20,4 20,8 24,8 24,12 28,12 28,8 32,8 "/>
<rect class="st1" width="32" height="32"/>
</svg>
