<?xml version="1.0" encoding="UTF-8" standalone="no"?>
<!-- Generator: Adobe Illustrator 26.0.1, SVG Export Plug-In . SVG Version: 6.00 Build 0)  -->

<svg
   version="1.1"
   id="Ebene_1"
   x="0px"
   y="0px"
   viewBox="0 0 16 16"
   style="enable-background:new 0 0 16 16;"
   xml:space="preserve"
   sodipodi:docname="event-rand5.svg"
   inkscape:export-filename="/home/sdennler/Downloads/OC Icons Dez 2021 - Moving in/OC Icons Dez 2021.orig/OC Icons Dez 2021/cacheicon/01_SVG Icons/event-rand5.png"
   inkscape:export-xdpi="132"
   inkscape:export-ydpi="132"
   inkscape:version="1.1.1 (3bf5ae0d25, 2021-09-20)"
   xmlns:inkscape="http://www.inkscape.org/namespaces/inkscape"
   xmlns:sodipodi="http://sodipodi.sourceforge.net/DTD/sodipodi-0.dtd"
   xmlns="http://www.w3.org/2000/svg"
   xmlns:svg="http://www.w3.org/2000/svg"><defs
   id="defs15">
	
	
</defs><sodipodi:namedview
   id="namedview13"
   pagecolor="#ffffff"
   bordercolor="#666666"
   borderopacity="1.0"
   inkscape:pageshadow="2"
   inkscape:pageopacity="0.0"
   inkscape:pagecheckerboard="0"
   showgrid="false"
   inkscape:zoom="39.375"
   inkscape:cx="8"
   inkscape:cy="7.9873016"
   inkscape:window-width="2560"
   inkscape:window-height="1411"
   inkscape:window-x="1"
   inkscape:window-y="0"
   inkscape:window-maximized="1"
   inkscape:current-layer="Ebene_1" />
<style
   type="text/css"
   id="style2">
	.st0{fill:#14C4DF;}
	.st1{fill:#FFFFFF;}
</style>

<g
   id="g1263"><g
     id="g6">
		<path
   class="st0"
   d="M 13,16 H 3 C 1.4,16 0,14.6 0,13 V 3 C 0,1.4 1.4,0 3,0 h 10 c 1.6,0 3,1.4 3,3 v 10 c 0,1.6 -1.4,3 -3,3 z"
   id="path4" />
	</g><path
     class="st1"
     d="m 15.455593,4.7609747 c 0,1.7297325 -1.197194,3.158642 -2.772451,3.6098776 l -1.638267,2.2561737 0.06302,-2.1809691 C 9.2175812,8.2204397 7.7683455,6.6411192 7.7683455,4.6857688 c 0,-2.1057613 1.7012772,-3.76028821 3.8436255,-3.76028821 2.142348,0 3.843626,1.72973261 3.843626,3.83549411 z M 12.179059,4.3097401 c 0,0.2256173 0.126016,0.3760287 0.315052,0.3760287 0.189031,0 0.315051,-0.1504114 0.315051,-0.3760287 v -0.977675 c 0,-0.2256174 -0.126014,-0.3760288 -0.315051,-0.3760288 -0.189031,0 -0.315052,0.1504114 -0.315052,0.3760288 z m -1.890306,0 c 0,0.2256173 0.126014,0.3760287 0.31505,0.3760287 0.189032,0 0.315052,-0.1504114 0.315052,-0.3760287 v -0.977675 c 0,-0.2256174 -0.126016,-0.3760288 -0.315052,-0.3760288 -0.18903,0 -0.31505,0.1504114 -0.31505,0.3760288 z m 2.83546,1.2032921 c -0.18903,-0.075206 -0.315051,0 -0.441071,0.2256174 -0.126015,0.3760288 -0.504083,0.6016462 -1.071174,0.6016462 -0.630103,0 -1.008165,-0.2256174 -1.134185,-0.676852 -0.06302,-0.2256173 -0.252042,-0.300823 -0.441072,-0.2256173 -0.1890297,0.075206 -0.2520419,0.3008231 -0.1890297,0.5264403 0.1890297,0.5264404 0.6301017,1.1280855 1.7012747,1.1280855 1.071175,0 1.512247,-0.6016451 1.701278,-1.1280855 0.06302,-0.1504114 0,-0.3760287 -0.126028,-0.4512346 z"
     id="path835"
     style="stroke-width:0.688384" /><g
     id="Icons"
     transform="matrix(0.30908138,0,0,0.30908138,0.05043551,4.6461807)"
     style="fill:#ffffff"><g
       id="Layer_2"
       data-name="Layer 2"
       style="fill:#ffffff"
       transform="matrix(0.83985489,0,0,0.83985489,1.0537213,5.3554568)"><g
         id="Green_pacman_ghost"
         data-name="Green_pacman ghost"
         style="fill:#ffffff"><path
           class="cls-1"
           d="M 16,1 A 11.25,11.25 0 0 0 4.75,12.25 V 31 L 7.56,28.19 10.38,31 13.19,28.19 16,31 18.81,28.19 21.62,31 24.44,28.19 27.25,31 V 12.25 A 11.25,11.25 0 0 0 16,1 Z m 1.24,14 a 2.82,2.82 0 1 1 0,-3.52 1.87,1.87 0 0 0 0,3.52 z m 7.5,0 a 2.82,2.82 0 1 1 0,-3.52 1.87,1.87 0 0 0 0,3.52 z"
           id="path6"
           style="fill:#ffffff" /><path
           id="Right_eyeball"
           class="cls-1"
           d="m 25.38,13.19 a 2.79,2.79 0 0 0 -0.64,-1.76 1.87,1.87 0 0 0 0,3.52 2.81,2.81 0 0 0 0.64,-1.76 z"
           style="fill:#ffffff" /><path
           id="Left_eyeball"
           class="cls-1"
           d="m 17.88,13.19 a 2.79,2.79 0 0 0 -0.64,-1.76 1.87,1.87 0 0 0 0,3.52 2.81,2.81 0 0 0 0.64,-1.76 z"
           style="fill:#ffffff" /></g></g></g></g></svg>
