<?xml version="1.0" encoding="UTF-8" standalone="no"?>
<!-- Generator: Adobe Illustrator 26.0.1, SVG Export Plug-In . SVG Version: 6.00 Build 0)  -->

<svg
   version="1.1"
   id="Ebene_1"
   x="0px"
   y="0px"
   viewBox="0 0 16 16"
   style="enable-background:new 0 0 16 16;"
   xml:space="preserve"
   sodipodi:docname="event-rand2.svg"
   inkscape:export-filename="/home/sdennler/Downloads/OC Icons Dez 2021 - Moving in/OC Icons Dez 2021.orig/OC Icons Dez 2021/cacheicon/01_SVG Icons/16x16-event.png"
   inkscape:export-xdpi="132"
   inkscape:export-ydpi="132"
   inkscape:version="1.1.1 (3bf5ae0d25, 2021-09-20)"
   xmlns:inkscape="http://www.inkscape.org/namespaces/inkscape"
   xmlns:sodipodi="http://sodipodi.sourceforge.net/DTD/sodipodi-0.dtd"
   xmlns="http://www.w3.org/2000/svg"
   xmlns:svg="http://www.w3.org/2000/svg"><defs
   id="defs15">
	
	
</defs><sodipodi:namedview
   id="namedview13"
   pagecolor="#ffffff"
   bordercolor="#666666"
   borderopacity="1.0"
   inkscape:pageshadow="2"
   inkscape:pageopacity="0.0"
   inkscape:pagecheckerboard="0"
   showgrid="false"
   inkscape:zoom="39.375"
   inkscape:cx="8"
   inkscape:cy="7.9873016"
   inkscape:window-width="2560"
   inkscape:window-height="1411"
   inkscape:window-x="1"
   inkscape:window-y="0"
   inkscape:window-maximized="1"
   inkscape:current-layer="Ebene_1" />
<style
   type="text/css"
   id="style2">
	.st0{fill:#14C4DF;}
	.st1{fill:#FFFFFF;}
</style>

<g
   id="g978"><g
     id="g6">
		<path
   class="st0"
   d="M 13,16 H 3 C 1.4,16 0,14.6 0,13 V 3 C 0,1.4 1.4,0 3,0 h 10 c 1.6,0 3,1.4 3,3 v 10 c 0,1.6 -1.4,3 -3,3 z"
   id="path4" />
	</g><path
     class="st1"
     d="m 0.80443328,5.3551706 c 0,1.7353004 1.14633372,3.1688096 2.65466762,3.6214966 L 5.0277682,11.240103 4.9674348,9.0521151 C 6.7774355,8.8257715 8.1651026,7.2413668 8.1651026,5.2797227 c 0,-2.1125397 -1.6290005,-3.7723923 -3.6803346,-3.7723923 -2.0513341,0 -3.68033472,1.7353005 -3.68033472,3.8478402 z M 3.9417678,4.9024835 c 0,0.2263436 -0.1206664,0.3772392 -0.3016668,0.3772392 -0.1810001,0 -0.3016667,-0.1508956 -0.3016667,-0.3772392 v -0.980822 c 0,-0.2263436 0.1206664,-0.3772392 0.3016667,-0.3772392 0.1810001,0 0.3016668,0.1508956 0.3016668,0.3772392 z m 1.8100006,0 c 0,0.2263436 -0.1206664,0.3772392 -0.3016667,0.3772392 -0.1810001,0 -0.3016668,-0.1508956 -0.3016668,-0.3772392 v -0.980822 c 0,-0.2263436 0.1206663,-0.3772392 0.3016668,-0.3772392 0.181,0 0.3016667,0.1508956 0.3016667,0.3772392 z M 3.0367675,6.109649 c 0.181,-0.075448 0.3016668,0 0.4223334,0.2263435 0.1206664,0.3772393 0.4826669,0.6035829 1.0256671,0.6035829 0.6033335,0 0.9653337,-0.2263436 1.0860003,-0.6790307 C 5.6311015,6.0342012 5.8121018,5.9587534 5.9931019,6.0342012 6.174102,6.1096488 6.2344353,6.3359925 6.174102,6.5623361 5.9931019,7.090471 5.5707683,7.6940538 4.5451013,7.6940538 c -1.025667,0 -1.4480005,-0.6035828 -1.6290006,-1.1317177 -0.060333,-0.1508956 0,-0.3772392 0.1206668,-0.4526871 z"
     id="path8"
     style="stroke-width:0.674686" /><path
     class="st1"
     d="m 15.321382,7.9368966 c 0,1.5786282 -1.064062,2.8827124 -2.464144,3.2945294 l -1.456086,2.05908 0.05601,-1.990445 C 9.7770603,11.094153 8.4889851,9.6527973 8.4889851,7.8682605 c 0,-1.9218083 1.5120889,-3.4318006 3.4161999,-3.4318006 1.904111,0 3.4162,1.5786283 3.4162,3.5004367 z M 12.409211,7.5250805 c 0,0.2059081 0.112002,0.34318 0.280017,0.34318 0.16801,0 0.280016,-0.1372719 0.280016,-0.34318 V 6.6328123 c 0,-0.2059081 -0.112001,-0.34318 -0.280016,-0.34318 -0.16801,0 -0.280017,0.1372719 -0.280017,0.34318 z m -1.680097,0 c 0,0.2059081 0.112001,0.34318 0.280015,0.34318 0.168011,0 0.280017,-0.1372719 0.280017,-0.34318 V 6.6328123 c 0,-0.2059081 -0.112002,-0.34318 -0.280017,-0.34318 -0.168009,0 -0.280015,0.1372719 -0.280015,0.34318 z m 2.520146,1.0981761 c -0.168009,-0.068636 -0.280016,0 -0.392022,0.2059081 -0.112002,0.3431801 -0.448027,0.5490882 -0.952056,0.5490882 -0.560033,0 -0.896053,-0.2059081 -1.008059,-0.6177242 -0.05601,-0.205908 -0.224014,-0.274544 -0.392023,-0.205908 -0.168009,0.068636 -0.224014,0.274544 -0.168009,0.480452 0.168009,0.4804521 0.560032,1.0295393 1.512087,1.0295393 0.952056,0 1.344079,-0.5490872 1.512089,-1.0295393 0.05601,-0.1372719 0,-0.34318 -0.112013,-0.4118161 z"
     id="path835"
     style="stroke-width:0.619987" /></g></svg>
