<?xml version="1.0" encoding="UTF-8" standalone="no"?>
<!-- Generator: Adobe Illustrator 26.0.1, SVG Export Plug-In . SVG Version: 6.00 Build 0)  -->

<svg
   version="1.1"
   id="Ebene_1"
   x="0px"
   y="0px"
   viewBox="0 0 16 16"
   style="enable-background:new 0 0 16 16;"
   xml:space="preserve"
   sodipodi:docname="event-rand4.svg"
   inkscape:export-filename="/home/sdennler/Downloads/OC Icons Dez 2021 - Moving in/OC Icons Dez 2021.orig/OC Icons Dez 2021/cacheicon/01_SVG Icons/event-rand4.png"
   inkscape:export-xdpi="132"
   inkscape:export-ydpi="132"
   inkscape:version="1.1.1 (3bf5ae0d25, 2021-09-20)"
   xmlns:inkscape="http://www.inkscape.org/namespaces/inkscape"
   xmlns:sodipodi="http://sodipodi.sourceforge.net/DTD/sodipodi-0.dtd"
   xmlns="http://www.w3.org/2000/svg"
   xmlns:svg="http://www.w3.org/2000/svg"><defs
   id="defs15">
	
	
</defs><sodipodi:namedview
   id="namedview13"
   pagecolor="#ffffff"
   bordercolor="#666666"
   borderopacity="1.0"
   inkscape:pageshadow="2"
   inkscape:pageopacity="0.0"
   inkscape:pagecheckerboard="0"
   showgrid="false"
   inkscape:zoom="39.375"
   inkscape:cx="8"
   inkscape:cy="7.9873016"
   inkscape:window-width="2560"
   inkscape:window-height="1411"
   inkscape:window-x="1"
   inkscape:window-y="0"
   inkscape:window-maximized="1"
   inkscape:current-layer="Ebene_1" />
<style
   type="text/css"
   id="style2">
	.st0{fill:#14C4DF;}
	.st1{fill:#FFFFFF;}
</style>

<g
   id="g1087"><g
     id="g6">
		<path
   class="st0"
   d="M 13,16 H 3 C 1.4,16 0,14.6 0,13 V 3 C 0,1.4 1.4,0 3,0 h 10 c 1.6,0 3,1.4 3,3 v 10 c 0,1.6 -1.4,3 -3,3 z"
   id="path4" />
	</g><path
     class="st1"
     d="m 0.66801828,7.2955578 c 0,1.517169 1.05638152,2.7704852 2.44635702,3.1662672 L 4.55995,12.440743 4.504351,10.527789 c 1.6679707,-0.197891 2.9467481,-1.5831332 2.9467481,-3.2981952 0,-1.84699 -1.5011735,-3.2981965 -3.3915403,-3.2981965 -1.8903667,0 -3.39154042,1.5171704 -3.39154052,3.3641605 z M 3.5591676,6.8997742 c 0,0.1978918 -0.1111978,0.3298196 -0.2779952,0.3298196 -0.1667971,0 -0.277995,-0.1319278 -0.277995,-0.3298196 V 6.0422431 c 0,-0.1978918 0.1111978,-0.3298196 0.277995,-0.3298196 0.1667971,0 0.2779952,0.1319278 0.2779952,0.3298196 z m 1.6679706,0 c 0,0.1978918 -0.1111978,0.3298196 -0.2779951,0.3298196 -0.1667971,0 -0.2779951,-0.1319278 -0.2779951,-0.3298196 V 6.0422431 c 0,-0.1978918 0.1111977,-0.3298196 0.2779951,-0.3298196 0.1667971,0 0.2779951,0.1319278 0.2779951,0.3298196 z M 2.7251823,7.9551971 c 0.166797,-0.065964 0.2779951,0 0.389193,0.1978917 0.1111978,0.329819 0.4447923,0.527711 0.9451835,0.527711 0.5559901,0 0.8895843,-0.197892 1.0007823,-0.5936749 0.055599,-0.1978917 0.2223961,-0.2638556 0.3891932,-0.1978917 0.1667971,0.065964 0.2223961,0.2638556 0.1667971,0.4617466 -0.1667971,0.461747 -0.5559903,0.989459 -1.5011737,0.989459 -0.9451833,0 -1.3343765,-0.527712 -1.5011736,-0.989459 -0.055599,-0.131927 0,-0.3298188 0.1111982,-0.3957827 z"
     id="path8"
     style="stroke-width:0.605601" /><path
     class="st1"
     d="m 14.991509,4.5545941 c 0,1.3530471 -0.898009,2.4707817 -2.0796,2.8237513 L 11.683053,9.14319 11.730323,7.4371727 C 10.312411,7.2606883 9.2253473,6.0252979 9.2253473,4.4957658 c 0,-1.6471878 1.2761187,-2.9414069 2.8830817,-2.9414069 1.606964,0 2.883082,1.3530472 2.883082,3.0002352 z m -2.45771,-0.3529689 c 0,0.1764845 0.09452,0.2941406 0.236319,0.2941406 0.141791,0 0.236318,-0.1176561 0.236318,-0.2941406 V 3.4368593 c 0,-0.1764844 -0.09452,-0.2941406 -0.236318,-0.2941406 -0.141791,0 -0.236319,0.1176562 -0.236319,0.2941406 z m -1.417908,0 c 0,0.1764845 0.09452,0.2941406 0.236317,0.2941406 0.141792,0 0.236319,-0.1176561 0.236319,-0.2941406 V 3.4368593 c 0,-0.1764844 -0.09452,-0.2941406 -0.236319,-0.2941406 -0.14179,0 -0.236317,0.1176562 -0.236317,0.2941406 z m 2.126862,0.9412501 c -0.14179,-0.058828 -0.236317,0 -0.330844,0.1764845 -0.09452,0.2941407 -0.37811,0.4706252 -0.803482,0.4706252 -0.472637,0 -0.756219,-0.1764845 -0.850746,-0.5294533 -0.04727,-0.1764844 -0.189055,-0.2353125 -0.330845,-0.1764844 -0.141791,0.058828 -0.189056,0.2353125 -0.141791,0.4117969 0.141791,0.411797 0.472636,0.8824213 1.276117,0.8824213 0.803482,0 1.134328,-0.4706243 1.276119,-0.8824213 0.04727,-0.1176562 0,-0.2941406 -0.09453,-0.3529689 z"
     id="path835"
     style="stroke-width:0.527298" /><path
     class="st1"
     d="m 11.924312,11.562125 c 0,1.062319 -0.792698,1.939888 -1.835724,2.217015 l -1.0847461,1.385634 0.041727,-1.339447 C 7.7939362,13.686763 6.8343534,12.716821 6.8343534,11.515938 c 0,-1.293259 1.1264672,-2.3093903 2.5449802,-2.3093903 1.4185144,0 2.5449804,1.0623193 2.5449804,2.3555773 z M 9.7548201,11.284999 c 0,0.138563 0.083436,0.230939 0.2086057,0.230939 0.1251622,0 0.2086042,-0.09238 0.2086042,-0.230939 v -0.600442 c 0,-0.138563 -0.08344,-0.230939 -0.2086042,-0.230939 -0.125163,0 -0.2086057,0.09238 -0.2086057,0.230939 z m -1.2516287,0 c 0,0.138563 0.083436,0.230939 0.2086039,0.230939 0.125164,0 0.2086057,-0.09238 0.2086057,-0.230939 v -0.600442 c 0,-0.138563 -0.083436,-0.230939 -0.2086057,-0.230939 -0.1251621,0 -0.2086039,0.09238 -0.2086039,0.230939 z m 1.8774426,0.739004 c -0.125162,-0.04619 -0.208604,0 -0.292046,0.138564 -0.08343,0.230938 -0.3337679,0.369502 -0.7092561,0.369502 -0.4172105,0 -0.6675366,-0.138564 -0.7509783,-0.41569 -0.041727,-0.138564 -0.1668844,-0.184751 -0.2920465,-0.138564 -0.1251631,0.04619 -0.1668853,0.184752 -0.1251631,0.323315 0.1251631,0.323314 0.4172096,0.692816 1.1264657,0.692816 0.7092573,0 1.0013043,-0.369502 1.1264673,-0.692816 0.04173,-0.09238 0,-0.230939 -0.08344,-0.277127 z"
     id="path1080"
     style="stroke-width:0.438976" /></g></svg>
