<?xml version="1.0" encoding="UTF-8" standalone="no"?>
<!-- Generator: Adobe Illustrator 26.0.1, SVG Export Plug-In . SVG Version: 6.00 Build 0)  -->

<svg
   version="1.1"
   id="Ebene_1"
   x="0px"
   y="0px"
   viewBox="0 0 16 16"
   style="enable-background:new 0 0 16 16;"
   xml:space="preserve"
   sodipodi:docname="event-rand3.svg"
   inkscape:export-filename="/home/sdennler/Downloads/OC Icons Dez 2021 - Moving in/OC Icons Dez 2021.orig/OC Icons Dez 2021/cacheicon/01_SVG Icons/event-rand3.png"
   inkscape:export-xdpi="132"
   inkscape:export-ydpi="132"
   inkscape:version="1.1.1 (3bf5ae0d25, 2021-09-20)"
   xmlns:inkscape="http://www.inkscape.org/namespaces/inkscape"
   xmlns:sodipodi="http://sodipodi.sourceforge.net/DTD/sodipodi-0.dtd"
   xmlns="http://www.w3.org/2000/svg"
   xmlns:svg="http://www.w3.org/2000/svg"><defs
   id="defs15">
	
	
</defs><sodipodi:namedview
   id="namedview13"
   pagecolor="#ffffff"
   bordercolor="#666666"
   borderopacity="1.0"
   inkscape:pageshadow="2"
   inkscape:pageopacity="0.0"
   inkscape:pagecheckerboard="0"
   showgrid="false"
   inkscape:zoom="39.375"
   inkscape:cx="8"
   inkscape:cy="7.9873016"
   inkscape:window-width="2560"
   inkscape:window-height="1411"
   inkscape:window-x="1"
   inkscape:window-y="0"
   inkscape:window-maximized="1"
   inkscape:current-layer="Ebene_1" />
<style
   type="text/css"
   id="style2">
	.st0{fill:#14C4DF;}
	.st1{fill:#FFFFFF;}
</style>

<g
   id="g1069"><g
     id="g6">
		<path
   class="st0"
   d="M 13,16 H 3 C 1.4,16 0,14.6 0,13 V 3 C 0,1.4 1.4,0 3,0 h 10 c 1.6,0 3,1.4 3,3 v 10 c 0,1.6 -1.4,3 -3,3 z"
   id="path4" />
	</g><path
     class="st1"
     d="m 1.125296,9.165923 c 0,1.517169 1.0563815,2.770485 2.446357,3.166268 l 1.4455747,1.978918 -0.055599,-1.912954 c 1.6679707,-0.197892 2.9467481,-1.583134 2.9467481,-3.298196 0,-1.84699 -1.5011735,-3.2981965 -3.3915403,-3.2981965 -1.8903667,0 -3.3915404,1.5171704 -3.3915405,3.3641605 z M 4.0164453,8.7701394 c 0,0.1978918 -0.1111978,0.3298196 -0.2779952,0.3298196 -0.1667971,0 -0.277995,-0.1319278 -0.277995,-0.3298196 V 7.9126083 c 0,-0.1978918 0.1111978,-0.3298196 0.277995,-0.3298196 0.1667971,0 0.2779952,0.1319278 0.2779952,0.3298196 z m 1.6679706,0 c 0,0.1978918 -0.1111978,0.3298196 -0.2779951,0.3298196 -0.1667971,0 -0.2779951,-0.1319278 -0.2779951,-0.3298196 V 7.9126083 c 0,-0.1978918 0.1111977,-0.3298196 0.2779951,-0.3298196 0.1667971,0 0.2779951,0.1319278 0.2779951,0.3298196 z M 3.18246,9.8255623 c 0.166797,-0.065964 0.2779951,0 0.389193,0.1978917 0.1111978,0.329819 0.4447923,0.527711 0.9451835,0.527711 0.5559901,0 0.8895843,-0.197892 1.0007823,-0.5936749 0.055599,-0.1978917 0.2223961,-0.2638556 0.3891932,-0.1978917 0.1667971,0.065964 0.2223961,0.2638556 0.1667971,0.4617466 -0.1667971,0.461747 -0.5559903,0.989459 -1.5011737,0.989459 -0.9451833,0 -1.3343765,-0.527712 -1.5011736,-0.989459 -0.055599,-0.131927 0,-0.3298188 0.1111982,-0.3957827 z"
     id="path8"
     style="stroke-width:0.605601" /><path
     class="st1"
     d="m 15.494009,5.8306699 c 0,1.5786282 -1.064062,2.8827124 -2.464144,3.2945294 L 11.573779,11.18428 11.629789,9.1938343 C 9.949687,8.9879263 8.6616119,7.5465706 8.6616119,5.7620338 c 0,-1.9218083 1.5120891,-3.4318006 3.4162001,-3.4318006 1.904111,0 3.4162,1.5786283 3.4162,3.5004367 z M 12.581838,5.4188538 c 0,0.2059081 0.112002,0.34318 0.280017,0.34318 0.16801,0 0.280016,-0.1372719 0.280016,-0.34318 V 4.5265856 c 0,-0.2059081 -0.112001,-0.34318 -0.280016,-0.34318 -0.16801,0 -0.280017,0.1372719 -0.280017,0.34318 z m -1.680097,0 c 0,0.2059081 0.112001,0.34318 0.280015,0.34318 0.168011,0 0.280017,-0.1372719 0.280017,-0.34318 V 4.5265856 c 0,-0.2059081 -0.112002,-0.34318 -0.280017,-0.34318 -0.168009,0 -0.280015,0.1372719 -0.280015,0.34318 z m 2.520146,1.0981761 c -0.168009,-0.068636 -0.280016,0 -0.392022,0.2059081 -0.112002,0.3431801 -0.448027,0.5490882 -0.952056,0.5490882 -0.560033,0 -0.896053,-0.2059081 -1.008059,-0.6177242 -0.05601,-0.205908 -0.224014,-0.274544 -0.392023,-0.205908 -0.168009,0.068636 -0.224014,0.274544 -0.168009,0.480452 0.168009,0.4804521 0.560032,1.0295393 1.512087,1.0295393 0.952056,0 1.344079,-0.5490872 1.512089,-1.0295393 0.05601,-0.1372719 0,-0.34318 -0.112013,-0.4118161 z"
     id="path835"
     style="stroke-width:0.619987" /></g></svg>
