<?xml version="1.0" encoding="UTF-8" standalone="no"?>
<!-- Generator: Adobe Illustrator 26.0.1, SVG Export Plug-In . SVG Version: 6.00 Build 0)  -->

<svg
   version="1.1"
   id="Ebene_1"
   x="0px"
   y="0px"
   viewBox="0 0 16 16"
   style="enable-background:new 0 0 16 16;"
   xml:space="preserve"
   sodipodi:docname="grins.svg"
   inkscape:export-filename="/home/sdennler/Downloads/OC Icons Dez 2021 - Moving in/OC Icons Dez 2021.orig/OC Icons Dez 2021/cacheicon/01_SVG Icons/event-rand4.png"
   inkscape:export-xdpi="132"
   inkscape:export-ydpi="132"
   inkscape:version="1.1.1 (3bf5ae0d25, 2021-09-20)"
   xmlns:inkscape="http://www.inkscape.org/namespaces/inkscape"
   xmlns:sodipodi="http://sodipodi.sourceforge.net/DTD/sodipodi-0.dtd"
   xmlns="http://www.w3.org/2000/svg"
   xmlns:svg="http://www.w3.org/2000/svg"><defs
   id="defs15">
	
	
</defs><sodipodi:namedview
   id="namedview13"
   pagecolor="#ffffff"
   bordercolor="#666666"
   borderopacity="1.0"
   inkscape:pageshadow="2"
   inkscape:pageopacity="0.0"
   inkscape:pagecheckerboard="0"
   showgrid="false"
   inkscape:zoom="27.84233"
   inkscape:cx="12.391205"
   inkscape:cy="12.301413"
   inkscape:window-width="2560"
   inkscape:window-height="1411"
   inkscape:window-x="1"
   inkscape:window-y="0"
   inkscape:window-maximized="1"
   inkscape:current-layer="Ebene_1" />
<style
   type="text/css"
   id="style2">
	.st0{fill:#14C4DF;}
	.st1{fill:#FFFFFF;}
</style>

<g
   id="g6">
		<path
   class="st0"
   d="M 13,16 H 3 C 1.4,16 0,14.6 0,13 V 3 C 0,1.4 1.4,0 3,0 h 10 c 1.6,0 3,1.4 3,3 v 10 c 0,1.6 -1.4,3 -3,3 z"
   id="path4" />
	</g><path
   class="st1"
   d="m 2.4227087,6.5355777 c 0,2.4949412 1.7371893,4.5559833 4.0229643,5.2068353 l 2.3772063,3.254275 -0.091431,-3.145799 c 2.7429297,-0.325425 4.8458427,-2.6034166 4.8458427,-5.4237872 0,-3.0373223 -2.468638,-5.42379 -5.5772909,-5.42379 -3.108654,0 -5.5772914,2.4949434 -5.5772914,5.5322659 z M 7.1771213,5.8847229 c 0,0.3254275 -0.1828616,0.5423789 -0.4571552,0.5423789 -0.2742931,0 -0.4571549,-0.2169514 -0.4571549,-0.5423789 V 4.4745374 c 0,-0.3254274 0.1828617,-0.5423789 0.4571549,-0.5423789 0.274293,0 0.4571552,0.2169515 0.4571552,0.5423789 z m 2.7429301,0 c 0,0.3254275 -0.1828617,0.5423789 -0.457155,0.5423789 -0.2742932,0 -0.4571551,-0.2169514 -0.4571551,-0.5423789 V 4.4745374 c 0,-0.3254274 0.1828615,-0.5423789 0.4571551,-0.5423789 0.274293,0 0.457155,0.2169515 0.457155,0.5423789 z M 4.9396287,7.5746616 c 2.2584094,0.2082961 3.3287844,0.1507636 6.2098873,-0.2480653 0.59904,-0.126843 0.4723,0.3038478 0.274293,0.7593291 C 11.149516,8.8452551 9.6208774,10.234123 8.070196,10.251299 6.5195149,10.268476 5.0310595,8.9848447 4.7567664,8.2255149 4.6653351,8.0085647 4.500078,7.5822551 4.9396287,7.5746616 Z"
   id="path8"
   style="stroke-width:0.995893"
   sodipodi:nodetypes="scccsssssssssssssssssccczcc" /></svg>
