<?xml version="1.0" encoding="UTF-8" standalone="no"?>
<svg
   viewBox="0 0 32 32"
   version="1.1"
   id="svg17"
   sodipodi:docname="important.svg"
   inkscape:version="1.1.1 (3bf5ae0d25, 2021-09-20)"
   xmlns:inkscape="http://www.inkscape.org/namespaces/inkscape"
   xmlns:sodipodi="http://sodipodi.sourceforge.net/DTD/sodipodi-0.dtd"
   xmlns="http://www.w3.org/2000/svg"
   xmlns:svg="http://www.w3.org/2000/svg">
  <sodipodi:namedview
     id="namedview19"
     pagecolor="#ffffff"
     bordercolor="#666666"
     borderopacity="1.0"
     inkscape:pageshadow="2"
     inkscape:pageopacity="0.0"
     inkscape:pagecheckerboard="0"
     showgrid="false"
     inkscape:zoom="19.6875"
     inkscape:cx="16"
     inkscape:cy="15.974603"
     inkscape:window-width="2560"
     inkscape:window-height="1337"
     inkscape:window-x="0"
     inkscape:window-y="1514"
     inkscape:window-maximized="1"
     inkscape:current-layer="svg17" />
  <defs
     id="defs4">
    <style
       id="style2">.cls-1{fill:#ffc900;}.cls-2{fill:none;}</style>
  </defs>
  <path
     id="path6"
     class="cls-1"
     d="M 16 1 A 1.06 1.06 0 0 0 15.089844 1.5 L 0.11914062 27.439453 A 1.15 1.15 0 0 0 0 27.939453 A 1.08 1.08 0 0 0 0.38085938 28.759766 A 1.06 1.06 0 0 0 1.0605469 29.009766 L 31 29.009766 A 1 1 0 0 0 31.529297 28.859375 A 1.05 1.05 0 0 0 32 28 A 1.25 1.25 0 0 0 31.859375 27.439453 L 16.900391 1.5 A 1.06 1.06 0 0 0 16.710938 1.2695312 A 1.11 1.11 0 0 0 16.080078 1 L 16 1 z M 14.310547 9.3300781 L 17.689453 9.3300781 L 17.580078 12.330078 L 17.099609 19.330078 L 14.900391 19.330078 L 14.419922 12.330078 L 14.310547 9.3300781 z M 16 21.197266 A 2 2 0 0 1 17.449219 21.820312 A 2.26 2.26 0 0 1 17.449219 24.820312 A 2.05 2.05 0 0 1 14.550781 24.820312 A 2.26 2.26 0 0 1 14.550781 21.820312 A 2 2 0 0 1 16 21.197266 z "
     style="fill:#5281a9;fill-opacity:1" />
  <g
     id="Boxen_transparent"
     data-name="Boxen transparent">
    <rect
       class="cls-2"
       width="32"
       height="32"
       id="rect13"
       x="0"
       y="0" />
  </g>
</svg>
