<svg xmlns="http://www.w3.org/2000/svg" viewBox="0 0 35 35"><defs><style>.cls-1{fill:#585e62;}.cls-2{fill:none;}</style></defs><g id="Ebene_2" data-name="Ebene 2"><g id="Icons"><circle class="cls-1" cx="17.5" cy="17.5" r="2.5"/><path class="cls-1" d="M31.41,15l-3.49-.65a10.61,10.61,0,0,0-.84-2l2-3A.75.75,0,0,0,29,8.47L26.52,6a.75.75,0,0,0-.91-.09l-3,2a10.85,10.85,0,0,0-2.08-.86l-.65-3.47A.76.76,0,0,0,19.2,3H15.68a.75.75,0,0,0-.71.59L14.31,7.1a10.67,10.67,0,0,0-2,.83l-2.92-2A.75.75,0,0,0,8.47,6L6,8.52a.74.74,0,0,0-.08.91l2,2.94a11.35,11.35,0,0,0-.82,2L3.59,15a.75.75,0,0,0-.59.71v3.53a.75.75,0,0,0,.59.71l3.49.65a10.17,10.17,0,0,0,.84,2l-2,2.91a.76.76,0,0,0,.09.92L8.51,29a.75.75,0,0,0,.92.08l2.9-2a11.46,11.46,0,0,0,2,.82L15,31.41a.75.75,0,0,0,.71.59h3.53a.75.75,0,0,0,.71-.59l.65-3.48a10.6,10.6,0,0,0,2.06-.84l2.94,2a.77.77,0,0,0,.92-.09L29,26.53a.76.76,0,0,0,.09-.92l-2-2.92a11.11,11.11,0,0,0,.85-2.07L31.41,20a.75.75,0,0,0,.59-.71V15.73A.75.75,0,0,0,31.41,15ZM17.5,23.55a6.05,6.05,0,1,1,6.05-6.05A6.05,6.05,0,0,1,17.5,23.55Z"/></g><g id="Boxen_transparent" data-name="Boxen transparent"><rect class="cls-2" width="35" height="35"/></g></g></svg>