<svg xmlns="http://www.w3.org/2000/svg" viewBox="0 0 35 35"><defs><style>.cls-1{fill:#e7e9ea;}.cls-2{fill:#585e62;}.cls-3{fill:#fff;}.cls-4{fill:none;}</style></defs><g id="Ebene_2" data-name="Ebene 2"><g id="Icons"><rect class="cls-1" x="9" y="3" width="17" height="13"/><path class="cls-2" d="M22.94,4.81H19.31V13h3.63ZM26.56,3H24.75V14.78H10.25V3H3V32H32V8.44Z"/><path class="cls-3" d="M9.53,27.38a3.27,3.27,0,0,1-1.22-.76,3.65,3.65,0,0,1-.81-1.25,4.67,4.67,0,0,1-.29-1.74,4.72,4.72,0,0,1,.3-1.73,3.7,3.7,0,0,1,.82-1.29,3.5,3.5,0,0,1,1.21-.8A3.9,3.9,0,0,1,11,19.53a3.25,3.25,0,0,1,1.46.31,3.94,3.94,0,0,1,1,.71l-.92,1.13a3.73,3.73,0,0,0-.64-.45,1.74,1.74,0,0,0-.84-.18,1.9,1.9,0,0,0-.83.18,1.78,1.78,0,0,0-.66.5,2.29,2.29,0,0,0-.42.79A3.41,3.41,0,0,0,9,23.57a2.9,2.9,0,0,0,.54,1.88,2,2,0,0,0,1.65.67,1.84,1.84,0,0,0,.47-.06.91.91,0,0,0,.37-.18V24.53H10.76V23.09h2.85v3.6a3.16,3.16,0,0,1-1.08.67,3.82,3.82,0,0,1-1.5.28A4.34,4.34,0,0,1,9.53,27.38Z"/><path class="cls-3" d="M15.23,19.68h2.69a5.77,5.77,0,0,1,1.21.12,2.91,2.91,0,0,1,1,.42,2.11,2.11,0,0,1,.67.78A2.65,2.65,0,0,1,21,22.19a2.71,2.71,0,0,1-.25,1.19,2.28,2.28,0,0,1-.67.83,3,3,0,0,1-1,.48,4.41,4.41,0,0,1-1.17.15H17V27.5H15.23Zm2.63,3.76c1,0,1.44-.41,1.44-1.25a1,1,0,0,0-.38-.86,2,2,0,0,0-1.11-.25H17v2.36Z"/><path class="cls-3" d="M23.43,23.48l-2-3.8h2L24,21.15c.09.18.18.38.26.58l.3.68h0c.09-.25.18-.47.26-.68s.17-.4.25-.58l.62-1.47h1.88l-2,3.88,2.15,3.94h-2l-.78-1.6c-.1-.21-.19-.41-.28-.62s-.2-.42-.31-.66h-.05c-.09.24-.17.46-.26.66l-.27.62-.73,1.6H21.26Z"/></g><g id="Boxen_transparent" data-name="Boxen transparent"><rect class="cls-4" width="35" height="35"/></g></g></svg>