<svg xmlns="http://www.w3.org/2000/svg" viewBox="0 0 22 22"><defs><style>.cls-1{fill:#5281a9;}.cls-2{fill:none;}</style></defs><g id="Ebene_2" data-name="Ebene 2"><g id="Ebene_2-2" data-name="Ebene 2"><path class="cls-1" d="M21.79,11,11.44.64a.72.72,0,0,0-1,0L.21,10.84a.73.73,0,0,0,.51,1.24H2.28v8.38a1.1,1.1,0,0,0,1.1,1.1H7.66V15.25A1.55,1.55,0,0,1,9.21,13.7h3.44a1.54,1.54,0,0,1,1.55,1.55v6.32h4.28a1.11,1.11,0,0,0,1.11-1.1V12.21h1.68A.73.73,0,0,0,21.79,11Z"/></g><g id="Ebene_3" data-name="Ebene 3"><rect class="cls-2" width="22" height="22"/></g></g></svg>