<?xml version="1.0" encoding="utf-8"?>
<!-- Generator: Adobe Illustrator 26.0.1, SVG Export Plug-In . SVG Version: 6.00 Build 0)  -->
<svg version="1.1" id="Ebene_1" xmlns="http://www.w3.org/2000/svg" xmlns:xlink="http://www.w3.org/1999/xlink" x="0px" y="0px"
	 viewBox="0 0 32 22" style="enable-background:new 0 0 32 22;" xml:space="preserve">
<style type="text/css">
	.st0{fill:#5281A9;}
	.st1{fill:none;}
</style>
<g>
	<g>
		<g>
			<path class="st0" d="M27.286,3.608H4.714c-1.15,0-2.09,0.94-2.09,2.09V19.91c0,1.15,0.94,2.09,2.09,2.09h22.572
				c1.15,0,2.09-0.94,2.09-2.09V5.698C29.376,4.548,28.436,3.608,27.286,3.608z M9.817,7.828c1.242,0,2.248,1.007,2.248,2.248
				s-1.007,2.248-2.248,2.248c-1.242,0-2.248-1.007-2.248-2.248S8.576,7.828,9.817,7.828z M14.014,17.044H5.639
				c-0.044-0.257-0.068-0.521-0.068-0.792c0-1.719,0.93-3.209,2.292-3.953c0.522,0.459,1.205,0.74,1.954,0.74
				c0.753,0,1.439-0.283,1.961-0.746c1.369,0.741,2.304,2.235,2.304,3.959C14.083,16.522,14.059,16.787,14.014,17.044z
				 M26.242,14.524H16.21v-1.432h10.032V14.524z M26.297,11.563H16.265v-1.432h10.032V11.563z"/>
		</g>
	</g>
	<g>
		<rect x="7.201" class="st0" width="3.218" height="4.479"/>
		<rect x="21.582" class="st0" width="3.218" height="4.479"/>
	</g>
</g>
<rect class="st1" width="32" height="22"/>
</svg>
