<svg xmlns="http://www.w3.org/2000/svg" viewBox="0 0 32 32"><defs><style>.cls-1{fill:#5381a9;}.cls-2{fill:none;}</style></defs><g id="Ebene_2" data-name="Ebene 2"><g id="Icons"><path class="cls-1" d="M25.55,11.91h-.69V9.86a8.86,8.86,0,0,0-17.72,0v2.05H6.45a2.72,2.72,0,0,0-2.72,2.73V28.27A2.72,2.72,0,0,0,6.45,31h19.1a2.72,2.72,0,0,0,2.72-2.73V14.64A2.72,2.72,0,0,0,25.55,11.91ZM17.3,21.6h0v5.31H14.7V21.6a3.37,3.37,0,1,1,2.6,0Zm3.47-9.69H11.23V9.86a4.77,4.77,0,0,1,9.54,0Z"/></g><g id="Boxen_transparent" data-name="Boxen transparent"><rect class="cls-2" width="32" height="32"/></g></g></svg>