<?xml version="1.0" encoding="utf-8"?>
<!-- Generator: Adobe Illustrator 26.0.1, SVG Export Plug-In . SVG Version: 6.00 Build 0)  -->
<svg version="1.1" id="Ebene_1" xmlns="http://www.w3.org/2000/svg" xmlns:xlink="http://www.w3.org/1999/xlink" x="0px" y="0px"
	 viewBox="0 0 32 32" style="enable-background:new 0 0 32 32;" xml:space="preserve">
<style type="text/css">
	.st0{fill:#5281A9;}
	.st1{fill:none;}
</style>
<g id="Ebene_2_00000031899130713968978050000012333501342315100078_">
	<g id="Icons">
		<path class="st0" d="M31.689,16l-15-15c-0.416-0.409-1.084-0.409-1.5,0L0.31,15.77c-0.414,0.414-0.415,1.085-0.001,1.499
			c0.197,0.197,0.463,0.309,0.741,0.311h2.26v12.2c0,0.884,0.716,1.6,1.6,1.6l0,0h6.24v-9.2c0-1.243,1.007-2.25,2.25-2.25h5
			c1.243,0,2.25,1.007,2.25,2.25v9.2h6.24c0.884,0,1.6-0.716,1.6-1.6l0,0v-12h2.44c0.585-0.01,1.052-0.492,1.042-1.078
			C31.967,16.441,31.866,16.191,31.689,16z"/>
	</g>
	<g id="Boxen_transparent">
		<rect x="0" class="st1" width="31.999" height="32"/>
	</g>
</g>
</svg>
