<svg xmlns="http://www.w3.org/2000/svg" viewBox="0 0 32 32"><defs><style>.cls-1{fill:#5281a9;}.cls-2{fill:none;}</style></defs><g id="Ebene_2" data-name="Ebene 2"><g id="Icons"><path class="cls-1" d="M27.81,7.26H4.19A2.2,2.2,0,0,0,2,9.45V24.33a2.19,2.19,0,0,0,2.19,2.18H27.81A2.19,2.19,0,0,0,30,24.33V9.45A2.2,2.2,0,0,0,27.81,7.26ZM9.53,11.68A2.36,2.36,0,1,1,7.18,14,2.35,2.35,0,0,1,9.53,11.68Zm4.39,9.65H5.16a4.58,4.58,0,0,1-.08-.83,4.71,4.71,0,0,1,2.4-4.14,3.09,3.09,0,0,0,2,.77,3.05,3.05,0,0,0,2.05-.78A4.7,4.7,0,0,1,14,20.5,4.57,4.57,0,0,1,13.92,21.33Zm12.8-2.64H16.22v-1.5h10.5Zm.06-3.1H16.28v-1.5h10.5Z"/><rect class="cls-1" x="6.79" y="3.49" width="3.37" height="4.69"/><rect class="cls-1" x="21.84" y="3.49" width="3.37" height="4.69"/></g><g id="Boxen_transparent" data-name="Boxen transparent"><rect class="cls-2" width="32" height="32"/></g></g></svg>