<?xml version="1.0" encoding="utf-8"?>
<!-- Generator: Adobe Illustrator 26.1.0, SVG Export Plug-In . SVG Version: 6.00 Build 0)  -->
<svg version="1.1" id="Ebene_1" xmlns="http://www.w3.org/2000/svg" xmlns:xlink="http://www.w3.org/1999/xlink" x="0px" y="0px"
	 viewBox="0 0 39 35" style="enable-background:new 0 0 39 35;" xml:space="preserve">
<style type="text/css">
	.st0{fill:none;}
	.st1{fill-rule:evenodd;clip-rule:evenodd;fill:#ADADAD;}
	.st2{fill:#FFFFFF;}
</style>
<rect class="st0" width="39" height="35"/>
<circle class="st1" cx="20" cy="18" r="17"/>
<path class="st2" d="M21.438,15.557l0.412,1.383c0.748-0.378,1.49-0.756,2.232-1.126v1.578v2.785v2.927h1.767v-2.927v-3.116v-3.224
	l-0.856-0.054L21.438,15.557z M7.405,15.557l0.412,1.383c0.748-0.378,1.49-0.756,2.232-1.126v1.578v2.785v2.927h1.767v-2.927v-3.116
	v-3.224l-0.856-0.054L7.405,15.557z M17.852,18.281v-0.107v-2.489h-1.538v2.489v0.107h-0.021h-2.481v1.497h2.481h0.021v0.108v2.481
	h1.538v-2.481v-0.108h0.02h2.489v-1.497h-2.489H17.852z M30.244,19.763h-1.995v1.497h1.995h0.944h2v-1.497h-2H30.244z
	 M31.187,16.593h-0.944h-1.995v1.49h1.995h0.944h2v-1.49H31.187z"/>
</svg>
