<?xml version="1.0" encoding="utf-8"?>
<!-- Generator: Adobe Illustrator 26.1.0, SVG Export Plug-In . SVG Version: 6.00 Build 0)  -->
<svg version="1.1" id="Ebene_1" xmlns="http://www.w3.org/2000/svg" xmlns:xlink="http://www.w3.org/1999/xlink" x="0px" y="0px"
	 viewBox="0 0 39 35" style="enable-background:new 0 0 39 35;" xml:space="preserve">
<style type="text/css">
	.st0{fill:none;}
	.st1{fill-rule:evenodd;clip-rule:evenodd;fill:#003399;}
	.st2{fill:#FFFFFF;}
</style>
<rect class="st0" width="39" height="35"/>
<circle class="st1" cx="20" cy="18" r="17"/>
<path class="st2" d="M20,8.617c-6.072,0-10.994,3.725-10.994,8.319c0,3.379,2.667,6.281,6.491,7.584
	c0.257,0.942,0.074,2.582-2.982,4.409c0,0,5.215-0.396,7.486-3.674c6.072,0,10.994-3.725,10.994-8.319
	C30.994,12.341,26.072,8.617,20,8.617z M19.94,23.192c-0.867,0-1.479-0.611-1.479-1.444s0.611-1.445,1.479-1.445
	s1.479,0.612,1.479,1.445S20.808,23.192,19.94,23.192z M22.524,17.056c-0.918,0.527-1.411,1.055-1.411,2.312h-2.346
	c0-1.802,0.578-2.669,1.7-3.434c0.68-0.459,1.343-0.918,1.343-1.734c0-0.9-0.748-1.598-1.734-1.598c-1.139,0-1.955,0.935-2.107,2.21
	l-2.566-0.477c0.237-2.294,2.142-3.96,4.776-3.96c2.516,0,4.419,1.513,4.419,3.62C24.598,15.492,23.714,16.359,22.524,17.056z"/>
</svg>
