<?xml version="1.0" encoding="utf-8"?>
<!-- Generator: Adobe Illustrator 26.1.0, SVG Export Plug-In . SVG Version: 6.00 Build 0)  -->
<svg version="1.1" id="Ebene_1" xmlns="http://www.w3.org/2000/svg" xmlns:xlink="http://www.w3.org/1999/xlink" x="0px" y="0px"
	 viewBox="0 0 39 35" style="enable-background:new 0 0 39 35;" xml:space="preserve">
<style type="text/css">
	.st0{fill:none;}
	.st1{fill-rule:evenodd;clip-rule:evenodd;fill:#ADADAD;}
	.st2{fill:#FFFFFF;}
</style>
<rect class="st0" width="39" height="35"/>
<circle class="st1" cx="20" cy="18" r="17"/>
<g>
	<path class="st2" d="M7.968,21.208c0.595-0.576,1.133-1.107,1.614-1.593c0.481-0.486,0.892-0.937,1.229-1.351
		c0.338-0.414,0.597-0.801,0.776-1.161c0.181-0.36,0.271-0.703,0.271-1.026c0-0.459-0.121-0.822-0.364-1.087
		s-0.595-0.398-1.054-0.398c-0.333,0-0.637,0.095-0.911,0.284c-0.275,0.189-0.529,0.414-0.764,0.675L7.9,14.686
		c0.396-0.423,0.804-0.75,1.223-0.979c0.418-0.229,0.925-0.344,1.519-0.344c0.415,0,0.788,0.063,1.121,0.189
		s0.617,0.304,0.851,0.533c0.234,0.23,0.417,0.506,0.547,0.831c0.131,0.324,0.196,0.684,0.196,1.081c0,0.378-0.083,0.763-0.25,1.154
		c-0.166,0.392-0.392,0.788-0.675,1.188c-0.284,0.401-0.615,0.812-0.993,1.236c-0.378,0.423-0.778,0.859-1.201,1.31
		c0.225-0.018,0.468-0.038,0.729-0.061c0.262-0.022,0.495-0.034,0.702-0.034h2.107v1.323H7.968V21.208z"/>
</g>
<g>
	<path class="st2" d="M18.289,19.898h-3.795v-1.053l3.403-5.32h1.85v5.172h1.08v1.202h-1.08v2.215h-1.458V19.898z M18.289,18.697
		v-1.945c0-0.252,0.007-0.549,0.02-0.891c0.014-0.342,0.029-0.639,0.048-0.891h-0.055c-0.107,0.225-0.22,0.446-0.337,0.662
		s-0.239,0.441-0.365,0.675l-1.566,2.39H18.289z"/>
</g>
<g>
	<path class="st2" d="M28.599,20.013c0.099-0.634,0.24-1.24,0.425-1.816s0.421-1.137,0.709-1.682
		c0.288-0.544,0.64-1.105,1.054-1.681h-4.065v-1.31h5.767v0.945c-0.504,0.621-0.911,1.213-1.222,1.775
		c-0.311,0.563-0.557,1.139-0.736,1.729c-0.18,0.59-0.309,1.218-0.385,1.884c-0.076,0.667-0.133,1.418-0.169,2.255h-1.58
		C28.432,21.348,28.499,20.648,28.599,20.013z"/>
</g>
<g>
	<path class="st2" d="M24.496,11.849h1.053l-3.267,12.327h-1.054L24.496,11.849z"/>
</g>
</svg>
