<?xml version="1.0" encoding="utf-8"?>
<!-- Generator: Adobe Illustrator 26.1.0, SVG Export Plug-In . SVG Version: 6.00 Build 0)  -->
<svg version="1.1" id="Ebene_1" xmlns="http://www.w3.org/2000/svg" xmlns:xlink="http://www.w3.org/1999/xlink" x="0px" y="0px"
	 viewBox="0 0 39 35" style="enable-background:new 0 0 39 35;" xml:space="preserve">
<style type="text/css">
	.st0{fill:none;}
	.st1{fill-rule:evenodd;clip-rule:evenodd;fill:#ADADAD;}
	.st2{fill:#FFFFFF;}
</style>
<rect class="st0" width="39" height="35"/>
<circle class="st1" cx="20" cy="18" r="17"/>
<path class="st2" d="M19.795,20.484l-1.52,4.208l1.427,3.487c0.314,0.767,1.19,1.134,1.956,0.82c0.767-0.314,1.134-1.189,0.82-1.956
	L19.795,20.484z M24.598,17.165l-5.625-7.125c-0.222-0.281-0.551-0.427-0.883-0.427V9.612h-1.5v0.001
	c-0.335,0-0.666,0.148-0.888,0.433l-2.862,3.68v4.486c0,0.631,0.516,1.162,1.147,1.15c0.611-0.012,1.103-0.511,1.103-1.125v-3.739
	l0.75-0.964v6.595l-2.535,6.97c-0.283,0.779,0.119,1.639,0.897,1.922c0.778,0.283,1.639-0.118,1.922-0.897l3.09-8.498v-5.025
	l-1.472-1.866c-0.064-0.081-0.051-0.199,0.03-0.263c0.081-0.064,0.199-0.051,0.263,0.03l4.795,6.057
	c0.429,0.543,1.142,0.531,1.58,0.186C24.9,18.36,24.982,17.651,24.598,17.165z M30.774,26.472l-5.896-7.661
	c-0.161,0.198-0.37,0.351-0.607,0.445l5.863,7.606c0.107,0.177,0.338,0.233,0.515,0.126c0,0,0,0,0,0
	C30.825,26.88,30.881,26.649,30.774,26.472z M17.386,9.009c1.139,0,2.062-0.923,2.062-2.062s-0.923-2.062-2.062-2.062
	s-2.062,0.923-2.062,2.062S16.247,9.009,17.386,9.009z"/>
</svg>
