<?xml version="1.0" encoding="utf-8"?>
<!-- Generator: Adobe Illustrator 26.1.0, SVG Export Plug-In . SVG Version: 6.00 Build 0)  -->
<svg version="1.1" id="Ebene_1" xmlns="http://www.w3.org/2000/svg" xmlns:xlink="http://www.w3.org/1999/xlink" x="0px" y="0px"
	 viewBox="0 0 39 35" style="enable-background:new 0 0 39 35;" xml:space="preserve">
<style type="text/css">
	.st0{fill:none;}
	.st1{fill-rule:evenodd;clip-rule:evenodd;fill:#003399;}
	.st2{fill:#FFFFFF;}
</style>
<rect class="st0" width="39" height="35"/>
<circle class="st1" cx="20" cy="18" r="17"/>
<path class="st2" d="M23.264,23.522c0.296,0,0.539-0.078,0.731-0.234c0.191-0.155,0.288-0.394,0.288-0.713
	c0-0.168-0.038-0.312-0.114-0.432c-0.076-0.12-0.186-0.23-0.33-0.33c-0.144-0.1-0.313-0.194-0.51-0.282
	c-0.195-0.088-0.413-0.184-0.653-0.288c-0.168,0.16-0.308,0.345-0.42,0.552c-0.111,0.208-0.168,0.428-0.168,0.66
	c0,0.336,0.116,0.598,0.348,0.785C22.668,23.429,22.944,23.522,23.264,23.522z M23.708,20.164c0.312-0.359,0.468-0.731,0.468-1.115
	c0-0.296-0.082-0.533-0.246-0.714c-0.163-0.18-0.39-0.27-0.677-0.27c-0.232,0-0.433,0.072-0.601,0.216
	c-0.167,0.144-0.251,0.364-0.251,0.659c0,0.312,0.119,0.557,0.359,0.732S23.316,20.013,23.708,20.164z M27.071,9.571h-1.929V8.286
	c0-0.71-0.575-1.286-1.286-1.286c-0.711,0-1.286,0.576-1.286,1.286v1.286h-5.143V8.286c0-0.71-0.575-1.286-1.286-1.286
	c-0.711,0-1.286,0.576-1.286,1.286v1.286h-1.929C11.863,9.571,11,10.435,11,11.5v1.929h18V11.5C29,10.435,28.136,9.571,27.071,9.571
	z M11,25.643c0,1.065,0.863,1.929,1.929,1.929h14.143c1.065,0,1.929-0.864,1.929-1.929V14.714H11V25.643z M21.141,19.979
	c-0.191-0.284-0.288-0.63-0.288-1.038c0-0.319,0.061-0.609,0.181-0.869c0.119-0.26,0.287-0.481,0.503-0.666
	c0.216-0.184,0.474-0.323,0.773-0.419c0.3-0.097,0.626-0.145,0.978-0.145c0.344,0,0.66,0.05,0.948,0.15
	c0.287,0.1,0.531,0.239,0.731,0.42c0.199,0.18,0.355,0.399,0.468,0.659c0.111,0.26,0.168,0.546,0.168,0.857
	c0,0.368-0.101,0.693-0.3,0.978c-0.2,0.284-0.432,0.514-0.696,0.689v0.048c0.368,0.2,0.68,0.456,0.936,0.768
	c0.256,0.312,0.384,0.72,0.384,1.224c0,0.304-0.063,0.584-0.191,0.84s-0.311,0.478-0.546,0.665c-0.236,0.188-0.52,0.336-0.852,0.444
	c-0.332,0.107-0.701,0.162-1.109,0.162c-0.384,0-0.737-0.051-1.062-0.15s-0.604-0.242-0.84-0.426
	c-0.235-0.184-0.419-0.403-0.552-0.659c-0.132-0.256-0.197-0.54-0.197-0.852c0-0.464,0.126-0.844,0.378-1.14s0.558-0.54,0.917-0.731
	V20.74C21.577,20.516,21.333,20.262,21.141,19.979z M15.128,17.147c0.393-0.203,0.86-0.306,1.403-0.306
	c0.376,0,0.718,0.059,1.025,0.174c0.309,0.116,0.574,0.28,0.798,0.492s0.396,0.466,0.516,0.762s0.18,0.627,0.18,0.995
	c0,0.32-0.067,0.646-0.203,0.978c-0.137,0.332-0.318,0.664-0.546,0.995c-0.229,0.332-0.488,0.664-0.779,0.996
	c-0.292,0.331-0.594,0.657-0.906,0.978c0.192-0.024,0.406-0.046,0.642-0.066c0.236-0.02,0.446-0.03,0.63-0.03h1.535v1.487h-5.361
	v-1.007c0.488-0.456,0.934-0.882,1.338-1.277c0.403-0.396,0.751-0.768,1.043-1.115c0.292-0.349,0.52-0.672,0.684-0.972
	s0.246-0.586,0.246-0.857c0-0.376-0.096-0.662-0.288-0.857c-0.191-0.196-0.455-0.294-0.791-0.294c-0.28,0-0.528,0.077-0.744,0.233
	s-0.42,0.338-0.611,0.546l-0.96-0.947C14.353,17.653,14.737,17.352,15.128,17.147z"/>
</svg>
