<?xml version="1.0" encoding="utf-8"?>
<!-- Generator: Adobe Illustrator 26.2.1, SVG Export Plug-In . SVG Version: 6.00 Build 0)  -->
<svg version="1.1" id="Ebene_1" xmlns="http://www.w3.org/2000/svg" xmlns:xlink="http://www.w3.org/1999/xlink" x="0px" y="0px"
	 viewBox="0 0 39 35" style="enable-background:new 0 0 39 35;" xml:space="preserve">
<style type="text/css">
	.st0{fill:none;}
	.st1{fill-rule:evenodd;clip-rule:evenodd;fill:#003399;}
	.st2{fill:#FFFFFF;}
</style>
<rect class="st0" width="39" height="35"/>
<circle class="st1" cx="20" cy="18" r="17"/>
<path class="st2" d="M15.013,27.739c0,1.09,0.893,1.982,1.984,1.982h6.007c1.091,0,1.984-0.892,1.984-1.982v-3.846h-9.975V27.739z
	 M24.082,20.289h-8.163c-1.091,0-1.984,0.892-1.984,1.982v0.661h12.131v-0.661C26.065,21.181,25.173,20.289,24.082,20.289z
	 M12.496,14.06c-0.837,0-1.515,0.678-1.515,1.515s0.678,1.515,1.515,1.515c0.837,0,1.515-0.678,1.515-1.515
	S13.332,14.06,12.496,14.06z M31.91,13.12c-0.084-2.065-1.786-1.993-2.887-2.334c-1.511-0.469-1.816-1.733-3.982-2.422
	c-2.064-0.657-4.42-0.841-6.065-0.493c-2.079,0.44-4.009,1.687-4.966,2.493c-0.927,0.781-1.259,0.811-2.67,1.174
	c-1.495,0.385-2.729,0.623-3.131,1.658c-0.326,0.838-0.217,2.001-0.035,2.932h1.802c-0.039-0.179-0.063-0.363-0.063-0.553
	c0-1.426,1.156-2.583,2.583-2.583s2.583,1.156,2.583,2.583c0,0.19-0.024,0.375-0.063,0.553h10.252
	c-0.039-0.179-0.063-0.363-0.063-0.553c0-1.426,1.156-2.583,2.583-2.583s2.583,1.156,2.583,2.583c0,0.19-0.024,0.375-0.063,0.553
	h1.248C32.189,15.446,31.982,14.886,31.91,13.12z M20.651,9.222c-0.009,0.098-0.229,1.734-0.229,1.734
	c-0.022,0.132,0.012,0.201-0.308,0.21c-0.227,0.007-2.878,0.175-3.956,0.175c-0.398,0-0.346,0-0.803,0
	c-0.604,0-0.065-0.392,0.08-0.513c1.73-1.45,3.785-1.599,4.584-1.757C20.75,8.925,20.659,9.142,20.651,9.222z M26.688,11.055
	c-0.041,0.002-4.687,0.068-5.051,0.07c-0.275,0.001-0.284-0.065-0.277-0.174c0.007-0.109,0.201-1.694,0.225-1.851
	c0.019-0.125,0.15-0.109,0.27-0.105c3.287,0.088,4.719,1.594,4.883,1.815C26.903,11.029,26.729,11.052,26.688,11.055z M27.787,14.06
	c-0.837,0-1.515,0.678-1.515,1.515s0.678,1.515,1.515,1.515s1.515-0.678,1.515-1.515S28.624,14.06,27.787,14.06z"/>
</svg>
