<?xml version="1.0" encoding="utf-8"?>
<!-- Generator: Adobe Illustrator 26.1.0, SVG Export Plug-In . SVG Version: 6.00 Build 0)  -->
<svg version="1.1" id="Ebene_1" xmlns="http://www.w3.org/2000/svg" xmlns:xlink="http://www.w3.org/1999/xlink" x="0px" y="0px"
	 viewBox="0 0 39 35" style="enable-background:new 0 0 39 35;" xml:space="preserve">
<style type="text/css">
	.st0{fill:none;}
	.st1{fill-rule:evenodd;clip-rule:evenodd;fill:#ADADAD;}
	.st2{fill:#FFFFFF;}
	.st3{fill:#C1121C;}
</style>
<rect class="st0" width="39" height="35"/>
<circle class="st1" cx="20.088" cy="18" r="17"/>
<path class="st2" d="M21.265,14.398c0.193,0,1.022-0.132,1.234-0.739c0.067-0.192,0.092-0.338,0.111-0.455
	c0.06-0.361,0.144-0.452,0.654-0.452h3.011C26.009,11.194,24.679,10,23.044,10c-1.827,0-3.309,1.481-3.309,3.309
	c0,0.384,0.081,0.747,0.202,1.09H21.265z M23.089,13.959c-0.331,0.945-1.456,1.158-1.824,1.158h-0.609
	c0.453,0.73,1.256,1.221,2.179,1.221c1.419,0,2.57-1.151,2.57-2.57c0-0.102-0.018-0.199-0.03-0.298c-1.007,0-2.152,0-2.16,0
	C23.192,13.6,23.159,13.759,23.089,13.959z M20.639,16.221c-0.025-0.037-0.062-0.057-0.091-0.091
	c-0.325-0.566-0.989-0.878-1.657-0.712L10.914,17.4c-0.005,0.001-0.009,0.004-0.013,0.005c-0.061,0.016-0.12,0.041-0.18,0.064
	c-0.034,0.014-0.07,0.023-0.103,0.039c-0.039,0.019-0.075,0.045-0.112,0.068c-0.049,0.029-0.099,0.057-0.143,0.091
	c-0.004,0.003-0.009,0.005-0.013,0.008c-0.029,0.023-0.051,0.051-0.078,0.075c-0.043,0.039-0.086,0.076-0.124,0.119
	c-0.032,0.037-0.058,0.077-0.086,0.115c-0.029,0.04-0.059,0.078-0.083,0.121c-0.024,0.042-0.042,0.086-0.062,0.13
	c-0.021,0.045-0.042,0.088-0.058,0.135c-0.015,0.043-0.023,0.087-0.034,0.131c-0.012,0.05-0.026,0.1-0.033,0.152
	c-0.006,0.046-0.006,0.091-0.008,0.137c-0.002,0.05-0.007,0.1-0.004,0.151c0.003,0.056,0.015,0.112,0.024,0.168
	c0.006,0.036,0.007,0.072,0.015,0.108c0.001,0.004,0.004,0.007,0.005,0.01c0.036,0.143,0.1,0.28,0.18,0.411
	c0.015,0.025,0.03,0.05,0.047,0.074c0.016,0.023,0.027,0.047,0.044,0.07l3.995,5.093H9.438c-0.69,0-1.25,0.56-1.25,1.25
	s0.56,1.25,1.25,1.25h7.336c0.003,0,0.006,0.001,0.009,0.001c0.002,0,0.004-0.001,0.006-0.001h0.006
	c0.009,0,0.016-0.005,0.025-0.005c0.312-0.008,0.624-0.107,0.888-0.313c0.651-0.512,0.766-1.454,0.255-2.106l-3.105-3.959
	l4.927-1.896l4.811,7.263c0.222,0.334,0.587,0.516,0.96,0.516c0.218,0,0.438-0.062,0.634-0.191c0.53-0.351,0.675-1.064,0.324-1.594
	L20.639,16.221z M32.235,9.212l-5.323,3.136l5.323,3.136c0.547-0.919,0.867-1.989,0.867-3.136S32.782,10.131,32.235,9.212z
	 M11.643,16.17c0.108,0,0.219-0.016,0.328-0.048l4.851-1.443c0.608-0.182,0.955-0.822,0.774-1.431s-0.821-0.955-1.431-0.774
	l-4.851,1.443c-0.608,0.182-0.955,0.822-0.774,1.431C10.688,15.847,11.146,16.17,11.643,16.17z"/>
<polygon class="st3" points="4.398,35 3,33.57 35.602,1 37,2.43 "/>
</svg>
