<?xml version="1.0" encoding="utf-8"?>
<!-- Generator: Adobe Illustrator 26.2.1, SVG Export Plug-In . SVG Version: 6.00 Build 0)  -->
<svg version="1.1" id="Ebene_1" xmlns="http://www.w3.org/2000/svg" xmlns:xlink="http://www.w3.org/1999/xlink" x="0px" y="0px"
	 viewBox="0 0 39 35" style="enable-background:new 0 0 39 35;" xml:space="preserve">
<style type="text/css">
	.st0{fill:none;}
	.st1{fill-rule:evenodd;clip-rule:evenodd;fill:#ADADAD;}
	.st2{fill:#FFFFFF;}
</style>
<rect class="st0" width="39" height="35"/>
<circle class="st1" cx="20" cy="18" r="17"/>
<path class="st2" d="M26.979,9.57l0.452,2.669l-3.808,3.317l-1.08,9.281l-2.99,0.57v-3.866v-2.03v-0.037h-0.084l-2.341-1.019v-3.144
	l3.101,2.219c0.321,0.23,0.773,0.155,1.003-0.166c0.23-0.321,0.155-0.773-0.166-1.003l-3.937-2.818V12.82l5.465,1.462
	c0.382,0.102,0.778-0.127,0.88-0.509c0.102-0.382-0.127-0.778-0.509-0.88l-5.836-1.561v-0.001h-2.355
	c-0.676,0-1.251,0.435-1.472,1.037c-0.12-0.411-0.486-0.72-0.934-0.72c-0.544,0-0.989,0.445-0.989,0.989v5.028H13.2v8.954
	l-2.037,0.388l-0.744,1.362h19V6.847L26.979,9.57z M17.691,25.763l-2.631,0.501v-6.677l2.631,1.145V25.763z M15.71,10.499
	c0.923,0,1.671-0.748,1.671-1.671c0-0.923-0.748-1.671-1.671-1.671c-0.923,0-1.671,0.748-1.671,1.671
	C14.039,9.751,14.787,10.499,15.71,10.499z"/>
</svg>
