<?xml version="1.0" encoding="utf-8"?>
<!-- Generator: Adobe Illustrator 26.1.0, SVG Export Plug-In . SVG Version: 6.00 Build 0)  -->
<svg version="1.1" id="Ebene_1" xmlns="http://www.w3.org/2000/svg" xmlns:xlink="http://www.w3.org/1999/xlink" x="0px" y="0px"
	 viewBox="0 0 39 35" style="enable-background:new 0 0 39 35;" xml:space="preserve">
<style type="text/css">
	.st0{fill:none;}
	.st1{fill-rule:evenodd;clip-rule:evenodd;fill:#ADADAD;}
	.st2{fill:#FFFFFF;}
</style>
<rect class="st0" width="39" height="35"/>
<circle class="st1" cx="20" cy="18" r="17"/>
<g>
	<path class="st2" d="M9.664,22.726c-0.537-0.269-0.981-0.6-1.333-0.992l0.853-1.147c0.3,0.3,0.641,0.556,1.023,0.768
		c0.382,0.212,0.821,0.317,1.317,0.317c0.538,0,0.975-0.131,1.311-0.395s0.504-0.628,0.504-1.093c0-0.258-0.047-0.491-0.14-0.697
		c-0.094-0.207-0.251-0.382-0.473-0.527c-0.223-0.145-0.52-0.256-0.892-0.333c-0.372-0.078-0.837-0.116-1.396-0.116v-1.303
		c0.485,0,0.892-0.039,1.217-0.116c0.326-0.077,0.589-0.186,0.791-0.325c0.201-0.14,0.346-0.308,0.434-0.504
		s0.132-0.408,0.132-0.636c0-0.414-0.129-0.736-0.388-0.969c-0.258-0.233-0.614-0.349-1.069-0.349c-0.393,0-0.747,0.085-1.062,0.256
		c-0.315,0.17-0.623,0.396-0.923,0.674l-0.915-1.101c0.424-0.372,0.876-0.672,1.356-0.899c0.481-0.227,1.016-0.341,1.604-0.341
		c0.476,0,0.91,0.057,1.303,0.17c0.393,0.114,0.729,0.282,1.008,0.504s0.496,0.496,0.651,0.822c0.154,0.326,0.232,0.695,0.232,1.108
		c0,0.558-0.152,1.023-0.458,1.396c-0.305,0.372-0.726,0.661-1.263,0.868v0.062c0.589,0.155,1.077,0.439,1.465,0.853
		c0.388,0.413,0.581,0.946,0.581,1.597c0,0.455-0.09,0.858-0.271,1.209c-0.181,0.351-0.429,0.648-0.744,0.891
		c-0.314,0.243-0.682,0.429-1.101,0.558c-0.418,0.129-0.865,0.194-1.341,0.194C10.873,23.129,10.202,22.995,9.664,22.726z"/>
</g>
<g>
	<path class="st2" d="M18.753,22.842c-0.435-0.191-0.814-0.483-1.14-0.876c-0.325-0.393-0.584-0.894-0.775-1.504
		s-0.287-1.328-0.287-2.155c0-0.961,0.109-1.783,0.326-2.465c0.217-0.682,0.504-1.24,0.86-1.674
		c0.356-0.435,0.768-0.755,1.232-0.961s0.951-0.31,1.457-0.31c0.6,0,1.114,0.108,1.543,0.326c0.429,0.217,0.793,0.48,1.093,0.791
		l-0.961,1.085c-0.176-0.217-0.406-0.395-0.69-0.535s-0.576-0.209-0.876-0.209c-0.31,0-0.602,0.062-0.876,0.187
		c-0.273,0.124-0.514,0.328-0.721,0.612c-0.206,0.284-0.374,0.659-0.504,1.124c-0.129,0.465-0.204,1.039-0.225,1.721
		c0.289-0.362,0.628-0.646,1.016-0.853c0.388-0.207,0.762-0.311,1.124-0.311c0.424,0,0.813,0.062,1.17,0.187
		c0.357,0.124,0.662,0.312,0.915,0.565c0.253,0.253,0.449,0.571,0.589,0.954s0.21,0.832,0.21,1.349c0,0.496-0.083,0.943-0.248,1.341
		c-0.166,0.398-0.388,0.736-0.667,1.015c-0.279,0.279-0.607,0.496-0.984,0.651c-0.377,0.155-0.777,0.232-1.201,0.232
		C19.646,23.129,19.187,23.033,18.753,22.842z M21.147,21.284c0.284-0.32,0.427-0.786,0.427-1.396c0-0.589-0.135-1.028-0.403-1.318
		c-0.269-0.289-0.651-0.434-1.147-0.434c-0.278,0-0.573,0.085-0.883,0.255c-0.311,0.171-0.605,0.463-0.884,0.876
		c0.093,0.878,0.302,1.514,0.628,1.907c0.325,0.393,0.73,0.589,1.217,0.589C20.515,21.765,20.863,21.604,21.147,21.284z"/>
</g>
<g>
	<path class="st2" d="M25.79,22.718c-0.543-0.274-0.995-0.592-1.356-0.954l0.821-1.147c0.3,0.279,0.636,0.524,1.008,0.736
		s0.807,0.317,1.303,0.317c0.558,0,1.016-0.165,1.372-0.496c0.356-0.331,0.534-0.795,0.534-1.395c0-0.589-0.165-1.044-0.496-1.364
		c-0.33-0.32-0.77-0.48-1.317-0.48c-0.32,0-0.589,0.044-0.806,0.132c-0.218,0.088-0.476,0.23-0.775,0.426l-0.853-0.543l0.294-4.868
		h5.271v1.504h-3.721l-0.202,2.387c0.207-0.103,0.411-0.183,0.612-0.24c0.202-0.057,0.432-0.085,0.69-0.085
		c0.424,0,0.824,0.062,1.201,0.186s0.706,0.313,0.984,0.566c0.279,0.253,0.502,0.574,0.667,0.961
		c0.165,0.388,0.248,0.845,0.248,1.372c0,0.537-0.096,1.018-0.287,1.441c-0.191,0.424-0.447,0.781-0.768,1.07
		c-0.32,0.29-0.689,0.509-1.108,0.659c-0.418,0.15-0.854,0.225-1.31,0.225C27.002,23.129,26.333,22.992,25.79,22.718z"/>
</g>
</svg>
