<?xml version="1.0" encoding="utf-8"?>
<!-- Generator: Adobe Illustrator 26.1.0, SVG Export Plug-In . SVG Version: 6.00 Build 0)  -->
<svg version="1.1" id="Ebene_1" xmlns="http://www.w3.org/2000/svg" xmlns:xlink="http://www.w3.org/1999/xlink" x="0px" y="0px"
	 viewBox="0 0 39 35" style="enable-background:new 0 0 39 35;" xml:space="preserve">
<style type="text/css">
	.st0{fill:none;}
	.st1{fill-rule:evenodd;clip-rule:evenodd;fill:#ADADAD;}
	.st2{fill-rule:evenodd;clip-rule:evenodd;fill:#FFFFFF;}
</style>
<rect class="st0" width="39" height="35"/>
<circle class="st1" cx="20" cy="18" r="17"/>
<path class="st1" d="M20,11.679c-3.491,0-6.321,2.83-6.321,6.321c0,3.491,2.83,6.321,6.321,6.321c3.491,0,6.321-2.83,6.321-6.321
	C26.321,14.509,23.491,11.679,20,11.679z M20,9.789c0.349,0,0.632-0.283,0.632-0.632V6.632C20.632,6.283,20.349,6,20,6
	s-0.632,0.283-0.632,0.632v2.526C19.368,9.507,19.651,9.789,20,9.789z M20,26.211c-0.349,0-0.632,0.283-0.632,0.632v2.526
	C19.368,29.717,19.651,30,20,30s0.632-0.283,0.632-0.632v-2.526C20.632,26.493,20.349,26.211,20,26.211z M31.368,17.368h-2.526
	c-0.349,0-0.632,0.283-0.632,0.632s0.283,0.632,0.632,0.632h2.526C31.717,18.632,32,18.349,32,18S31.717,17.368,31.368,17.368z
	 M11.789,18c0-0.349-0.283-0.632-0.632-0.632H8.632C8.283,17.368,8,17.651,8,18s0.283,0.632,0.632,0.632h2.526
	C11.507,18.632,11.789,18.349,11.789,18z M26.253,12.379c0.162,0,0.323-0.062,0.447-0.185l1.785-1.785
	c0.247-0.247,0.247-0.647,0-0.893c-0.247-0.247-0.646-0.247-0.893,0l-1.785,1.785c-0.247,0.247-0.247,0.647,0,0.893
	C25.929,12.317,26.091,12.379,26.253,12.379z M13.301,23.806l-1.785,1.785c-0.247,0.247-0.247,0.647,0,0.893
	c0.123,0.123,0.285,0.185,0.447,0.185c0.162,0,0.323-0.062,0.447-0.185l1.785-1.785c0.247-0.247,0.247-0.647,0-0.893
	C13.947,23.559,13.547,23.559,13.301,23.806z M26.699,23.806c-0.247-0.247-0.646-0.247-0.893,0c-0.247,0.247-0.247,0.647,0,0.893
	l1.785,1.785c0.123,0.123,0.285,0.185,0.447,0.185c0.162,0,0.323-0.062,0.447-0.185c0.247-0.247,0.247-0.647,0-0.893L26.699,23.806z
	 M13.301,12.194c0.123,0.123,0.285,0.185,0.447,0.185c0.162,0,0.323-0.062,0.447-0.185c0.247-0.247,0.247-0.647,0-0.893
	l-1.785-1.785c-0.247-0.247-0.646-0.247-0.893,0c-0.247,0.247-0.247,0.647,0,0.893L13.301,12.194z"/>
<path class="st2" d="M20,11.679c-3.491,0-6.321,2.83-6.321,6.321c0,3.491,2.83,6.321,6.321,6.321c3.491,0,6.321-2.83,6.321-6.321
	C26.321,14.509,23.491,11.679,20,11.679z M20,9.789c0.349,0,0.632-0.283,0.632-0.632V6.632C20.632,6.283,20.349,6,20,6
	s-0.632,0.283-0.632,0.632v2.526C19.368,9.507,19.651,9.789,20,9.789z M20,26.211c-0.349,0-0.632,0.283-0.632,0.632v2.526
	C19.368,29.717,19.651,30,20,30s0.632-0.283,0.632-0.632v-2.526C20.632,26.493,20.349,26.211,20,26.211z M31.368,17.368h-2.526
	c-0.349,0-0.632,0.283-0.632,0.632s0.283,0.632,0.632,0.632h2.526C31.717,18.632,32,18.349,32,18S31.717,17.368,31.368,17.368z
	 M11.789,18c0-0.349-0.283-0.632-0.632-0.632H8.632C8.283,17.368,8,17.651,8,18s0.283,0.632,0.632,0.632h2.526
	C11.507,18.632,11.789,18.349,11.789,18z M26.253,12.379c0.162,0,0.323-0.062,0.447-0.185l1.785-1.785
	c0.247-0.247,0.247-0.647,0-0.893c-0.247-0.247-0.646-0.247-0.893,0l-1.785,1.785c-0.247,0.247-0.247,0.647,0,0.893
	C25.929,12.317,26.091,12.379,26.253,12.379z M13.301,23.806l-1.785,1.785c-0.247,0.247-0.247,0.647,0,0.893
	c0.123,0.123,0.285,0.185,0.447,0.185c0.162,0,0.323-0.062,0.447-0.185l1.785-1.785c0.247-0.247,0.247-0.647,0-0.893
	C13.947,23.559,13.547,23.559,13.301,23.806z M26.699,23.806c-0.247-0.247-0.646-0.247-0.893,0c-0.247,0.247-0.247,0.647,0,0.893
	l1.785,1.785c0.123,0.123,0.285,0.185,0.447,0.185c0.162,0,0.323-0.062,0.447-0.185c0.247-0.247,0.247-0.647,0-0.893L26.699,23.806z
	 M13.301,12.194c0.123,0.123,0.285,0.185,0.447,0.185c0.162,0,0.323-0.062,0.447-0.185c0.247-0.247,0.247-0.647,0-0.893
	l-1.785-1.785c-0.247-0.247-0.646-0.247-0.893,0c-0.247,0.247-0.247,0.647,0,0.893L13.301,12.194z"/>
</svg>
