<?xml version="1.0" encoding="utf-8"?>
<!-- Generator: Adobe Illustrator 26.1.0, SVG Export Plug-In . SVG Version: 6.00 Build 0)  -->
<svg version="1.1" id="Ebene_1" xmlns="http://www.w3.org/2000/svg" xmlns:xlink="http://www.w3.org/1999/xlink" x="0px" y="0px"
	 viewBox="0 0 39 35" style="enable-background:new 0 0 39 35;" xml:space="preserve">
<style type="text/css">
	.st0{fill:none;}
	.st1{fill-rule:evenodd;clip-rule:evenodd;fill:#ADADAD;}
	.st2{fill:#FFFFFF;}
</style>
<rect class="st0" width="39" height="35"/>
<circle class="st1" cx="20" cy="18" r="17"/>
<g>
	<path class="st2" d="M21.892,20.354h-5.296c0.133,1.107,0.359,2.04,0.681,2.797c0.321,0.758,0.7,1.373,1.138,1.843
		c0.437,0.471,0.915,0.808,1.436,1.013c0.521,0.205,1.052,0.307,1.594,0.307c0.321,0,0.642-0.042,0.963-0.125
		s0.667-0.224,1.037-0.423c0.371-0.199,0.778-0.467,1.221-0.805c0.442-0.337,0.946-0.761,1.511-1.27
		c0.133,0.089,0.26,0.23,0.382,0.423c0.122,0.194,0.227,0.34,0.315,0.44c-0.664,0.753-1.272,1.378-1.826,1.876
		s-1.09,0.896-1.61,1.195s-1.037,0.509-1.553,0.631c-0.514,0.122-1.06,0.183-1.635,0.183c-0.841,0-1.646-0.164-2.416-0.49
		c-0.769-0.326-1.458-0.824-2.066-1.494c-0.608-0.669-1.118-1.511-1.527-2.523s-0.681-2.205-0.813-3.578h-1.478l-0.398-0.465
		c0.056-0.166,0.119-0.362,0.191-0.589c0.071-0.227,0.141-0.429,0.207-0.606h1.395v-0.199c0-0.321,0.008-0.639,0.025-0.955
		c0.016-0.315,0.035-0.623,0.058-0.921h-0.979l-0.398-0.465c0.056-0.166,0.119-0.362,0.191-0.589
		c0.071-0.227,0.141-0.429,0.207-0.606h1.195c0.232-1.25,0.595-2.346,1.088-3.287c0.492-0.94,1.093-1.724,1.801-2.349
		c0.708-0.625,1.517-1.096,2.424-1.411s1.893-0.473,2.955-0.473c0.554,0,1.06,0.044,1.52,0.133c0.459,0.089,0.882,0.208,1.27,0.357
		s0.744,0.324,1.07,0.523c0.327,0.199,0.634,0.415,0.922,0.647c0.066,0.056,0.044,0.188-0.066,0.398
		c-0.11,0.21-0.258,0.448-0.439,0.714c-0.184,0.266-0.374,0.523-0.573,0.772s-0.365,0.44-0.498,0.573l-0.747-0.149
		c-0.266-0.31-0.525-0.589-0.78-0.838s-0.528-0.462-0.821-0.639c-0.294-0.177-0.617-0.312-0.972-0.407
		c-0.354-0.094-0.77-0.141-1.245-0.141c-0.365,0-0.747,0.078-1.146,0.232c-0.398,0.155-0.777,0.438-1.138,0.847
		c-0.359,0.41-0.686,0.977-0.979,1.702c-0.294,0.725-0.513,1.658-0.656,2.797h5.927l0.465,0.415l-0.465,1.245h-6.06
		c-0.022,0.222-0.033,0.448-0.033,0.681v1.395h5.429l0.465,0.415L21.892,20.354z"/>
</g>
</svg>
