<?xml version="1.0" encoding="utf-8"?>
<!-- Generator: Adobe Illustrator 26.1.0, SVG Export Plug-In . SVG Version: 6.00 Build 0)  -->
<svg version="1.1" id="Ebene_1" xmlns="http://www.w3.org/2000/svg" xmlns:xlink="http://www.w3.org/1999/xlink" x="0px" y="0px"
	 viewBox="0 0 39 35" style="enable-background:new 0 0 39 35;" xml:space="preserve">
<style type="text/css">
	.st0{fill:none;}
	.st1{fill-rule:evenodd;clip-rule:evenodd;fill:#ADADAD;}
	.st2{fill:#FFFFFF;}
</style>
<rect class="st0" width="39" height="35"/>
<circle class="st1" cx="20" cy="18" r="17"/>
<path class="st2" d="M28.383,15.119c0.049,0,0.1-0.007,0.149-0.022l3.987-1.247c0.263-0.083,0.41-0.363,0.328-0.627
	s-0.363-0.411-0.626-0.328l-3.987,1.247c-0.263,0.083-0.41,0.363-0.328,0.627C27.973,14.982,28.17,15.119,28.383,15.119z
	 M18.841,14.977h-11c-1.105,0-2,0.895-2,2v2c0,1.105,0.895,2,2,2h11l2,2h2v-10h-2L18.841,14.977z M18,19h-4v-2h4V19z M32.435,22.022
	l-3.987-1.247c-0.266-0.085-0.544,0.064-0.626,0.328c-0.083,0.264,0.064,0.544,0.328,0.627l3.987,1.247
	c0.05,0.016,0.1,0.022,0.149,0.022c0.213,0,0.41-0.137,0.477-0.351C32.845,22.386,32.698,22.105,32.435,22.022z M33.995,17.513
	h-5.633c-0.276,0-0.5,0.224-0.5,0.5s0.224,0.5,0.5,0.5h5.633c0.276,0,0.5-0.224,0.5-0.5S34.271,17.513,33.995,17.513z
	 M23.841,22.977h2v-10h-2V22.977z"/>
</svg>
