<?xml version="1.0" encoding="utf-8"?>
<!-- Generator: Adobe Illustrator 26.2.1, SVG Export Plug-In . SVG Version: 6.00 Build 0)  -->
<svg version="1.1" id="Ebene_1" xmlns="http://www.w3.org/2000/svg" xmlns:xlink="http://www.w3.org/1999/xlink" x="0px" y="0px"
	 viewBox="0 0 39 35" style="enable-background:new 0 0 39 35;" xml:space="preserve">
<style type="text/css">
	.st0{fill:none;}
	.st1{fill-rule:evenodd;clip-rule:evenodd;fill:#ADADAD;}
	.st2{fill:#FFFFFF;}
	.st3{fill:#C1121C;}
</style>
<rect class="st0" width="39" height="35"/>
<circle class="st1" cx="20" cy="18" r="17"/>
<g>
	<g>
		<path class="st2" d="M26.599,15.456c0.229-0.157,0.4-0.383,0.426-0.633c0.031-0.298-0.11-0.59-0.37-0.769l-6.467-4.47
			c-0.055-0.038-0.121-0.067-0.181-0.101c-0.38-0.289-0.861-0.469-1.394-0.469c-0.828,0-1.541,0.425-1.914,1.046
			c-0.006,0.01-0.014,0.016-0.02,0.026c-0.004,0.006-0.006,0.017-0.009,0.024c-0.048,0.085-0.089,0.173-0.123,0.265
			c-0.133-0.494-0.597-0.868-1.177-0.868c-0.682,0-1.235,0.506-1.235,1.131c0,0.018,0.01,0.032,0.011,0.05h-0.011v5.478h2.286v1.771
			h4.297v-5.83l5.147,3.533l1.622,13.231l0.747-0.076L26.599,15.456z M20.719,18.67v-0.24h-4.297v0.24
			c0,0.166-0.043,0.325-0.13,0.47l-4.314,7.278c-0.495,0.944-0.095,2.082,0.911,2.581l1.533-2.583l4.149-6.996l5.07,8.551
			c0.567,0.953,1.872,1.308,2.913,0.79l-5.706-9.622C20.763,18.994,20.719,18.835,20.719,18.67z M19.645,8.381c1.105,0,2-0.895,2-2
			c0-1.105-0.895-2-2-2c-1.105,0-2,0.895-2,2C17.645,7.486,18.54,8.381,19.645,8.381z"/>
	</g>
</g>
<polygon class="st3" points="4.398,35 3,33.57 35.602,1 37,2.43 "/>
</svg>
