<?xml version="1.0" encoding="utf-8"?>
<!-- Generator: Adobe Illustrator 26.2.1, SVG Export Plug-In . SVG Version: 6.00 Build 0)  -->
<svg version="1.1" id="Ebene_1" xmlns="http://www.w3.org/2000/svg" xmlns:xlink="http://www.w3.org/1999/xlink" x="0px" y="0px"
	 viewBox="0 0 39 35" style="enable-background:new 0 0 39 35;" xml:space="preserve">
<style type="text/css">
	.st0{fill:none;}
	.st1{fill-rule:evenodd;clip-rule:evenodd;fill:#003399;}
	.st2{fill:#FFFFFF;}
</style>
<rect class="st0" width="39" height="35"/>
<circle class="st1" cx="20" cy="18" r="17"/>
<path class="st2" d="M15.395,22.303c0,1.007,0.824,1.83,1.832,1.83h5.546c1.007,0,1.832-0.824,1.832-1.83v-3.551h-9.21V22.303z
	 M23.768,15.425h-7.537c-1.007,0-1.832,0.824-1.832,1.83v0.61h11.2v-0.61C25.6,16.248,24.776,15.425,23.768,15.425z M20,7.467
	L8,12.965l0.666,1.455l2.534-1.161v13.275h1.6V12.525L20,9.226l7.2,3.299v14.008h1.6V13.258l2.534,1.161L32,12.965L20,7.467z"/>
</svg>
