<?xml version="1.0" encoding="utf-8"?>
<!-- Generator: Adobe Illustrator 26.2.1, SVG Export Plug-In . SVG Version: 6.00 Build 0)  -->
<svg version="1.1" id="Ebene_1" xmlns="http://www.w3.org/2000/svg" xmlns:xlink="http://www.w3.org/1999/xlink" x="0px" y="0px"
	 viewBox="0 0 39 35" style="enable-background:new 0 0 39 35;" xml:space="preserve">
<style type="text/css">
	.st0{fill:none;}
	.st1{fill-rule:evenodd;clip-rule:evenodd;fill:#003399;}
	.st2{fill:#FFFFFF;}
</style>
<rect class="st0" width="39" height="35"/>
<circle class="st1" cx="20" cy="18" r="17"/>
<path class="st2" d="M26.045,20.591h-1.727v-5.182h1.727c1.906,0,3.455-1.549,3.455-3.455S27.951,8.5,26.045,8.5
	c-1.906,0-3.455,1.549-3.455,3.455v1.727h-5.182v-1.727c0-1.906-1.549-3.455-3.455-3.455S10.5,10.049,10.5,11.955
	s1.549,3.455,3.455,3.455h1.727v5.182h-1.727c-1.906,0-3.455,1.549-3.455,3.455c0,1.906,1.549,3.455,3.455,3.455
	s3.455-1.549,3.455-3.455v-1.727h5.182v0.792v0.935c0,1.906,1.549,3.455,3.455,3.455c1.906,0,3.455-1.549,3.455-3.455
	C29.5,22.14,27.951,20.591,26.045,20.591z M24.318,11.955c0-0.952,0.775-1.727,1.727-1.727s1.727,0.775,1.727,1.727
	c0,0.952-0.775,1.727-1.727,1.727h-1.727V11.955z M12.227,11.955c0-0.952,0.775-1.727,1.727-1.727c0.952,0,1.727,0.775,1.727,1.727
	v1.727h-1.727C13.002,13.682,12.227,12.907,12.227,11.955z M15.682,24.045c0,0.952-0.775,1.727-1.727,1.727
	c-0.952,0-1.727-0.775-1.727-1.727s0.775-1.727,1.727-1.727h1.727V24.045z M17.409,20.591v-5.182h5.182v5.182H17.409z
	 M26.045,25.773c-0.952,0-1.727-0.775-1.727-1.727V23.11v-0.792h1.727c0.952,0,1.727,0.775,1.727,1.727S26.998,25.773,26.045,25.773
	z"/>
</svg>
