<?xml version="1.0" encoding="utf-8"?>
<!-- Generator: Adobe Illustrator 26.2.1, SVG Export Plug-In . SVG Version: 6.00 Build 0)  -->
<svg version="1.1" id="Ebene_1" xmlns="http://www.w3.org/2000/svg" xmlns:xlink="http://www.w3.org/1999/xlink" x="0px" y="0px"
	 viewBox="0 0 39 35" style="enable-background:new 0 0 39 35;" xml:space="preserve">
<style type="text/css">
	.st0{fill:none;}
	.st1{fill-rule:evenodd;clip-rule:evenodd;fill:#ADADAD;}
	.st2{fill:#FFFFFF;}
</style>
<rect class="st0" width="39" height="35"/>
<circle class="st1" cx="20" cy="18" r="17"/>
<path class="st2" d="M24.333,26.078c0,1.298,1.053,2.353,2.353,2.353c1.299,0,2.353-1.054,2.353-2.353
	c0-1.3-1.054-2.353-2.353-2.353C25.386,23.725,24.333,24.778,24.333,26.078z M8.962,22.627h5.394c0.159,0,0.304-0.079,0.393-0.209
	l0.801-1.203l1.646,0.471v4.942c0,0.881,0.695,1.607,1.574,1.646l0.543-12.235l2.96,2.456c0.654,0.543,1.615,0.498,2.216-0.103
	l-5.218-5.217c-1.087,0.459-2.332,0.343-3.316-0.308l-3.482,0.773c-0.137,0.028-0.255,0.122-0.318,0.249l-1.781,3.563
	c0.814,0.406,1.803,0.078,2.208-0.736l0.849-1.617h1.649l-1.412,5.647l-3.183,0.241C9.626,21.049,8.962,21.765,8.962,22.627z
	 M20.254,9.923c0-1.3-1.053-2.353-2.353-2.353c-1.298,0-2.352,1.053-2.352,2.353c0,1.298,1.053,2.353,2.352,2.353
	C19.201,12.275,20.254,11.221,20.254,9.923z"/>
</svg>
