<?xml version="1.0" encoding="utf-8"?>
<!-- Generator: Adobe Illustrator 26.2.1, SVG Export Plug-In . SVG Version: 6.00 Build 0)  -->
<svg version="1.1" id="Ebene_1" xmlns="http://www.w3.org/2000/svg" xmlns:xlink="http://www.w3.org/1999/xlink" x="0px" y="0px"
	 viewBox="0 0 39 35" style="enable-background:new 0 0 39 35;" xml:space="preserve">
<style type="text/css">
	.st0{fill:none;}
	.st1{fill-rule:evenodd;clip-rule:evenodd;fill:#ADADAD;}
	.st2{fill:#FFFFFF;}
	.st3{fill:#C1121C;}
</style>
<rect class="st0" width="39" height="35"/>
<circle class="st1" cx="20" cy="18" r="17"/>
<path class="st2" d="M12.876,26.803h14.249v-1.341H12.876V26.803z M25.422,19.7H14.578c-1.693,0-3.078,1.385-3.078,3.078v1.504h17
	v-1.504C28.5,21.085,27.115,19.7,25.422,19.7z M17.945,18.713H20h2.055c-1.197-2.132,0.532-4.679,0.957-5.283
	c0.433-0.614,0.698-1.357,0.698-2.166c0-2.049-1.661-3.71-3.71-3.71s-3.71,1.661-3.71,3.71c0,0.808,0.265,1.552,0.698,2.166
	C17.412,14.034,19.141,16.581,17.945,18.713z"/>
<polygon class="st3" points="4.398,35 3,33.57 35.602,1 37,2.43 "/>
</svg>
