<?xml version="1.0" encoding="utf-8"?>
<!-- Generator: Adobe Illustrator 26.2.1, SVG Export Plug-In . SVG Version: 6.00 Build 0)  -->
<svg version="1.1" id="Ebene_1" xmlns="http://www.w3.org/2000/svg" xmlns:xlink="http://www.w3.org/1999/xlink" x="0px" y="0px"
	 viewBox="0 0 39 35" style="enable-background:new 0 0 39 35;" xml:space="preserve">
<style type="text/css">
	.st0{fill:none;}
	.st1{fill-rule:evenodd;clip-rule:evenodd;fill:#ADADAD;}
	.st2{fill:#FFFFFF;}
</style>
<rect class="st0" width="39" height="35"/>
<circle class="st1" cx="20" cy="18" r="17"/>
<path class="st2" d="M27.686,10.856H12.314c-1.273,0-2.314,1.052-2.314,2.337v0.779h20v-0.779
	C30,11.908,28.959,10.856,27.686,10.856z M11.257,19.638c0,1.285,1.041,2.337,2.314,2.337h12.858c1.273,0,2.314-1.052,2.314-2.337
	v-4.534H11.257V19.638z M14.931,23.312c-1.048,0-1.897,0.858-1.897,1.916c0,1.058,0.849,1.916,1.897,1.916s1.897-0.858,1.897-1.916
	C16.827,24.17,15.978,23.312,14.931,23.312z M25.069,23.312c-1.048,0-1.897,0.858-1.897,1.916c0,1.058,0.849,1.916,1.897,1.916
	s1.897-0.858,1.897-1.916C26.966,24.17,26.117,23.312,25.069,23.312z"/>
</svg>
