<?xml version="1.0" encoding="utf-8"?>
<!-- Generator: Adobe Illustrator 26.1.0, SVG Export Plug-In . SVG Version: 6.00 Build 0)  -->
<svg version="1.1" id="Ebene_1" xmlns="http://www.w3.org/2000/svg" xmlns:xlink="http://www.w3.org/1999/xlink" x="0px" y="0px"
	 viewBox="0 0 39 35" style="enable-background:new 0 0 39 35;" xml:space="preserve">
<style type="text/css">
	.st0{fill:none;}
	.st1{fill-rule:evenodd;clip-rule:evenodd;fill:#ADADAD;}
	.st2{fill-rule:evenodd;clip-rule:evenodd;fill:#FFFFFF;}
	.st3{fill:#C1121C;}
</style>
<rect class="st0" width="39" height="35"/>
<circle class="st1" cx="19.991" cy="18.023" r="17"/>
<path class="st1" d="M14.569,27.927"/>
<path class="st1" d="M23.079,28.834"/>
<path class="st1" d="M19.177,29.063"/>
<path class="st2" d="M11.977,15.336c-0.024,3.081,1.099,5.16,2.194,6.35c0.005,0.005,0.006,0.01,0.011,0.016
	c0.028,0.033,0.066,0.062,0.095,0.094c0.096,0.099,0.19,0.196,0.284,0.282c1.551,1.487,4.226,2.516,6.675,2.516
	c4.431,0,7.717-2.41,9.345-6.443c0.71-1.657,2.347-5.258,2.347-5.258s-9.17,2.709-10.331,2.631c-0.939-0.063-0.808-2.68-1.451-4.297
	c-0.623-1.762-2.2-3.315-4.175-3.315c-1.816,0-3.481,0.712-4.245,3.006l-4.888,0.225l4.28,1.852l-4.374,1.327L11.977,15.336z
	 M15.04,10.817c0.483,0,0.874,0.391,0.874,0.874s-0.391,0.874-0.874,0.874c-0.483,0-0.874-0.391-0.874-0.874
	S14.557,10.817,15.04,10.817z M28.792,23.232c-2,1.802-4.591,2.785-7.556,2.785c-2.765,0-5.842-1.169-7.658-2.911
	c-0.092-0.083-0.208-0.201-0.326-0.322c-0.048-0.044-0.104-0.101-0.151-0.158c-0.393-0.439-0.932-1.149-1.414-2.131
	c-1.648,0.547-3.379,1.41-3.848,2.701c0,0,1.977-0.311,3.446-0.094c-0.951,0.718-1.753,2.435-1.427,3.724
	c0,0,3.025-1.901,4.309-1.124c0,0-0.768,1.976-0.552,2.927c0,0,1.861-1.804,3.028-1.976c0,0-0.667,1.057,0.219,3.575
	c0,0,2.355-2.735,3.845-3.079c1.611-0.372,3.67,2.893,3.67,2.893s1.297-1.961,0-3.44c1.41-0.514,3.541,2.253,3.541,2.253
	c0.438-0.923,0.197-2.62-0.457-3.878c1.483,0.073,3.141,0.708,3.141,0.708C30.46,24.771,29.719,23.94,28.792,23.232z"/>
<polygon class="st3" points="4.398,35 3,33.57 35.602,1 37,2.43 "/>
</svg>
