<?xml version="1.0" encoding="utf-8"?>
<!-- Generator: Adobe Illustrator 26.1.0, SVG Export Plug-In . SVG Version: 6.00 Build 0)  -->
<svg version="1.1" id="Ebene_1" xmlns="http://www.w3.org/2000/svg" xmlns:xlink="http://www.w3.org/1999/xlink" x="0px" y="0px"
	 viewBox="0 0 39 35" style="enable-background:new 0 0 39 35;" xml:space="preserve">
<style type="text/css">
	.st0{fill:none;}
	.st1{fill-rule:evenodd;clip-rule:evenodd;fill:#ADADAD;}
	.st2{fill-rule:evenodd;clip-rule:evenodd;fill:#FFFFFF;}
</style>
<rect class="st0" width="39" height="35"/>
<circle class="st1" cx="20" cy="18" r="17"/>
<polygon class="st2" points="16.586,10.977 21.187,12.216 16.586,13.455 15.347,18.056 14.108,13.455 9.507,12.216 14.108,10.977 
	15.347,6.376 "/>
<path class="st2" d="M27.101,8.647c0.589,1.4,0.915,2.939,0.915,4.553c0,6.492-5.263,11.755-11.755,11.755
	c-2.671,0-5.127-0.901-7.101-2.403c1.779,4.231,5.962,7.202,10.84,7.202c6.492,0,11.755-5.263,11.755-11.755
	C31.755,14.179,29.924,10.795,27.101,8.647z"/>
</svg>
