<?xml version="1.0" encoding="utf-8"?>
<!-- Generator: Adobe Illustrator 26.2.1, SVG Export Plug-In . SVG Version: 6.00 Build 0)  -->
<svg version="1.1" id="Ebene_1" xmlns="http://www.w3.org/2000/svg" xmlns:xlink="http://www.w3.org/1999/xlink" x="0px" y="0px"
	 viewBox="0 0 39 35" style="enable-background:new 0 0 39 35;" xml:space="preserve">
<style type="text/css">
	.st0{fill:none;}
	.st1{fill-rule:evenodd;clip-rule:evenodd;fill:#ADADAD;}
	.st2{fill:#FFFFFF;}
	.st3{fill:#C1121C;}
</style>
<rect class="st0" width="39" height="35"/>
<circle class="st1" cx="20" cy="18" r="17"/>
<path class="st2" d="M19.349,7.632h-2.03V9.96c0,0.248,0.01,0.506,0.031,0.774c0.021,0.268,0.043,0.536,0.068,0.805
	c0.024,0.268,0.054,0.53,0.086,0.786c0.033,0.256,0.062,0.491,0.086,0.705h-0.049l-0.767-1.807l-1.783-3.591h-2.179v8.048h2.03
	v-2.327c0-0.495-0.033-1.016-0.099-1.561c-0.066-0.545-0.123-1.048-0.173-1.511h0.049l0.767,1.795l1.783,3.603h2.179V7.632z
	 M21.815,14.72c0.326,0.359,0.718,0.634,1.176,0.823c0.458,0.19,0.968,0.285,1.53,0.285c0.553,0,1.061-0.095,1.523-0.285
	c0.463-0.19,0.856-0.464,1.183-0.823s0.58-0.8,0.761-1.324c0.182-0.525,0.273-1.117,0.273-1.777s-0.091-1.246-0.273-1.758
	c-0.181-0.511-0.435-0.944-0.761-1.3c-0.326-0.355-0.72-0.623-1.183-0.805c-0.462-0.181-0.969-0.273-1.523-0.273
	c-0.561,0-1.071,0.091-1.53,0.273c-0.458,0.181-0.849,0.448-1.176,0.798c-0.326,0.351-0.58,0.785-0.761,1.301
	c-0.182,0.515-0.273,1.103-0.273,1.763s0.091,1.253,0.273,1.777C21.235,13.92,21.489,14.361,21.815,14.72z M23.375,9.916
	c0.276-0.401,0.659-0.6,1.145-0.6s0.868,0.199,1.145,0.6c0.276,0.401,0.414,0.968,0.414,1.702c0,0.735-0.138,1.315-0.414,1.739
	c-0.277,0.426-0.659,0.638-1.145,0.638s-0.869-0.212-1.145-0.638c-0.276-0.425-0.414-1.005-0.414-1.739
	C22.961,10.884,23.099,10.317,23.375,9.916z M13.504,24.013h1.721v2.117c-0.165,0.149-0.378,0.267-0.638,0.354
	c-0.26,0.086-0.534,0.129-0.823,0.129c-0.437,0-0.823-0.079-1.158-0.235c-0.334-0.157-0.615-0.38-0.842-0.669
	c-0.227-0.289-0.401-0.638-0.521-1.046c-0.119-0.408-0.18-0.869-0.18-1.38c0-0.504,0.065-0.958,0.192-1.362
	c0.128-0.405,0.307-0.749,0.539-1.034c0.23-0.285,0.512-0.504,0.842-0.656c0.331-0.153,0.702-0.23,1.114-0.23
	s0.755,0.074,1.028,0.223c0.272,0.149,0.511,0.331,0.717,0.546l0.57-0.669c-0.116-0.123-0.249-0.246-0.402-0.365
	c-0.153-0.119-0.326-0.227-0.52-0.322c-0.194-0.095-0.409-0.172-0.644-0.229c-0.236-0.058-0.494-0.086-0.774-0.086
	c-0.536,0-1.033,0.097-1.492,0.29c-0.458,0.194-0.852,0.473-1.183,0.836c-0.33,0.364-0.588,0.805-0.773,1.326
	C10.092,22.069,10,22.655,10,23.307c0,0.66,0.091,1.253,0.272,1.776c0.182,0.525,0.433,0.967,0.755,1.326
	c0.322,0.359,0.708,0.634,1.158,0.823c0.45,0.19,0.943,0.285,1.479,0.285c0.545,0,1.031-0.089,1.461-0.267
	c0.429-0.177,0.776-0.402,1.04-0.674v-3.417h-2.662V24.013z M22.624,19.772c-0.264-0.186-0.583-0.32-0.959-0.402
	c-0.375-0.082-0.791-0.123-1.245-0.123h-2.315v8.122h1.027V24.15h1.338c0.445,0,0.852-0.052,1.219-0.155
	c0.368-0.103,0.684-0.257,0.948-0.464c0.264-0.205,0.468-0.466,0.613-0.779c0.144-0.313,0.217-0.685,0.217-1.114
	c0-0.445-0.074-0.822-0.223-1.127C23.095,20.204,22.888,19.958,22.624,19.772z M21.925,22.905c-0.343,0.268-0.868,0.402-1.579,0.402
	h-1.214v-3.232h1.164c0.71,0,1.244,0.114,1.603,0.341c0.359,0.227,0.539,0.634,0.539,1.22
	C22.438,22.213,22.268,22.637,21.925,22.905z M29.871,24.415c-0.087-0.227-0.205-0.425-0.353-0.594
	c-0.148-0.169-0.326-0.318-0.533-0.446c-0.206-0.128-0.425-0.241-0.656-0.341l-1.151-0.495c-0.165-0.066-0.326-0.138-0.483-0.217
	c-0.156-0.079-0.301-0.169-0.433-0.273c-0.132-0.103-0.237-0.223-0.315-0.359c-0.079-0.136-0.118-0.303-0.118-0.501
	c0-0.372,0.138-0.663,0.415-0.874c0.276-0.211,0.641-0.316,1.095-0.316c0.38,0,0.721,0.069,1.022,0.205
	c0.301,0.136,0.576,0.324,0.823,0.564L29.74,20.1c-0.289-0.297-0.64-0.538-1.052-0.724c-0.413-0.186-0.863-0.278-1.35-0.278
	c-0.371,0-0.712,0.054-1.021,0.161c-0.31,0.107-0.577,0.257-0.804,0.452c-0.227,0.193-0.405,0.423-0.533,0.687
	s-0.193,0.549-0.193,0.854c0,0.298,0.05,0.559,0.149,0.786c0.098,0.227,0.227,0.423,0.383,0.589c0.157,0.164,0.335,0.305,0.533,0.42
	c0.198,0.116,0.392,0.215,0.582,0.298l1.164,0.508c0.19,0.09,0.368,0.177,0.533,0.259c0.166,0.083,0.307,0.176,0.427,0.28
	c0.12,0.103,0.215,0.226,0.285,0.371c0.07,0.144,0.105,0.319,0.105,0.526c0,0.396-0.148,0.716-0.445,0.96
	c-0.298,0.243-0.715,0.365-1.251,0.365c-0.421,0-0.828-0.093-1.22-0.278c-0.392-0.186-0.733-0.432-1.021-0.737l-0.62,0.718
	c0.356,0.371,0.776,0.665,1.264,0.879c0.487,0.215,1.015,0.322,1.585,0.322c0.429,0,0.812-0.06,1.151-0.18
	c0.339-0.12,0.628-0.285,0.868-0.495c0.239-0.211,0.423-0.457,0.551-0.737C29.936,25.825,30,25.524,30,25.202
	C30,24.904,29.957,24.642,29.871,24.415z"/>
<polygon class="st3" points="4.398,35 3,33.57 35.602,1 37,2.43 "/>
</svg>
