<?xml version="1.0" encoding="utf-8"?>
<!-- Generator: Adobe Illustrator 26.1.0, SVG Export Plug-In . SVG Version: 6.00 Build 0)  -->
<svg version="1.1" id="Ebene_1" xmlns="http://www.w3.org/2000/svg" xmlns:xlink="http://www.w3.org/1999/xlink" x="0px" y="0px"
	 viewBox="0 0 39 35" style="enable-background:new 0 0 39 35;" xml:space="preserve">
<style type="text/css">
	.st0{fill:none;}
	.st1{fill-rule:evenodd;clip-rule:evenodd;fill:#003399;}
	.st2{fill:#FFFFFF;}
</style>
<rect class="st0" width="39" height="35"/>
<circle class="st1" cx="20" cy="18" r="17"/>
<path class="st2" d="M12.392,22.699c-0.701-0.039-1.388,0.209-1.903,0.685c-0.455,0.452-0.703,1.072-0.685,1.713
	c-0.025,0.705,0.304,1.376,0.875,1.789c0.492,0.402,1.116,0.605,1.751,0.571c0.701,0.039,1.388-0.209,1.903-0.685
	c0.455-0.452,0.703-1.072,0.685-1.713c0.016-0.574-0.189-1.132-0.571-1.561C13.918,22.935,13.163,22.641,12.392,22.699z
	 M12.963,25.973c-0.141,0.195-0.368,0.308-0.609,0.305c-0.238-0.005-0.462-0.117-0.609-0.305c-0.171-0.273-0.251-0.593-0.228-0.914
	c0-0.381,0-0.685,0.19-0.876c0.162-0.19,0.398-0.3,0.647-0.305c0.238,0.005,0.462,0.117,0.609,0.305
	c0.17,0.259,0.25,0.566,0.228,0.876C13.218,25.381,13.138,25.702,12.963,25.973z M19.13,22.699c-0.315-0.008-0.628,0.057-0.914,0.19
	c-0.286,0.16-0.533,0.381-0.723,0.647v-0.723h-1.599v4.492h1.751v-2.17c-0.023-0.304,0.043-0.608,0.19-0.875
	c0.115-0.156,0.302-0.242,0.495-0.228c0.172-0.001,0.337,0.067,0.457,0.19c0.122,0.178,0.176,0.394,0.152,0.609v2.512h1.751V24.45
	c0.032-0.481-0.117-0.956-0.419-1.332C19.964,22.829,19.551,22.678,19.13,22.699z M21.756,27.343h1.751v-6.281h-1.751V27.343z
	 M27.009,25.821l-0.952-3.007H24.23l1.903,4.492c-0.051,0.191-0.156,0.364-0.305,0.495c-0.139,0.112-0.316,0.167-0.495,0.152
	c-0.283,0.002-0.565-0.037-0.837-0.114l0.152,1.218c0.391,0.064,0.785,0.102,1.18,0.114c0.493,0.031,0.979-0.118,1.37-0.419
	c0.284-0.317,0.493-0.694,0.609-1.104l1.789-4.835h-1.713L27.009,25.821z M11.522,17.903c0.863,0.378,1.799,0.56,2.741,0.533
	c0.951,0.042,1.897-0.168,2.741-0.609c0.711-0.399,1.292-0.994,1.675-1.713c0.412-0.88,0.608-1.846,0.571-2.817
	c0-1.599-0.457-2.817-1.332-3.693c-0.875-0.876-2.17-1.332-3.768-1.332s-2.855,0.457-3.73,1.332s-1.332,2.132-1.332,3.731
	c-0.031,1.008,0.205,2.006,0.685,2.893C10.173,16.949,10.784,17.533,11.522,17.903z M12.588,11.165
	c0.376-0.423,0.919-0.66,1.485-0.647c0.578-0.021,1.136,0.217,1.523,0.647c0.381,0.419,0.571,1.104,0.571,2.018
	c0,1.104-0.19,1.865-0.533,2.284c-0.387,0.431-0.944,0.668-1.523,0.647c-0.566,0.013-1.109-0.224-1.485-0.647
	c-0.343-0.419-0.533-1.142-0.533-2.132C12.048,12.579,12.219,11.826,12.588,11.165z M22.98,17.941
	c0.834,0.332,1.729,0.488,2.627,0.457c0.742,0.031,1.482-0.099,2.17-0.381c0.567-0.258,1.064-0.65,1.447-1.142
	c0.406-0.557,0.691-1.192,0.837-1.865l-2.665-0.799c-0.063,0.541-0.274,1.055-0.609,1.485c-0.797,0.702-2.005,0.651-2.741-0.114
	c-0.343-0.419-0.495-1.142-0.495-2.246c-0.042-0.673,0.104-1.345,0.419-1.941c0.322-0.55,0.925-0.873,1.561-0.837
	c0.29,0,0.576,0.065,0.837,0.19c0.245,0.124,0.454,0.307,0.609,0.533c0.154,0.187,0.258,0.41,0.305,0.647l2.665-0.609
	c-0.251-0.914-0.8-1.718-1.561-2.284c-0.879-0.542-1.9-0.807-2.931-0.761c-1.561,0-2.779,0.419-3.654,1.294
	c-0.876,0.876-1.294,2.094-1.294,3.731c-0.051,1.051,0.199,2.095,0.723,3.007C21.63,17.017,22.242,17.588,22.98,17.941z"/>
</svg>
