<?xml version="1.0" encoding="utf-8"?>
<!-- Generator: Adobe Illustrator 26.1.0, SVG Export Plug-In . SVG Version: 6.00 Build 0)  -->
<svg version="1.1" id="Ebene_1" xmlns="http://www.w3.org/2000/svg" xmlns:xlink="http://www.w3.org/1999/xlink" x="0px" y="0px"
	 viewBox="0 0 39 35" style="enable-background:new 0 0 39 35;" xml:space="preserve">
<style type="text/css">
	.st0{fill:none;}
	.st1{fill-rule:evenodd;clip-rule:evenodd;fill:#003399;}
	.st2{fill-rule:evenodd;clip-rule:evenodd;fill:#FFFFFF;}
</style>
<rect class="st0" width="39" height="35"/>
<circle class="st1" cx="20" cy="18" r="17"/>
<path class="st2" d="M11.252,25.236c0,1.273,1.041,2.314,2.314,2.314h12.858c1.273,0,2.314-1.041,2.314-2.314v-4.489H11.252V25.236z
	 M29.427,15.975L16.615,7.481c-1.061-0.703-2.504-0.411-3.207,0.65l-0.426,0.643l16.669,11.052l0.426-0.643
	C30.78,18.122,30.488,16.679,29.427,15.975z M12.139,15.385l2.888-0.778l-2.888-0.778l-0.778-2.888l-0.778,2.888l-2.889,0.778
	l2.889,0.778l0.778,2.888L12.139,15.385z"/>
</svg>
