<?xml version="1.0" encoding="utf-8"?>
<!-- Generator: Adobe Illustrator 26.1.0, SVG Export Plug-In . SVG Version: 6.00 Build 0)  -->
<svg version="1.1" id="Ebene_1" xmlns="http://www.w3.org/2000/svg" xmlns:xlink="http://www.w3.org/1999/xlink" x="0px" y="0px"
	 viewBox="0 0 39 35" style="enable-background:new 0 0 39 35;" xml:space="preserve">
<style type="text/css">
	.st0{fill:none;}
	.st1{fill-rule:evenodd;clip-rule:evenodd;fill:#ADADAD;}
	.st2{fill-rule:evenodd;clip-rule:evenodd;fill:#FFFFFF;}
	.st3{fill:#C1121C;}
</style>
<rect class="st0" width="39" height="35"/>
<circle class="st1" cx="20" cy="18" r="17"/>
<path class="st2" d="M31.5,24.315h-2v-2h-20v2h-2v-9c0.414-0.552,1.198-0.664,1.75-0.25c0.095,0.071,0.179,0.155,0.25,0.25v4h16
	c2.209,0,4-1.791,4-4v-5c0.414-0.552,1.198-0.664,1.75-0.25c0.095,0.071,0.179,0.155,0.25,0.25V24.315z M22.75,18.815h-12
	c-0.414,0-0.75-0.336-0.75-0.75c0-0.132,0.035-0.261,0.1-0.375c0.053-0.091,0.124-0.17,0.209-0.232l0,0
	c0.695-0.505,1.477-0.878,2.307-1.1l0,0c2.708-0.724,5.559-0.724,8.268,0l0,0c0.83,0.222,1.612,0.595,2.307,1.1l0,0
	c0.335,0.244,0.409,0.713,0.166,1.048c-0.077,0.106-0.181,0.191-0.302,0.244C22.959,18.793,22.855,18.815,22.75,18.815z
	 M28.727,14.088c0.627,0.627,0.138,2.132-1.092,3.363c-0.391,0.391-0.828,0.723-1.266,0.962c-1.379,0.752-2.438,0.423-2.366-0.735
	c0.023-0.368,0.161-0.793,0.4-1.231c0.752-1.379,2.3-2.555,3.458-2.627C28.229,13.796,28.528,13.889,28.727,14.088"/>
<polygon class="st3" points="4.398,35 3,33.57 35.602,1 37,2.43 "/>
</svg>
