<?xml version="1.0" encoding="utf-8"?>
<!-- Generator: Adobe Illustrator 26.2.1, SVG Export Plug-In . SVG Version: 6.00 Build 0)  -->
<svg version="1.1" id="Ebene_1" xmlns="http://www.w3.org/2000/svg" xmlns:xlink="http://www.w3.org/1999/xlink" x="0px" y="0px"
	 viewBox="0 0 39 35" style="enable-background:new 0 0 39 35;" xml:space="preserve">
<style type="text/css">
	.st0{fill:none;}
	.st1{fill-rule:evenodd;clip-rule:evenodd;fill:#003399;}
	.st2{fill:#FFFFFF;}
</style>
<rect class="st0" width="39" height="35"/>
<circle class="st1" cx="20" cy="18" r="17"/>
<path class="st2" d="M20.428,22.797c-0.319-0.286-2.127-2.012-2.985-3.375c-0.821-1.385-1.532-3.781-1.641-4.196
	c-0.084-0.319-0.292-0.791,0.45-1.202l-1.343-6.587c-0.31,0.129-0.641,0.332-0.998,0.669c-0.862,0.812-2.318,2.211-1.803,5.841
	c0.254,1.789,0.205,3.458,2.491,7.203l0,0c0.001,0.003,0.003,0.005,0.004,0.007c0.002,0.003,0.003,0.005,0.004,0.007l0,0
	c2.29,3.743,3.797,4.461,5.273,5.503c2.995,2.114,4.905,1.457,6.02,1.06c0.465-0.165,0.798-0.369,1.055-0.587l-5.248-4.2
	C21,23.42,20.674,23.017,20.428,22.797z M27.506,24.288c-0.213-0.202-1.949-1.72-2.776-2.554c-0.699-0.705-1.364-0.191-2.283,0.6
	l5.089,4.072c0.181-0.356,0.268-0.705,0.382-0.983C28.188,24.766,27.719,24.491,27.506,24.288z M18.71,11.883
	c-0.365-1.116-0.923-3.354-1.006-3.636c-0.083-0.282-0.114-0.825-0.821-0.885c-0.301-0.026-0.654-0.108-1.055-0.108l1.302,6.389
	C18.256,13.185,19.02,12.828,18.71,11.883z"/>
</svg>
