<?xml version="1.0" encoding="utf-8"?>
<!-- Generator: Adobe Illustrator 26.2.1, SVG Export Plug-In . SVG Version: 6.00 Build 0)  -->
<svg version="1.1" id="Ebene_1" xmlns="http://www.w3.org/2000/svg" xmlns:xlink="http://www.w3.org/1999/xlink" x="0px" y="0px"
	 viewBox="0 0 39 35" style="enable-background:new 0 0 39 35;" xml:space="preserve">
<style type="text/css">
	.st0{fill:none;}
	.st1{fill-rule:evenodd;clip-rule:evenodd;fill:#ADADAD;}
	.st2{fill:#FFFFFF;}
	.st3{fill:#C1121C;}
</style>
<rect class="st0" width="39" height="35"/>
<circle class="st1" cx="20" cy="18" r="17"/>
<path class="st2" d="M29.125,12.265v-0.005h-0.663v-1.494c0-1.455-1.19-2.645-2.645-2.645H14.152c-1.455,0-2.645,1.19-2.645,2.645
	v1.494h-0.584c-0.853,0-1.543,0.69-1.543,1.543v2.383c0,0.853,0.69,1.543,1.543,1.543h0.584v7.396c0,0.656,0.536,1.192,1.192,1.192
	h0.695v1.718c0,0.466,0.378,0.843,0.843,0.843h1.716c0.466,0,0.843-0.378,0.843-0.843v-1.718h6.376v1.716
	c0,0.467,0.378,0.845,0.845,0.845h1.713c0.467,0,0.845-0.378,0.845-0.845v-1.716h0.695c0.656,0,1.192-0.536,1.192-1.192v-7.396
	h0.663v-0.005c0.83-0.026,1.495-0.702,1.495-1.538v-2.383C30.62,12.967,29.955,12.291,29.125,12.265z M16.524,9.723h6.921
	c0.44,0,0.801,0.36,0.801,0.801s-0.36,0.801-0.801,0.801h-6.921c-0.44,0-0.801-0.36-0.801-0.801S16.084,9.723,16.524,9.723z
	 M14.905,24.2c-0.739,0-1.338-0.599-1.338-1.338s0.599-1.338,1.338-1.338s1.338,0.599,1.338,1.338S15.644,24.2,14.905,24.2z
	 M25.064,24.2c-0.739,0-1.338-0.599-1.338-1.338s0.599-1.338,1.338-1.338s1.338,0.599,1.338,1.338S25.803,24.2,25.064,24.2z
	 M26.746,17.814c0,1.148-0.939,2.087-2.087,2.087H15.31c-1.148,0-2.087-0.939-2.087-2.087v-4.232c0-0.44,0.36-0.801,0.801-0.801
	h11.923c0.44,0,0.801,0.36,0.801,0.801V17.814z"/>
<polygon class="st3" points="4.398,35 3,33.57 35.602,1 37,2.43 "/>
</svg>
