<?xml version="1.0" encoding="utf-8"?>
<!-- Generator: Adobe Illustrator 26.1.0, SVG Export Plug-In . SVG Version: 6.00 Build 0)  -->
<svg version="1.1" id="Ebene_1" xmlns="http://www.w3.org/2000/svg" xmlns:xlink="http://www.w3.org/1999/xlink" x="0px" y="0px"
	 viewBox="0 0 39 35" style="enable-background:new 0 0 39 35;" xml:space="preserve">
<style type="text/css">
	.st0{fill:none;}
	.st1{fill-rule:evenodd;clip-rule:evenodd;fill:#ADADAD;}
	.st2{fill:#FFFFFF;}
	.st3{fill:#C1121C;}
</style>
<rect class="st0" width="39" height="35"/>
<circle class="st1" cx="20" cy="18" r="17"/>
<path class="st2" d="M24.036,18.7l-0.074-0.496c0,0-0.162-1.258-1.426-0.61c-1.36,0.697-1.738,0.79-1.738,0.79l0.393-4.227
	l0.776-1.37c2.667-4.823,2.667-5.518,1.471-6.854c-2.03,4.016-3.477,5.715-4.173,6.968l-3.418,0.351l-2.826,1.263
	c-0.573-0.769-1.442-2.206-3.187-4.535c-1.298,1.814-1.548,1.525,2.395,6.844l3.025-0.969l0.925,5.127l-2.212,4.04
	c-2.05,3.483-1.714,3.48-0.465,4.916c0.978-1.602,1.645-2.69,2.131-3.483l2.267-3.329l4.237-2.626
	c0.166,0.94,0.433,2.388,0.975,5.394c1.973-1.041,2.068-0.67,0.926-7.191L24.036,18.7z M30.019,9.169
	c0.035,3.865-0.672,6.506-2.102,7.849c-1.163,1.094-2.5,0.995-3.001,0.961l-0.054,0.748c0.118,0.009,0.288,0.021,0.497,0.021
	c0.744,0,1.977-0.154,3.071-1.183c1.589-1.492,2.375-4.319,2.338-8.401L30.019,9.169z M17.278,31.78h0.548v-6.719h-0.548V31.78z
	 M16.93,11.775c1.139,0,2.063-0.923,2.063-2.062c0-1.139-0.923-2.063-2.063-2.063c-1.139,0-2.062,0.923-2.062,2.063
	C14.868,10.852,15.791,11.775,16.93,11.775z"/>
<polygon class="st3" points="4.398,35 3,33.57 35.602,1 37,2.43 "/>
</svg>
