<?xml version="1.0" encoding="utf-8"?>
<!-- Generator: Adobe Illustrator 26.2.1, SVG Export Plug-In . SVG Version: 6.00 Build 0)  -->
<svg version="1.1" id="Ebene_1" xmlns="http://www.w3.org/2000/svg" xmlns:xlink="http://www.w3.org/1999/xlink" x="0px" y="0px"
	 viewBox="0 0 39 35" style="enable-background:new 0 0 39 35;" xml:space="preserve">
<style type="text/css">
	.st0{fill:none;}
	.st1{fill-rule:evenodd;clip-rule:evenodd;fill:#ADADAD;}
	.st2{fill:#FFFFFF;}
</style>
<rect class="st0" width="39" height="35"/>
<circle class="st1" cx="20" cy="18" r="17"/>
<g id="g25527_00000000930913232282982770000017334604968675462314_">
	<path id="path25529_00000075146280416325538570000001751548976648700823_" class="st2" d="M32,21.149
		c-0.426,2.401-2.719,4.003-5.12,3.576c-2.109-0.376-3.644-2.208-3.644-4.348v-3.754c0-2.439,1.976-4.416,4.416-4.416
		c2.14,0,3.974,1.536,4.348,3.643h-1.93c-0.426-1.335-1.855-2.072-3.19-1.646c-1.053,0.337-1.767,1.315-1.767,2.42v3.754
		c0,1.402,1.137,2.539,2.539,2.539c1.105,0,2.084-0.714,2.418-1.767L32,21.149z M11.091,24.682L8,12.317h1.988l1.988,8.832
		l2.428-8.832h1.324l2.428,8.832l1.988-8.832h1.988l-3.091,12.366h-1.656l-2.318-8.942l-2.319,8.942H11.091z"/>
</g>
</svg>
