<?xml version="1.0" encoding="utf-8"?>
<!-- Generator: Adobe Illustrator 26.1.0, SVG Export Plug-In . SVG Version: 6.00 Build 0)  -->
<svg version="1.1" id="Ebene_1" xmlns="http://www.w3.org/2000/svg" xmlns:xlink="http://www.w3.org/1999/xlink" x="0px" y="0px"
	 viewBox="0 0 39 35" style="enable-background:new 0 0 39 35;" xml:space="preserve">
<style type="text/css">
	.st0{fill:none;}
	.st1{fill-rule:evenodd;clip-rule:evenodd;fill:#ADADAD;}
	.st2{fill:#FFFFFF;}
</style>
<rect class="st0" width="39" height="35"/>
<circle class="st1" cx="20" cy="18" r="17"/>
<path class="st2" d="M19.591,23.527c-1.093,0-1.876,0.756-1.876,1.819c0,1.093,0.783,1.876,1.876,1.876
	c1.119,0,1.903-0.783,1.903-1.876C21.494,24.283,20.71,23.527,19.591,23.527z M19.954,6.279c-3.976,0-6.916,2.688-7.336,6.412
	l3.08,0.588c0.28-2.408,1.904-4.2,4.172-4.2c2.017,0,3.557,1.428,3.557,3.304c0,1.513-1.177,2.38-2.464,3.276
	c-1.792,1.26-2.828,2.66-2.828,5.768h2.939c0-2.184,0.7-3.136,2.24-4.116c1.96-1.26,3.444-2.491,3.444-5.067
	C26.759,8.771,23.79,6.279,19.954,6.279z M28.999,25.485c-0.468,0-0.804,0.324-0.804,0.78c0,0.468,0.336,0.803,0.804,0.803
	c0.479,0,0.815-0.335,0.815-0.803C29.814,25.81,29.479,25.485,28.999,25.485z M29.155,18.098c-1.703,0-2.963,1.151-3.143,2.746
	l1.319,0.252c0.12-1.031,0.815-1.799,1.787-1.799c0.863,0,1.523,0.612,1.523,1.415c0,0.648-0.504,1.02-1.056,1.403
	c-0.768,0.54-1.212,1.14-1.212,2.471h1.26c0-0.936,0.3-1.343,0.959-1.763c0.84-0.54,1.476-1.067,1.476-2.171
	C32.069,19.165,30.798,18.098,29.155,18.098z M10.846,25.485c-0.468,0-0.804,0.324-0.804,0.78c0,0.468,0.336,0.803,0.804,0.803
	c0.479,0,0.815-0.335,0.815-0.803C11.661,25.81,11.325,25.485,10.846,25.485z M11.002,18.098c-1.703,0-2.963,1.151-3.143,2.746
	l1.319,0.252c0.12-1.031,0.815-1.799,1.787-1.799c0.863,0,1.523,0.612,1.523,1.415c0,0.648-0.504,1.02-1.056,1.403
	c-0.768,0.54-1.212,1.14-1.212,2.471h1.26c0-0.936,0.3-1.343,0.959-1.763c0.84-0.54,1.476-1.067,1.476-2.171
	C13.916,19.165,12.645,18.098,11.002,18.098z"/>
</svg>
