<?xml version="1.0" encoding="utf-8"?>
<!-- Generator: Adobe Illustrator 26.2.1, SVG Export Plug-In . SVG Version: 6.00 Build 0)  -->
<svg version="1.1" id="Ebene_1" xmlns="http://www.w3.org/2000/svg" xmlns:xlink="http://www.w3.org/1999/xlink" x="0px" y="0px"
	 viewBox="0 0 39 35" style="enable-background:new 0 0 39 35;" xml:space="preserve">
<style type="text/css">
	.st0{fill:none;}
	.st1{fill-rule:evenodd;clip-rule:evenodd;fill:#ADADAD;}
	.st2{fill:#FFFFFF;}
</style>
<rect class="st0" width="39" height="35"/>
<circle class="st1" cx="20" cy="18" r="17"/>
<path class="st2" d="M23.863,20.83c-1.142,0-2.074,0.932-2.074,2.074c0,1.142,0.932,2.059,2.074,2.059
	c1.142,0,2.074-0.932,2.074-2.074S25.005,20.83,23.863,20.83z M29.123,18.832H27.68l-0.796-1.202
	c-0.301-0.451-0.827-0.721-1.368-0.721H22.21c-0.541,0-1.067,0.271-1.368,0.721l-0.796,1.202h-1.443
	c-0.917,0-1.653,0.736-1.653,1.653v5.831c0,0.917,0.736,1.653,1.653,1.653h10.52c0.917,0,1.653-0.736,1.653-1.653v-5.831
	C30.776,19.568,30.04,18.832,29.123,18.832z M23.863,26.616c-2.059,0-3.727-1.668-3.727-3.727c0-2.059,1.668-3.712,3.727-3.712
	c2.059,0,3.727,1.668,3.727,3.727C27.59,24.948,25.922,26.616,23.863,26.616z M13.331,7.212c-0.582,0-1.055,0.472-1.055,1.055
	v15.467c0,0.583,0.472,1.055,1.055,1.055s1.055-0.472,1.055-1.055V8.266C14.385,7.684,13.913,7.212,13.331,7.212z M15.289,8.413
	v6.995l6.803-3.498L15.289,8.413z"/>
</svg>
