<?xml version="1.0" encoding="utf-8"?>
<!-- Generator: Adobe Illustrator 26.1.0, SVG Export Plug-In . SVG Version: 6.00 Build 0)  -->
<svg version="1.1" id="Ebene_1" xmlns="http://www.w3.org/2000/svg" xmlns:xlink="http://www.w3.org/1999/xlink" x="0px" y="0px"
	 viewBox="0 0 39 35" style="enable-background:new 0 0 39 35;" xml:space="preserve">
<style type="text/css">
	.st0{fill:none;}
	.st1{fill-rule:evenodd;clip-rule:evenodd;fill:#003399;}
	.st2{fill:#FFFFFF;}
</style>
<rect class="st0" width="39" height="35"/>
<circle class="st1" cx="20" cy="18" r="17"/>
<path class="st2" d="M24.603,20.318c-0.11-0.108-0.242-0.171-0.38-0.213c-0.14-0.095-0.296-0.171-0.47-0.213l-4.914-1.196
	c-0.057-0.013-0.113-0.016-0.169-0.023l-4.089-7.117c-0.005-0.01-0.009-0.017-0.009-0.017s-2.626-0.005-5.832-3.65
	c0,0,1.284,4.018,3.459,4.439l0.249,0.435l-0.006,0.003l4.049,7.047c0.022,0.064,0.053,0.135,0.101,0.219
	c0.439,0.777,0.809,1.775,2.814,2.291c0.068,0.018,0.144,0.038,0.215,0.056c1.887,0.534,4.922,1.411,6.008,1.725
	c0.147,0.044,0.256,0.077,0.319,0.096l3.702,3.652c0.177,0.175,0.408,0.263,0.639,0.263c0.235,0,0.47-0.091,0.647-0.271
	c0.354-0.357,0.35-0.934-0.009-1.286L24.603,20.318z M28.116,17.747c-1.145,0-2.074,0.928-2.074,2.074
	c0,1.145,0.928,2.074,2.074,2.074c0.483,0,0.922-0.172,1.274-0.449l1.042,0.432l0.828-1.995l-1.11-0.461
	C29.964,18.468,29.125,17.747,28.116,17.747z M28.757,15.894c0.621,0,1.126-0.505,1.126-1.126c0-0.62-0.505-1.125-1.126-1.125
	c-0.62,0-1.125,0.505-1.125,1.125C27.632,15.389,28.137,15.894,28.757,15.894z M28.757,14.098c0.37,0,0.671,0.301,0.671,0.67
	c0,0.37-0.301,0.671-0.671,0.671c-0.369,0-0.67-0.301-0.67-0.671C28.087,14.398,28.388,14.098,28.757,14.098z M25.851,13.566
	c0.816,0,1.481-0.665,1.481-1.481s-0.665-1.481-1.481-1.481s-1.481,0.665-1.481,1.481S25.034,13.566,25.851,13.566z M25.851,11.059
	c0.566,0,1.026,0.46,1.026,1.026s-0.46,1.026-1.026,1.026s-1.026-0.46-1.026-1.026S25.284,11.059,25.851,11.059z M25.851,9.322
	c0.616,0,1.118-0.502,1.118-1.118c0-0.617-0.502-1.119-1.118-1.119c-0.617,0-1.119,0.502-1.119,1.119
	C24.731,8.82,25.233,9.322,25.851,9.322z M25.851,7.44c0.421,0,0.763,0.343,0.763,0.764s-0.342,0.763-0.763,0.763
	s-0.764-0.342-0.764-0.763S25.43,7.44,25.851,7.44z M21.309,18.269l2.487,0.562c0.085,0.02,0.169,0.028,0.252,0.028
	c0.52,0,0.989-0.358,1.108-0.887c0.139-0.613-0.246-1.222-0.858-1.36l-0.516-0.117l0.001-0.005l-3.512-0.794l-0.502,2.219
	l1.514,0.342C21.293,18.26,21.299,18.266,21.309,18.269z"/>
</svg>
