<?xml version="1.0" encoding="utf-8"?>
<!-- Generator: Adobe Illustrator 26.1.0, SVG Export Plug-In . SVG Version: 6.00 Build 0)  -->
<svg version="1.1" id="Ebene_1" xmlns="http://www.w3.org/2000/svg" xmlns:xlink="http://www.w3.org/1999/xlink" x="0px" y="0px"
	 viewBox="0 0 39 35" style="enable-background:new 0 0 39 35;" xml:space="preserve">
<style type="text/css">
	.st0{fill:none;}
	.st1{fill-rule:evenodd;clip-rule:evenodd;fill:#003399;}
	.st2{fill:#FFFFFF;}
</style>
<rect class="st0" width="39" height="35"/>
<circle class="st1" cx="20" cy="18" r="17"/>
<path class="st2" d="M30.007,22.829l-2.227-1.286l2.365-1.01c0.435-0.186,0.638-0.689,0.452-1.125
	c-0.186-0.435-0.689-0.638-1.125-0.452c0,0,0,0-0.001,0l-3.547,1.515L21.642,18l4.282-2.472l3.547,1.515
	c0.435,0.186,0.939-0.016,1.125-0.452c0.186-0.435-0.016-0.939-0.452-1.125l-2.365-1.01l2.227-1.286
	c0.41-0.237,0.55-0.761,0.314-1.171c-0.237-0.41-0.761-0.55-1.171-0.314l-2.227,1.286l0.308-2.553
	c0.022-0.184-0.016-0.371-0.109-0.531c-0.135-0.234-0.372-0.39-0.64-0.422c-0.47-0.057-0.897,0.278-0.954,0.748l-0.461,3.829
	l-4.287,2.479l-0.003-4.951l3.086-2.314c0.379-0.284,0.455-0.821,0.171-1.2c-0.284-0.379-0.821-0.455-1.2-0.171l-2.049,1.543V6.857
	C20.786,6.384,20.402,6,19.929,6c-0.473,0-0.857,0.384-0.857,0.857v2.571l-2.057-1.543c-0.379-0.284-0.916-0.208-1.2,0.171
	c-0.284,0.379-0.208,0.916,0.171,1.2c0,0,0,0,0.001,0l3.086,2.314v4.944l-4.282-2.472l-0.461-3.829
	c-0.057-0.47-0.484-0.805-0.954-0.748c-0.47,0.057-0.805,0.484-0.748,0.954l0.308,2.553l-2.227-1.286
	C10.297,11.45,9.773,11.59,9.536,12c-0.237,0.41-0.096,0.934,0.314,1.171l2.227,1.286l-2.365,1.01
	c-0.171,0.073-0.313,0.199-0.406,0.36c-0.135,0.234-0.152,0.517-0.046,0.765c0.186,0.435,0.69,0.637,1.125,0.452l3.547-1.515
	l4.29,2.473l-4.286,2.478l-3.547-1.515c-0.435-0.186-0.939,0.016-1.125,0.452c-0.186,0.435,0.016,0.939,0.452,1.125l2.36,1.003
	L9.85,22.829C9.44,23.066,9.299,23.59,9.536,24c0.237,0.41,0.761,0.55,1.171,0.314l2.227-1.286l-0.308,2.553
	c-0.057,0.47,0.278,0.897,0.748,0.954c0.47,0.057,0.897-0.278,0.954-0.748c0,0,0-0.001,0-0.001l0.461-3.829l4.282-2.472v4.944
	l-3.086,2.314c-0.379,0.284-0.455,0.821-0.171,1.2c0.284,0.379,0.821,0.455,1.2,0.171l2.057-1.543v2.571
	c0,0.473,0.384,0.857,0.857,0.857c0.473,0,0.857-0.384,0.857-0.857v-2.571l2.057,1.543c0.148,0.111,0.329,0.171,0.514,0.171
	c0.27,0,0.524-0.127,0.686-0.343c0.284-0.379,0.207-0.916-0.171-1.2l-3.086-2.314l-0.003-4.952l4.289,2.472l0.461,3.829
	c0.057,0.47,0.484,0.805,0.954,0.748c0.47-0.057,0.805-0.484,0.748-0.954l-0.312-2.546l2.227,1.286
	c0.41,0.237,0.934,0.096,1.171-0.314C30.557,23.59,30.417,23.066,30.007,22.829z"/>
</svg>
