<?xml version="1.0" encoding="utf-8"?>
<!-- Generator: Adobe Illustrator 26.2.1, SVG Export Plug-In . SVG Version: 6.00 Build 0)  -->
<svg version="1.1" id="Ebene_1" xmlns="http://www.w3.org/2000/svg" xmlns:xlink="http://www.w3.org/1999/xlink" x="0px" y="0px"
	 viewBox="0 0 39 35" style="enable-background:new 0 0 39 35;" xml:space="preserve">
<style type="text/css">
	.st0{fill:none;}
	.st1{fill-rule:evenodd;clip-rule:evenodd;fill:#ADADAD;}
	.st2{fill:#FFFFFF;}
</style>
<rect class="st0" width="39" height="35"/>
<circle class="st1" cx="20" cy="18" r="17"/>
<g>
	<path class="st0" d="M19.649,7.48c0.186-1.009,1.153-1.673,2.159-1.487c1.007,0.186,1.672,1.151,1.485,2.16
		c-0.186,1.006-1.151,1.672-2.159,1.485C20.129,9.453,19.463,8.486,19.649,7.48z"/>
	<polygon class="st0" points="18.46,18.33 18.445,18.327 17.984,23.891 15.246,28.36 22.016,26.769 21.202,22.205 	"/>
	<path class="st2" d="M21.135,9.639c1.007,0.186,1.973-0.479,2.159-1.485c0.186-1.009-0.478-1.974-1.485-2.16
		c-1.005-0.186-1.972,0.478-2.159,1.487C19.463,8.486,20.129,9.453,21.135,9.639z"/>
	<path class="st2" d="M23.674,26.379l-0.865-4.846l-2.324-3.284l0.917-4.962l3.164,3.457l0.718,0.606
		c0.432,0.12,0.88-0.126,1.004-0.557c0.077-0.271,0.008-0.563-0.182-0.771l-4.721-5.155c-0.729-0.795-1.911-0.984-2.85-0.452
		l-3.007,1.704c-0.358,0.201-0.608,0.552-0.682,0.955l-0.357,1.932c-0.163,0.88,0.42,1.725,1.3,1.888l0.631-3.418l1.315-0.745
		l-0.976,5.285l0.023,0.004c-0.005,0.029-0.021,0.052-0.023,0.082l-0.435,5.246c0,0-3.411,5.473-3.431,5.565l-1.257,0.295
		c0.44,0.329,0.896,0.634,1.374,0.91l18.656-4.384c0.303-0.456,0.571-0.934,0.82-1.425L23.674,26.379z M15.246,28.36l2.738-4.469
		l0.461-5.564l0.015,0.003l2.742,3.875l0.814,4.564L15.246,28.36z"/>
</g>
</svg>
