<?xml version="1.0" encoding="utf-8"?>
<!-- Generator: Adobe Illustrator 26.2.1, SVG Export Plug-In . SVG Version: 6.00 Build 0)  -->
<svg version="1.1" id="Ebene_1" xmlns="http://www.w3.org/2000/svg" xmlns:xlink="http://www.w3.org/1999/xlink" x="0px" y="0px"
	 viewBox="0 0 39 35" style="enable-background:new 0 0 39 35;" xml:space="preserve">
<style type="text/css">
	.st0{fill:none;}
	.st1{fill-rule:evenodd;clip-rule:evenodd;fill:#ADADAD;}
	.st2{fill:#FFFFFF;}
</style>
<rect class="st0" width="39" height="35"/>
<circle class="st1" cx="20" cy="18" r="17"/>
<path class="st0" d="M25.331,20.253c-0.561,0-1.017,0.455-1.017,1.017c0,0.561,0.456,1.017,1.017,1.017
	c0.562,0,1.017-0.456,1.017-1.017C26.348,20.708,25.893,20.253,25.331,20.253z"/>
<path class="st0" d="M21.556,26.629c-3.052,0-5.718-1.608-7.202-2.984l-4.037,1.939l1.767-3.654L10,18.278l4.354,1.939
	c1.484-1.376,4.149-2.984,7.202-2.984c4.664,0,8.444,3.758,8.444,4.698C30,22.871,26.219,26.629,21.556,26.629z"/>
<path class="st2" d="M32.162,11.083c-0.333-0.304-0.783-0.595-1.482-0.595c-0.926,0-1.415,0.512-1.772,0.886
	c-0.332,0.348-0.51,0.515-0.904,0.515s-0.572-0.168-0.904-0.516c-0.356-0.373-0.846-0.885-1.771-0.885
	c-0.926,0-1.415,0.512-1.772,0.886c-0.332,0.348-0.51,0.515-0.904,0.515c-0.396,0-0.573-0.168-0.905-0.516
	c-0.357-0.373-0.847-0.885-1.772-0.885c-0.925,0-1.414,0.512-1.771,0.886c-0.332,0.348-0.509,0.515-0.903,0.515
	c-0.396,0-0.572-0.168-0.905-0.515c-0.357-0.374-0.847-0.886-1.773-0.886c-0.926,0-1.415,0.512-1.772,0.885
	c-0.332,0.348-0.51,0.516-0.905,0.516c-0.396,0-0.573-0.168-0.906-0.516c-0.357-0.373-0.847-0.885-1.772-0.885
	c-0.635,0-1.056,0.244-1.379,0.516c-0.375,0.648-0.697,1.329-0.966,2.038c0.704-0.109,1.13-0.516,1.439-0.838
	c0.333-0.348,0.51-0.516,0.905-0.516s0.572,0.168,0.905,0.515c0.357,0.374,0.847,0.886,1.773,0.886c0.926,0,1.415-0.512,1.772-0.885
	c0.332-0.348,0.51-0.516,0.905-0.516c0.396,0,0.573,0.168,0.906,0.516c0.357,0.373,0.847,0.885,1.772,0.885
	c0.925,0,1.414-0.512,1.771-0.886c0.332-0.348,0.509-0.515,0.903-0.515c0.396,0,0.573,0.168,0.905,0.516
	c0.357,0.373,0.847,0.885,1.772,0.885s1.414-0.512,1.771-0.885c0.332-0.348,0.51-0.516,0.905-0.516c0.395,0,0.571,0.167,0.903,0.515
	c0.356,0.374,0.846,0.886,1.771,0.886s1.414-0.512,1.771-0.885c0.332-0.348,0.51-0.516,0.905-0.516c0.396,0,0.573,0.168,0.906,0.516
	c0.317,0.331,0.758,0.751,1.496,0.846C32.824,12.367,32.519,11.709,32.162,11.083z M21.556,17.233c-3.052,0-5.718,1.608-7.202,2.984
	L10,18.278l2.083,3.653l-1.767,3.654l4.037-1.939c1.484,1.376,4.15,2.984,7.202,2.984c4.664,0,8.444-3.758,8.444-4.698
	C30,20.992,26.219,17.233,21.556,17.233z M25.331,22.287c-0.561,0-1.017-0.456-1.017-1.017c0-0.562,0.456-1.017,1.017-1.017
	c0.562,0,1.017,0.455,1.017,1.017C26.348,21.831,25.892,22.287,25.331,22.287z"/>
</svg>
