<?xml version="1.0" encoding="utf-8"?>
<!-- Generator: Adobe Illustrator 26.2.1, SVG Export Plug-In . SVG Version: 6.00 Build 0)  -->
<svg version="1.1" id="Ebene_1" xmlns="http://www.w3.org/2000/svg" xmlns:xlink="http://www.w3.org/1999/xlink" x="0px" y="0px"
	 viewBox="0 0 39 35" style="enable-background:new 0 0 39 35;" xml:space="preserve">
<style type="text/css">
	.st0{fill:none;}
	.st1{fill-rule:evenodd;clip-rule:evenodd;fill:#ADADAD;}
	.st2{fill:#FFFFFF;}
</style>
<rect class="st0" width="39" height="35"/>
<circle class="st1" cx="20" cy="18" r="17"/>
<g>
	<path class="st0" d="M30.648,16.304c0.72,1.471,0.112,3.248-1.36,3.968c-1.471,0.72-3.248,0.112-3.968-1.36
		c-0.72-1.471-0.112-3.248,1.36-3.968C28.152,14.224,29.928,14.833,30.648,16.304z M18.195,13.901l-0.99-2.023
		c-0.21-0.43,0.02-0.945,0.48-1.075l8.654-2.481c0.239-0.068,0.481-0.076,0.71-0.033c0.564,0.106,1.049,0.52,1.215,1.11
		c0.234,0.829-0.248,1.691-1.077,1.925l-5.94,1.714l4.536,9.189c-0.241-0.134-0.528-0.234-0.904-0.234
		c-0.833,0-1.273,0.46-1.595,0.796c-0.299,0.313-0.459,0.463-0.814,0.463c-0.356,0-0.516-0.15-0.815-0.463
		c-0.322-0.337-0.762-0.796-1.595-0.796c-0.832,0-1.273,0.461-1.593,0.796c-0.299,0.313-0.458,0.463-0.813,0.463
		c-0.356,0-0.516-0.15-0.815-0.463c-0.322-0.337-0.762-0.796-1.596-0.796c-0.833,0-1.274,0.46-1.595,0.796
		c-0.299,0.313-0.459,0.463-0.815,0.463s-0.516-0.15-0.815-0.463c-0.225-0.235-0.517-0.523-0.952-0.68l8.38-5.654L18.195,13.901z"/>
	<path class="st2" d="M31.291,24.59c-0.322-0.337-0.763-0.796-1.596-0.796s-1.273,0.46-1.595,0.796
		c-0.299,0.313-0.459,0.463-0.814,0.463c-0.355,0-0.514-0.15-0.813-0.463c-0.321-0.336-0.761-0.796-1.594-0.796
		s-1.273,0.46-1.595,0.796c-0.299,0.313-0.459,0.463-0.814,0.463c-0.356,0-0.516-0.15-0.815-0.463
		c-0.322-0.337-0.762-0.796-1.595-0.796c-0.832,0-1.273,0.461-1.593,0.796c-0.299,0.313-0.458,0.463-0.813,0.463
		c-0.356,0-0.516-0.15-0.815-0.463c-0.322-0.337-0.762-0.796-1.596-0.796c-0.833,0-1.274,0.46-1.595,0.796
		c-0.299,0.313-0.459,0.463-0.815,0.463s-0.516-0.15-0.815-0.463c-0.322-0.337-0.762-0.796-1.596-0.796
		c-0.833,0-1.274,0.46-1.595,0.796c-0.299,0.313-0.459,0.463-0.815,0.463c-0.037,0-0.065-0.009-0.098-0.012
		c0.203,0.348,0.417,0.687,0.649,1.015c0.493-0.144,0.803-0.467,1.045-0.72c0.299-0.313,0.459-0.463,0.815-0.463
		c0.357,0,0.516,0.151,0.816,0.464c0.322,0.336,0.762,0.795,1.595,0.795s1.273-0.46,1.595-0.796
		c0.299-0.313,0.459-0.463,0.815-0.463c0.357,0,0.516,0.151,0.816,0.464c0.322,0.336,0.762,0.795,1.595,0.795
		c0.832,0,1.273-0.461,1.593-0.796c0.299-0.313,0.458-0.463,0.813-0.463c0.356,0,0.516,0.15,0.815,0.463
		c0.322,0.337,0.762,0.796,1.595,0.796c0.832,0,1.273-0.46,1.594-0.796c0.299-0.313,0.459-0.463,0.815-0.463
		c0.355,0,0.515,0.15,0.814,0.463c0.321,0.337,0.761,0.796,1.593,0.796s1.273-0.46,1.594-0.796c0.299-0.313,0.459-0.463,0.815-0.463
		c0.357,0,0.516,0.15,0.816,0.463c0.226,0.236,0.519,0.525,0.956,0.681c0.219-0.313,0.421-0.637,0.614-0.967
		C31.744,25.042,31.583,24.895,31.291,24.59z"/>
	<path class="st2" d="M26.68,14.944c-1.471,0.72-2.08,2.497-1.36,3.968c0.72,1.471,2.497,2.08,3.968,1.36
		c1.471-0.72,2.08-2.497,1.36-3.968C29.928,14.833,28.152,14.224,26.68,14.944z"/>
	<path class="st2" d="M12.018,22.79c0.299,0.313,0.459,0.463,0.815,0.463s0.516-0.15,0.815-0.463
		c0.322-0.337,0.762-0.796,1.595-0.796c0.834,0,1.274,0.46,1.596,0.796c0.299,0.313,0.459,0.463,0.815,0.463
		c0.355,0,0.514-0.15,0.813-0.463c0.321-0.336,0.761-0.796,1.593-0.796c0.833,0,1.274,0.46,1.595,0.796
		c0.299,0.313,0.459,0.463,0.815,0.463c0.355,0,0.515-0.15,0.814-0.463c0.322-0.337,0.762-0.796,1.595-0.796
		c0.376,0,0.663,0.1,0.904,0.234l-4.536-9.189l5.94-1.714c0.829-0.234,1.311-1.096,1.077-1.925c-0.167-0.59-0.651-1.004-1.215-1.11
		c-0.229-0.043-0.471-0.035-0.71,0.033l-8.654,2.481c-0.46,0.13-0.691,0.645-0.48,1.075l0.99,2.023l1.251,2.555l-8.38,5.654
		C11.501,22.267,11.793,22.555,12.018,22.79z"/>
</g>
</svg>
