<?xml version="1.0" encoding="utf-8"?>
<!-- Generator: Adobe Illustrator 26.1.0, SVG Export Plug-In . SVG Version: 6.00 Build 0)  -->
<svg version="1.1" id="Ebene_1" xmlns="http://www.w3.org/2000/svg" xmlns:xlink="http://www.w3.org/1999/xlink" x="0px" y="0px"
	 viewBox="0 0 39 35" style="enable-background:new 0 0 39 35;" xml:space="preserve">
<style type="text/css">
	.st0{fill:none;}
	.st1{fill-rule:evenodd;clip-rule:evenodd;fill:#003399;}
	.st2{fill:#FFFFFF;}
</style>
<rect class="st0" width="39" height="35"/>
<circle class="st1" cx="19.969" cy="18" r="17"/>
<path class="st2" d="M22.69,12.283c0,0.397,0.322,0.719,0.719,0.719c0.397,0,0.719-0.322,0.719-0.719
	c0-0.397-0.322-0.719-0.719-0.719C23.012,11.564,22.69,11.886,22.69,12.283z M26.54,12.61c0.531,0,0.961-0.43,0.961-0.961
	c0-0.531-0.43-0.961-0.961-0.961s-0.961,0.43-0.961,0.961C25.579,12.179,26.01,12.61,26.54,12.61z M26.705,14.777
	c0,0.387,0.314,0.701,0.701,0.701c0.387,0,0.701-0.314,0.701-0.701c0-0.387-0.314-0.701-0.701-0.701
	C27.019,14.076,26.705,14.39,26.705,14.777z M28.132,21.78c-3.312,1.209-7.018-0.611-8.279-4.064
	c-1.261-3.453,0.402-7.233,3.714-8.442c0.494-0.18,1.096-0.316,1.755-0.415C12.782,4.923,13.36,19.352,7.214,20.494
	c0.248,1.273,0.69,2.474,1.279,3.584C8.664,24.032,8.849,24,9.062,24c0.926,0,1.415,0.512,1.772,0.886
	c0.333,0.348,0.51,0.515,0.905,0.515s0.573-0.167,0.906-0.515C13.003,24.511,13.492,24,14.418,24c0.926,0,1.415,0.512,1.772,0.886
	c0.333,0.348,0.51,0.515,0.905,0.515s0.573-0.167,0.905-0.515C18.358,24.511,18.848,24,19.773,24c0.926,0,1.416,0.512,1.773,0.886
	c0.333,0.348,0.51,0.515,0.906,0.515s0.573-0.167,0.905-0.515C23.715,24.511,24.204,24,25.13,24s1.416,0.512,1.773,0.885
	c0.333,0.348,0.51,0.515,0.906,0.515c0.394,0,0.571-0.167,0.902-0.514C29.068,24.512,29.557,24,30.482,24
	c0.359,0,0.638,0.09,0.884,0.206c0.915-1.682,1.481-3.583,1.573-5.611C31.371,20.068,29.531,21.269,28.132,21.78z M29.58,25.714
	c-0.357,0.374-0.846,0.886-1.771,0.886c-0.926,0-1.416-0.512-1.773-0.886c-0.333-0.348-0.51-0.515-0.906-0.515
	s-0.573,0.167-0.905,0.515c-0.357,0.374-0.847,0.886-1.772,0.886c-0.926,0-1.416-0.512-1.773-0.886
	c-0.333-0.348-0.51-0.515-0.906-0.515s-0.573,0.167-0.905,0.515c-0.357,0.374-0.847,0.886-1.772,0.886s-1.416-0.512-1.772-0.886
	c-0.333-0.348-0.51-0.515-0.905-0.515c-0.396,0-0.573,0.167-0.906,0.515c-0.357,0.374-0.847,0.886-1.773,0.886
	c-0.926,0-1.415-0.512-1.772-0.886c-0.298-0.311-0.479-0.47-0.796-0.502C11.501,28.698,15.461,31,19.969,31
	c4.499,0,8.447-2.294,10.776-5.768c-0.078-0.021-0.163-0.032-0.263-0.032C30.088,25.2,29.911,25.367,29.58,25.714z"/>
</svg>
