<?xml version="1.0" encoding="utf-8"?>
<!-- Generator: Adobe Illustrator 26.1.0, SVG Export Plug-In . SVG Version: 6.00 Build 0)  -->
<svg version="1.1" id="Ebene_1" xmlns="http://www.w3.org/2000/svg" xmlns:xlink="http://www.w3.org/1999/xlink" x="0px" y="0px"
	 viewBox="0 0 39 35" style="enable-background:new 0 0 39 35;" xml:space="preserve">
<style type="text/css">
	.st0{fill:none;}
	.st1{fill-rule:evenodd;clip-rule:evenodd;fill:#003399;}
	.st2{fill:#FFFFFF;}
</style>
<rect class="st0" width="39" height="35"/>
<circle class="st1" cx="20" cy="18" r="17"/>
<path id="path1303_00000009558449456259143040000013597352447055463576_" class="st2" d="M19.651,9.259
	c-0.702,0-1.27,0.569-1.27,1.27v8.491c0,0.338,0.135,0.662,0.375,0.901l4.485,3.112c0.497,0.495,1.302,0.492,1.796-0.005
	c0.495-0.497,0.492-1.302-0.005-1.796l-4.11-2.74v-7.962C20.922,9.828,20.353,9.259,19.651,9.259z"/>
<path class="st2" d="M20,6.393c6.4,0,11.607,5.207,11.607,11.607S26.4,29.607,20,29.607S8.393,24.4,8.393,18S13.6,6.393,20,6.393
	 M20,5C12.82,5,7,10.82,7,18s5.82,13,13,13s13-5.82,13-13S27.18,5,20,5L20,5z"/>
</svg>
