<?xml version="1.0" encoding="utf-8"?>
<!-- Generator: Adobe Illustrator 26.2.1, SVG Export Plug-In . SVG Version: 6.00 Build 0)  -->
<svg version="1.1" id="Ebene_1" xmlns="http://www.w3.org/2000/svg" xmlns:xlink="http://www.w3.org/1999/xlink" x="0px" y="0px"
	 viewBox="0 0 39 35" style="enable-background:new 0 0 39 35;" xml:space="preserve">
<style type="text/css">
	.st0{fill-rule:evenodd;clip-rule:evenodd;fill:#ADADAD;}
	.st1{fill:none;}
	.st2{fill-rule:evenodd;clip-rule:evenodd;fill:#FFFFFF;}
</style>
<circle class="st0" cx="20" cy="18" r="17"/>
<rect class="st1" width="39" height="35"/>
<g>
	<path class="st2" d="M13.02,13.658c0.088,0.134,0.232,0.221,0.391,0.237c0.159,0.017,0.317-0.04,0.43-0.153l0.58-0.58l3.625,3.625
		c0.329-0.302,0.614-0.563,0.827-0.756c0.082-0.075,0.146-0.137,0.218-0.206l-3.666-3.666l0.53-0.53
		c0.101-0.1,0.156-0.236,0.156-0.377c0-0.018-0.001-0.036-0.003-0.054c-0.016-0.159-0.103-0.303-0.237-0.391l-3.083-2.026
		c-0.211-0.139-0.49-0.11-0.668,0.068l-1.057,1.058c-0.178,0.178-0.207,0.458-0.068,0.668L13.02,13.658z M23.735,17.793
		c-0.406,0.054-0.818,0.249-1.786,1.314c-0.431,0.476-1.176,1.286-2.039,2.22l5.886,5.886c0.386,0.386,0.918,0.599,1.496,0.598
		c0.691,0,1.388-0.303,1.908-0.824l0.047-0.046c0.526-0.525,0.828-1.222,0.828-1.912c0-0.579-0.213-1.11-0.6-1.497L23.735,17.793z
		 M23.962,16.79c0.568-0.018,2.157,0.024,2.279,0.015c1.081-0.084,2.139-0.539,2.966-1.366c1.254-1.254,1.632-3.035,1.177-4.627
		l-2.455,2.455c-0.342,0.342-0.896,0.342-1.238,0l-0.988-0.988v0l-0.988-0.988c-0.342-0.342-0.342-0.896,0-1.238l2.455-2.455
		c-1.593-0.455-3.373-0.077-4.627,1.177c-0.827,0.827-1.282,1.885-1.366,2.966c-0.009,0.122,0.033,1.711,0.015,2.279
		c-0.054,0.94-0.309,1.513-1.659,2.737c-1.843,1.671-8.593,7.95-8.593,7.95s-1.53,1.35-0.272,2.608v0
		c1.258,1.258,2.608-0.272,2.608-0.272s6.279-6.75,7.95-8.593C22.449,17.1,23.021,16.845,23.962,16.79z"/>
</g>
</svg>
