<?xml version="1.0" encoding="utf-8"?>
<!-- Generator: Adobe Illustrator 26.2.1, SVG Export Plug-In . SVG Version: 6.00 Build 0)  -->
<svg version="1.1" id="Ebene_1" xmlns="http://www.w3.org/2000/svg" xmlns:xlink="http://www.w3.org/1999/xlink" x="0px" y="0px"
	 viewBox="0 0 39 35" style="enable-background:new 0 0 39 35;" xml:space="preserve">
<style type="text/css">
	.st0{fill:none;}
	.st1{fill-rule:evenodd;clip-rule:evenodd;fill:#ADADAD;}
	.st2{fill:#FFFFFF;}
	.st3{fill:#C1121C;}
</style>
<rect class="st0" width="39" height="35"/>
<circle class="st1" cx="20" cy="18" r="17"/>
<g>
	<path class="st0" d="M21.836,25.701l-2.333-4.297l-2.333,4.297h-2.345l2.491-4.591c0.084-0.152,0.125-0.319,0.125-0.492v-0.251
		h4.123v0.251c0,0.173,0.042,0.34,0.124,0.492l2.493,4.591H21.836z M20.534,5.681c1.139,0,2.06,0.921,2.06,2.062
		c0,1.138-0.921,2.06-2.06,2.06c-1.137,0-2.06-0.923-2.06-2.06C18.473,6.602,19.397,5.681,20.534,5.681z M14.35,14.832
		c0-0.456,0.203-0.89,0.553-1.182l2.944-2.471c0.919-0.771,2.249-0.804,3.208-0.081l6.204,4.684
		c0.249,0.188,0.384,0.494,0.355,0.806c-0.048,0.496-0.489,0.856-0.986,0.812l-0.907-0.518l-4.158-3.141v6.109h-4.123v-5.976
		l-1.287,1.081v3.865c-0.995,0-1.803-0.806-1.803-1.801V14.832z"/>
	<path class="st2" d="M17.441,20.367v0.251c0,0.174-0.041,0.34-0.125,0.492l-2.491,4.591h2.345l2.333-4.297l2.333,4.297h2.345
		l-2.493-4.591c-0.082-0.152-0.124-0.319-0.124-0.492v-0.251H17.441z M29.612,26.508c-0.832,0-1.273,0.461-1.594,0.797
		c-0.299,0.313-0.459,0.463-0.815,0.463c-0.355,0-0.514-0.15-0.813-0.463c-0.321-0.336-0.761-0.797-1.594-0.797
		c-0.832,0-1.273,0.461-1.594,0.797c-0.299,0.313-0.459,0.463-0.815,0.463s-0.516-0.15-0.815-0.463
		c-0.322-0.336-0.762-0.797-1.595-0.797s-1.273,0.461-1.593,0.797c-0.299,0.312-0.458,0.463-0.812,0.463
		c-0.357,0-0.516-0.15-0.816-0.463c-0.322-0.336-0.763-0.797-1.596-0.797s-1.274,0.461-1.595,0.797
		c-0.299,0.313-0.459,0.463-0.815,0.463s-0.516-0.15-0.815-0.463c-0.322-0.336-0.762-0.797-1.596-0.797
		c-0.513,0-0.866,0.179-1.145,0.391c0.229,0.278,0.476,0.54,0.725,0.799c0.119-0.073,0.246-0.11,0.42-0.11
		c0.357,0,0.516,0.15,0.816,0.463c0.322,0.336,0.762,0.797,1.595,0.797s1.274-0.461,1.595-0.797
		c0.299-0.313,0.459-0.463,0.815-0.463c0.357,0,0.516,0.15,0.816,0.463c0.322,0.336,0.763,0.797,1.596,0.797
		c0.832,0,1.272-0.461,1.593-0.797c0.299-0.312,0.458-0.463,0.813-0.463c0.356,0,0.516,0.15,0.815,0.463
		c0.322,0.336,0.762,0.797,1.595,0.797s1.274-0.461,1.595-0.797c0.299-0.312,0.459-0.463,0.814-0.463
		c0.355,0,0.515,0.15,0.814,0.463c0.321,0.336,0.761,0.797,1.593,0.797c0.833,0,1.274-0.461,1.595-0.797
		c0.299-0.312,0.459-0.463,0.814-0.463c0.189,0,0.323,0.045,0.451,0.131c0.25-0.258,0.496-0.521,0.725-0.797
		C30.504,26.7,30.143,26.508,29.612,26.508z M20.534,9.804c1.139,0,2.06-0.923,2.06-2.06c0-1.141-0.921-2.062-2.06-2.062
		c-1.137,0-2.06,0.921-2.06,2.062C18.473,8.881,19.397,9.804,20.534,9.804z M16.154,18.818v-3.865l1.287-1.081v5.976h4.123v-6.109
		l4.158,3.141l0.907,0.518c0.497,0.044,0.937-0.316,0.986-0.812c0.029-0.312-0.105-0.618-0.355-0.806l-6.204-4.684
		c-0.958-0.723-2.288-0.69-3.208,0.081l-2.944,2.471c-0.351,0.292-0.553,0.727-0.553,1.182v2.185
		C14.35,18.012,15.159,18.818,16.154,18.818z"/>
</g>
<polygon class="st3" points="4.398,35 3,33.57 35.602,1 37,2.43 "/>
</svg>
