<?xml version="1.0" encoding="utf-8"?>
<!-- Generator: Adobe Illustrator 26.2.1, SVG Export Plug-In . SVG Version: 6.00 Build 0)  -->
<svg version="1.1" id="Ebene_1" xmlns="http://www.w3.org/2000/svg" xmlns:xlink="http://www.w3.org/1999/xlink" x="0px" y="0px"
	 viewBox="0 0 39 35" style="enable-background:new 0 0 39 35;" xml:space="preserve">
<style type="text/css">
	.st0{fill:none;}
	.st1{fill-rule:evenodd;clip-rule:evenodd;fill:#003399;}
	.st2{fill-rule:evenodd;clip-rule:evenodd;fill:#FFFFFF;}
</style>
<rect class="st0" width="39" height="35"/>
<circle class="st1" cx="20" cy="18" r="17"/>
<path class="st2" d="M28.694,8.729l-1.165-0.106L25.814,27.36l-0.004,0.073l0.007,0.06c0,0.002,0.018,0.188-0.076,0.294
	c-0.078,0.087-0.254,0.136-0.495,0.136H14.752c-0.447,0-0.554-0.286-0.567-0.562L12.472,8.622l-1.165,0.106l1.711,18.693
	c0.011,0.671,0.481,1.67,1.735,1.67h10.494c0.758,0,1.172-0.298,1.386-0.548c0.359-0.419,0.367-0.925,0.352-1.132L28.694,8.729z
	 M23.832,25.807l1.085-11.866c0,0-2.318,1.849-4.918,0c-2.532-1.801-4.918,0-4.918,0l1.086,11.866H23.832z M21.627,12.176
	c0.095,0.6,0.659,1.008,1.258,0.913c0.6-0.095,1.008-0.659,0.913-1.258c-0.095-0.6-0.659-1.008-1.258-0.913
	C21.941,11.012,21.532,11.576,21.627,12.176z M19.376,11.77c0.497-0.079,0.835-0.546,0.756-1.042
	c-0.079-0.497-0.546-0.835-1.042-0.756c-0.497,0.079-0.835,0.546-0.756,1.042C18.413,11.511,18.879,11.849,19.376,11.77z
	 M21.362,8.451c0.423-0.067,0.712-0.465,0.645-0.889c-0.067-0.423-0.465-0.712-0.889-0.645c-0.423,0.067-0.712,0.465-0.645,0.889
	C20.54,8.229,20.938,8.518,21.362,8.451z"/>
</svg>
