<?xml version="1.0" encoding="utf-8"?>
<!-- Generator: Adobe Illustrator 26.2.1, SVG Export Plug-In . SVG Version: 6.00 Build 0)  -->
<svg version="1.1" id="Ebene_1" xmlns="http://www.w3.org/2000/svg" xmlns:xlink="http://www.w3.org/1999/xlink" x="0px" y="0px"
	 viewBox="0 0 39 35" style="enable-background:new 0 0 39 35;" xml:space="preserve">
<style type="text/css">
	.st0{fill:none;}
	.st1{fill-rule:evenodd;clip-rule:evenodd;fill:#ADADAD;}
	.st2{fill:#FFFFFF;}
	.st3{fill:#C1121C;}
</style>
<rect class="st0" width="39" height="35"/>
<circle class="st1" cx="20" cy="18" r="17"/>
<g>
	<path class="st0" d="M28.049,17.593c1.424,0,2.58,1.153,2.58,2.582c0,1.424-1.156,2.58-2.58,2.58c-1.426,0-2.58-1.155-2.58-2.58
		C25.469,18.746,26.623,17.593,28.049,17.593z M18.172,17.985l-1.403-0.714l1.211-2.38l1.403,0.714L18.172,17.985z"/>
	<path class="st0" d="M30.274,27.488c0.005-0.006,0.01-0.011,0.016-0.017l-0.016-0.013V27.488z"/>
	<path class="st2" d="M19.403,12.954l-5.61-2.743V5.465c-0.371,0.184-0.731,0.384-1.082,0.599v3.618l-2.802-1.37
		c-1.615,1.682-2.806,3.765-3.423,6.086l7.421,3.791L19.403,12.954z"/>
	
		<rect x="16.741" y="15.651" transform="matrix(0.4536 -0.8912 0.8912 0.4536 -4.7727 25.0909)" class="st2" width="2.671" height="1.574"/>
	<path class="st2" d="M29.764,24.085c-0.784-0.658-2.097-0.71-3.237-0.396l-3.515-2.887l1.911-5.868
		c0.201-0.618-0.136-1.28-0.754-1.481c-0.615-0.202-1.281,0.138-1.481,0.753l-2.159,6.63c-0.15,0.46-0.003,0.965,0.371,1.272
		l4.211,3.459v1.724v3.732c1.983-0.779,3.74-1.997,5.162-3.536v-0.03l0.016,0.013c0.493-0.536,0.954-1.101,1.36-1.709L29.764,24.085
		z"/>
	<path class="st2" d="M28.049,22.755c1.424,0,2.58-1.155,2.58-2.58c0-1.429-1.156-2.582-2.58-2.582c-1.426,0-2.58,1.153-2.58,2.582
		C25.469,21.599,26.623,22.755,28.049,22.755z"/>
</g>
<polygon class="st3" points="4.398,35 3,33.57 35.602,1 37,2.43 "/>
</svg>
