<?xml version="1.0" encoding="utf-8"?>
<!-- Generator: Adobe Illustrator 26.2.1, SVG Export Plug-In . SVG Version: 6.00 Build 0)  -->
<svg version="1.1" id="Ebene_1" xmlns="http://www.w3.org/2000/svg" xmlns:xlink="http://www.w3.org/1999/xlink" x="0px" y="0px"
	 viewBox="0 0 39 35" style="enable-background:new 0 0 39 35;" xml:space="preserve">
<style type="text/css">
	.st0{fill:none;}
	.st1{fill-rule:evenodd;clip-rule:evenodd;fill:#ADADAD;}
	.st2{fill-rule:evenodd;clip-rule:evenodd;fill:#FFFFFF;}
	.st3{fill:#C1121C;}
</style>
<rect class="st0" width="39" height="35"/>
<circle class="st1" cx="20" cy="18" r="17"/>
<path class="st2" d="M22.174,21.106c0.274,0.733,0.371,1.521,0.284,2.299c-0.098,0.868-0.422,1.695-0.941,2.398
	c-1.632,2.212-4.748,2.682-6.96,1.05c-0.703-0.519-1.257-1.213-1.607-2.014c-1.1-2.519,0.051-5.453,2.571-6.553l0-1.069
	c-0.905,0.32-1.719,0.853-2.374,1.555c-0.716,0.766-1.217,1.707-1.453,2.729c-0.744,3.213,1.257,6.422,4.471,7.166
	c1.021,0.237,2.087,0.2,3.09-0.106c3.155-0.962,4.933-4.3,3.971-7.455H22.174z M20.001,16.378h4.977l0,0
	c0-0.962-0.78-1.742-1.742-1.742h-3.235v-2.986c0-0.622-0.332-1.197-0.871-1.509c-0.265-0.153-0.565-0.233-0.871-0.233
	c-0.962,0-1.742,0.78-1.742,1.742v6.719c0,0.962,0.78,1.742,1.742,1.742h5.654c0.228,0,0.427,0.155,0.483,0.376l1.717,6.828
	c0.262,1.041,1.301,1.687,2.35,1.461l-2.01-9.333c-0.197-0.917-1.008-1.572-1.946-1.572h-4.505V16.378z M16.517,7.17
	c0,0.349,0.092,0.693,0.267,0.995c0.55,0.952,1.767,1.278,2.72,0.729c0.303-0.175,0.554-0.426,0.729-0.729
	c0.55-0.952,0.224-2.17-0.729-2.72c-0.303-0.175-0.646-0.267-0.995-0.267C17.408,5.179,16.517,6.07,16.517,7.17"/>
<polygon class="st3" points="4.398,35 3,33.57 35.602,1 37,2.43 "/>
</svg>
