<?xml version="1.0" encoding="utf-8"?>
<!-- Generator: Adobe Illustrator 26.1.0, SVG Export Plug-In . SVG Version: 6.00 Build 0)  -->
<svg version="1.1" id="Ebene_1" xmlns="http://www.w3.org/2000/svg" xmlns:xlink="http://www.w3.org/1999/xlink" x="0px" y="0px"
	 viewBox="0 0 39 35" style="enable-background:new 0 0 39 35;" xml:space="preserve">
<style type="text/css">
	.st0{fill:none;}
	.st1{fill-rule:evenodd;clip-rule:evenodd;fill:#003399;}
	.st2{fill:#FFFFFF;}
</style>
<rect class="st0" width="39" height="35"/>
<circle class="st1" cx="20" cy="18" r="17"/>
<g>
	<path class="st2" d="M7.715,15.431h1.566l0.797,3.443c0.072,0.314,0.133,0.63,0.182,0.945c0.05,0.314,0.106,0.635,0.169,0.959
		h0.055c0.062-0.324,0.128-0.645,0.195-0.959c0.067-0.315,0.142-0.631,0.223-0.945l0.864-3.443h1.418l0.878,3.443
		c0.081,0.314,0.157,0.63,0.229,0.945c0.072,0.314,0.145,0.635,0.216,0.959h0.055c0.062-0.324,0.121-0.645,0.175-0.959
		c0.055-0.315,0.113-0.631,0.176-0.945l0.797-3.443h1.459l-1.688,6.63h-1.85l-0.771-3.092c-0.071-0.315-0.139-0.628-0.202-0.938
		s-0.131-0.642-0.202-0.993H12.4c-0.062,0.352-0.126,0.685-0.188,0.999c-0.063,0.315-0.131,0.631-0.203,0.945l-0.756,3.079H9.471
		L7.715,15.431z"/>
	<path class="st2" d="M18.568,14.026c-0.18-0.162-0.27-0.374-0.27-0.635c0-0.262,0.09-0.476,0.27-0.642
		c0.181-0.167,0.41-0.25,0.688-0.25c0.279,0,0.509,0.083,0.689,0.25c0.18,0.166,0.27,0.38,0.27,0.642c0,0.261-0.09,0.473-0.27,0.635
		c-0.181,0.161-0.41,0.242-0.689,0.242C18.979,14.269,18.749,14.188,18.568,14.026z M18.474,15.431h1.554v6.63h-1.554V15.431z"/>
	<path class="st2" d="M22.011,12.527h1.526v5.955h0.041l2.457-3.052h1.702l-2.27,2.7l2.499,3.93h-1.688l-1.701-2.876l-1.04,1.188
		v1.688h-1.526V12.527z"/>
	<path class="st2" d="M29.152,14.026c-0.18-0.162-0.27-0.374-0.27-0.635c0-0.262,0.09-0.476,0.27-0.642
		c0.181-0.167,0.41-0.25,0.688-0.25c0.279,0,0.509,0.083,0.689,0.25c0.18,0.166,0.27,0.38,0.27,0.642c0,0.261-0.09,0.473-0.27,0.635
		c-0.181,0.161-0.41,0.242-0.689,0.242C29.562,14.269,29.333,14.188,29.152,14.026z M29.058,15.431h1.554v6.63h-1.554V15.431z"/>
</g>
</svg>
