<?xml version="1.0" encoding="utf-8"?>
<!-- Generator: Adobe Illustrator 26.1.0, SVG Export Plug-In . SVG Version: 6.00 Build 0)  -->
<svg version="1.1" id="Ebene_1" xmlns="http://www.w3.org/2000/svg" xmlns:xlink="http://www.w3.org/1999/xlink" x="0px" y="0px"
	 viewBox="0 0 39 35" style="enable-background:new 0 0 39 35;" xml:space="preserve">
<style type="text/css">
	.st0{fill:none;}
	.st1{fill-rule:evenodd;clip-rule:evenodd;fill:#ADADAD;}
	.st2{fill:#FFFFFF;}
	.st3{fill:#C1121C;}
</style>
<rect class="st0" width="39" height="35"/>
<path id="path5502_00000135686048149608565330000012178788313526853558_" class="st1" d="M19.5,1
	c-0.42-0.003-0.882,0.211-1.108,0.611L0.151,33.094C0.046,33.308,0.001,33.494,0,33.707c0,0.382,0.17,0.744,0.463,0.989
	C0.721,34.896,0.966,35,1.296,35h36.443c0.222,0.002,0.445-0.051,0.647-0.184C38.767,34.587,39,34.177,39,33.733
	c-0.011-0.229-0.067-0.47-0.17-0.64L20.599,1.606c-0.002-0.003-0.003-0.006-0.005-0.008c-0.002-0.003-0.004-0.006-0.006-0.009
	c-0.065-0.103-0.146-0.194-0.238-0.272c-0.212-0.183-0.477-0.292-0.756-0.312C19.563,1.002,19.531,1,19.5,1z M1.296,35h-0.09h0.092
	H1.296z"/>
<polygon class="st2" points="19.481,7.24 33.383,31.24 5.56,31.24 "/>
<path class="st1" d="M22.655,23.315c-2.068,0.121-3.981,2.094-5.932,1.217c-0.567-0.282-1.052-0.902-1.257-1.543
	c-0.301-1.109,1.251-2.251,2.302-1.706c0.87,0.461,1.492,1.13,2.558,1.257c2.017,0.441,3.989-1.215,3.709-3.343
	c-0.206-1.255-1.05-2.005-1.948-2.696c0.017-0.502-0.208-1.111-0.657-1.639c-0.7-0.825-1.678-1.145-2.25-0.765l-0.827-1.554
	l0.107,1.044l-1.089-0.105l1.557,0.861c-0.344,0.533-0.157,1.464,0.49,2.226c0.498,0.587,1.137,0.915,1.672,0.923
	c1.083,0.899,1.638,1.858,1.036,2.669c-0.346,0.638-0.893,0.728-1.556,0.678c-0.86-0.067-1.434-0.8-2.273-1.053
	c-2.149-0.83-4.793,1.203-4.121,3.594c0.536,2.081,2.968,3.295,4.943,2.592c1.491-0.342,3.268-1.648,4.611-1.097
	c1.899,1.646,0.181,4.594-2.194,4.358c-2.001-0.184-4.196-2.687-6.333-1.318c-0.401,0.259-0.697,0.619-0.978,0.972
	c0,0,0.151,0.119,0.151,0.119c1.274-1.639,3.016-0.937,4.436,0.094c1.177,0.849,2.673,1.599,4.175,1.117
	c1.555-0.501,2.821-1.775,2.925-3.543C25.947,24.838,24.623,22.975,22.655,23.315z"/>
<polygon class="st3" points="4.398,35 3,33.57 35.602,1 37,2.43 "/>
</svg>
