<?xml version="1.0" encoding="utf-8"?>
<!-- Generator: Adobe Illustrator 26.1.0, SVG Export Plug-In . SVG Version: 6.00 Build 0)  -->
<svg version="1.1" id="Ebene_1" xmlns="http://www.w3.org/2000/svg" xmlns:xlink="http://www.w3.org/1999/xlink" x="0px" y="0px"
	 viewBox="0 0 39 35" style="enable-background:new 0 0 39 35;" xml:space="preserve">
<style type="text/css">
	.st0{fill:none;}
	.st1{fill:#C0171D;}
	.st2{fill:none;stroke:#000000;stroke-miterlimit:10;}
	.st3{fill:#FFFFFF;}
</style>
<rect class="st0" width="39" height="35"/>
<path id="path5502_00000086686364060094610780000004444981974802879625_" class="st1" d="M19.5,1
	c-0.42-0.003-0.882,0.211-1.108,0.611L0.151,33.094C0.046,33.308,0.001,33.494,0,33.707c0,0.382,0.17,0.744,0.463,0.989
	C0.721,34.896,0.966,35,1.296,35h36.443c0.222,0.002,0.445-0.051,0.647-0.184C38.767,34.587,39,34.177,39,33.733
	c-0.011-0.229-0.067-0.47-0.17-0.64L20.599,1.606c-0.002-0.003-0.003-0.006-0.005-0.008c-0.002-0.003-0.004-0.006-0.006-0.009
	c-0.065-0.103-0.146-0.194-0.238-0.272c-0.212-0.183-0.477-0.292-0.756-0.312C19.563,1.002,19.531,1,19.5,1z M1.296,35h-0.09h0.092
	H1.296z"/>
<g>
	<path class="st2" d="M16.762,23.082"/>
</g>
<polygon class="st3" points="19.481,7.24 33.383,31.24 5.56,31.24 "/>
<path id="path4617_00000046314449399630626230000005904619894324636303_" d="M8.762,30.136l0.585-1.012h4.65l-0.506-0.506h-0.607
	l-0.607-1.113l1.418-1.518l0.81,0.102l0.607-0.304l1.417,0.506l0.911,0.81l-0.101,1.216l-1.619,0.809h3.846l0.708-3.847l0.507-0.403
	l-0.405-4.05l0.607-0.404l-0.405-0.608l0.405-2.834l2.024-0.993l8.171,14.151L8.762,30.136z M15.212,24.771l1.114-0.709l0.304-1.013
	l-0.708-0.709l-0.405,0.305l-0.405-0.305l-1.012,0.81l0.101,0.608l0.101,0.709L15.212,24.771z M18.958,20.419l-0.911-0.203
	l-1.215,1.012l-0.102,1.317l0.81,0.708l0.405-0.607h0.405l0.861-1.012l-0.253-0.304L18.958,20.419L18.958,20.419z M20.679,16.876
	l-2.126,0.202l-0.607-1.215l0.708-0.506l0.101-0.708l1.62-0.304l0.809,0.506l0.202-0.101l0.607,0.506L20.679,16.876L20.679,16.876z"
	/>
</svg>
