<?xml version="1.0" encoding="utf-8"?>
<!-- Generator: Adobe Illustrator 26.1.0, SVG Export Plug-In . SVG Version: 6.00 Build 0)  -->
<svg version="1.1" id="Ebene_1" xmlns="http://www.w3.org/2000/svg" xmlns:xlink="http://www.w3.org/1999/xlink" x="0px" y="0px"
	 viewBox="0 0 39 35" style="enable-background:new 0 0 39 35;" xml:space="preserve">
<style type="text/css">
	.st0{fill:none;}
	.st1{fill-rule:evenodd;clip-rule:evenodd;fill:#ADADAD;}
	.st2{fill:#FFFFFF;}
	.st3{fill:#C1121C;}
</style>
<rect class="st0" width="39" height="35"/>
<path id="path5502_00000176024542807582968460000008693299496479702664_" class="st1" d="M19.5,1
	c-0.42-0.003-0.882,0.211-1.108,0.611L0.151,33.094C0.046,33.308,0.001,33.494,0,33.707c0,0.382,0.17,0.744,0.463,0.989
	C0.721,34.896,0.966,35,1.296,35h36.443c0.222,0.002,0.445-0.051,0.647-0.184C38.767,34.587,39,34.177,39,33.733
	c-0.011-0.229-0.067-0.47-0.17-0.64L20.599,1.606c-0.002-0.003-0.003-0.006-0.005-0.008c-0.002-0.003-0.004-0.006-0.006-0.009
	c-0.065-0.103-0.146-0.194-0.238-0.272c-0.212-0.183-0.477-0.292-0.756-0.312C19.563,1.002,19.531,1,19.5,1z M1.296,35h-0.09h0.092
	H1.296z"/>
<polygon class="st2" points="19.481,7.24 33.383,31.24 5.56,31.24 "/>
<path class="st1" d="M19.5,25.365c0.568-0.001,0.943-0.459,0.943-0.941l0.944-11.045c0-1.038-0.845-1.88-1.887-1.88
	c-1.042,0-1.888,0.842-1.888,1.88l0.944,11.045C18.556,24.944,18.932,25.366,19.5,25.365z M19.5,26.305
	c-1.042,0-1.888,0.842-1.888,1.88c0,1.039,0.845,1.88,1.888,1.88c1.043,0,1.887-0.841,1.887-1.88
	C21.387,27.147,20.543,26.305,19.5,26.305z"/>
<polygon class="st3" points="4.398,35 3,33.57 35.602,1 37,2.43 "/>
</svg>
