<?xml version="1.0" encoding="utf-8"?>
<!-- Generator: Adobe Illustrator 26.1.0, SVG Export Plug-In . SVG Version: 6.00 Build 0)  -->
<svg version="1.1" id="Ebene_1" xmlns="http://www.w3.org/2000/svg" xmlns:xlink="http://www.w3.org/1999/xlink" x="0px" y="0px"
	 viewBox="0 0 39 35" style="enable-background:new 0 0 39 35;" xml:space="preserve">
<style type="text/css">
	.st0{fill:none;}
	.st1{fill-rule:evenodd;clip-rule:evenodd;fill:#ADADAD;}
	.st2{fill:#FFFFFF;}
</style>
<rect class="st0" width="39" height="35"/>
<path id="path5502_00000121999976767704601620000003713844740235763861_" class="st1" d="M19.5,1
	c-0.42-0.003-0.882,0.211-1.108,0.611L0.151,33.094C0.046,33.308,0.001,33.494,0,33.707c0,0.382,0.17,0.744,0.463,0.989
	C0.721,34.896,0.966,35,1.296,35h36.443c0.222,0.002,0.445-0.051,0.647-0.184C38.767,34.587,39,34.177,39,33.733
	c-0.011-0.229-0.067-0.47-0.17-0.64L20.599,1.606c-0.002-0.003-0.003-0.006-0.005-0.008c-0.002-0.003-0.004-0.006-0.006-0.009
	c-0.065-0.103-0.146-0.194-0.238-0.272c-0.212-0.183-0.477-0.292-0.756-0.312C19.563,1.002,19.531,1,19.5,1z M1.296,35h-0.09h0.092
	H1.296z"/>
<polygon class="st2" points="19.291,7.24 33.193,31.24 5.371,31.24 "/>
<path class="st1" d="M26.99,22.274h-1.233c-0.243-3.19-2.786-5.732-5.976-5.975v-1.234h-1v1.234
	c-3.19,0.244-5.732,2.785-5.976,5.975h-1.232v1h1.233c0.244,3.189,2.786,5.731,5.975,5.975v1.234h1v-1.234
	c3.19-0.243,5.733-2.785,5.976-5.975h1.233V22.274z M19.781,17.299c2.632,0.238,4.711,2.344,4.953,4.975h-3.523
	c-0.182-0.699-0.729-1.248-1.43-1.429V17.299z M18.781,17.299v3.546c-0.7,0.182-1.247,0.731-1.429,1.429h-3.523
	C14.071,19.643,16.15,17.538,18.781,17.299z M18.781,28.249c-2.632-0.239-4.71-2.344-4.952-4.975h3.523
	c0.182,0.698,0.729,1.248,1.429,1.429V28.249z M19.781,28.249v-3.545c0.7-0.181,1.247-0.731,1.43-1.429h3.523
	C24.492,25.905,22.413,28.01,19.781,28.249z"/>
</svg>
