<?xml version="1.0" encoding="utf-8"?>
<!-- Generator: Adobe Illustrator 26.1.0, SVG Export Plug-In . SVG Version: 6.00 Build 0)  -->
<svg version="1.1" id="Ebene_1" xmlns="http://www.w3.org/2000/svg" xmlns:xlink="http://www.w3.org/1999/xlink" x="0px" y="0px"
	 viewBox="0 0 39 35" style="enable-background:new 0 0 39 35;" xml:space="preserve">
<style type="text/css">
	.st0{fill:none;}
	.st1{fill-rule:evenodd;clip-rule:evenodd;fill:#ADADAD;}
	.st2{fill:#FFFFFF;}
	.st3{fill:#C1121C;}
</style>
<rect class="st0" width="39" height="35"/>
<path id="path5502_00000173133976960070005600000006446713541587894926_" class="st1" d="M19.5,1
	c-0.42-0.003-0.882,0.211-1.108,0.611L0.151,33.094C0.046,33.308,0.001,33.494,0,33.707c0,0.382,0.17,0.744,0.463,0.989
	C0.721,34.896,0.966,35,1.296,35h36.443c0.222,0.002,0.445-0.051,0.647-0.184C38.767,34.587,39,34.177,39,33.733
	c-0.011-0.229-0.067-0.47-0.17-0.64L20.599,1.606c-0.002-0.003-0.003-0.006-0.005-0.008c-0.002-0.003-0.004-0.006-0.006-0.009
	c-0.065-0.103-0.146-0.194-0.238-0.272c-0.212-0.183-0.477-0.292-0.756-0.312C19.563,1.002,19.531,1,19.5,1z M1.296,35h-0.09h0.092
	H1.296z"/>
<polygon class="st2" points="19.481,7.24 33.383,31.24 5.56,31.24 "/>
<path class="st1" d="M30.929,29.186l-3.326-4.298c-0.051-0.102-0.154-0.205-0.256-0.256c-0.665-0.563-1.688-0.512-2.251,0.205
	l-1.279,1.484c-0.154,0.153-0.358,0.307-0.563,0.358l-0.358,0.154c-0.102,0-0.205,0.102-0.307,0.153l-1.842,2.2v0
	c-0.051,0.051-0.051,0.153-0.051,0.205c0,0.205,0.102,0.358,0.307,0.358h9.67c0.051,0,0.153-0.051,0.205-0.102
	C31.031,29.544,31.031,29.34,30.929,29.186z M24.388,23.492c0.061,0.092,0.37,0.448,0.37,0.448s0.259-0.521,0.241-0.674
	c-0.26-2.074-1.041-3.253-1.581-3.856l-0.001-0.003l-0.004-0.003c-0.271-0.302-0.482-0.459-0.531-0.507l-4.801-4.8
	C18.021,14.037,17.935,14,17.85,14s-0.171,0.037-0.232,0.098L16.315,15.4c-0.128,0.128-0.128,0.343,0,0.471l3.735,2.827
	l-8.078,8.132c-0.058,0.064-0.092,0.139-0.114,0.217l-0.005,0.005l0.005-0.003c-0.05,0.183-0.008,0.386,0.133,0.527l0.563,0.563
	c0.11,0.104,0.245,0.159,0.385,0.159c0.184,0,0.32-0.099,0.367-0.141c0.974-0.858,8.266-7.906,8.266-7.906
	C23.504,22.196,24.369,23.468,24.388,23.492z"/>
<polygon class="st3" points="4.398,35 3,33.57 35.602,1 37,2.43 "/>
</svg>
