<?xml version="1.0" encoding="utf-8"?>
<!-- Generator: Adobe Illustrator 26.1.0, SVG Export Plug-In . SVG Version: 6.00 Build 0)  -->
<svg version="1.1" id="Ebene_1" xmlns="http://www.w3.org/2000/svg" xmlns:xlink="http://www.w3.org/1999/xlink" x="0px" y="0px"
	 viewBox="0 0 39 35" style="enable-background:new 0 0 39 35;" xml:space="preserve">
<style type="text/css">
	.st0{fill:none;}
	.st1{fill-rule:evenodd;clip-rule:evenodd;fill:#ADADAD;}
	.st2{fill:#FFFFFF;}
</style>
<rect class="st0" width="39" height="35"/>
<path id="path5502_00000138567655500860309850000009802990599481801104_" class="st1" d="M19.5,1
	c-0.42-0.003-0.882,0.211-1.108,0.611L0.151,33.094C0.046,33.308,0.001,33.494,0,33.707c0,0.382,0.17,0.744,0.463,0.989
	C0.721,34.896,0.966,35,1.296,35h36.443c0.222,0.002,0.445-0.051,0.647-0.184C38.767,34.587,39,34.177,39,33.733
	c-0.011-0.229-0.067-0.47-0.17-0.64L20.599,1.606c-0.002-0.003-0.003-0.006-0.005-0.008c-0.002-0.003-0.004-0.006-0.006-0.009
	c-0.065-0.103-0.146-0.194-0.238-0.272c-0.212-0.183-0.477-0.292-0.756-0.312C19.563,1.002,19.531,1,19.5,1z M1.296,35h-0.09h0.092
	H1.296z"/>
<polygon class="st2" points="19.481,7.24 33.383,31.24 5.56,31.24 "/>
<path class="st1" d="M25.389,25.757c-0.736-0.444-0.736-0.777-1.832-2.221c-0.612-0.806-1.11-0.991-1.436-1.003
	c-0.074-0.276-0.154-0.552-0.244-0.823c0.437,0.152,1.038,0.532,1.696,0.694c0.867,0.213,2.135-0.509,2.135-0.509
	c-0.629,0.124-2.393,0.21-3.739-0.761c-0.132-0.095-0.252-0.146-0.365-0.174c-0.085-0.215-0.174-0.421-0.267-0.619
	c0.074-0.091,0.165-0.16,0.29-0.189c0.331-0.076,1.213-0.485,1.643-1.544c0.637-1.567-1.038-3.625-1.038-3.625
	s0.677,1.651,0.623,2.754c-0.049,0.997-0.698,1.43-1.813,2.033c-0.3-0.523-0.632-0.931-0.984-1.149
	c-0.115-0.574-0.267-1.366-0.267-1.518c0-0.243-0.321-0.337-0.321-0.337s-0.321,0.094-0.321,0.337c0,0.155-0.158,0.975-0.273,1.551
	c-0.329,0.227-0.638,0.624-0.921,1.116c-1.115-0.603-1.764-1.036-1.813-2.033c-0.054-1.102,0.623-2.754,0.623-2.754
	s-1.675,2.057-1.038,3.625c0.43,1.059,1.312,1.468,1.643,1.544c0.125,0.029,0.216,0.098,0.29,0.189
	c-0.093,0.198-0.182,0.405-0.267,0.619c-0.113,0.028-0.233,0.078-0.365,0.174c-1.346,0.971-3.11,0.885-3.739,0.761
	c0,0,1.268,0.721,2.135,0.509c0.658-0.161,1.259-0.542,1.696-0.694c-0.089,0.272-0.169,0.547-0.244,0.823
	c-0.326,0.012-0.823,0.197-1.436,1.003c-1.096,1.443-1.096,1.777-1.832,2.221c-0.736,0.444-0.555,1.249-0.555,1.638
	c0,0,0.097-0.791,0.722-1.027s1.624-1.513,1.874-1.971c0.198-0.363,0.679-0.77,0.969-0.755c-0.089,0.454-0.151,0.882-0.185,1.264
	c-0.491,0.429-1.513,1.451-1.491,2.528c0.028,1.416,0.458,2.665,0.458,2.665s-0.125-2.956,0.763-3.9
	c0.107-0.114,0.195-0.222,0.268-0.324c0.153,1.95,1.459,3.479,3.067,3.479s2.914-1.529,3.067-3.479
	c0.074,0.103,0.161,0.21,0.268,0.324c0.888,0.944,0.763,3.9,0.763,3.9s0.43-1.249,0.458-2.665c0.021-1.077-1-2.099-1.491-2.528
	c-0.034-0.382-0.096-0.81-0.185-1.264c0.29-0.015,0.771,0.393,0.969,0.755c0.25,0.458,1.249,1.735,1.874,1.971
	s0.722,1.027,0.722,1.027C25.945,27.007,26.125,26.202,25.389,25.757z"/>
</svg>
