<?xml version="1.0" encoding="utf-8"?>
<!-- Generator: Adobe Illustrator 26.1.0, SVG Export Plug-In . SVG Version: 6.00 Build 0)  -->
<svg version="1.1" id="Ebene_1" xmlns="http://www.w3.org/2000/svg" xmlns:xlink="http://www.w3.org/1999/xlink" x="0px" y="0px"
	 viewBox="0 0 39 35" style="enable-background:new 0 0 39 35;" xml:space="preserve">
<style type="text/css">
	.st0{fill:none;}
	.st1{fill-rule:evenodd;clip-rule:evenodd;fill:#ADADAD;}
	.st2{fill:#FFFFFF;}
</style>
<rect class="st0" width="39" height="35"/>
<path id="path5502_00000127759121991874122800000016277204038579539896_" class="st1" d="M19.5,1
	c-0.42-0.003-0.882,0.211-1.108,0.611L0.151,33.094C0.046,33.308,0.001,33.494,0,33.707c0,0.382,0.17,0.744,0.463,0.989
	C0.721,34.896,0.966,35,1.296,35h36.443c0.222,0.002,0.445-0.051,0.647-0.184C38.767,34.587,39,34.177,39,33.733
	c-0.011-0.229-0.067-0.47-0.17-0.64L20.599,1.606c-0.002-0.003-0.003-0.006-0.005-0.008c-0.002-0.003-0.004-0.006-0.006-0.009
	c-0.065-0.103-0.146-0.194-0.238-0.272c-0.212-0.183-0.477-0.292-0.756-0.312C19.563,1.002,19.531,1,19.5,1z M1.296,35h-0.09h0.092
	H1.296z"/>
<polygon class="st2" points="19.481,7.24 33.383,31.24 5.56,31.24 "/>
<path id="path3540_00000087401310104368048740000012088336531214981539_" class="st1" d="M20.6,14.577
	c-0.186,0.002-0.382,0.018-0.584,0.05c-1.863,0.429-1.464,2.658-1.464,2.658s-0.178,0.022-0.262,0.137
	c-0.083,0.115-0.147,0.26-0.147,0.26s-0.65-0.398-1.445-0.166c-0.932,0.272-0.827,1.402-0.827,1.402s-0.48-0.052-0.804-0.042
	c-0.324,0.011-0.87,0.314-1.027,0.963c-0.157,0.649,0.073,1.204,0.073,1.204s-0.596,0.178-0.607,0.774
	c-0.006,0.354,0.005,0.508,0.185,0.687h-0.298l0.014,1.049h-1.56c-0.377,0-0.416,1.124-0.416,1.446c0,0.792,0.124,1.275,0.394,1.279
	l0.648,0.01c-0.47,0.873-0.011,0.009-0.468,0.872l-1.504-0.008v1.224c0,0,0.549-0.001,0.949,0c0.144,0.633,0.692,1.123,1.373,1.169
	c0.026,0.002,0.049,0.005,0.075,0.005H8.941v0.628H29.59v-0.628h-4.861c-0.008,0-0.019,0-0.027,0c0.006,0,0.013-0.001,0.019-0.001
	c0.003,0.001,0.005,0.001,0.008,0.001c0.003-0.001,0.006-0.003,0.01-0.005c0.667-0.04,1.23-0.52,1.378-1.169h1.994v-1.216
	l-2.035-0.008v-3.375l0.257-0.342h0.282v-0.931h-4.27c0,0.433,0,1.033,0,1.033l-3.067,0.007c0.001-0.011,0.002-0.022,0.002-0.034
	c0-0.395-0.379-0.715-0.848-0.715c-0.468,0-0.849,0.32-0.849,0.715c0,0.013,0.002,0.026,0.003,0.039l-2.465,0.005l0.014-1.049
	h-0.338c0.052-0.173,0.19-0.389,0.322-0.571c0.251-0.346,0.541-0.661,0.608-0.607c0.192,0.155,0.679,0.23,1.066,0.053
	c0.387-0.178,0.629-0.723,0.629-0.723s0.513,0.074,0.774-0.01c0.262-0.084,0.407-0.377,0.407-0.377s0.23,0.292,0.544,0.366
	c0.314,0.073,0.921-0.042,1.257-0.303c0.335-0.262,0.533-0.742,0.533-0.742s0.289,0.254,0.418,0.313
	c0.209,0.094,1.434,0.258,1.958-0.91c0.56-1.251-0.648-1.957-0.648-1.957s0.042-0.21,0.032-0.545
	C22.757,15.271,21.901,14.564,20.6,14.577L20.6,14.577z M14.393,28.375h0.967c0.135,0.592,0.622,1.062,1.242,1.156
	c0.016,0.007,0.032,0.013,0.049,0.017h-3.675c0.007,0,0.014-0.001,0.021-0.001c0.001,0.001,0.001,0.001,0.002,0.001
	c0,0,0.003-0.001,0.003-0.001C13.676,29.512,14.244,29.028,14.393,28.375L14.393,28.375z M18.3,28.375h0.967
	c0.144,0.633,0.692,1.123,1.373,1.169c0.005,0,0.011,0,0.016,0c0.001,0.001,0.001,0.004,0,0.005c-1.125,0-2.442,0.011-3.768,0
	C17.571,29.523,18.149,29.035,18.3,28.375z M22.209,28.375h0.968c0.144,0.633,0.689,1.123,1.37,1.169
	c0.021,0.002,0.041,0.004,0.062,0.005c-1.231-0.009-2.898-0.011-3.811,0C21.48,29.523,22.059,29.035,22.209,28.375z"/>
</svg>
