<?xml version="1.0" encoding="utf-8"?>
<!-- Generator: Adobe Illustrator 26.0.1, SVG Export Plug-In . SVG Version: 6.00 Build 0)  -->
<svg version="1.1" id="Ebene_1" xmlns="http://www.w3.org/2000/svg" xmlns:xlink="http://www.w3.org/1999/xlink" x="0px" y="0px"
	 viewBox="0 0 15 21" style="enable-background:new 0 0 15 21;" xml:space="preserve">
<style type="text/css">
	.st0{fill:#043EB2;}
	.st1{fill:#FFFFFF;}
	.st2{fill:none;}
</style>
<g>
	<circle class="st0" cx="7.5" cy="10.5" r="7.5"/>
	<g>
		<path class="st1" d="M1.409,10.441c0-0.936,0.261-1.666,0.783-2.187c0.522-0.522,1.249-0.783,2.18-0.783
			c0.955,0,1.691,0.256,2.207,0.769s0.775,1.231,0.775,2.154c0,0.67-0.113,1.221-0.338,1.65c-0.226,0.429-0.552,0.763-0.978,1.002
			c-0.427,0.239-0.958,0.358-1.595,0.358c-0.647,0-1.183-0.103-1.607-0.309c-0.424-0.206-0.767-0.532-1.031-0.978
			C1.54,11.67,1.409,11.111,1.409,10.441z M3.181,10.448c0,0.579,0.108,0.995,0.323,1.248c0.215,0.253,0.508,0.379,0.878,0.379
			c0.381,0,0.676-0.124,0.884-0.371c0.209-0.248,0.313-0.693,0.313-1.335c0-0.54-0.109-0.935-0.327-1.184
			C5.036,8.937,4.74,8.813,4.367,8.813c-0.357,0-0.644,0.127-0.861,0.38C3.29,9.445,3.181,9.864,3.181,10.448z"/>
		<path class="st1" d="M12.127,10.957l1.553,0.47c-0.104,0.435-0.268,0.799-0.493,1.091c-0.224,0.292-0.503,0.513-0.835,0.662
			c-0.333,0.149-0.756,0.223-1.27,0.223c-0.624,0-1.133-0.091-1.529-0.272c-0.395-0.181-0.736-0.5-1.023-0.956
			c-0.287-0.456-0.43-1.041-0.43-1.752c0-0.949,0.252-1.678,0.757-2.188C9.362,7.725,10.077,7.471,11,7.471
			c0.723,0,1.291,0.146,1.704,0.438c0.413,0.292,0.721,0.741,0.922,1.346l-1.565,0.348c-0.055-0.175-0.112-0.302-0.173-0.383
			c-0.099-0.135-0.22-0.24-0.364-0.313c-0.144-0.073-0.304-0.109-0.481-0.109c-0.402,0-0.71,0.161-0.924,0.485
			c-0.162,0.24-0.242,0.616-0.242,1.129c0,0.636,0.096,1.072,0.289,1.308c0.193,0.235,0.465,0.354,0.814,0.354
			c0.339,0,0.595-0.095,0.769-0.286C11.923,11.596,12.049,11.32,12.127,10.957z"/>
	</g>
</g>
<rect class="st2" width="15" height="21"/>
<rect class="st2" width="15" height="21"/>
</svg>
