<?xml version="1.0" encoding="utf-8"?>
<!-- Generator: Adobe Illustrator 26.0.1, SVG Export Plug-In . SVG Version: 6.00 Build 0)  -->
<svg version="1.1" id="Ebene_1" xmlns="http://www.w3.org/2000/svg" xmlns:xlink="http://www.w3.org/1999/xlink" x="0px" y="0px"
	 viewBox="0 0 16 16" style="enable-background:new 0 0 16 16;" xml:space="preserve">
<style type="text/css">
	.st0{fill:#5887B7;}
	.st1{fill:none;}
</style>
<g>
	<path class="st0" d="M9.205,8.94C9.174,9.054,9.149,9.139,9.134,9.19C9.121,9.231,9.11,9.271,9.101,9.312
		c-0.649,2.803,1.12,3.098,1.12,3.098c1.428,0.228,2.126-1.035,2.377-1.647c0.086-0.209,0.174-0.417,0.265-0.623L9.205,8.94z"/>
	<g>
		<path class="st0" d="M9.752,6.409c-0.008,0.482-0.061,0.955-0.13,1.372l3.892,1.275c2.432-5.706,0.965-7.862-0.173-8.649
			c-0.726-0.502-1.695-0.504-2.408,0.017C9.867,1.204,9.621,2.73,9.621,2.73C9.442,3.847,9.588,4.974,9.677,5.491
			C9.73,5.794,9.757,6.101,9.752,6.409z"/>
		<path class="st0" d="M6.248,10.004c0.008,0.482,0.061,0.955,0.13,1.372l-3.892,1.275C0.053,6.946,1.521,4.79,2.658,4.002
			C3.384,3.5,4.353,3.498,5.066,4.019c1.067,0.78,1.313,2.306,1.313,2.306c0.179,1.117,0.033,2.245-0.056,2.761
			C6.27,9.389,6.243,9.696,6.248,10.004z"/>
		<path class="st0" d="M6.628,12.535c0.031,0.113,0.056,0.199,0.071,0.25c0.012,0.04,0.023,0.081,0.033,0.122
			c0.649,2.803-1.12,3.098-1.12,3.098c-1.428,0.228-2.126-1.035-2.377-1.647c-0.086-0.209-0.174-0.417-0.265-0.623L6.628,12.535z"/>
	</g>
</g>
<rect class="st1" width="16" height="16"/>
</svg>
