<svg xmlns="http://www.w3.org/2000/svg" viewBox="0 0 16 16"><defs><style>.cls-1{fill:#9d9d9e;}.cls-2{fill:none;}</style></defs><g id="Ebene_2" data-name="Ebene 2"><g id="Icons"><path class="cls-1" d="M13.09,5.82h-.36V4.73a4.73,4.73,0,0,0-9.46,0V5.82H2.91A1.46,1.46,0,0,0,1.45,7.27v7.28A1.46,1.46,0,0,0,2.91,16H13.09a1.46,1.46,0,0,0,1.46-1.45V7.27A1.46,1.46,0,0,0,13.09,5.82ZM8.69,11h0v2.83H7.31V11a1.8,1.8,0,1,1,1.38,0Zm1.86-5.17H5.45V4.73a2.55,2.55,0,0,1,5.1,0Z"/></g><g id="_16x16_transparent" data-name="16x16 transparent"><rect class="cls-2" width="16" height="16"/></g></g></svg>