<svg xmlns="http://www.w3.org/2000/svg" viewBox="0 0 16 16"><defs><style>.cls-1{fill:#b8b6b6;}.cls-2{fill:#fff;}.cls-3{fill:#5887b7;}.cls-4{fill:none;}</style></defs><g id="Ebene_2" data-name="Ebene 2"><g id="Icons"><circle class="cls-1" cx="8" cy="8" r="8"/><circle class="cls-2" cx="8" cy="8" r="6.77"/><circle class="cls-3" cx="8" cy="8" r="1.68"/><rect class="cls-3" x="9.73" y="5.35" width="2.92" height="0.9" transform="translate(23.2 1.99) rotate(135)"/><rect class="cls-3" x="8.74" y="4.36" width="2.92" height="0.9" transform="translate(20.82 1.01) rotate(135)"/><rect class="cls-3" x="4.34" y="10.73" width="2.92" height="0.9" transform="translate(-6.21 7.38) rotate(-45)"/><rect class="cls-3" x="3.36" y="9.75" width="2.92" height="0.9" transform="translate(-5.8 6.39) rotate(-45)"/><rect class="cls-3" x="8.74" y="10.73" width="2.92" height="0.9" transform="translate(9.5 26.31) rotate(-135)"/><rect class="cls-3" x="9.73" y="9.75" width="2.92" height="0.9" transform="translate(11.88 25.32) rotate(-135)"/><rect class="cls-3" x="3.36" y="5.35" width="2.92" height="0.9" transform="translate(5.51 -1.71) rotate(45)"/><rect class="cls-3" x="4.34" y="4.36" width="2.92" height="0.9" transform="translate(5.1 -2.69) rotate(45)"/></g><g id="_16x16_transparent" data-name="16x16 transparent"><rect class="cls-4" width="16" height="16"/></g></g></svg>