<svg xmlns="http://www.w3.org/2000/svg" viewBox="0 0 16 16"><defs><style>.cls-1{fill:none;}.cls-2{fill:#2a8fd2;}.cls-3{fill:#fff;}</style></defs><g id="Ebene_2" data-name="Ebene 2"><g id="_16x16_transparent" data-name="16x16 transparent"><rect class="cls-1" width="16" height="16"/><circle class="cls-2" cx="8" cy="8" r="7"/><path class="cls-3" d="M8.75,5.67c0-.6-.47-.92-1.08-.92a2.16,2.16,0,0,0-1.49.68L5,4.34A3.77,3.77,0,0,1,7.82,3c1.67,0,3,.78,3,2.38,0,1.92-2.37,2.16-2.2,3.84H6.73C6.42,7.3,8.75,6.75,8.75,5.67Zm-2.48,6a1.4,1.4,0,0,1,1.45-1.46,1.4,1.4,0,0,1,1.46,1.46,1.42,1.42,0,0,1-1.46,1.48A1.42,1.42,0,0,1,6.27,11.65Z"/></g></g></svg>