<svg xmlns="http://www.w3.org/2000/svg" viewBox="0 0 25 25"><defs><style>.cls-1{fill:#5281a9;}.cls-2{fill:none;}</style></defs><g id="Ebene_2" data-name="Ebene 2"><g id="Ebene_2-2" data-name="Ebene 2"><path class="cls-1" d="M21.33,3.67a11.85,11.85,0,0,0-1.85-1.53A12.8,12.8,0,0,0,17.36,1,12.52,12.52,0,0,0,12.5,0q-.6,0-1.2.06l-.39.05c-.26,0-.52.07-.77.12L9.68.34c-.23,0-.45.1-.67.17s-.32.1-.48.15l-.6.22-.48.2c-.19.08-.38.18-.56.27l-.47.24a5.84,5.84,0,0,0-.53.33c-.15.09-.29.17-.43.27-.3.2-.58.41-.86.63A12.5,12.5,0,0,0,.05,11.6a8.72,8.72,0,0,0,0,.9A12.51,12.51,0,0,0,17.36,24a12.8,12.8,0,0,0,2.12-1.16,11.85,11.85,0,0,0,1.85-1.53,12.46,12.46,0,0,0,0-17.66ZM17.57,7.16,18.25,7l.47.14.1-.29-.23-.21.15-.47.66-.06L20,5.34l.24,0a9.64,9.64,0,0,1,1.09,1.37L21,6.6l0,.27.84.74-.14.62L21.41,8l.07-.2-.95-.51-.05-.37L20,7.23l-.23-.1-.7,1.1-.5.14-1-.19-.14-.61ZM13.66,19.31l-1.16.1-1.74,2.74-.34.69A11.5,11.5,0,0,1,9,22.43v-.5l-.39-1.48L8.78,18l-1.49-.71-.93-1.24.19-1.18.93-.9-1.12-.86-.55.26L4.49,12.07l-1.56-.16-.15-1.28L2.25,10a10.57,10.57,0,0,1,8.63-7.95h0l1.59.5.36.8-1,.44h-.69L11.49,3l-.22-.17-.63.08L9.48,4,9,3.52,7.74,4V5l1.45.89,1.5-2,1.81,1.6.07,1.17H10.14l-3,3H4.82l-.8.93.27,1L5.59,11l.67,1.46,1,.81L8,12.57l3.15.84L12,15l1.68.27,1,.71Zm7.56-.89L21,18.14l.37-1.46-1-2.57-.85-.1-2.14.32L16,12.7l-.12-2,1.3-.95.46-1,.91-.16,1.94-.27V9.1l1.63.38h.52a10.45,10.45,0,0,1-1.38,8.94Z"/></g><g id="Ebene_3" data-name="Ebene 3"><rect class="cls-2" width="25" height="25"/></g></g></svg>