<svg xmlns="http://www.w3.org/2000/svg" viewBox="0 0 32 32"><defs><style>.cls-1{fill:#5281a9;}.cls-2{fill:none;}</style></defs><g id="Ebene_2" data-name="Ebene 2"><g id="Icons"><path class="cls-1" d="M31.69,16l-15-15a1.07,1.07,0,0,0-1.5,0L.31,15.77a1.06,1.06,0,0,0,.74,1.81H3.31V29.78a1.6,1.6,0,0,0,1.6,1.6h6.24v-9.2a2.25,2.25,0,0,1,2.25-2.25h5a2.25,2.25,0,0,1,2.25,2.25v9.2h6.24a1.6,1.6,0,0,0,1.6-1.6v-12l2.44,0A1.06,1.06,0,0,0,31.69,16Z"/></g><g id="Boxen_transparent" data-name="Boxen transparent"><rect class="cls-2" width="32" height="32"/></g></g></svg>