<svg xmlns="http://www.w3.org/2000/svg" viewBox="0 0 32 32"><defs><style>.cls-1{fill:#5381a9;}.cls-2{fill:none;}</style></defs><g id="Ebene_2" data-name="Ebene 2"><g id="Icons"><path class="cls-1" d="M24.39,3.25C23.08,4.51,18.11,8.7,13.66,8.7c-5.94,0-6.72,0-7.7.11s-1.26.7-1.14,1A4,4,0,0,0,1,14.28a4,4,0,0,0,3.82,4.44c-.12.32.16,1,1.14,1s1.76.11,7.7.11c4.45,0,9.42,4.19,10.73,5.45a2.44,2.44,0,0,0,2.51.76V2.5A2.42,2.42,0,0,0,24.39,3.25ZM17.41,27c-2-1.45-2.55-1.57-2.05-3.1.43-1.31-.06-2.61-.46-2.61H7.06l3.71,9.11h6.71S19.37,28.41,17.41,27ZM28.19,10.33v7.9a4.18,4.18,0,0,0,0-7.9Z"/></g><g id="Boxen_transparent" data-name="Boxen transparent"><rect class="cls-2" width="32" height="32"/></g></g></svg>