<svg xmlns="http://www.w3.org/2000/svg" viewBox="0 0 32 32"><defs><style>.cls-1{fill:#5281a9;}.cls-2{fill:none;}</style></defs><g id="Ebene_2" data-name="Ebene 2"><g id="Icons"><path class="cls-1" d="M16,7a5.34,5.34,0,1,0,5.34,5.34A5.34,5.34,0,0,0,16,7ZM24,20,24,20a1.81,1.81,0,0,0,1.17-.62c.65-.92-.33-2.74,0-3.85s2.15-2,2.15-3.13-1.82-2.06-2.15-3.13.63-2.92,0-3.85-2.62-.54-3.5-1.21-1.12-2.75-2.18-3.11A1.13,1.13,0,0,0,19.16,1h0C18.18,1,17,2.23,16,2.23S13.76,1,12.79,1a1.26,1.26,0,0,0-.33.05c-1.06.36-1.28,2.44-2.17,3.11s-2.86.28-3.5,1.21.33,2.74,0,3.85-2.15,1.95-2.15,3.13,1.82,2.06,2.15,3.13-.63,2.92,0,3.85A1.83,1.83,0,0,0,8,20H8L4.26,27.74l4.12.16L11.09,31l4.56-8.49a1.87,1.87,0,0,1,.32,0,1.74,1.74,0,0,1,.39.05L20.91,31l2.71-3.1,4.12-.16ZM16,19.13a6.78,6.78,0,1,1,6.78-6.78A6.78,6.78,0,0,1,16,19.13Z"/></g><g id="Boxen_transparent" data-name="Boxen transparent"><rect class="cls-2" width="32" height="32"/></g></g></svg>