<svg xmlns="http://www.w3.org/2000/svg" viewBox="0 0 32 32"><defs><style>.cls-1{fill:#2a8fd2;}.cls-2{fill:#fff;}.cls-3{fill:none;}</style></defs><g id="Ebene_2" data-name="Ebene 2"><g id="Icons"><circle class="cls-1" cx="16" cy="16" r="16"/><path class="cls-2" d="M17.71,10.67c0-1.37-1.07-2.09-2.46-2.09a5,5,0,0,0-3.42,1.54L9.12,7.63a8.61,8.61,0,0,1,6.46-3c3.82,0,6.82,1.77,6.82,5.44,0,4.38-5.43,4.93-5,8.77H13.09C12.39,14.39,17.71,13.15,17.71,10.67ZM12,24.34A3.21,3.21,0,0,1,15.37,21a3.2,3.2,0,0,1,3.33,3.33,3.25,3.25,0,0,1-3.33,3.39A3.25,3.25,0,0,1,12,24.34Z"/></g><g id="Boxen_transparent" data-name="Boxen transparent"><rect class="cls-3" width="32" height="32"/></g></g></svg>