<?xml version="1.0" encoding="utf-8"?>
<!-- Generator: Adobe Illustrator 26.0.1, SVG Export Plug-In . SVG Version: 6.00 Build 0)  -->
<svg version="1.1" id="Ebene_1" xmlns="http://www.w3.org/2000/svg" xmlns:xlink="http://www.w3.org/1999/xlink" x="0px" y="0px"
	 viewBox="0 0 32 32" style="enable-background:new 0 0 32 32;" xml:space="preserve">
<style type="text/css">
	.st0{fill:#F8C296;}
	.st1{fill:#F48939;}
	.st2{fill:none;}
</style>
<g>
	<path class="st0" d="M26.708,18.034l-7.563,7.665c-0.395,0.401-0.921,0.62-1.48,0.621l-4.708,0c-1.098,0-2.132,0.433-2.909,1.22
		l-2.775,2.812c-0.155,0.157-0.406,0.158-0.561,0l-4.944-5.011c-0.155-0.157-0.155-0.412,0-0.569l4.963-5.651
		c0.927-0.939,2.159-1.457,3.47-1.456l7.582-0.001c0.225,0.001,0.436,0.088,0.594,0.248c0.33,0.334,0.33,0.878,0.002,1.211
		l-1.255,1.272c-0.16,0.162-0.371,0.249-0.596,0.25l-3.406-0.001c-0.092,0.001-0.177,0.037-0.242,0.102
		c-0.065,0.066-0.101,0.773-0.101,0.866c0,0.185,0.16,0.347,0.343,0.348l3.942-0.001c0.346,0,0.673-0.137,0.919-0.385l4.055-4.11
		c1.288-1.305,3.382-1.306,4.671,0C26.863,17.622,26.863,17.878,26.708,18.034z"/>
	<g>
		<g>
			<path class="st1" d="M30.347,4.755v0.918H13.49V4.755C13.49,3.24,14.73,2,16.246,2H27.59C29.106,2,30.347,3.24,30.347,4.755z"/>
		</g>
		<g>
			<path class="st1" d="M28.849,7.008v5.345c0,1.515-1.241,2.755-2.757,2.755h-8.348c-1.516,0-2.757-1.24-2.757-2.755V7.008H28.849z
				"/>
		</g>
	</g>
</g>
<rect class="st2" width="32" height="32"/>
</svg>
