<svg xmlns="http://www.w3.org/2000/svg" viewBox="0 0 32 32"><defs><style>.cls-1{fill:#5281a9;}.cls-2{fill:none;}</style></defs><g id="Ebene_2" data-name="Ebene 2"><g id="Icons"><g id="Layer_2" data-name="Layer 2"><g id="Green_pacman_ghost" data-name="Green_pacman ghost"><path class="cls-1" d="M16,1A11.25,11.25,0,0,0,4.75,12.25V31l2.81-2.81L10.38,31l2.81-2.81L16,31l2.81-2.81L21.62,31l2.82-2.81L27.25,31V12.25A11.25,11.25,0,0,0,16,1Zm1.24,14a2.82,2.82,0,1,1,0-3.52,1.87,1.87,0,0,0,0,3.52Zm7.5,0a2.82,2.82,0,1,1,0-3.52,1.87,1.87,0,0,0,0,3.52Z"/><path id="Right_eyeball" class="cls-1" d="M25.38,13.19a2.79,2.79,0,0,0-.64-1.76,1.87,1.87,0,0,0,0,3.52A2.81,2.81,0,0,0,25.38,13.19Z"/><path id="Left_eyeball" class="cls-1" d="M17.88,13.19a2.79,2.79,0,0,0-.64-1.76,1.87,1.87,0,0,0,0,3.52A2.81,2.81,0,0,0,17.88,13.19Z"/></g></g></g><g id="Boxen_transparent" data-name="Boxen transparent"><rect class="cls-2" width="32" height="32"/></g></g></svg>