<?xml version="1.0" encoding="utf-8"?>
<!-- Generator: Adobe Illustrator 26.0.1, SVG Export Plug-In . SVG Version: 6.00 Build 0)  -->
<svg version="1.1" id="Ebene_1" xmlns="http://www.w3.org/2000/svg" xmlns:xlink="http://www.w3.org/1999/xlink" x="0px" y="0px"
	 viewBox="0 0 32 32" style="enable-background:new 0 0 32 32;" xml:space="preserve">
<style type="text/css">
	.st0{fill:#5281A9;}
	.st1{fill:none;}
</style>
<path class="st0" d="M27.8,8.3h-2.6V4.5h-3.4v3.8H10.2V4.5H6.8v3.8H4.2C3,8.3,2,9.2,2,10.5v14.9c0,1.2,1,2.2,2.2,2.2h23.6
	c1.2,0,2.2-1,2.2-2.2V10.5C30,9.2,29,8.3,27.8,8.3z M11.9,15c0,1.3-1,2.4-2.4,2.4c-1.3,0-2.4-1-2.4-2.4c0,0,0,0,0,0
	c0-1.3,1.1-2.3,2.4-2.3C10.8,12.7,11.9,13.7,11.9,15z M13.9,22.3H5.2c-0.1-0.3-0.1-0.6-0.1-0.8c0-1.7,0.9-3.3,2.4-4.1
	c0.6,0.5,1.3,0.8,2,0.8c0.8,0,1.5-0.3,2.1-0.8c1.5,0.8,2.5,2.4,2.5,4.2C14,21.8,14,22.1,13.9,22.3z M16.2,19.7v-1.5h10.5l0,1.5H16.2
	z M26.8,16.6H16.3v-1.5h10.5V16.6z"/>
<g id="Boxen_transparent">
	<rect class="st1" width="32" height="32"/>
</g>
</svg>
