<?xml version="1.0" encoding="utf-8"?>
<!-- Generator: Adobe Illustrator 26.0.1, SVG Export Plug-In . SVG Version: 6.00 Build 0)  -->
<svg version="1.1" id="Ebene_1" xmlns="http://www.w3.org/2000/svg" xmlns:xlink="http://www.w3.org/1999/xlink" x="0px" y="0px"
	 viewBox="0 0 32 32" style="enable-background:new 0 0 32 32;" xml:space="preserve">
<style type="text/css">
	.st0{fill:#5281A9;}
	.st1{fill:none;}
</style>
<path class="st0" d="M26.172,2H5.828C3.714,2,2,3.714,2,5.828v20.344C2,28.286,3.714,30,5.828,30h20.344
	C28.286,30,30,28.286,30,26.172V5.828C30,3.714,28.286,2,26.172,2z M22.03,6.505c1.556,0,2.817,1.261,2.817,2.817
	c0,1.556-1.261,2.817-2.817,2.817c-1.556,0-2.817-1.261-2.817-2.817C19.213,7.767,20.474,6.505,22.03,6.505z M5.548,25.115
	l6.171-15.53l4.69,11.539l3.579-4.813l6.664,8.804H5.548z"/>
<rect class="st1" width="32" height="32"/>
</svg>
