<svg xmlns="http://www.w3.org/2000/svg" viewBox="0 0 32 32"><defs><style>.cls-1{fill:#5381a9;}.cls-2{fill:none;}</style></defs><g id="Ebene_2" data-name="Ebene 2"><g id="Icons"><path class="cls-1" d="M30.52,6.44l-4.1,4.1a2.11,2.11,0,0,1-3,0l-1-1a2.08,2.08,0,0,1-.61-1.48,2.1,2.1,0,0,1,.61-1.49l4.1-4.1a7,7,0,1,0,4,4Z"/><path class="cls-1" d="M8.51,19.08,4.26,23a3.9,3.9,0,0,0-.11,5.64l.18.18a3.91,3.91,0,0,0,5.64-.1l3.95-4.26Z"/><path class="cls-1" d="M15.17,12.36a1,1,0,0,0-.69.29L9.93,17.2a1,1,0,0,0-.29.69,1,1,0,0,0,.29.69L20.11,28.76A4.19,4.19,0,0,0,26,22.83L15.86,12.65A1,1,0,0,0,15.17,12.36Z"/><path class="cls-1" d="M3.84,9.19,5,9.16l6.69,6.68,1.61-1.35L6.44,7.67l0-1.11a.57.57,0,0,0-.27-.49L2.48,3.72,1,5.2,3.35,8.93a.58.58,0,0,0,.21.2A.48.48,0,0,0,3.84,9.19Z"/></g><g id="Boxen_transparent" data-name="Boxen transparent"><rect class="cls-2" width="32" height="32"/></g></g></svg>