<svg xmlns="http://www.w3.org/2000/svg" viewBox="0 0 32 32"><defs><style>.cls-1{fill:#5281a9;}.cls-2{fill:none;}</style></defs><g id="Ebene_2" data-name="Ebene 2"><g id="Icons"><path class="cls-1" d="M6,2V30H26V2ZM19.12,26.41h-10V24.92h10Zm.05-3.1H9.2V21.82h10Zm4.12-3.94-1,1a.69.69,0,0,1-1,0l-3.84-3.83a6,6,0,1,1,2-2l3.84,3.83A.71.71,0,0,1,23.29,19.37Z"/><path class="cls-1" d="M14.42,7.7a3.8,3.8,0,1,0,3.8,3.79A3.8,3.8,0,0,0,14.42,7.7Z"/></g><g id="Boxen_transparent" data-name="Boxen transparent"><rect class="cls-2" width="32" height="32"/></g></g></svg>