<svg xmlns="http://www.w3.org/2000/svg" viewBox="0 0 32 32"><defs><style>.cls-1{fill:#5281a9;}.cls-2{fill:none;}</style></defs><g id="Ebene_2" data-name="Ebene 2"><g id="Icons"><path class="cls-1" d="M30.62,25.94l-7.17-7.17a10.86,10.86,0,0,0,1.65-5.72,11.05,11.05,0,1,0-11,11.05,10.94,10.94,0,0,0,5.72-1.64l7.17,7.16a1.31,1.31,0,0,0,1.84,0l1.84-1.84A1.3,1.3,0,0,0,30.62,25.94ZM14.05,20.15a7.1,7.1,0,1,1,7.1-7.1A7.11,7.11,0,0,1,14.05,20.15Z"/></g><g id="Boxen_transparent" data-name="Boxen transparent"><rect class="cls-2" width="32" height="32"/></g></g></svg>