<svg xmlns="http://www.w3.org/2000/svg" viewBox="0 0 32 32"><defs><style>.cls-1{fill:#ffc900;}.cls-2{fill:none;}</style></defs><g id="Ebene_2" data-name="Ebene 2"><g id="Icons"><path class="cls-1" d="M31.86,27.44,16.9,1.5h0a1.06,1.06,0,0,0-.19-.23A1.11,1.11,0,0,0,16.08,1H16a1.06,1.06,0,0,0-.91.5L.12,27.44a1.15,1.15,0,0,0-.12.5,1.08,1.08,0,0,0,.38.82,1.06,1.06,0,0,0,.68.25H31a1,1,0,0,0,.53-.15A1.05,1.05,0,0,0,32,28,1.25,1.25,0,0,0,31.86,27.44Z"/><path d="M14.42,12.33l-.11-3h3.38l-.11,3-.48,7H14.9Z"/><path d="M14.55,24.82a2.26,2.26,0,0,1,0-3,2,2,0,0,1,2.9,0,2.26,2.26,0,0,1,0,3,2.05,2.05,0,0,1-2.9,0Z"/></g><g id="Boxen_transparent" data-name="Boxen transparent"><rect class="cls-2" width="32" height="32"/></g></g></svg>