<svg xmlns="http://www.w3.org/2000/svg" viewBox="0 0 32 32"><defs><style>.cls-1{fill:#5281a9;}.cls-2{fill:none;}</style></defs><g id="Ebene_2" data-name="Ebene 2"><g id="Icons"><path class="cls-1" d="M16,6.68C6.75,6.68,2,16,2,16s3.58,9.32,14,9.32c9.43,0,14-9.28,14-9.28S25.4,6.68,16,6.68Zm0,15.15A5.69,5.69,0,0,1,10.19,16,5.69,5.69,0,0,1,16,10.17,5.69,5.69,0,0,1,21.85,16,5.69,5.69,0,0,1,16,21.83Zm0-9.33a3.5,3.5,0,1,0,3.5,3.5A3.55,3.55,0,0,0,16,12.5Z"/></g><g id="Boxen_transparent" data-name="Boxen transparent"><rect class="cls-2" width="32" height="32"/></g></g></svg>