<svg xmlns="http://www.w3.org/2000/svg" viewBox="0 0 32 32"><defs><style>.cls-1{fill:#5281a9;}.cls-2{fill:none;}</style></defs><g id="Ebene_2" data-name="Ebene 2"><g id="Icons"><path class="cls-1" d="M25.89,6.11A13.53,13.53,0,0,0,23.82,4.4a14.06,14.06,0,0,0-2.38-1.3A13.87,13.87,0,0,0,16,2c-.45,0-.9,0-1.34.07-.15,0-.3,0-.44.06a8.7,8.7,0,0,0-.87.13l-.51.12c-.25.05-.5.12-.75.19l-.54.17c-.22.07-.45.16-.67.25l-.54.22-.63.3-.52.27-.6.37c-.16.1-.32.19-.48.3a11.17,11.17,0,0,0-.95.71A14,14,0,0,0,2.05,15c0,.33,0,.67,0,1A14,14,0,0,0,16,30a13.87,13.87,0,0,0,5.44-1.1,14.06,14.06,0,0,0,2.38-1.3,13.53,13.53,0,0,0,2.07-1.71,14,14,0,0,0,0-19.78ZM21.68,10l.75-.24.54.16.11-.32-.26-.24L23,8.85l.73-.07.62-.8.28,0a12.14,12.14,0,0,1,1.22,1.54l-.32-.09,0,.31.95.82-.16.7L26,11l.08-.22L25,10.15l-.06-.42-.48.37L24.19,10l-.78,1.23-.57.15-1.11-.21-.15-.69ZM17.3,23.63l-1.3.1L14.05,26.8l-.38.78a10.77,10.77,0,0,1-1.62-.46v-.56l-.44-1.66.23-2.69-1.67-.8L9.13,20l.2-1.32,1.05-1-1.25-1L8.51,17,7,15.51l-1.75-.18L5.12,13.9l-.6-.65a11.84,11.84,0,0,1,9.67-8.91h0L16,4.9l.41.89-1.16.5h-.77l.39-1-.25-.19-.7.1-1.3,1.3-.5-.58-1.46.58v1.1l1.64,1L14,6.33l2,1.8.08,1.3H13.35L10,12.8H7.4l-.89,1L6.81,15l1.45-.6L9,16l1.18.91.72-.84,3.53.95,1,1.81,1.88.31,1.07.79Zm8.47-1-.31-.32.42-1.63L24.73,17.8l-1-.1-2.4.35-1.5-1.82L19.74,14l1.46-1.06.51-1.12,1-.17,2.18-.3v.87l1.82.43h.58a11.76,11.76,0,0,1-1.54,10Z"/></g><g id="Boxen_transparent" data-name="Boxen transparent"><rect class="cls-2" width="32" height="32"/></g></g></svg>