<?xml version="1.0" encoding="utf-8"?>
<!-- Generator: Adobe Illustrator 26.0.1, SVG Export Plug-In . SVG Version: 6.00 Build 0)  -->
<svg version="1.1" id="Ebene_1" xmlns="http://www.w3.org/2000/svg" xmlns:xlink="http://www.w3.org/1999/xlink" x="0px" y="0px"
	 viewBox="0 0 40 22" style="enable-background:new 0 0 40 22;" xml:space="preserve">
<style type="text/css">
	.st0{opacity:0.75;fill:url(#SVGID_1_);}
	.st1{opacity:0.75;fill:url(#SVGID_00000016063004358062466880000015454383883398609290_);}
	.st2{clip-path:url(#SVGID_00000070096406570700197280000007396159843644286100_);}
	.st3{clip-path:url(#SVGID_00000089564096763782157110000002915870412436333722_);}
	.st4{clip-path:url(#SVGID_00000020367632672617436620000011000636048256672410_);fill:#043EB2;}
	.st5{clip-path:url(#SVGID_00000020367632672617436620000011000636048256672410_);fill:#FFFFFF;}
	.st6{fill:url(#SVGID_00000060712043031637443930000003564073358222475410_);}
	.st7{opacity:0.55;}
	.st8{fill:#FFFFFF;}
	.st9{fill:#441E0E;}
	.st10{fill:#EA1B1B;}
	.st11{fill:none;}
</style>
<g>
	
		<radialGradient id="SVGID_1_" cx="27.9821" cy="18.6726" r="8.4246" gradientTransform="matrix(1 0 0 0.2 0 14.9381)" gradientUnits="userSpaceOnUse">
		<stop  offset="0" style="stop-color:#1A1A1A"/>
		<stop  offset="0.15" style="stop-color:#1E1E1E;stop-opacity:0.85"/>
		<stop  offset="0.2842" style="stop-color:#282828;stop-opacity:0.7158"/>
		<stop  offset="0.4126" style="stop-color:#3B3B3B;stop-opacity:0.5874"/>
		<stop  offset="0.5372" style="stop-color:#545454;stop-opacity:0.4628"/>
		<stop  offset="0.6593" style="stop-color:#767676;stop-opacity:0.3407"/>
		<stop  offset="0.7793" style="stop-color:#9E9E9E;stop-opacity:0.2207"/>
		<stop  offset="0.8955" style="stop-color:#CECECE;stop-opacity:0.1045"/>
		<stop  offset="1" style="stop-color:#FFFFFF;stop-opacity:0"/>
	</radialGradient>
	<ellipse class="st0" cx="27.982" cy="18.673" rx="11.538" ry="2.971"/>
	
		<radialGradient id="SVGID_00000044865336502170451330000017335452654663694726_" cx="12.0179" cy="18.6726" r="8.4246" gradientTransform="matrix(1 0 0 0.2 0 14.9381)" gradientUnits="userSpaceOnUse">
		<stop  offset="0" style="stop-color:#1A1A1A"/>
		<stop  offset="0.15" style="stop-color:#1E1E1E;stop-opacity:0.85"/>
		<stop  offset="0.2842" style="stop-color:#282828;stop-opacity:0.7158"/>
		<stop  offset="0.4126" style="stop-color:#3B3B3B;stop-opacity:0.5874"/>
		<stop  offset="0.5372" style="stop-color:#545454;stop-opacity:0.4628"/>
		<stop  offset="0.6593" style="stop-color:#767676;stop-opacity:0.3407"/>
		<stop  offset="0.7793" style="stop-color:#9E9E9E;stop-opacity:0.2207"/>
		<stop  offset="0.8955" style="stop-color:#CECECE;stop-opacity:0.1045"/>
		<stop  offset="1" style="stop-color:#FFFFFF;stop-opacity:0"/>
	</radialGradient>
	
		<ellipse style="opacity:0.75;fill:url(#SVGID_00000044865336502170451330000017335452654663694726_);" cx="12.018" cy="18.673" rx="11.538" ry="2.971"/>
	<g>
		<g>
			<defs>
				<polygon id="SVGID_00000116218525917050260480000013089884313768717209_" points="3.482,18.444 20.554,18.444 20.554,1.372 
					3.482,1.372 3.482,18.444 				"/>
			</defs>
			<defs>
				<polygon id="SVGID_00000102502620242663699280000017879277472444068282_" points="3.482,1.372 20.554,1.372 20.554,18.444 
					3.482,18.444 3.482,1.372 				"/>
			</defs>
			<clipPath id="SVGID_00000009549125900283246040000017325926007963729805_">
				<use xlink:href="#SVGID_00000116218525917050260480000013089884313768717209_"  style="overflow:visible;"/>
			</clipPath>
			
				<clipPath id="SVGID_00000042737951746133147080000010242103985826491815_" style="clip-path:url(#SVGID_00000009549125900283246040000017325926007963729805_);">
				<use xlink:href="#SVGID_00000102502620242663699280000017879277472444068282_"  style="overflow:visible;"/>
			</clipPath>
			<g style="clip-path:url(#SVGID_00000042737951746133147080000010242103985826491815_);">
				<defs>
					<polygon id="SVGID_00000000210812115757001590000008947436477726238651_" points="3.482,18.444 20.554,18.444 20.554,1.372 
						3.482,1.372 3.482,18.444 					"/>
				</defs>
				<clipPath id="SVGID_00000081618806627360242190000008798155743790981026_">
					<use xlink:href="#SVGID_00000000210812115757001590000008947436477726238651_"  style="overflow:visible;"/>
				</clipPath>
				<path style="clip-path:url(#SVGID_00000081618806627360242190000008798155743790981026_);fill:#043EB2;" d="M20.532,9.993
					c0,4.655-3.774,8.429-8.429,8.429s-8.429-3.774-8.429-8.429c0-4.655,3.774-8.429,8.429-8.429S20.532,5.337,20.532,9.993
					L20.532,9.993z"/>
				<path style="clip-path:url(#SVGID_00000081618806627360242190000008798155743790981026_);fill:#FFFFFF;" d="M6.789,7.565
					c0-0.803,0.229-1.434,0.669-1.873c0.44-0.44,1.07-0.669,1.873-0.669c0.803,0,1.453,0.229,1.892,0.669
					c0.44,0.44,0.669,1.051,0.669,1.854c0.019,0.488-0.08,0.973-0.287,1.414c-0.192,0.361-0.484,0.66-0.841,0.86
					c-0.424,0.221-0.899,0.327-1.376,0.306c-0.473,0.013-0.943-0.078-1.376-0.268C7.641,9.673,7.335,9.38,7.133,9.018
					C6.892,8.573,6.773,8.071,6.789,7.565L6.789,7.565z M8.299,7.565c0,0.497,0.096,0.86,0.268,1.07
					c0.189,0.212,0.461,0.331,0.745,0.325c0.29,0.01,0.57-0.109,0.765-0.325c0.172-0.21,0.268-0.593,0.268-1.147
					c0-0.459-0.096-0.803-0.287-1.013C9.863,6.26,9.583,6.141,9.293,6.151C9.009,6.145,8.736,6.263,8.547,6.476
					C8.362,6.808,8.276,7.186,8.299,7.565L8.299,7.565z"/>
				<path style="clip-path:url(#SVGID_00000081618806627360242190000008798155743790981026_);fill:#FFFFFF;" d="M15.983,8.005
					l1.338,0.401c-0.073,0.338-0.217,0.657-0.42,0.937c-0.192,0.247-0.442,0.444-0.726,0.573c-0.345,0.141-0.717,0.207-1.089,0.191
					c-0.451,0.015-0.9-0.063-1.319-0.229c-0.371-0.177-0.678-0.464-0.879-0.822c-0.263-0.458-0.389-0.982-0.363-1.51
					c0-0.822,0.21-1.434,0.65-1.873c0.44-0.44,1.051-0.65,1.835-0.65C15.526,5,16.038,5.133,16.48,5.405
					c0.382,0.284,0.658,0.688,0.784,1.147l-1.338,0.306c-0.023-0.119-0.076-0.231-0.153-0.325c-0.078-0.114-0.183-0.205-0.306-0.268
					c-0.131-0.063-0.275-0.096-0.42-0.096c-0.319-0.018-0.622,0.144-0.784,0.421c-0.158,0.3-0.231,0.637-0.21,0.975
					c0,0.554,0.076,0.917,0.248,1.128c0.369,0.384,0.976,0.41,1.376,0.057C15.845,8.535,15.951,8.277,15.983,8.005L15.983,8.005z"/>
				<path style="clip-path:url(#SVGID_00000081618806627360242190000008798155743790981026_);fill:#FFFFFF;" d="M7.324,13.472
					c-0.009-0.322,0.116-0.633,0.344-0.86c0.259-0.239,0.604-0.364,0.956-0.344c0.387-0.029,0.766,0.119,1.032,0.401
					c0.192,0.215,0.295,0.495,0.287,0.784c0.009,0.322-0.116,0.633-0.344,0.86c-0.259,0.239-0.604,0.364-0.956,0.344
					c-0.319,0.017-0.632-0.085-0.879-0.287C7.477,14.163,7.312,13.826,7.324,13.472L7.324,13.472z M8.184,13.453
					c-0.011,0.161,0.029,0.322,0.115,0.459c0.074,0.094,0.186,0.15,0.306,0.153c0.121,0.002,0.235-0.055,0.306-0.153
					c0.088-0.136,0.128-0.297,0.115-0.459c0.011-0.155-0.029-0.31-0.115-0.44c-0.074-0.094-0.186-0.15-0.306-0.153
					c-0.125,0.002-0.244,0.058-0.325,0.153C8.184,13.108,8.184,13.261,8.184,13.453L8.184,13.453z"/>
				<path style="clip-path:url(#SVGID_00000081618806627360242190000008798155743790981026_);fill:#FFFFFF;" d="M10.363,12.325
					h0.822v0.363c0.096-0.134,0.22-0.245,0.363-0.325c0.144-0.067,0.3-0.1,0.459-0.096c0.212-0.011,0.419,0.065,0.573,0.21
					c0.151,0.189,0.226,0.428,0.21,0.669v1.453h-0.879v-1.262c0.012-0.108-0.015-0.216-0.076-0.306
					c-0.06-0.062-0.143-0.096-0.229-0.096c-0.097-0.007-0.191,0.037-0.248,0.115c-0.074,0.134-0.107,0.287-0.096,0.44v1.09h-0.879
					v-2.255H10.363L10.363,12.325z"/>
				<polygon style="clip-path:url(#SVGID_00000081618806627360242190000008798155743790981026_);fill:#FFFFFF;" points="
					13.326,11.446 14.205,11.446 14.205,14.599 13.326,14.599 13.326,11.446 				"/>
				<path style="clip-path:url(#SVGID_00000081618806627360242190000008798155743790981026_);fill:#FFFFFF;" d="M14.568,12.325
					h0.917l0.478,1.51l0.44-1.51h0.86l-0.898,2.428c-0.058,0.206-0.163,0.395-0.306,0.554c-0.196,0.151-0.441,0.226-0.688,0.21
					c-0.199-0.006-0.396-0.025-0.593-0.057l-0.076-0.612c0.137,0.039,0.278,0.058,0.42,0.057c0.09,0.007,0.179-0.02,0.248-0.076
					c0.074-0.066,0.127-0.152,0.153-0.248L14.568,12.325z"/>
			</g>
		</g>
	</g>
	<g>
		
			<radialGradient id="SVGID_00000052820359262367290720000002885259425347629987_" cx="-16511.5508" cy="-12345.5693" r="637.9614" gradientTransform="matrix(0.0162 0 0 0.0162 297.8369 207.9324)" gradientUnits="userSpaceOnUse">
			<stop  offset="0" style="stop-color:#FFFF00"/>
			<stop  offset="0.202" style="stop-color:#FFFB00"/>
			<stop  offset="0.3828" style="stop-color:#FFF100"/>
			<stop  offset="0.5556" style="stop-color:#FFDE00"/>
			<stop  offset="0.7233" style="stop-color:#FFC500"/>
			<stop  offset="0.886" style="stop-color:#FFA400"/>
			<stop  offset="1" style="stop-color:#FF8800"/>
		</radialGradient>
		<circle style="fill:url(#SVGID_00000052820359262367290720000002885259425347629987_);" cx="27.982" cy="9.92" r="8.536"/>
	</g>
	<g class="st7">
		<path id="XMLID_00000112632670501424408180000011754576310427512249_" class="st8" d="M28.067,13.052
			c-3.182,0-4.163-2.545-4.203-2.639c-0.066-0.153,0.005-0.331,0.159-0.397c0.152-0.065,0.33,0.005,0.396,0.158l0,0
			c0.034,0.079,0.878,1.932,3.648,1.932s3.614-1.853,3.649-1.932c0.067-0.152,0.245-0.22,0.397-0.156
			c0.153,0.066,0.223,0.243,0.158,0.396C32.23,10.507,31.249,13.052,28.067,13.052z"/>
	</g>
	<g>
		<path id="XMLID_00000029737643376661566720000013579759013624624027_" class="st9" d="M28.067,12.743
			c-3.182,0-4.163-2.545-4.203-2.639c-0.066-0.153,0.005-0.331,0.159-0.397c0.152-0.065,0.33,0.005,0.396,0.158l0,0
			c0.034,0.079,0.878,1.932,3.648,1.932s3.614-1.853,3.649-1.932c0.067-0.152,0.245-0.22,0.397-0.156
			c0.153,0.066,0.223,0.243,0.158,0.396C32.23,10.198,31.249,12.743,28.067,12.743z"/>
	</g>
	
		<ellipse transform="matrix(0.8025 -0.5967 0.5967 0.8025 -1.1031 16.2531)" class="st9" cx="23.998" cy="9.793" rx="0.741" ry="0.261"/>
	
		<ellipse transform="matrix(0.5967 -0.8025 0.8025 0.5967 5.0233 29.7057)" class="st9" cx="32.064" cy="9.856" rx="0.261" ry="0.741"/>
	<g>
		<path d="M26.265,7.114c0,0.408-0.277,0.738-0.62,0.738s-0.62-0.33-0.62-0.738V5.175c0-0.408,0.277-0.738,0.62-0.738
			s0.62,0.33,0.62,0.738V7.114z"/>
		<path d="M30.593,7.114c0,0.408-0.277,0.738-0.62,0.738s-0.62-0.33-0.62-0.738V5.175c0-0.408,0.277-0.738,0.62-0.738
			s0.62,0.33,0.62,0.738V7.114z"/>
	</g>
	<path class="st10" d="M11.667,12.319"/>
</g>
<rect class="st11" width="40" height="22"/>
</svg>
