<?xml version="1.0" encoding="utf-8"?>
<!-- Generator: Adobe Illustrator 26.0.1, SVG Export Plug-In . SVG Version: 6.00 Build 0)  -->
<svg version="1.1" id="Ebene_1" xmlns="http://www.w3.org/2000/svg" xmlns:xlink="http://www.w3.org/1999/xlink" x="0px" y="0px"
	 viewBox="0 0 126 47" style="enable-background:new 0 0 126 47;" xml:space="preserve">
<style type="text/css">
	.st0{fill:#FFFFFF;}
	.st1{fill:#FF5A00;}
	.st2{fill:#EB001B;}
	.st3{fill:#F79E1B;}
	.st4{fill:#00579F;}
	.st5{fill:#FAA61A;}
	.st6{fill:#016FD0;}
	.st7{fill-rule:evenodd;clip-rule:evenodd;fill:#000268;}
	.st8{fill-rule:evenodd;clip-rule:evenodd;fill:#FFFFFF;}
	.st9{fill-rule:evenodd;clip-rule:evenodd;fill:#FF0007;}
	.st10{fill-rule:evenodd;clip-rule:evenodd;fill:#FF9933;}
	.st11{fill-rule:evenodd;clip-rule:evenodd;fill:url(#SVGID_1_);}
	.st12{fill:#274C89;}
	.st13{fill-rule:evenodd;clip-rule:evenodd;fill:#FFFFFF;stroke:#0069B3;stroke-width:0.4268;stroke-miterlimit:2.6131;}
	.st14{fill-rule:evenodd;clip-rule:evenodd;fill:#0069B3;}
	.st15{fill-rule:evenodd;clip-rule:evenodd;fill:#1D1D1B;}
	.st16{fill-rule:evenodd;clip-rule:evenodd;fill:#E53212;}
</style>
<rect class="st0" width="126" height="47"/>
<g>
	<path id="XMLID_00000031183600675004620280000003745588394047219843_" d="M6.587,44.31v-0.995c0-0.381-0.232-0.63-0.63-0.63
		c-0.199,0-0.416,0.066-0.564,0.282c-0.116-0.182-0.282-0.282-0.532-0.282c-0.166,0-0.332,0.05-0.464,0.232v-0.199H4.049v1.593
		h0.348v-0.88c0-0.282,0.149-0.416,0.381-0.416c0.232,0,0.348,0.149,0.348,0.416v0.88h0.348v-0.88c0-0.282,0.166-0.416,0.381-0.416
		c0.232,0,0.348,0.149,0.348,0.416v0.88H6.587L6.587,44.31z M11.748,42.717h-0.564v-0.481h-0.348v0.481H10.52v0.315h0.315v0.731
		c0,0.365,0.149,0.58,0.547,0.58c0.149,0,0.315-0.05,0.431-0.116l-0.101-0.3c-0.101,0.066-0.216,0.083-0.3,0.083
		c-0.166,0-0.232-0.101-0.232-0.265v-0.713h0.564v-0.315H11.748z M14.701,42.682c-0.199,0-0.332,0.101-0.416,0.232v-0.199h-0.348
		v1.593h0.348v-0.897c0-0.265,0.116-0.416,0.332-0.416c0.066,0,0.149,0.017,0.216,0.033l0.101-0.332
		C14.866,42.682,14.767,42.682,14.701,42.682L14.701,42.682z M10.238,42.848c-0.166-0.116-0.398-0.166-0.648-0.166
		c-0.398,0-0.663,0.199-0.663,0.514c0,0.265,0.199,0.416,0.547,0.464l0.166,0.017c0.182,0.033,0.282,0.083,0.282,0.166
		c0,0.116-0.133,0.199-0.365,0.199c-0.232,0-0.416-0.083-0.532-0.166L8.86,44.141c0.182,0.133,0.431,0.199,0.68,0.199
		c0.464,0,0.731-0.216,0.731-0.514c0-0.282-0.216-0.431-0.547-0.481l-0.166-0.017c-0.149-0.017-0.265-0.05-0.265-0.149
		c0-0.116,0.116-0.182,0.3-0.182c0.199,0,0.398,0.083,0.499,0.133L10.238,42.848L10.238,42.848z M19.495,42.682
		c-0.199,0-0.332,0.101-0.416,0.232v-0.199h-0.348v1.593h0.348v-0.897c0-0.265,0.116-0.416,0.332-0.416
		c0.066,0,0.149,0.017,0.216,0.033l0.101-0.329C19.661,42.682,19.563,42.682,19.495,42.682L19.495,42.682z M15.049,43.513
		c0,0.481,0.332,0.829,0.847,0.829c0.232,0,0.398-0.05,0.564-0.182l-0.166-0.282c-0.133,0.101-0.265,0.149-0.416,0.149
		c-0.282,0-0.481-0.199-0.481-0.514c0-0.3,0.199-0.499,0.481-0.514c0.149,0,0.282,0.05,0.416,0.149l0.166-0.282
		c-0.166-0.133-0.332-0.182-0.564-0.182C15.382,42.682,15.049,43.032,15.049,43.513L15.049,43.513L15.049,43.513z M18.268,43.513
		v-0.796H17.92v0.199c-0.116-0.149-0.282-0.232-0.499-0.232c-0.448,0-0.796,0.348-0.796,0.829c0,0.481,0.348,0.829,0.796,0.829
		c0.232,0,0.398-0.083,0.499-0.232v0.199h0.348V43.513L18.268,43.513z M16.99,43.513c0-0.282,0.182-0.514,0.481-0.514
		c0.282,0,0.481,0.216,0.481,0.514c0,0.282-0.199,0.514-0.481,0.514C17.174,44.01,16.99,43.793,16.99,43.513L16.99,43.513z
		 M12.826,42.682c-0.464,0-0.796,0.332-0.796,0.829c0,0.499,0.332,0.829,0.814,0.829c0.232,0,0.464-0.066,0.648-0.216l-0.166-0.249
		c-0.133,0.101-0.3,0.166-0.464,0.166c-0.216,0-0.431-0.101-0.481-0.381h1.177c0-0.05,0-0.083,0-0.133
		C13.572,43.014,13.273,42.682,12.826,42.682L12.826,42.682L12.826,42.682z M12.826,42.982c0.216,0,0.365,0.133,0.398,0.381h-0.829
		C12.428,43.148,12.577,42.982,12.826,42.982L12.826,42.982z M21.471,43.513v-1.427h-0.348v0.829
		c-0.116-0.149-0.282-0.232-0.499-0.232c-0.448,0-0.796,0.348-0.796,0.829s0.348,0.829,0.796,0.829c0.232,0,0.398-0.083,0.499-0.232
		v0.199h0.348V43.513L21.471,43.513z M20.193,43.513c0-0.282,0.182-0.514,0.481-0.514c0.282,0,0.481,0.216,0.481,0.514
		c0,0.282-0.199,0.514-0.481,0.514C20.375,44.01,20.193,43.793,20.193,43.513L20.193,43.513z M8.545,43.513v-0.796H8.197v0.199
		c-0.116-0.149-0.282-0.232-0.499-0.232c-0.448,0-0.796,0.348-0.796,0.829c0,0.481,0.348,0.829,0.796,0.829
		c0.232,0,0.398-0.083,0.499-0.232v0.199h0.348V43.513L8.545,43.513z M7.251,43.513c0-0.282,0.182-0.514,0.481-0.514
		c0.282,0,0.481,0.216,0.481,0.514c0,0.282-0.199,0.514-0.481,0.514C7.433,44.01,7.251,43.793,7.251,43.513z"/>
	<g>
		
			<rect id="rect19_00000174596410808692278980000004298145554656630715_" x="10.122" y="30.62" class="st1" width="5.227" height="9.39"/>
		<path id="XMLID_00000015330593954770968430000011338921760522845076_" class="st2" d="M10.47,35.315
			c0-1.908,0.897-3.601,2.273-4.695c-1.013-0.796-2.291-1.278-3.684-1.278c-3.302,0-5.973,2.671-5.973,5.973
			c0,3.302,2.671,5.973,5.973,5.973c1.394,0,2.671-0.481,3.684-1.278C11.365,38.932,10.47,37.223,10.47,35.315z"/>
		<path id="path22_00000076591765798371437700000001883895056493065617_" class="st3" d="M22.4,35.315
			c0,3.302-2.671,5.973-5.973,5.973c-1.394,0-2.671-0.481-3.684-1.278c1.394-1.096,2.273-2.787,2.273-4.695
			s-0.897-3.601-2.273-4.695c1.011-0.796,2.289-1.278,3.682-1.278C19.729,29.342,22.4,32.031,22.4,35.315z"/>
	</g>
</g>
<g id="g4158_00000101818795045621421700000001649363393046570153_" transform="matrix(4.4299631,0,0,4.4299631,-81.165783,-105.04783)">
	<polygon id="polygon9_00000068672710992520388580000014371587460047977362_" class="st4" points="26.503,32.931 26.038,32.931 
		26.329,31.134 26.794,31.134 	"/>
	<path id="path11_00000013157518672341922390000017069414961461048961_" class="st4" d="M28.188,31.178
		c-0.092-0.036-0.237-0.077-0.417-0.077c-0.459,0-0.782,0.245-0.784,0.595c-0.004,0.258,0.231,0.401,0.407,0.488
		c0.18,0.088,0.241,0.145,0.241,0.224c-0.002,0.12-0.145,0.176-0.279,0.176c-0.186,0-0.285-0.029-0.436-0.096l-0.061-0.029
		l-0.065,0.403c0.109,0.05,0.31,0.094,0.518,0.096c0.488,0,0.805-0.241,0.809-0.614c0.002-0.205-0.122-0.361-0.39-0.489
		c-0.163-0.082-0.262-0.138-0.262-0.222c0.002-0.076,0.084-0.155,0.268-0.155c0.151-0.004,0.262,0.032,0.346,0.069l0.042,0.019
		L28.188,31.178L28.188,31.178z"/>
	<path id="path13_00000116194723666809474550000018377720941323034508_" class="st4" d="M28.805,32.294
		c0.038-0.103,0.186-0.503,0.186-0.503c-0.002,0.004,0.038-0.105,0.061-0.172l0.032,0.155c0,0,0.088,0.43,0.107,0.52
		C29.119,32.294,28.897,32.294,28.805,32.294L28.805,32.294z M29.379,31.134H29.02c-0.111,0-0.195,0.032-0.243,0.149l-0.69,1.648
		h0.488c0,0,0.08-0.222,0.098-0.27c0.053,0,0.528,0,0.597,0c0.013,0.063,0.055,0.27,0.055,0.27h0.43L29.379,31.134L29.379,31.134
		L29.379,31.134z"/>
	<path id="path15_00000034092079963048751770000013298629662783701951_" class="st4" d="M25.65,31.134l-0.455,1.226l-0.05-0.249
		c-0.084-0.287-0.348-0.598-0.642-0.753l0.417,1.572h0.491l0.73-1.795H25.65L25.65,31.134L25.65,31.134z"/>
	<path id="path17_00000050636529075635906150000015465731427679771539_" class="st5" d="M24.773,31.134h-0.748l-0.008,0.036
		c0.583,0.149,0.969,0.509,1.128,0.941l-0.163-0.826C24.956,31.17,24.874,31.138,24.773,31.134L24.773,31.134z"/>
</g>
<g id="layer1_00000116919178055935674800000008105906655185641135_" transform="translate(-55.5,-1002.3452)">
	<path id="path3078_00000088845295550948712850000001100340330423817361_" class="st6" d="M109.619,1031.703h14.97v8.081
		l-0.741,1.158l0.741,1.03v4.701h-14.97v-7.618l0.463-0.533l-0.463-0.509V1031.703z"/>
	<path id="path3082_00000012464617787055471990000012515285339603122870_" class="st0" d="M112.525,1042.134v-2.35h2.489
		l0.267,0.348l0.276-0.348h9.033v2.188c0,0-0.236,0.16-0.509,0.162h-5.002l-0.301-0.37v0.37h-0.986v-0.632
		c0,0-0.135,0.088-0.426,0.088h-0.336v0.544h-1.494l-0.267-0.355l-0.271,0.355H112.525z"/>
	<path id="path3080_00000057123345348623995480000011073314098309839236_" class="st0" d="M109.619,1038.012l0.561-1.308h0.97
		l0.318,0.733v-0.733h1.206l0.19,0.53l0.184-0.53h5.416v0.266c0,0,0.285-0.266,0.753-0.266l1.757,0.006l0.313,0.723v-0.729h1.01
		l0.278,0.416v-0.416h1.019v2.35h-1.019l-0.266-0.417v0.417h-1.483l-0.149-0.37h-0.399l-0.147,0.37h-1.006
		c-0.403,0-0.66-0.261-0.66-0.261v0.261h-1.517l-0.301-0.37v0.37h-5.64l-0.149-0.37h-0.397l-0.148,0.37h-0.693V1038.012z"/>
	<path id="path3046_00000108276959098113783680000012783713495377185454_" class="st6" d="M110.379,1036.994l-0.757,1.76h0.493
		l0.14-0.352h0.812l0.139,0.352h0.504l-0.756-1.76H110.379L110.379,1036.994z M110.659,1037.403l0.247,0.616h-0.496
		L110.659,1037.403z"/>
	<path id="path3048_00000024691373145373073840000011950665531872921996_" class="st6" d="M111.761,1038.753v-1.76l0.7,0.003
		l0.407,1.135l0.398-1.137h0.695v1.76h-0.44v-1.297l-0.466,1.297h-0.386l-0.468-1.297v1.297H111.761z"/>
	<path id="path3050_00000174560869108881535230000007279796941139869580_" class="st6" d="M114.262,1038.753v-1.76h1.436v0.394
		h-0.991v0.301h0.968v0.37h-0.968v0.313h0.991v0.382H114.262z"/>
	<path id="path3052_00000183221238395854744450000001464348068121271685_" class="st6" d="M115.952,1036.994v1.76h0.44v-0.625h0.185
		l0.528,0.625h0.538l-0.579-0.648c0.238-0.02,0.483-0.224,0.483-0.541c0-0.37-0.291-0.571-0.615-0.571H115.952L115.952,1036.994z
		 M116.392,1037.388h0.503c0.121,0,0.208,0.094,0.208,0.185c0,0.117-0.114,0.185-0.202,0.185h-0.509V1037.388L116.392,1037.388z"/>
	<path id="path3054_00000019656415721533814140000009377251485247169180_" class="st6" d="M118.175,1038.753h-0.449v-1.76h0.449
		V1038.753z"/>
	<path id="path3056_00000092432119694735820360000005657027227116584071_" class="st6" d="M119.24,1038.753h-0.097
		c-0.469,0-0.754-0.37-0.754-0.873c0-0.516,0.282-0.887,0.874-0.887h0.486v0.417h-0.504c-0.241,0-0.411,0.188-0.411,0.475
		c0,0.341,0.194,0.484,0.475,0.484h0.116L119.24,1038.753z"/>
	<path id="path3058_00000147920339918047846820000010432498544515777722_" class="st6" d="M120.197,1036.994l-0.757,1.76h0.493
		l0.14-0.352h0.812l0.139,0.352h0.504l-0.756-1.76H120.197L120.197,1036.994z M120.477,1037.403l0.247,0.616h-0.496
		L120.477,1037.403L120.477,1037.403z"/>
	<path id="path3060_00000176731589574189525950000006459598420255082644_" class="st6" d="M121.579,1038.753v-1.76h0.559
		l0.714,1.106v-1.106h0.44v1.76h-0.541l-0.732-1.135v1.135H121.579z"/>
	<path id="path3062_00000125587566166753963420000016289125215096690622_" class="st6" d="M112.826,1041.833v-1.76h1.436v0.394
		h-0.991v0.301h0.968v0.37h-0.968v0.313h0.991v0.382H112.826z"/>
	<path id="path3064_00000164478260910173149320000000211925486835053491_" class="st6" d="M119.861,1041.833v-1.76h1.436v0.394
		h-0.991v0.301h0.963v0.37h-0.963v0.313h0.991v0.382H119.861z"/>
	<path id="path3066_00000043434985684614679300000012229164118052001214_" class="st6" d="M114.317,1041.833l0.699-0.869
		l-0.716-0.891h0.554l0.426,0.551l0.428-0.551h0.533l-0.706,0.88l0.7,0.88h-0.554l-0.414-0.542l-0.404,0.542H114.317z"/>
	<path id="path3068_00000033337213412511688690000000127424883660530832_" class="st6" d="M116.288,1040.074v1.76h0.452v-0.556
		h0.463c0.392,0,0.689-0.208,0.689-0.612c0-0.335-0.233-0.592-0.632-0.592H116.288L116.288,1040.074z M116.739,1040.472h0.488
		c0.127,0,0.217,0.078,0.217,0.203c0,0.117-0.09,0.203-0.219,0.203h-0.486V1040.472L116.739,1040.472z"/>
	<path id="path3072_00000005225954283004667970000005304675639532419257_" class="st6" d="M118.082,1040.073v1.76h0.44v-0.625h0.185
		l0.528,0.625h0.538l-0.579-0.648c0.238-0.02,0.483-0.224,0.483-0.541c0-0.37-0.291-0.571-0.615-0.571H118.082L118.082,1040.073z
		 M118.522,1040.467h0.503c0.121,0,0.208,0.094,0.208,0.185c0,0.117-0.114,0.185-0.202,0.185h-0.509V1040.467z"/>
	<path id="path3074_00000031916332416746235060000017509078779450845080_" class="st6" d="M121.5,1041.833v-0.382h0.881
		c0.13,0,0.187-0.07,0.187-0.148c0-0.074-0.056-0.149-0.187-0.149h-0.398c-0.346,0-0.538-0.211-0.538-0.527
		c0-0.282,0.176-0.554,0.69-0.554h0.857l-0.185,0.396h-0.741c-0.142,0-0.185,0.074-0.185,0.145c0,0.073,0.054,0.153,0.162,0.153
		h0.417c0.386,0,0.553,0.219,0.553,0.505c0,0.308-0.186,0.56-0.574,0.56H121.5z"/>
	<path id="path3076_00000139973586486968662500000018143609716117792930_" class="st6" d="M123.115,1041.833v-0.382h0.88
		c0.13,0,0.187-0.07,0.187-0.148c0-0.074-0.056-0.149-0.187-0.149h-0.398c-0.346,0-0.538-0.211-0.538-0.527
		c0-0.282,0.176-0.554,0.69-0.554h0.857l-0.185,0.396h-0.741c-0.142,0-0.185,0.074-0.185,0.145c0,0.073,0.054,0.153,0.162,0.153
		h0.417c0.386,0,0.553,0.219,0.553,0.505c0,0.308-0.186,0.56-0.574,0.56H123.115z"/>
</g>
<g id="layer1_00000074401843480878238690000003706021504471559334_">
	<path id="_92653320_00000116943349981326778890000000411599790381326720_" class="st7" d="M72.522,32.344
		c0-1.39,1.133-2.518,2.53-2.518h27.57c1.397,0,2.53,1.127,2.53,2.518v8.997c0,1.389-1.132,2.517-2.53,2.517h-27.57
		c-1.397,0-2.53-1.127-2.53-2.517V32.344L72.522,32.344z"/>
	<path id="_92186184_00000121263223993640072570000008378308556944682424_" class="st8" d="M73.56,32.43v8.825
		c0,0.869,0.708,1.573,1.582,1.573h14.444V30.857H75.142C74.268,30.857,73.56,31.562,73.56,32.43L73.56,32.43z M93.318,36.799
		c0,0.562-0.278,0.948-0.738,0.948c-0.406,0-0.745-0.386-0.745-0.901c0-0.528,0.298-0.921,0.745-0.921
		C93.054,35.926,93.318,36.332,93.318,36.799z M90.616,40.022h1.218v-1.916h0.014c0.231,0.42,0.691,0.575,1.118,0.575
		c1.049,0,1.611-0.866,1.611-1.909c0-0.853-0.535-1.781-1.51-1.781c-0.555,0-1.069,0.224-1.314,0.718H91.74v-0.636h-1.124V40.022z
		 M96.241,37.483c0-0.338,0.325-0.466,0.738-0.466c0.183,0,0.359,0.013,0.515,0.02c0,0.413-0.291,0.833-0.752,0.833
		C96.457,37.869,96.241,37.727,96.241,37.483z M98.698,38.6c-0.054-0.277-0.067-0.555-0.067-0.833v-1.314
		c0-1.076-0.778-1.463-1.679-1.463c-0.521,0-0.975,0.075-1.408,0.251l0.021,0.826c0.337-0.19,0.731-0.264,1.124-0.264
		c0.439,0,0.798,0.129,0.806,0.61c-0.156-0.027-0.373-0.048-0.569-0.048c-0.649,0-1.821,0.129-1.821,1.205
		c0,0.765,0.623,1.11,1.32,1.11c0.501,0,0.84-0.196,1.117-0.636h0.014c0,0.183,0.02,0.365,0.027,0.555H98.698z M99.247,40.022
		c0.251,0.054,0.501,0.082,0.758,0.082c1.117,0,1.381-0.86,1.726-1.747l1.294-3.284h-1.219l-0.724,2.302h-0.014l-0.758-2.302h-1.313
		l1.428,3.608c-0.088,0.312-0.318,0.488-0.616,0.488c-0.17,0-0.318-0.021-0.481-0.075L99.247,40.022z"/>
	<path id="_47303032_00000086651404097064453100000018035665790264768156_" class="st9" d="M76.536,36.806
		c0-0.481,0.237-0.881,0.691-0.881c0.548,0,0.778,0.44,0.778,0.833c0,0.542-0.345,0.907-0.778,0.907
		C76.862,37.665,76.536,37.354,76.536,36.806z M79.184,35.073H78.08v0.636h-0.013c-0.258-0.433-0.678-0.718-1.199-0.718
		c-1.097,0-1.591,0.786-1.591,1.835c0,1.043,0.603,1.774,1.57,1.774c0.488,0,0.894-0.19,1.185-0.603h0.014v0.19
		c0,0.69-0.379,1.022-1.083,1.022c-0.508,0-0.82-0.108-1.192-0.291l-0.061,0.962c0.284,0.102,0.765,0.224,1.347,0.224
		c1.422,0,2.125-0.467,2.125-1.916V35.073z M81.243,33.604h-1.219v0.894h1.219V33.604z M80.025,38.6h1.218v-3.527h-1.218V38.6z
		 M84.637,35.032c-0.122-0.02-0.271-0.041-0.413-0.041c-0.528,0-0.833,0.285-1.043,0.732h-0.014v-0.65h-1.11V38.6h1.218v-1.489
		c0-0.691,0.319-1.104,0.887-1.104c0.143,0,0.277,0,0.413,0.04L84.637,35.032z M86.735,37.828c-0.562,0-0.792-0.467-0.792-0.988
		c0-0.528,0.23-0.995,0.792-0.995c0.562,0,0.793,0.467,0.793,0.995C87.527,37.361,87.297,37.828,86.735,37.828z M86.735,38.681
		c1.165,0,2.052-0.676,2.052-1.841c0-1.172-0.887-1.849-2.052-1.849c-1.164,0-2.051,0.677-2.051,1.849
		C84.684,38.004,85.57,38.681,86.735,38.681z"/>
</g>
<g>
	<path class="st10" d="M100,26.042H26c-6.6,0-12-5.4-12-12v0c0-6.6,5.4-12,12-12h74c6.6,0,12,5.4,12,12v0
		C112,20.642,106.6,26.042,100,26.042z"/>
	<linearGradient id="SVGID_1_" gradientUnits="userSpaceOnUse" x1="62.9998" y1="3.0429" x2="62.9998" y2="25.0429">
		<stop  offset="0" style="stop-color:#FFFFFF"/>
		<stop  offset="0.2625" style="stop-color:#FFE6BF"/>
		<stop  offset="0.71" style="stop-color:#FFB23C"/>
		<stop  offset="0.9275" style="stop-color:#FFFFFF"/>
	</linearGradient>
	<path class="st11" d="M26,25.043c-6.065,0-11-4.935-11-11s4.935-11,11-11h74c6.065,0,11,4.935,11,11s-4.935,11-11,11H26z"/>
	<g>
		<path class="st12" d="M37.685,17.729c-0.565-0.262-1.071-0.701-1.52-1.317l1.372-1.078c0.243,0.354,0.544,0.635,0.904,0.84
			c0.359,0.206,0.735,0.309,1.127,0.309c0.393,0,0.71-0.094,0.953-0.28c0.242-0.187,0.364-0.443,0.364-0.771
			c0-0.243-0.096-0.441-0.287-0.595c-0.192-0.154-0.451-0.334-0.778-0.54l-0.868-0.532c-0.42-0.262-0.752-0.567-0.994-0.917
			c-0.243-0.351-0.364-0.806-0.364-1.366c0-0.392,0.084-0.759,0.252-1.1s0.395-0.64,0.68-0.896c0.284-0.257,0.623-0.46,1.016-0.609
			c0.392-0.149,0.812-0.224,1.261-0.224c0.541,0,1.05,0.126,1.526,0.378s0.892,0.588,1.247,1.009l-1.219,1.135
			c-0.233-0.243-0.481-0.446-0.743-0.609c-0.261-0.164-0.56-0.245-0.896-0.245c-0.373,0-0.66,0.096-0.861,0.287
			c-0.2,0.191-0.301,0.422-0.301,0.693c0,0.233,0.103,0.425,0.308,0.574c0.206,0.149,0.486,0.336,0.841,0.561l0.896,0.546
			c0.448,0.271,0.772,0.567,0.974,0.89s0.301,0.749,0.301,1.281c0,0.421-0.081,0.811-0.245,1.17
			c-0.163,0.359-0.395,0.672-0.693,0.938s-0.66,0.477-1.085,0.63c-0.425,0.154-0.899,0.231-1.422,0.231
			C38.832,18.12,38.251,17.99,37.685,17.729z"/>
		<path class="st12" d="M45.729,18.653l-0.351,1.877H43.46l1.919-9.525h1.555l0.015,0.799h0.042c0.317-0.289,0.66-0.522,1.029-0.7
			s0.73-0.267,1.086-0.267c0.616,0,1.097,0.22,1.442,0.659c0.346,0.438,0.519,1.068,0.519,1.891c0,0.663-0.103,1.281-0.309,1.855
			c-0.205,0.575-0.48,1.077-0.826,1.506c-0.346,0.43-0.74,0.767-1.184,1.009c-0.443,0.243-0.903,0.364-1.38,0.364
			c-0.299,0-0.569-0.072-0.812-0.217s-0.443-0.348-0.603-0.609h-0.027L45.729,18.653z M47.558,12.595
			c-0.267,0.126-0.502,0.353-0.708,0.679l-0.532,2.634c0.103,0.224,0.236,0.388,0.399,0.49s0.334,0.154,0.512,0.154
			c0.242,0,0.476-0.075,0.7-0.225c0.224-0.149,0.422-0.354,0.595-0.616s0.311-0.569,0.414-0.925
			c0.103-0.354,0.153-0.742,0.153-1.162c0-0.421-0.074-0.729-0.224-0.925s-0.346-0.294-0.589-0.294
			C48.063,12.406,47.823,12.468,47.558,12.595z"/>
		<path class="st12" d="M52.553,13.393c0.229-0.527,0.528-0.98,0.896-1.358c0.369-0.379,0.782-0.673,1.24-0.883
			c0.457-0.21,0.92-0.315,1.387-0.315c0.411,0,0.761,0.068,1.051,0.203c0.289,0.136,0.525,0.322,0.707,0.561
			s0.312,0.514,0.393,0.826c0.079,0.313,0.119,0.651,0.119,1.016c0,0.168-0.015,0.334-0.043,0.498
			c-0.027,0.163-0.061,0.317-0.098,0.462s-0.077,0.271-0.119,0.378s-0.077,0.189-0.104,0.245h-3.95
			c-0.028,0.579,0.109,0.999,0.413,1.261s0.684,0.393,1.142,0.393c0.215,0,0.438-0.052,0.672-0.154s0.439-0.215,0.616-0.336
			l0.673,1.204c-0.28,0.196-0.631,0.367-1.051,0.512s-0.901,0.217-1.442,0.217c-0.421,0-0.806-0.067-1.156-0.203
			c-0.35-0.136-0.648-0.331-0.896-0.588c-0.247-0.257-0.44-0.567-0.581-0.932c-0.14-0.364-0.21-0.78-0.21-1.247
			C52.21,14.506,52.324,13.92,52.553,13.393z M56.706,13.848c0.047-0.158,0.07-0.331,0.07-0.518c0-0.28-0.067-0.521-0.203-0.722
			c-0.136-0.201-0.381-0.302-0.735-0.302c-0.327,0-0.645,0.129-0.952,0.386c-0.309,0.257-0.542,0.642-0.701,1.155H56.706z"/>
		<path class="st12" d="M60.596,11.004h1.556l-0.028,0.925h0.056c0.346-0.299,0.71-0.556,1.093-0.771s0.799-0.322,1.247-0.322
			c0.579,0,0.999,0.152,1.261,0.456c0.261,0.303,0.392,0.744,0.392,1.323c0,0.159-0.009,0.32-0.027,0.483s-0.047,0.334-0.084,0.511
			l-0.869,4.343h-1.919l0.826-4.104c0.028-0.14,0.054-0.261,0.077-0.364c0.023-0.103,0.035-0.2,0.035-0.294
			c0-0.477-0.238-0.714-0.714-0.714c-0.215,0-0.437,0.072-0.666,0.217c-0.229,0.145-0.492,0.371-0.791,0.68l-0.896,4.58h-1.919
			L60.596,11.004z"/>
		<path class="st12" d="M72.807,10.361l0.42-2.228h1.919l-1.975,9.819h-1.556l0.028-0.91h-0.042
			c-0.317,0.326-0.668,0.588-1.051,0.784s-0.756,0.294-1.12,0.294c-0.616,0-1.098-0.22-1.443-0.658
			c-0.345-0.438-0.518-1.069-0.518-1.891c0-0.663,0.103-1.282,0.308-1.856c0.206-0.574,0.481-1.076,0.826-1.506
			c0.346-0.43,0.743-0.766,1.191-1.009c0.448-0.242,0.91-0.364,1.387-0.364c0.317,0,0.6,0.077,0.848,0.231
			c0.247,0.154,0.437,0.357,0.566,0.609h0.043L72.807,10.361z M71.006,16.334c0.257-0.145,0.507-0.413,0.75-0.805l0.49-2.466
			c-0.112-0.233-0.255-0.401-0.428-0.504c-0.173-0.104-0.338-0.154-0.497-0.154c-0.242,0-0.476,0.074-0.7,0.224
			s-0.423,0.355-0.596,0.617c-0.173,0.261-0.311,0.569-0.413,0.924c-0.103,0.355-0.154,0.742-0.154,1.163
			c0,0.42,0.073,0.729,0.218,0.924c0.145,0.196,0.343,0.295,0.595,0.295C70.504,16.552,70.749,16.48,71.006,16.334z"/>
		<path class="st12" d="M75.708,13.393c0.229-0.527,0.528-0.98,0.896-1.358c0.369-0.379,0.782-0.673,1.24-0.883
			c0.457-0.21,0.92-0.315,1.387-0.315c0.411,0,0.761,0.068,1.051,0.203c0.289,0.136,0.525,0.322,0.707,0.561
			s0.312,0.514,0.393,0.826c0.079,0.313,0.119,0.651,0.119,1.016c0,0.168-0.015,0.334-0.042,0.498
			c-0.028,0.163-0.062,0.317-0.099,0.462s-0.077,0.271-0.119,0.378s-0.077,0.189-0.104,0.245h-3.95
			c-0.028,0.579,0.109,0.999,0.413,1.261s0.684,0.393,1.142,0.393c0.215,0,0.438-0.052,0.672-0.154s0.439-0.215,0.616-0.336
			l0.673,1.204c-0.28,0.196-0.631,0.367-1.051,0.512s-0.901,0.217-1.442,0.217c-0.421,0-0.806-0.067-1.156-0.203
			c-0.35-0.136-0.648-0.331-0.896-0.588c-0.247-0.257-0.44-0.567-0.581-0.932c-0.14-0.364-0.21-0.78-0.21-1.247
			C75.365,14.506,75.479,13.92,75.708,13.393z M79.861,13.848c0.047-0.158,0.07-0.331,0.07-0.518c0-0.28-0.067-0.521-0.203-0.722
			c-0.136-0.201-0.381-0.302-0.735-0.302c-0.327,0-0.645,0.129-0.952,0.386c-0.309,0.257-0.542,0.642-0.701,1.155H79.861z"/>
		<path class="st12" d="M83.75,11.004h1.556l-0.028,0.925h0.056c0.346-0.299,0.71-0.556,1.093-0.771s0.799-0.322,1.247-0.322
			c0.579,0,0.999,0.152,1.261,0.456c0.261,0.303,0.392,0.744,0.392,1.323c0,0.159-0.009,0.32-0.027,0.483s-0.047,0.334-0.084,0.511
			l-0.869,4.343h-1.919l0.826-4.104c0.028-0.14,0.054-0.261,0.077-0.364c0.023-0.103,0.035-0.2,0.035-0.294
			c0-0.477-0.238-0.714-0.714-0.714c-0.215,0-0.437,0.072-0.666,0.217c-0.229,0.145-0.492,0.371-0.791,0.68l-0.896,4.58h-1.919
			L83.75,11.004z"/>
	</g>
</g>
<g>
	<path class="st13" d="M110.417,28.7h11.339c0.78,0,1.417,0.595,1.417,1.322v13.306c0,0.727-0.638,1.322-1.417,1.322h-11.339
		c-0.78,0-1.417-0.595-1.417-1.322V30.022C109,29.295,109.638,28.7,110.417,28.7L110.417,28.7z"/>
	<path class="st14" d="M111.296,42.631h-0.473v0.275c0.005,0.061,0.005,0.107,0.051,0.148c0.01,0.005,0.025,0.02,0.056,0.02
		c0.01,0,0.031-0.005,0.051-0.02c0.056-0.041,0.056-0.097,0.051-0.158v-0.117h0.26c0.005,0.107,0.005,0.265-0.036,0.361
		c-0.041,0.087-0.132,0.158-0.336,0.158c-0.112,0-0.239-0.031-0.3-0.127c-0.071-0.112-0.066-0.285-0.066-0.422v-0.173
		c0-0.076,0-0.153,0-0.234c0-0.02,0-0.142,0.02-0.229c0.056-0.239,0.285-0.249,0.356-0.249c0.046,0,0.076,0.005,0.092,0.005
		c0.081,0.015,0.158,0.051,0.209,0.117c0.066,0.102,0.066,0.255,0.066,0.372V42.631L111.296,42.631z M111.031,42.422v-0.204
		c-0.005-0.046-0.01-0.087-0.041-0.117c-0.015-0.015-0.036-0.025-0.061-0.025c-0.01,0-0.031,0.005-0.056,0.02
		c-0.041,0.025-0.041,0.066-0.051,0.117v0.209H111.031L111.031,42.422z"/>
	<polygon class="st15" points="111.723,41.429 111.723,43.287 111.449,43.287 111.449,41.429 111.723,41.429 	"/>
	<path class="st15" d="M112.64,42.631h-0.473v0.275c0.005,0.061,0.01,0.107,0.051,0.148c0.01,0.005,0.025,0.02,0.056,0.02
		c0.01,0,0.031-0.005,0.056-0.02c0.051-0.041,0.051-0.097,0.046-0.158v-0.117h0.265c0,0.107,0,0.265-0.041,0.361
		c-0.041,0.087-0.132,0.158-0.336,0.158c-0.112,0-0.239-0.031-0.3-0.127c-0.071-0.112-0.066-0.285-0.066-0.422v-0.173
		c0-0.076,0-0.153,0-0.234c0-0.02,0-0.142,0.02-0.229c0.056-0.239,0.285-0.249,0.356-0.249c0.046,0,0.076,0.005,0.097,0.005
		c0.076,0.015,0.153,0.051,0.204,0.117c0.066,0.102,0.066,0.255,0.066,0.372V42.631L112.64,42.631z M112.375,42.422v-0.204
		c-0.005-0.046-0.01-0.087-0.041-0.117c-0.015-0.015-0.036-0.025-0.061-0.025c-0.005,0-0.031,0.005-0.056,0.02
		c-0.041,0.025-0.041,0.066-0.051,0.117v0.209H112.375L112.375,42.422z"/>
	<path class="st15" d="M113.251,42.371c0-0.117,0-0.214-0.025-0.255c-0.01-0.015-0.025-0.031-0.071-0.031
		c-0.015,0-0.036,0.005-0.051,0.01c-0.031,0.025-0.041,0.066-0.051,0.107c-0.005,0.127-0.005,0.254-0.005,0.382
		c0,0.122,0.005,0.244,0.01,0.367c0,0.015,0.005,0.031,0.005,0.041c0.005,0.03,0.015,0.081,0.097,0.081
		c0.092,0,0.097-0.081,0.097-0.168c0-0.066,0-0.127,0-0.188l0.27,0.005c0,0.066,0,0.132,0,0.199c-0.005,0.102-0.01,0.188-0.076,0.27
		c-0.031,0.046-0.066,0.061-0.087,0.076c-0.031,0.01-0.107,0.036-0.204,0.036c-0.036,0-0.214,0-0.305-0.122
		c-0.071-0.092-0.076-0.209-0.076-0.321c-0.005-0.148-0.01-0.29-0.005-0.438c0.005-0.071,0.01-0.143,0.015-0.219
		c0.005-0.066,0.01-0.081,0.02-0.117c0.056-0.158,0.178-0.193,0.229-0.204c0.056-0.015,0.122-0.015,0.137-0.015
		c0.173,0,0.265,0.092,0.3,0.148c0.046,0.071,0.041,0.168,0.046,0.356H113.251L113.251,42.371z"/>
	<path class="st15" d="M113.698,41.882v-0.367h0.275v0.367h0.107v0.239h-0.107v0.799c0,0.061,0,0.102,0.02,0.122
		c0.015,0.01,0.036,0.01,0.056,0.015c0.01,0,0.02,0.005,0.036,0.005l-0.005,0.224c-0.056,0-0.112,0-0.173,0
		c-0.061,0.005-0.117,0.005-0.158-0.041c-0.015-0.02-0.025-0.031-0.036-0.056c-0.005-0.02-0.01-0.041-0.01-0.092v-0.977h-0.112
		v-0.239H113.698L113.698,41.882z"/>
	<path class="st15" d="M114.457,41.882l-0.01,0.27c0.025-0.097,0.041-0.132,0.066-0.168c0.066-0.107,0.148-0.117,0.265-0.127
		l-0.005,0.336c-0.097-0.005-0.188-0.01-0.249,0.066c-0.046,0.056-0.051,0.107-0.051,0.178v0.85h-0.28v-1.405H114.457
		L114.457,41.882z"/>
	<path class="st15" d="M114.844,42.32c0.005-0.107,0-0.193,0.056-0.29c0.046-0.076,0.127-0.158,0.316-0.158
		c0.193,0,0.27,0.071,0.311,0.158c0.056,0.112,0.046,0.255,0.046,0.514c0,0.081,0.005,0.163,0.005,0.244
		c0,0.01,0.005,0.224-0.041,0.331c-0.061,0.148-0.188,0.188-0.336,0.188c-0.132,0-0.26-0.051-0.316-0.183
		c-0.046-0.117-0.041-0.346-0.041-0.468C114.844,42.544,114.844,42.432,114.844,42.32L114.844,42.32L114.844,42.32z M115.307,42.463
		c0-0.071,0-0.137-0.005-0.209c0-0.005,0-0.071-0.02-0.117c-0.02-0.041-0.051-0.046-0.066-0.046c-0.036,0-0.081,0.031-0.092,0.107
		c-0.01,0.051-0.01,0.148-0.01,0.285c0,0.102,0,0.209,0,0.316c0,0.112,0.005,0.193,0.025,0.234c0.015,0.031,0.041,0.051,0.071,0.051
		c0.02,0,0.041-0.005,0.051-0.02c0.046-0.041,0.041-0.112,0.046-0.234V42.463L115.307,42.463z"/>
	<path class="st15" d="M116.009,41.882l0.005,0.122c0.015-0.01,0.025-0.031,0.041-0.041c0.025-0.025,0.097-0.097,0.214-0.097
		c0.025,0,0.071,0,0.122,0.036c0.087,0.056,0.097,0.132,0.107,0.229v1.155h-0.275v-1.018c0-0.051-0.005-0.092-0.046-0.122
		c-0.02-0.015-0.036-0.015-0.046-0.015c-0.036,0-0.061,0.025-0.071,0.031c-0.056,0.061-0.056,0.148-0.051,0.219v0.906h-0.265v-1.405
		H116.009L116.009,41.882z"/>
	<path class="st15" d="M116.956,41.882v1.405h-0.27v-1.405H116.956L116.956,41.882z M116.961,41.429v0.27h-0.27v-0.27H116.961
		L116.961,41.429z"/>
	<path class="st15" d="M117.603,42.371c0-0.117,0-0.214-0.026-0.255c-0.01-0.015-0.03-0.031-0.071-0.031
		c-0.02,0-0.041,0.005-0.056,0.01c-0.031,0.025-0.041,0.066-0.046,0.107c-0.005,0.127-0.01,0.254-0.01,0.382
		c0,0.122,0.005,0.244,0.01,0.367c0,0.015,0.005,0.031,0.005,0.041c0.005,0.03,0.02,0.081,0.097,0.081
		c0.097,0,0.097-0.081,0.097-0.168c0-0.066,0-0.127,0-0.188l0.27,0.005c0,0.066,0,0.132,0,0.199c-0.005,0.102-0.01,0.188-0.071,0.27
		c-0.036,0.046-0.071,0.061-0.092,0.076c-0.03,0.01-0.107,0.036-0.198,0.036c-0.041,0-0.214,0-0.305-0.122
		c-0.071-0.092-0.076-0.209-0.081-0.321c0-0.148-0.01-0.29,0-0.438c0-0.071,0.005-0.143,0.01-0.219
		c0.005-0.066,0.01-0.081,0.02-0.117c0.056-0.158,0.178-0.193,0.229-0.204c0.056-0.015,0.127-0.015,0.143-0.015
		c0.168,0,0.265,0.092,0.295,0.148c0.046,0.071,0.046,0.168,0.046,0.356H117.603L117.603,42.371z"/>
	<path class="st16" d="M118.819,42.371c0-0.117,0-0.214-0.025-0.255c-0.01-0.015-0.025-0.031-0.071-0.031
		c-0.015,0-0.036,0.005-0.051,0.01c-0.031,0.025-0.041,0.066-0.051,0.107c-0.005,0.127-0.005,0.254-0.005,0.382
		c0,0.122,0.005,0.244,0.01,0.367c0,0.015,0.005,0.031,0.005,0.041c0.005,0.03,0.015,0.081,0.097,0.081
		c0.092,0,0.097-0.081,0.097-0.168c0-0.066,0-0.127,0-0.188l0.27,0.005c0,0.066,0,0.132,0,0.199c-0.005,0.102-0.01,0.188-0.076,0.27
		c-0.031,0.046-0.066,0.061-0.087,0.076c-0.031,0.01-0.107,0.036-0.204,0.036c-0.036,0-0.214,0-0.305-0.122
		c-0.071-0.092-0.076-0.209-0.076-0.321c-0.005-0.148-0.01-0.29-0.005-0.438c0.005-0.071,0.01-0.143,0.015-0.219
		c0.005-0.066,0.01-0.081,0.02-0.117c0.056-0.158,0.178-0.193,0.229-0.204c0.056-0.015,0.122-0.015,0.137-0.015
		c0.173,0,0.265,0.092,0.3,0.148c0.046,0.071,0.041,0.168,0.046,0.356H118.819L118.819,42.371z"/>
	<path class="st15" d="M119.221,42.32c-0.005-0.168,0.005-0.265,0.046-0.336c0.081-0.117,0.275-0.122,0.3-0.122
		c0.01,0,0.178,0.005,0.255,0.076c0.056,0.051,0.066,0.132,0.076,0.295v1.059h-0.26V43.18c-0.01,0.02-0.025,0.046-0.041,0.066
		c-0.041,0.041-0.117,0.056-0.173,0.056c-0.041,0-0.142-0.005-0.198-0.132c-0.036-0.081-0.031-0.209-0.031-0.29v-0.087
		c0.01-0.117,0.031-0.193,0.122-0.26c0.031-0.031,0.158-0.107,0.183-0.127c0.076-0.041,0.117-0.051,0.127-0.142
		c0.005-0.025,0.005-0.036,0.005-0.051c0-0.015,0-0.061-0.036-0.092c-0.01,0-0.031-0.01-0.051-0.01
		c-0.025,0-0.036,0.005-0.046,0.025c-0.031,0.036-0.036,0.092-0.031,0.183H119.221L119.221,42.32z M119.562,42.631
		c0,0.005-0.036,0.031-0.056,0.056c-0.025,0.025-0.041,0.081-0.041,0.178c0,0.031,0.005,0.066,0.01,0.097
		c0,0.041,0,0.071,0.031,0.097c0.01,0.005,0.02,0.015,0.041,0.015c0.015,0,0.031-0.005,0.041-0.01
		c0.031-0.02,0.041-0.051,0.041-0.081c0.01-0.061,0.01-0.214,0.005-0.412C119.613,42.59,119.588,42.61,119.562,42.631
		L119.562,42.631L119.562,42.631z"/>
	<path class="st15" d="M120.28,42.753c-0.005,0.143-0.005,0.244,0.025,0.29c0.015,0.031,0.056,0.046,0.097,0.046
		c0.102,0,0.112-0.127,0.112-0.153c0-0.01,0-0.041-0.01-0.066c-0.02-0.061-0.051-0.087-0.132-0.173
		c-0.051-0.046-0.102-0.097-0.148-0.148c-0.015-0.015-0.031-0.025-0.046-0.046c-0.041-0.036-0.137-0.127-0.137-0.295
		c0-0.025,0.005-0.097,0.036-0.163c0.036-0.092,0.112-0.178,0.316-0.178c0.183,0,0.254,0.056,0.3,0.127
		c0.061,0.102,0.056,0.219,0.056,0.336l-0.244-0.005c0.005-0.087,0.01-0.249-0.112-0.249c-0.056,0-0.097,0.056-0.097,0.112
		c0,0.071,0.071,0.132,0.127,0.183c0.031,0.036,0.056,0.066,0.087,0.102c0.031,0.025,0.061,0.051,0.092,0.081
		c0.107,0.107,0.163,0.204,0.163,0.351c0,0.02,0,0.204-0.066,0.29c-0.041,0.056-0.148,0.107-0.316,0.107
		c-0.229,0-0.311-0.127-0.341-0.234c-0.005-0.025-0.01-0.056-0.01-0.122v-0.193H120.28L120.28,42.753z"/>
	<path class="st15" d="M121.181,41.429v0.555c0.076-0.066,0.148-0.122,0.244-0.122c0.071,0,0.117,0.031,0.137,0.046
		c0.097,0.071,0.097,0.188,0.097,0.3v1.084h-0.27v-1.023c0-0.005,0.01-0.148-0.092-0.148c-0.01,0-0.046,0-0.066,0.025
		c-0.046,0.046-0.051,0.132-0.051,0.183v0.957h-0.27v-1.858H121.181L121.181,41.429z"/>
	<path class="st16" d="M121.683,40.706c0,0-5.767,0-5.783,0c-0.474,0-0.795-0.474-0.795-0.811c0-0.313,0.008-8.61,0-8.931
		c-0.008-0.321,0.554-0.819,0.932-0.819c0.378,0.008,5.638,0,5.638,0v4.184h-3.068v-1.984c0,0-0.201-0.008-0.458,0
		c-0.129,0.008-0.345,0.137-0.345,0.345c-0.008,0.434,0,5.445,0,5.574c0,0.12,0.08,0.281,0.345,0.289c0.265,0.016,0.466,0,0.466,0
		v-2.144h3.068V40.706L121.683,40.706z"/>
	<path class="st14" d="M111.515,30.145c0.635,0.008,5.261,0,5.261,0v6.265l-3.502-0.008c0,0,0,1.799,0,1.839
		c0,0.032,0.088,0.305,0.402,0.321c0.064,0,0.434,0,0.434,0v-1.55h2.674l-0.008,3.695h-5.285c0,0-0.795-0.128-0.867-0.9
		c0.008-0.289,0-8.714,0-8.859C110.623,30.811,110.928,30.145,111.515,30.145L111.515,30.145L111.515,30.145z M114.117,32.329
		c0,0-0.233-0.016-0.442-0.008c-0.217,0.008-0.402,0.217-0.402,0.345c0,0.129,0,1.663,0,1.663h0.843V32.329L114.117,32.329z"/>
	<path class="st15" d="M116.783,37.011h-1.679c0,1.526,0,2.763,0,2.883c0,0.329,0.321,0.803,0.787,0.811h0.883L116.783,37.011
		L116.783,37.011z"/>
	<path class="st15" d="M116.775,36.409v-6.265c-0.386,0-0.667,0-0.739,0c-0.377,0-0.94,0.498-0.932,0.819c0,0.185,0,3.02,0,5.445
		H116.775L116.775,36.409z"/>
</g>
</svg>
