<?xml version="1.0" encoding="utf-8"?>
<!-- Generator: Adobe Illustrator 26.0.1, SVG Export Plug-In . SVG Version: 6.00 Build 0)  -->
<svg version="1.1" id="Ebene_1" xmlns="http://www.w3.org/2000/svg" xmlns:xlink="http://www.w3.org/1999/xlink" x="0px" y="0px"
	 viewBox="0 0 15 11" style="enable-background:new 0 0 15 11;" xml:space="preserve">
<style type="text/css">
	.st0{fill:#4E6AB5;}
	.st1{fill:none;}
</style>
<path class="st0" d="M0,0v11h11V0H0z M10,10H1V1h9V10z"/>
<path id="path1312" class="st0" d="M7.539,6.97L6.077,8.431H5.148c-0.511,0-0.929-0.006-0.929-0.012
	c0-0.007,0.486-0.499,1.081-1.093C5.906,6.719,6.38,6.233,6.38,6.216c0-0.027-0.117-0.029-2.19-0.033L2,6.18V5.492V4.804L4.182,4.8
	c2.065-0.004,2.182-0.006,2.182-0.033c0-0.016-0.471-0.499-1.073-1.101c-0.59-0.59-1.073-1.078-1.073-1.085
	c0-0.007,0.418-0.012,0.929-0.012h0.929L7.538,4.03C8.342,4.834,9,5.495,9,5.5C9,5.504,8.342,6.166,7.539,6.97z"/>
<rect class="st1" width="15" height="11"/>
</svg>
