<svg xmlns="http://www.w3.org/2000/svg" viewBox="0 0 15 11"><defs><style>.cls-1{fill:#666;}.cls-2{fill:none;}</style></defs><g id="Ebene_2" data-name="Ebene 2"><g id="Icons"><path class="cls-1" d="M0,0V11H11V0ZM10,10H1V1h9Z"/><path id="path1312" class="cls-1" d="M8.23,4.85V6.92l-.66.66c-.36.36-.66.65-.67.65s0-.7,0-1.54,0-1.54,0-1.55A14.4,14.4,0,0,0,5.3,6.67L3.75,8.21l-.49-.49-.48-.48L4.32,5.69A16.46,16.46,0,0,0,5.84,4.13s-.69,0-1.54,0H2.77s.29-.31.65-.67l.66-.65H8.22S8.23,3.72,8.23,4.85Z"/></g><g id="_16x16_transparent" data-name="16x16 transparent"><rect class="cls-2" width="15" height="11"/></g></g></svg>