<?xml version="1.0" encoding="utf-8"?>
<!-- Generator: Adobe Illustrator 26.0.1, SVG Export Plug-In . SVG Version: 6.00 Build 0)  -->
<svg version="1.1" id="Ebene_1" xmlns="http://www.w3.org/2000/svg" xmlns:xlink="http://www.w3.org/1999/xlink" x="0px" y="0px"
	 viewBox="0 0 56 31" style="enable-background:new 0 0 56 31;" xml:space="preserve">
<style type="text/css">
	.st0{opacity:0.75;fill:url(#SVGID_1_);}
	.st1{opacity:0.75;fill:url(#SVGID_00000142862083752713300740000007739213534987327405_);}
	.st2{clip-path:url(#SVGID_00000125603258000355927180000007686666172973749386_);}
	.st3{clip-path:url(#SVGID_00000055672564974356176420000013915057489004433589_);}
	.st4{clip-path:url(#SVGID_00000101095641989504487170000008358104211406859189_);fill:#043EB2;}
	.st5{clip-path:url(#SVGID_00000101095641989504487170000008358104211406859189_);fill:#FFFFFF;}
	.st6{fill:url(#SVGID_00000108284061764473060830000008467860133931533742_);}
	.st7{opacity:0.55;}
	.st8{fill:#FFFFFF;}
	.st9{fill:#441E0E;}
	.st10{fill:#EA1B1B;}
	.st11{fill:none;}
</style>
<g>
	
		<radialGradient id="SVGID_1_" cx="39.1385" cy="26.1421" r="11.7559" gradientTransform="matrix(1 0 0 0.2 0 20.9137)" gradientUnits="userSpaceOnUse">
		<stop  offset="0" style="stop-color:#1A1A1A"/>
		<stop  offset="0.15" style="stop-color:#1E1E1E;stop-opacity:0.85"/>
		<stop  offset="0.2842" style="stop-color:#282828;stop-opacity:0.7158"/>
		<stop  offset="0.4126" style="stop-color:#3B3B3B;stop-opacity:0.5874"/>
		<stop  offset="0.5372" style="stop-color:#545454;stop-opacity:0.4628"/>
		<stop  offset="0.6593" style="stop-color:#767676;stop-opacity:0.3407"/>
		<stop  offset="0.7793" style="stop-color:#9E9E9E;stop-opacity:0.2207"/>
		<stop  offset="0.8955" style="stop-color:#CECECE;stop-opacity:0.1045"/>
		<stop  offset="1" style="stop-color:#FFFFFF;stop-opacity:0"/>
	</radialGradient>
	<ellipse class="st0" cx="39.138" cy="26.142" rx="16.1" ry="4.145"/>
	
		<radialGradient id="SVGID_00000089570419358600352780000011472984372177351056_" cx="16.8615" cy="26.1421" r="11.7559" gradientTransform="matrix(1 0 0 0.2 0 20.9137)" gradientUnits="userSpaceOnUse">
		<stop  offset="0" style="stop-color:#1A1A1A"/>
		<stop  offset="0.15" style="stop-color:#1E1E1E;stop-opacity:0.85"/>
		<stop  offset="0.2842" style="stop-color:#282828;stop-opacity:0.7158"/>
		<stop  offset="0.4126" style="stop-color:#3B3B3B;stop-opacity:0.5874"/>
		<stop  offset="0.5372" style="stop-color:#545454;stop-opacity:0.4628"/>
		<stop  offset="0.6593" style="stop-color:#767676;stop-opacity:0.3407"/>
		<stop  offset="0.7793" style="stop-color:#9E9E9E;stop-opacity:0.2207"/>
		<stop  offset="0.8955" style="stop-color:#CECECE;stop-opacity:0.1045"/>
		<stop  offset="1" style="stop-color:#FFFFFF;stop-opacity:0"/>
	</radialGradient>
	
		<ellipse style="opacity:0.75;fill:url(#SVGID_00000089570419358600352780000011472984372177351056_);" cx="16.862" cy="26.142" rx="16.1" ry="4.145"/>
	<g>
		<g>
			<defs>
				<polygon id="SVGID_00000018919134451075849570000018000054059659739785_" points="4.95,25.823 28.773,25.823 28.773,2 4.95,2 
					4.95,25.823 				"/>
			</defs>
			<defs>
				<polygon id="SVGID_00000135680316112254951420000006047937168069303970_" points="4.95,2 28.773,2 28.773,25.823 4.95,25.823 
					4.95,2 				"/>
			</defs>
			<clipPath id="SVGID_00000006684878321446188140000008682381972341498506_">
				<use xlink:href="#SVGID_00000018919134451075849570000018000054059659739785_"  style="overflow:visible;"/>
			</clipPath>
			
				<clipPath id="SVGID_00000141422250405013857870000004757473856787176366_" style="clip-path:url(#SVGID_00000006684878321446188140000008682381972341498506_);">
				<use xlink:href="#SVGID_00000135680316112254951420000006047937168069303970_"  style="overflow:visible;"/>
			</clipPath>
			<g style="clip-path:url(#SVGID_00000141422250405013857870000004757473856787176366_);">
				<defs>
					<polygon id="SVGID_00000145779364506466865230000010700933065270919860_" points="4.95,25.823 28.773,25.823 28.773,2 4.95,2 
						4.95,25.823 					"/>
				</defs>
				<clipPath id="SVGID_00000116193350757983705950000003718171398189797812_">
					<use xlink:href="#SVGID_00000145779364506466865230000010700933065270919860_"  style="overflow:visible;"/>
				</clipPath>
				<path style="clip-path:url(#SVGID_00000116193350757983705950000003718171398189797812_);fill:#043EB2;" d="M28.742,14.03
					c0,6.496-5.266,11.763-11.762,11.763S5.217,20.526,5.217,14.03c0-6.496,5.266-11.763,11.762-11.763S28.742,7.534,28.742,14.03
					L28.742,14.03z"/>
				<path style="clip-path:url(#SVGID_00000116193350757983705950000003718171398189797812_);fill:#FFFFFF;" d="M9.565,10.643
					c0-1.12,0.32-2,0.934-2.614c0.613-0.613,1.494-0.934,2.614-0.934c1.12,0,2.027,0.32,2.64,0.934
					c0.613,0.613,0.934,1.467,0.934,2.587c0.026,0.68-0.111,1.357-0.4,1.974c-0.268,0.504-0.676,0.92-1.174,1.2
					c-0.591,0.309-1.254,0.456-1.92,0.427c-0.66,0.019-1.316-0.109-1.92-0.373c-0.518-0.259-0.945-0.668-1.227-1.174
					C9.709,12.048,9.543,11.349,9.565,10.643L9.565,10.643z M11.672,10.643c0,0.694,0.133,1.2,0.373,1.494
					c0.264,0.296,0.644,0.462,1.04,0.453c0.405,0.014,0.796-0.152,1.067-0.453c0.24-0.293,0.373-0.827,0.373-1.6
					c0-0.64-0.133-1.12-0.4-1.414c-0.271-0.302-0.662-0.468-1.067-0.453c-0.396-0.009-0.777,0.157-1.04,0.453
					C11.76,9.586,11.64,10.113,11.672,10.643L11.672,10.643z"/>
				<path style="clip-path:url(#SVGID_00000116193350757983705950000003718171398189797812_);fill:#FFFFFF;" d="M22.394,11.256
					l1.867,0.56c-0.102,0.472-0.302,0.917-0.587,1.307c-0.268,0.345-0.616,0.619-1.014,0.8c-0.482,0.197-1,0.288-1.52,0.267
					c-0.629,0.022-1.256-0.087-1.84-0.32c-0.517-0.247-0.946-0.647-1.227-1.147c-0.367-0.639-0.543-1.371-0.507-2.107
					c0-1.147,0.293-2,0.907-2.614c0.613-0.613,1.467-0.907,2.56-0.907c0.723-0.032,1.438,0.154,2.054,0.533
					c0.533,0.397,0.918,0.96,1.094,1.6l-1.867,0.427c-0.032-0.166-0.106-0.322-0.213-0.453c-0.109-0.158-0.255-0.287-0.427-0.373
					c-0.183-0.088-0.384-0.133-0.587-0.133c-0.446-0.025-0.868,0.201-1.094,0.587c-0.221,0.418-0.322,0.888-0.293,1.36
					c0,0.774,0.107,1.28,0.347,1.574c0.516,0.536,1.362,0.572,1.92,0.08C22.202,11.995,22.35,11.635,22.394,11.256L22.394,11.256z"
					/>
				<path style="clip-path:url(#SVGID_00000116193350757983705950000003718171398189797812_);fill:#FFFFFF;" d="M10.312,18.884
					c-0.012-0.449,0.161-0.883,0.48-1.2c0.361-0.334,0.842-0.507,1.334-0.48c0.54-0.041,1.07,0.165,1.44,0.56
					c0.268,0.3,0.411,0.691,0.4,1.094c0.012,0.449-0.161,0.883-0.48,1.2c-0.361,0.334-0.842,0.507-1.334,0.48
					c-0.445,0.024-0.882-0.118-1.227-0.4C10.524,19.849,10.294,19.378,10.312,18.884L10.312,18.884z M11.512,18.858
					c-0.016,0.225,0.04,0.449,0.16,0.64c0.103,0.131,0.26,0.21,0.427,0.213c0.169,0.003,0.328-0.077,0.427-0.213
					c0.122-0.19,0.179-0.415,0.16-0.64c0.015-0.217-0.041-0.432-0.16-0.613c-0.103-0.131-0.26-0.21-0.427-0.213
					c-0.175,0.003-0.34,0.081-0.453,0.213C11.512,18.378,11.512,18.591,11.512,18.858L11.512,18.858z"/>
				<path style="clip-path:url(#SVGID_00000116193350757983705950000003718171398189797812_);fill:#FFFFFF;" d="M14.552,17.284
					h1.147v0.507c0.133-0.187,0.306-0.341,0.507-0.453c0.2-0.093,0.419-0.139,0.64-0.133c0.296-0.015,0.584,0.091,0.8,0.293
					c0.211,0.264,0.316,0.597,0.293,0.934v2.027h-1.227v-1.76c0.017-0.15-0.021-0.302-0.107-0.427
					c-0.084-0.086-0.2-0.134-0.32-0.133c-0.135-0.009-0.266,0.051-0.347,0.16c-0.103,0.187-0.15,0.4-0.133,0.613v1.52h-1.227v-3.147
					H14.552L14.552,17.284z"/>
				<polygon style="clip-path:url(#SVGID_00000116193350757983705950000003718171398189797812_);fill:#FFFFFF;" points="
					18.687,16.057 19.913,16.057 19.913,20.458 18.687,20.458 18.687,16.057 				"/>
				<path style="clip-path:url(#SVGID_00000116193350757983705950000003718171398189797812_);fill:#FFFFFF;" d="M20.42,17.284h1.28
					l0.667,2.107l0.613-2.107h1.2l-1.254,3.387c-0.082,0.287-0.228,0.551-0.427,0.774c-0.274,0.211-0.615,0.315-0.96,0.293
					c-0.277-0.009-0.553-0.035-0.827-0.08l-0.107-0.854c0.191,0.054,0.388,0.081,0.587,0.08c0.125,0.01,0.249-0.028,0.347-0.107
					c0.104-0.092,0.178-0.213,0.213-0.347L20.42,17.284z"/>
			</g>
		</g>
	</g>
	<g>
		
			<radialGradient id="SVGID_00000037693175867428828140000003503064612792997769_" cx="-16266.1201" cy="-12400.3652" r="890.2344" gradientTransform="matrix(0.0162 0 0 0.0162 305.707 211.8674)" gradientUnits="userSpaceOnUse">
			<stop  offset="0" style="stop-color:#FFFF00"/>
			<stop  offset="0.202" style="stop-color:#FFFB00"/>
			<stop  offset="0.3828" style="stop-color:#FFF100"/>
			<stop  offset="0.5556" style="stop-color:#FFDE00"/>
			<stop  offset="0.7233" style="stop-color:#FFC500"/>
			<stop  offset="0.886" style="stop-color:#FFA400"/>
			<stop  offset="1" style="stop-color:#FF8800"/>
		</radialGradient>
		<circle style="fill:url(#SVGID_00000037693175867428828140000003503064612792997769_);" cx="39.138" cy="13.928" r="11.911"/>
	</g>
	<g class="st7">
		<path id="XMLID_00000142889485379528097570000005865593469117256576_" class="st8" d="M39.257,18.299
			c-4.441,0-5.809-3.551-5.865-3.683c-0.092-0.214,0.008-0.462,0.222-0.554c0.212-0.091,0.46,0.007,0.553,0.22l0,0
			c0.047,0.11,1.225,2.696,5.09,2.696s5.043-2.586,5.091-2.696c0.094-0.212,0.342-0.307,0.554-0.218
			c0.213,0.092,0.312,0.339,0.22,0.552C45.066,14.748,43.697,18.299,39.257,18.299z"/>
	</g>
	<g>
		<path id="XMLID_00000129914013414786319540000014830440228077095091_" class="st9" d="M39.257,17.868
			c-4.441,0-5.809-3.551-5.865-3.683c-0.092-0.214,0.008-0.462,0.222-0.554c0.212-0.091,0.46,0.007,0.553,0.22l0,0
			c0.047,0.11,1.225,2.696,5.09,2.696s5.043-2.586,5.091-2.696c0.094-0.212,0.342-0.307,0.554-0.218
			c0.213,0.092,0.312,0.339,0.22,0.552C45.066,14.316,43.697,17.868,39.257,17.868z"/>
	</g>
	
		<ellipse transform="matrix(0.8025 -0.5967 0.5967 0.8025 -1.5724 22.7515)" class="st9" cx="33.579" cy="13.751" rx="1.033" ry="0.364"/>
	
		<ellipse transform="matrix(0.5967 -0.8025 0.8025 0.5967 6.9778 41.5602)" class="st9" cx="44.834" cy="13.838" rx="0.364" ry="1.033"/>
	<g>
		<path d="M36.742,10.012c0,0.569-0.387,1.03-0.865,1.03s-0.865-0.461-0.865-1.03V7.307c0-0.569,0.387-1.03,0.865-1.03
			s0.865,0.461,0.865,1.03V10.012z"/>
		<path d="M42.782,10.012c0,0.569-0.387,1.03-0.865,1.03s-0.865-0.461-0.865-1.03V7.307c0-0.569,0.387-1.03,0.865-1.03
			s0.865,0.461,0.865,1.03V10.012z"/>
	</g>
	<path class="st10" d="M16.372,17.275"/>
</g>
<rect class="st11" width="56" height="31"/>
</svg>
