<?xml version="1.0" encoding="utf-8"?>
<!-- Generator: Adobe Illustrator 26.0.1, SVG Export Plug-In . SVG Version: 6.00 Build 0)  -->
<svg version="1.1" id="Ebene_1" xmlns="http://www.w3.org/2000/svg" xmlns:xlink="http://www.w3.org/1999/xlink" x="0px" y="0px"
	 viewBox="0 0 64 35" style="enable-background:new 0 0 64 35;" xml:space="preserve">
<style type="text/css">
	.st0{opacity:0.75;fill:url(#SVGID_1_);}
	.st1{opacity:0.75;fill:url(#SVGID_00000174562792990745169120000006612029256875928744_);}
	.st2{clip-path:url(#SVGID_00000036210660075018129060000017653801353884079796_);}
	.st3{clip-path:url(#SVGID_00000028322978377428006430000009936894215812104349_);}
	.st4{clip-path:url(#SVGID_00000037687301218419677140000005926907081558384035_);fill:#043EB2;}
	.st5{clip-path:url(#SVGID_00000037687301218419677140000005926907081558384035_);fill:#FFFFFF;}
	.st6{fill:url(#SVGID_00000054242750686457689410000013160791716829620641_);}
	.st7{opacity:0.55;}
	.st8{fill:#FFFFFF;}
	.st9{fill:#441E0E;}
	.st10{fill:#EA1B1B;}
	.st11{fill:none;}
</style>
<g>
	
		<radialGradient id="SVGID_1_" cx="44.881" cy="29.9188" r="13.595" gradientTransform="matrix(1 0 0 0.2 0 23.9351)" gradientUnits="userSpaceOnUse">
		<stop  offset="0" style="stop-color:#1A1A1A"/>
		<stop  offset="0.15" style="stop-color:#1E1E1E;stop-opacity:0.85"/>
		<stop  offset="0.2842" style="stop-color:#282828;stop-opacity:0.7158"/>
		<stop  offset="0.4126" style="stop-color:#3B3B3B;stop-opacity:0.5874"/>
		<stop  offset="0.5372" style="stop-color:#545454;stop-opacity:0.4628"/>
		<stop  offset="0.6593" style="stop-color:#767676;stop-opacity:0.3407"/>
		<stop  offset="0.7793" style="stop-color:#9E9E9E;stop-opacity:0.2207"/>
		<stop  offset="0.8955" style="stop-color:#CECECE;stop-opacity:0.1045"/>
		<stop  offset="1" style="stop-color:#FFFFFF;stop-opacity:0"/>
	</radialGradient>
	<ellipse class="st0" cx="44.881" cy="29.919" rx="18.619" ry="4.794"/>
	
		<radialGradient id="SVGID_00000106839373667293451320000016472812430140522681_" cx="19.119" cy="29.9188" r="13.595" gradientTransform="matrix(1 0 0 0.2 0 23.9351)" gradientUnits="userSpaceOnUse">
		<stop  offset="0" style="stop-color:#1A1A1A"/>
		<stop  offset="0.15" style="stop-color:#1E1E1E;stop-opacity:0.85"/>
		<stop  offset="0.2842" style="stop-color:#282828;stop-opacity:0.7158"/>
		<stop  offset="0.4126" style="stop-color:#3B3B3B;stop-opacity:0.5874"/>
		<stop  offset="0.5372" style="stop-color:#545454;stop-opacity:0.4628"/>
		<stop  offset="0.6593" style="stop-color:#767676;stop-opacity:0.3407"/>
		<stop  offset="0.7793" style="stop-color:#9E9E9E;stop-opacity:0.2207"/>
		<stop  offset="0.8955" style="stop-color:#CECECE;stop-opacity:0.1045"/>
		<stop  offset="1" style="stop-color:#FFFFFF;stop-opacity:0"/>
	</radialGradient>
	
		<ellipse style="opacity:0.75;fill:url(#SVGID_00000106839373667293451320000016472812430140522681_);" cx="19.119" cy="29.919" rx="18.619" ry="4.794"/>
	<g>
		<g>
			<defs>
				<polygon id="SVGID_00000168082157333188641210000012294759047897801913_" points="5.344,29.55 32.894,29.55 32.894,2 5.344,2 
					5.344,29.55 				"/>
			</defs>
			<defs>
				<polygon id="SVGID_00000071549840847860510510000015363516563862307225_" points="5.344,2 32.894,2 32.894,29.55 5.344,29.55 
					5.344,2 				"/>
			</defs>
			<clipPath id="SVGID_00000023974684092108082210000014577922352281268386_">
				<use xlink:href="#SVGID_00000168082157333188641210000012294759047897801913_"  style="overflow:visible;"/>
			</clipPath>
			
				<clipPath id="SVGID_00000152974263823959565470000002042009678143777696_" style="clip-path:url(#SVGID_00000023974684092108082210000014577922352281268386_);">
				<use xlink:href="#SVGID_00000071549840847860510510000015363516563862307225_"  style="overflow:visible;"/>
			</clipPath>
			<g style="clip-path:url(#SVGID_00000152974263823959565470000002042009678143777696_);">
				<defs>
					<polygon id="SVGID_00000111158611827781171710000010322395529062247311_" points="5.344,29.55 32.894,29.55 32.894,2 5.344,2 
						5.344,29.55 					"/>
				</defs>
				<clipPath id="SVGID_00000018934080798853599230000010682139639208249248_">
					<use xlink:href="#SVGID_00000111158611827781171710000010322395529062247311_"  style="overflow:visible;"/>
				</clipPath>
				<path style="clip-path:url(#SVGID_00000018934080798853599230000010682139639208249248_);fill:#043EB2;" d="M32.858,15.912
					c0,7.513-6.09,13.603-13.602,13.603S5.653,23.425,5.653,15.912c0-7.513,6.09-13.603,13.602-13.603S32.858,8.399,32.858,15.912
					L32.858,15.912z"/>
				<path style="clip-path:url(#SVGID_00000018934080798853599230000010682139639208249248_);fill:#FFFFFF;" d="M10.681,11.995
					c0-1.295,0.37-2.313,1.08-3.023c0.709-0.709,1.727-1.08,3.023-1.08c1.295,0,2.344,0.37,3.054,1.08
					c0.709,0.709,1.08,1.696,1.08,2.992c0.03,0.787-0.129,1.569-0.463,2.283c-0.31,0.583-0.781,1.064-1.357,1.388
					c-0.684,0.357-1.45,0.527-2.221,0.494c-0.763,0.022-1.522-0.126-2.221-0.432c-0.599-0.299-1.093-0.772-1.419-1.357
					C10.847,13.62,10.656,12.811,10.681,11.995L10.681,11.995z M13.118,11.995c0,0.802,0.154,1.388,0.432,1.727
					c0.305,0.343,0.745,0.535,1.203,0.524c0.469,0.017,0.92-0.176,1.234-0.524c0.278-0.339,0.432-0.956,0.432-1.851
					c0-0.74-0.154-1.296-0.463-1.635c-0.313-0.349-0.765-0.541-1.234-0.524c-0.458-0.01-0.898,0.182-1.203,0.524
					C13.22,10.772,13.081,11.382,13.118,11.995L13.118,11.995z"/>
				<path style="clip-path:url(#SVGID_00000018934080798853599230000010682139639208249248_);fill:#FFFFFF;" d="M25.517,12.704
					l2.159,0.648c-0.118,0.546-0.35,1.06-0.679,1.511c-0.31,0.399-0.713,0.716-1.172,0.925c-0.557,0.228-1.157,0.333-1.758,0.308
					c-0.727,0.025-1.452-0.101-2.128-0.37c-0.598-0.286-1.094-0.749-1.419-1.326c-0.424-0.739-0.628-1.585-0.586-2.437
					c0-1.326,0.339-2.313,1.049-3.023c0.709-0.709,1.696-1.049,2.961-1.049c0.836-0.037,1.663,0.178,2.375,0.617
					c0.616,0.459,1.061,1.11,1.265,1.851l-2.159,0.494c-0.037-0.192-0.122-0.373-0.247-0.524c-0.126-0.183-0.295-0.332-0.494-0.432
					c-0.212-0.101-0.444-0.154-0.679-0.154c-0.515-0.029-1.004,0.233-1.265,0.679c-0.255,0.483-0.373,1.027-0.339,1.573
					c0,0.895,0.123,1.481,0.401,1.82c0.596,0.62,1.575,0.661,2.221,0.093C25.295,13.559,25.466,13.143,25.517,12.704L25.517,12.704z
					"/>
				<path style="clip-path:url(#SVGID_00000018934080798853599230000010682139639208249248_);fill:#FFFFFF;" d="M11.545,21.526
					c-0.014-0.519,0.187-1.022,0.555-1.388c0.418-0.386,0.974-0.587,1.542-0.555c0.625-0.047,1.237,0.191,1.666,0.648
					c0.31,0.347,0.475,0.799,0.463,1.265c0.014,0.519-0.187,1.022-0.555,1.388c-0.418,0.386-0.974,0.587-1.542,0.555
					c-0.514,0.028-1.02-0.137-1.419-0.463C11.791,22.641,11.524,22.097,11.545,21.526L11.545,21.526z M12.932,21.495
					c-0.018,0.26,0.047,0.519,0.185,0.74c0.119,0.152,0.3,0.243,0.494,0.247c0.195,0.003,0.379-0.089,0.493-0.247
					c0.142-0.22,0.207-0.48,0.185-0.74c0.018-0.25-0.047-0.5-0.185-0.709c-0.119-0.152-0.3-0.243-0.493-0.247
					c-0.202,0.003-0.393,0.093-0.524,0.247C12.932,20.94,12.932,21.186,12.932,21.495L12.932,21.495z"/>
				<path style="clip-path:url(#SVGID_00000018934080798853599230000010682139639208249248_);fill:#FFFFFF;" d="M16.449,19.675
					h1.326v0.586c0.154-0.216,0.354-0.395,0.586-0.524c0.232-0.108,0.485-0.161,0.74-0.154c0.342-0.017,0.676,0.105,0.925,0.339
					c0.244,0.305,0.366,0.69,0.339,1.08v2.344h-1.419V21.31c0.019-0.174-0.024-0.349-0.123-0.494c-0.097-0.1-0.231-0.155-0.37-0.154
					c-0.156-0.011-0.308,0.059-0.401,0.185c-0.119,0.217-0.173,0.463-0.154,0.709v1.758H16.48v-3.64H16.449L16.449,19.675z"/>
				<polygon style="clip-path:url(#SVGID_00000018934080798853599230000010682139639208249248_);fill:#FFFFFF;" points="
					21.23,18.256 22.648,18.256 22.648,23.346 21.23,23.346 21.23,18.256 				"/>
				<path style="clip-path:url(#SVGID_00000018934080798853599230000010682139639208249248_);fill:#FFFFFF;" d="M23.234,19.675
					h1.481l0.771,2.437l0.709-2.437h1.388l-1.45,3.917c-0.094,0.332-0.263,0.638-0.494,0.895c-0.317,0.244-0.711,0.365-1.11,0.339
					c-0.32-0.01-0.64-0.041-0.956-0.093l-0.123-0.987c0.221,0.063,0.449,0.094,0.679,0.093c0.145,0.012,0.288-0.033,0.401-0.123
					c0.12-0.106,0.206-0.246,0.247-0.401L23.234,19.675z"/>
			</g>
		</g>
	</g>
	<g>
		
			<radialGradient id="SVGID_00000141414344835835838760000013628075317030017417_" cx="-16131.0469" cy="-12439.3574" r="1029.5015" gradientTransform="matrix(0.0162 0 0 0.0162 309.6421 213.8349)" gradientUnits="userSpaceOnUse">
			<stop  offset="0" style="stop-color:#FFFF00"/>
			<stop  offset="0.202" style="stop-color:#FFFB00"/>
			<stop  offset="0.3828" style="stop-color:#FFF100"/>
			<stop  offset="0.5556" style="stop-color:#FFDE00"/>
			<stop  offset="0.7233" style="stop-color:#FFC500"/>
			<stop  offset="0.886" style="stop-color:#FFA400"/>
			<stop  offset="1" style="stop-color:#FF8800"/>
		</radialGradient>
		<circle style="fill:url(#SVGID_00000141414344835835838760000013628075317030017417_);" cx="44.881" cy="15.794" r="13.775"/>
	</g>
	<g class="st7">
		<path id="XMLID_00000105398433259055003990000018143319918251109046_" class="st8" d="M45.018,20.849
			c-5.135,0-6.718-4.107-6.782-4.259c-0.106-0.248,0.009-0.534,0.256-0.64c0.245-0.105,0.532,0.008,0.639,0.254l0,0
			c0.055,0.128,1.417,3.118,5.887,3.118s5.832-2.99,5.888-3.118c0.108-0.246,0.396-0.355,0.64-0.252
			c0.247,0.106,0.361,0.392,0.254,0.638C51.736,16.742,50.153,20.849,45.018,20.849z"/>
	</g>
	<g>
		<path id="XMLID_00000179608416701825361540000014939566639386884995_" class="st9" d="M45.018,20.35
			c-5.135,0-6.718-4.107-6.782-4.259c-0.106-0.248,0.009-0.534,0.256-0.64c0.245-0.105,0.532,0.008,0.639,0.254l0,0
			c0.055,0.128,1.417,3.118,5.887,3.118s5.832-2.99,5.888-3.118c0.108-0.246,0.396-0.355,0.64-0.252
			c0.247,0.106,0.361,0.392,0.254,0.638C51.736,16.243,50.153,20.35,45.018,20.35z"/>
	</g>
	
		<ellipse transform="matrix(0.8025 -0.5967 0.5967 0.8025 -1.7068 26.022)" class="st9" cx="38.451" cy="15.589" rx="1.195" ry="0.421"/>
	
		<ellipse transform="matrix(0.5967 -0.8025 0.8025 0.5967 8.1671 47.6305)" class="st9" cx="51.468" cy="15.69" rx="0.421" ry="1.195"/>
	<g>
		<path d="M42.11,11.266c0,0.658-0.447,1.191-1,1.191s-1-0.533-1-1.191V8.137c0-0.658,0.447-1.191,1-1.191s1,0.533,1,1.191V11.266z"
			/>
		<path d="M49.094,11.266c0,0.658-0.447,1.191-1,1.191s-1-0.533-1-1.191V8.137c0-0.658,0.447-1.191,1-1.191s1,0.533,1,1.191V11.266z
			"/>
	</g>
	<path class="st10" d="M18.553,19.665"/>
</g>
<rect class="st11" width="64" height="35"/>
</svg>
