<?xml version="1.0" encoding="utf-8"?>
<!-- Generator: Adobe Illustrator 26.0.1, SVG Export Plug-In . SVG Version: 6.00 Build 0)  -->
<svg version="1.1" id="Ebene_1" xmlns="http://www.w3.org/2000/svg" xmlns:xlink="http://www.w3.org/1999/xlink" x="0px" y="0px"
	 viewBox="0 0 12 12" style="enable-background:new 0 0 12 12;" xml:space="preserve">
<style type="text/css">
	.st0{fill:#4E6AB5;}
</style>
<polygon class="st0" points="8.182,7 8.182,11.182 0.818,11.182 0.818,3.818 5,3.818 5,3 0,3 0,12 9,12 9,7 "/>
<path id="path1312_00000108302041901315516810000005527946235427105430_" class="st0" d="M11.999,4.146c0,0-1.318,1.31-1.323,1.305
	s0.004-3.129,0.004-3.129s-0.136,0.106-1.605,1.569L3.988,8.973L3.502,8.486L3.015,8l5.075-5.081
	c1.457-1.463,1.576-1.575,1.576-1.575S6.553,1.358,6.548,1.353C6.543,1.348,7.853,0.001,7.853,0.001s4.142-0.003,4.145,0
	C12.002,0.005,11.999,4.146,11.999,4.146z"/>
</svg>
