<?xml version="1.0" encoding="utf-8"?>
<!-- Generator: Adobe Illustrator 26.0.1, SVG Export Plug-In . SVG Version: 6.00 Build 0)  -->
<svg version="1.1" id="Ebene_1" xmlns="http://www.w3.org/2000/svg" xmlns:xlink="http://www.w3.org/1999/xlink" x="0px" y="0px"
	 viewBox="0 0 38 38" style="enable-background:new 0 0 38 38;" xml:space="preserve">
<style type="text/css">
	.st0{fill:#B8B6B6;}
	.st1{fill:#FFFFFF;}
	.st2{fill:#5887B7;}
	.st3{fill:none;}
</style>
<g>
	<image style="overflow:visible;opacity:0.2;" width="38" height="38" xlink:href="FD0B3B4E.png"  transform="matrix(1 0 0 1 0 2)">
	</image>
	<g>
		<circle class="st0" cx="19" cy="19" r="13"/>
	</g>
</g>
<circle class="st1" cx="19" cy="19" r="11"/>
<path class="st2" d="M14.38,26V12h4.536c1.719,0,2.84,0.07,3.362,0.21c0.802,0.21,1.474,0.667,2.015,1.37
	c0.541,0.703,0.812,1.613,0.812,2.726c0,0.859-0.156,1.582-0.468,2.168c-0.312,0.586-0.708,1.046-1.189,1.38
	c-0.481,0.334-0.969,0.555-1.466,0.664c-0.674,0.134-1.652,0.201-2.932,0.201h-1.843V26H14.38z M17.207,14.368v3.973h1.547
	c1.114,0,1.859-0.073,2.235-0.22c0.376-0.147,0.67-0.376,0.883-0.688c0.214-0.312,0.32-0.674,0.32-1.089
	c0-0.51-0.149-0.93-0.449-1.261s-0.678-0.538-1.136-0.621c-0.338-0.063-1.016-0.095-2.034-0.095H17.207z"/>
<rect class="st3" width="38" height="38"/>
<rect class="st3" width="38" height="38"/>
</svg>
