<?xml version="1.0" encoding="utf-8"?>
<!-- Generator: Adobe Illustrator 26.0.1, SVG Export Plug-In . SVG Version: 6.00 Build 0)  -->
<svg version="1.1" id="Ebene_1" xmlns="http://www.w3.org/2000/svg" xmlns:xlink="http://www.w3.org/1999/xlink" x="0px" y="0px"
	 viewBox="0 0 38 38" style="enable-background:new 0 0 38 38;" xml:space="preserve">
<style type="text/css">
	.st0{fill:#B8B6B6;}
	.st1{fill:#FFFFFF;}
	.st2{fill:#5887B7;}
	.st3{fill:none;}
</style>
<g>
	<image style="overflow:visible;opacity:0.2;" width="38" height="38" xlink:href="AECDA767.png"  transform="matrix(1 0 0 1 0 2)">
	</image>
	<g>
		<circle class="st0" cx="19" cy="19" r="13"/>
	</g>
</g>
<circle class="st1" cx="19" cy="19" r="11"/>
<g>
	<path class="st2" d="M19.488,19.908c-0.031,0.113-0.056,0.199-0.071,0.25c-0.012,0.04-0.023,0.081-0.033,0.122
		c-0.649,2.803,1.12,3.098,1.12,3.098c1.428,0.228,2.126-1.035,2.377-1.647c0.086-0.209,0.174-0.417,0.265-0.623L19.488,19.908z"/>
	<g>
		<path class="st2" d="M20.035,17.377c-0.008,0.482-0.061,0.955-0.13,1.372l3.892,1.275c2.432-5.706,0.965-7.862-0.173-8.649
			c-0.726-0.502-1.695-0.504-2.408,0.017c-1.067,0.78-1.313,2.306-1.313,2.306c-0.179,1.117-0.033,2.245,0.056,2.761
			C20.013,16.762,20.04,17.069,20.035,17.377z"/>
		<path class="st2" d="M16.531,20.972c0.008,0.482,0.061,0.955,0.13,1.372l-3.892,1.275c-2.432-5.706-0.965-7.862,0.173-8.649
			c0.726-0.502,1.695-0.504,2.408,0.017c1.067,0.78,1.313,2.306,1.313,2.306c0.179,1.117,0.033,2.245-0.056,2.761
			C16.554,20.357,16.526,20.664,16.531,20.972z"/>
		<path class="st2" d="M16.911,23.503c0.031,0.113,0.056,0.199,0.071,0.25c0.012,0.04,0.023,0.081,0.033,0.122
			c0.649,2.803-1.12,3.098-1.12,3.098c-1.428,0.228-2.126-1.035-2.377-1.647c-0.086-0.209-0.174-0.417-0.265-0.623L16.911,23.503z"
			/>
	</g>
</g>
<rect class="st3" width="38" height="38"/>
<rect class="st3" width="38" height="38"/>
</svg>
