<?xml version="1.0" encoding="utf-8"?>
<!-- Generator: Adobe Illustrator 26.0.1, SVG Export Plug-In . SVG Version: 6.00 Build 0)  -->
<svg version="1.1" id="Ebene_1" xmlns="http://www.w3.org/2000/svg" xmlns:xlink="http://www.w3.org/1999/xlink" x="0px" y="0px"
	 viewBox="0 0 38 38" style="enable-background:new 0 0 38 38;" xml:space="preserve">
<style type="text/css">
	.st0{fill:#B8B6B6;}
	.st1{fill:#FFFFFF;}
	.st2{fill:#5887B7;}
	.st3{fill:none;}
</style>
<g>
	<image style="overflow:visible;opacity:0.2;" width="38" height="38" xlink:href="3C3F59EC.png"  transform="matrix(1 0 0 1 0 2)">
	</image>
	<g>
		<circle class="st0" cx="19" cy="19" r="13"/>
	</g>
</g>
<circle class="st1" cx="19" cy="19" r="11"/>
<path class="st2" d="M23.33,20.661h-1.042v-3.323h1.042c1.472,0,2.67-1.198,2.67-2.67C26,13.197,24.802,12,23.33,12
	s-2.669,1.197-2.669,2.669v1.043h-3.323v-1.043c0-1.472-1.197-2.669-2.669-2.669S12,13.197,12,14.669c0,1.472,1.198,2.67,2.67,2.67
	h1.042v3.323H14.67c-1.472,0-2.67,1.197-2.67,2.669c0,1.472,1.198,2.67,2.67,2.67s2.669-1.198,2.669-2.67v-1.042h3.323v1.042
	c0,1.472,1.197,2.67,2.669,2.67S26,24.802,26,23.33C26,21.859,24.802,20.661,23.33,20.661z M22.288,14.669
	c0-0.575,0.467-1.042,1.042-1.042s1.043,0.467,1.043,1.042c0,0.575-0.468,1.043-1.043,1.043h-1.042V14.669z M15.712,23.33
	c0,0.575-0.467,1.043-1.042,1.043s-1.043-0.468-1.043-1.043c0-0.575,0.468-1.042,1.043-1.042h1.042V23.33z M15.712,15.712H14.67
	c-0.575,0-1.043-0.468-1.043-1.043c0-0.575,0.468-1.042,1.043-1.042s1.042,0.467,1.042,1.042V15.712z M20.661,20.661h-3.323v-3.323
	h3.323V20.661z M23.33,24.374c-0.575,0-1.042-0.468-1.042-1.043v-1.042h1.042c0.575,0,1.043,0.467,1.043,1.042
	C24.374,23.906,23.906,24.374,23.33,24.374z"/>
<rect class="st3" width="38" height="38"/>
<rect class="st3" width="38" height="38"/>
</svg>
