<?xml version="1.0" encoding="utf-8"?>
<!-- Generator: Adobe Illustrator 26.0.1, SVG Export Plug-In . SVG Version: 6.00 Build 0)  -->
<svg version="1.1" id="Ebene_1" xmlns="http://www.w3.org/2000/svg" xmlns:xlink="http://www.w3.org/1999/xlink" x="0px" y="0px"
	 viewBox="0 0 38 38" style="enable-background:new 0 0 38 38;" xml:space="preserve">
<style type="text/css">
	.st0{fill:#B8B6B6;}
	.st1{fill:#FFFFFF;}
	.st2{fill:#5887B7;}
	.st3{fill:none;}
</style>
<g>
	<image style="overflow:visible;opacity:0.2;" width="38" height="38" xlink:href="369E44B4.png"  transform="matrix(1 0 0 1 0 2)">
	</image>
	<g>
		<circle class="st0" cx="19" cy="19" r="13"/>
	</g>
</g>
<circle class="st1" cx="19" cy="19" r="11"/>
<g>
	<circle class="st2" cx="19" cy="19" r="2.735"/>
	<g>
		<g>
			
				<rect x="21.808" y="14.692" transform="matrix(-0.7071 0.7071 -0.7071 -0.7071 52.1792 9.2363)" class="st2" width="4.738" height="1.465"/>
			
				<rect x="20.206" y="13.091" transform="matrix(-0.7071 0.7071 -0.7071 -0.7071 48.3129 7.6348)" class="st2" width="4.738" height="1.465"/>
		</g>
		<g>
			
				<rect x="13.056" y="23.444" transform="matrix(0.7071 -0.7071 0.7071 0.7071 -12.5777 17.9882)" class="st2" width="4.738" height="1.465"/>
			
				<rect x="11.454" y="21.843" transform="matrix(0.7071 -0.7071 0.7071 0.7071 -11.9143 16.3867)" class="st2" width="4.738" height="1.465"/>
		</g>
	</g>
	<g>
		<g>
			
				<rect x="20.206" y="23.444" transform="matrix(-0.7071 -0.7071 0.7071 -0.7071 21.4428 57.2352)" class="st2" width="4.738" height="1.465"/>
			
				<rect x="21.808" y="21.843" transform="matrix(-0.7071 -0.7071 0.7071 -0.7071 25.3091 55.6338)" class="st2" width="4.738" height="1.465"/>
		</g>
		<g>
			
				<rect x="11.454" y="14.692" transform="matrix(0.7071 0.7071 -0.7071 0.7071 14.9557 -5.2568)" class="st2" width="4.738" height="1.465"/>
			
				<rect x="13.056" y="13.091" transform="matrix(0.7071 0.7071 -0.7071 0.7071 14.2924 -6.8582)" class="st2" width="4.738" height="1.465"/>
		</g>
	</g>
</g>
<rect class="st3" width="38" height="38"/>
<rect class="st3" width="38" height="38"/>
</svg>
