<?xml version="1.0" encoding="utf-8"?>
<!-- Generator: Adobe Illustrator 26.0.1, SVG Export Plug-In . SVG Version: 6.00 Build 0)  -->
<svg version="1.1" id="Ebene_1" xmlns="http://www.w3.org/2000/svg" xmlns:xlink="http://www.w3.org/1999/xlink" x="0px" y="0px"
	 viewBox="0 0 14 19" style="enable-background:new 0 0 14 19;" xml:space="preserve">
<style type="text/css">
	.st0{fill:#5887B7;}
	.st1{fill:#FFFFFF;}
	.st2{fill:none;}
</style>
<path class="st0" d="M11.277,3.627c-0.338-1.898-3.123-2.045-3.924-2.075l0-0.011C7.341,1.543,7.301,1.545,7.248,1.547
	C7.195,1.545,7.155,1.543,7.143,1.541l0,0.011c-0.801,0.03-3.585,0.177-3.924,2.075c-0.388,2.175-0.24,11.014-0.24,11.014
	s-0.009,2.21,2.173,2.44c0.699,0.074,1.202,0.112,1.585,0.134l0,0.007c0,0,0.114,0.023,0.511,0.015
	c0.397,0.008,0.511-0.015,0.511-0.015l0-0.007c0.382-0.022,0.885-0.06,1.585-0.134c2.182-0.23,2.173-2.44,2.173-2.44
	S11.665,5.801,11.277,3.627z"/>
<path class="st1" d="M10.331,5.338c-0.259-1.453-2.39-1.565-3.003-1.588l0-0.008c-0.009,0.002-0.04,0.004-0.081,0.005
	c-0.04-0.002-0.071-0.003-0.081-0.005l0,0.008C6.554,3.772,4.423,3.885,4.165,5.338c-0.297,1.664-0.184,8.429-0.184,8.429
	s-0.007,1.691,1.663,1.867c0.535,0.056,0.92,0.086,1.213,0.103l0,0.006c0,0,0.087,0.017,0.391,0.011
	c0.304,0.006,0.391-0.011,0.391-0.011l0-0.006c0.292-0.017,0.678-0.046,1.213-0.103c1.67-0.176,1.663-1.867,1.663-1.867
	S10.628,7.002,10.331,5.338z"/>
<circle class="st0" cx="8.957" cy="5.682" r="0.856"/>
<rect x="4.871" y="7.695" class="st0" width="4.754" height="6.282"/>
<path class="st0" d="M3.284,4.655c0,0-0.728,0.297-0.773,0.491C2.466,5.339,2.362,6.023,2.362,6.9s0.223,1.368,0.669,1.606
	C3.477,8.743,3.284,4.655,3.284,4.655z"/>
<path class="st0" d="M3.284,9.244c0,0-0.728,0.297-0.773,0.491c-0.045,0.193-0.149,0.877-0.149,1.754s0.223,1.368,0.669,1.606
	C3.477,13.333,3.284,9.244,3.284,9.244z"/>
<rect class="st2" width="14" height="19"/>
</svg>
