<svg xmlns="http://www.w3.org/2000/svg" viewBox="0 0 16 16"><defs><style>.cls-1{fill:#fb9e3b;}.cls-2{fill:none;}</style></defs><g id="Ebene_2" data-name="Ebene 2"><g id="Icons"><path class="cls-1" d="M5.53,6.19h.11a4.07,4.07,0,0,1,0-.61A4.24,4.24,0,0,1,8,1.74a2.93,2.93,0,1,0-2.5,4.45Z"/><circle class="cls-1" cx="9.83" cy="5.58" r="3.25"/><path class="cls-1" d="M12.66,8.79A4.26,4.26,0,0,1,7,8.8a6.46,6.46,0,0,0-3.32,5.72,6.3,6.3,0,0,0,.1,1.15H15.9a6.3,6.3,0,0,0,.1-1.15A6.46,6.46,0,0,0,12.66,8.79Z"/><path class="cls-1" d="M6.39,8.07a4.46,4.46,0,0,1-.52-1H5.53A3.83,3.83,0,0,1,3,6.16a5.93,5.93,0,0,0-2.9,6.18h3A6.58,6.58,0,0,1,6.39,8.07Z"/></g><g id="_16x16_transparent" data-name="16x16 transparent"><rect class="cls-2" width="16" height="16"/></g></g></svg>