<?xml version="1.0" encoding="utf-8"?>
<!-- Generator: Adobe Illustrator 26.0.1, SVG Export Plug-In . SVG Version: 6.00 Build 0)  -->
<svg version="1.1" id="Ebene_1" xmlns="http://www.w3.org/2000/svg" xmlns:xlink="http://www.w3.org/1999/xlink" x="0px" y="0px"
	 viewBox="0 0 16 16" style="enable-background:new 0 0 16 16;" xml:space="preserve">
<style type="text/css">
	.st0{fill:#5281A9;}
	.st1{fill:#5887B7;}
	.st2{fill:#FFFFFF;}
	.st3{fill:none;}
</style>
<circle class="st0" cx="8" cy="7.976" r="7"/>
<g>
	<g>
		<path class="st1" d="M9.925,12.166H6.222v-0.428c0.102-0.008,0.201-0.018,0.299-0.029s0.182-0.031,0.252-0.059
			c0.125-0.047,0.213-0.114,0.264-0.202s0.076-0.204,0.076-0.349v-3.41c0-0.137-0.031-0.257-0.094-0.36S6.878,7.143,6.784,7.08
			c-0.07-0.047-0.177-0.092-0.319-0.135s-0.272-0.07-0.39-0.082V6.436l2.871-0.152l0.088,0.088v4.652
			c0,0.137,0.029,0.253,0.088,0.349s0.143,0.167,0.252,0.214c0.078,0.035,0.164,0.066,0.258,0.094s0.191,0.047,0.293,0.059V12.166z
			 M9.069,4.174c0,0.297-0.114,0.55-0.343,0.759S8.228,5.246,7.915,5.246c-0.316,0-0.589-0.104-0.817-0.313S6.755,4.471,6.755,4.174
			s0.114-0.551,0.343-0.762s0.501-0.316,0.817-0.316s0.588,0.105,0.814,0.316S9.069,3.877,9.069,4.174z"/>
	</g>
	<g>
		<path class="st2" d="M9.925,12.166H6.222v-0.428c0.102-0.008,0.201-0.018,0.299-0.029s0.182-0.031,0.252-0.059
			c0.125-0.047,0.213-0.114,0.264-0.202s0.076-0.204,0.076-0.349v-3.41c0-0.137-0.031-0.257-0.094-0.36S6.878,7.143,6.784,7.08
			c-0.07-0.047-0.177-0.092-0.319-0.135s-0.272-0.07-0.39-0.082V6.436l2.871-0.152l0.088,0.088v4.652
			c0,0.137,0.029,0.253,0.088,0.349s0.143,0.167,0.252,0.214c0.078,0.035,0.164,0.066,0.258,0.094s0.191,0.047,0.293,0.059V12.166z
			 M9.069,4.174c0,0.297-0.114,0.55-0.343,0.759S8.228,5.246,7.915,5.246c-0.316,0-0.589-0.104-0.817-0.313S6.755,4.471,6.755,4.174
			s0.114-0.551,0.343-0.762s0.501-0.316,0.817-0.316s0.588,0.105,0.814,0.316S9.069,3.877,9.069,4.174z"/>
	</g>
</g>
<rect class="st3" width="16" height="16"/>
</svg>
