<?xml version="1.0" encoding="utf-8"?>
<!-- Generator: Adobe Illustrator 26.0.1, SVG Export Plug-In . SVG Version: 6.00 Build 0)  -->
<svg version="1.1" id="Ebene_1" xmlns="http://www.w3.org/2000/svg" xmlns:xlink="http://www.w3.org/1999/xlink" x="0px" y="0px"
	 viewBox="0 0 16 16" style="enable-background:new 0 0 16 16;" xml:space="preserve">
<style type="text/css">
	.st0{fill-rule:evenodd;clip-rule:evenodd;fill:#61C620;}
	.st1{fill:none;}
</style>
<path class="st0" d="M7.98,8.667c1.052-1.396,1.961-2.601,3.353-2.601h0.574v1.822L15,4.711l-3.093-3.109v2.011h-0.574
	c-2.598,0-4.031,1.897-5.298,3.576L5.869,7.411c-1.007,1.342-1.876,2.5-3.189,2.5H1v2.452h1.679c2.519,0,3.993-1.958,5.177-3.531
	L7.98,8.667z M1.874,6.081c0.205,0,0.469,0.002,0.799,0.007c0.885,0.02,1.427,0.385,2.014,0.97l0.231,0.229l0.64-0.843
	c0.222-0.293,0.453-0.597,0.7-0.899l0.169-0.206L6.234,5.156C5.15,4.135,3.987,3.638,2.679,3.638H1v2.464l0.298-0.013
	C1.303,6.089,1.476,6.081,1.874,6.081z M11.907,9.926h-0.574c-0.75,0-1.402-0.333-2.118-1.08L8.98,8.599L8.779,8.875
	c-0.064,0.087-0.131,0.175-0.2,0.264c-0.291,0.386-0.604,0.802-0.947,1.21l-0.17,0.202l0.189,0.185
	c1.14,1.12,2.31,1.642,3.682,1.642h0.574v2.019L15,11.289l-3.093-3.176V9.926z"/>
<rect class="st1" width="16" height="16"/>
</svg>
