<svg xmlns="http://www.w3.org/2000/svg" viewBox="0 0 16 16"><defs><style>.cls-1{fill:#f66f65;}.cls-2{fill:#c6d4e4;}.cls-3{fill:none;}</style></defs><g id="Ebene_2" data-name="Ebene 2"><g id="Icons"><path class="cls-1" d="M14.57,3.11H12.89V1.53A.54.54,0,0,0,12.35,1H11.27a.54.54,0,0,0-.54.53V3.11H5.62V1.53A.54.54,0,0,0,5.08,1H4a.54.54,0,0,0-.54.53V3.11H1.65A.6.6,0,0,0,1,3.64V6H15V3.64A.48.48,0,0,0,14.57,3.11Z"/><path class="cls-2" d="M13.21,7H1v6.25A1.76,1.76,0,0,0,2.71,15h10.5A1.76,1.76,0,0,0,15,13.25V7Z"/></g><g id="_16x16_transparent" data-name="16x16 transparent"><rect class="cls-3" width="16" height="16"/></g></g></svg>