<svg xmlns="http://www.w3.org/2000/svg" viewBox="0 0 16 16"><defs><style>.cls-1{fill:#af4314;}.cls-2{fill:#fff;}.cls-3{fill:none;}</style></defs><g id="Ebene_2" data-name="Ebene 2"><g id="Icons"><circle class="cls-1" cx="8" cy="8" r="7"/><path class="cls-2" d="M6.81,12.22a3.91,3.91,0,0,1-1.36-.85A3.82,3.82,0,0,1,4.56,10a5.24,5.24,0,0,1-.33-1.93,5.22,5.22,0,0,1,.33-1.92A4.17,4.17,0,0,1,5.47,4.7a4,4,0,0,1,1.36-.9,4.46,4.46,0,0,1,1.64-.3,3.52,3.52,0,0,1,1.62.34,4.38,4.38,0,0,1,1.11.79l-1,1.25a3.75,3.75,0,0,0-.71-.49,1.94,1.94,0,0,0-.93-.2,2.17,2.17,0,0,0-.92.19,2.1,2.1,0,0,0-.73.56,2.59,2.59,0,0,0-.47.87A3.91,3.91,0,0,0,6.24,8a3.16,3.16,0,0,0,.61,2.08,2.23,2.23,0,0,0,1.83.74,1.81,1.81,0,0,0,.52-.07,1,1,0,0,0,.41-.2V9.05H8.17V7.45h3.17v4a3.86,3.86,0,0,1-1.2.75,4.38,4.38,0,0,1-1.66.3A4.8,4.8,0,0,1,6.81,12.22Z"/></g><g id="_16x16_transparent" data-name="16x16 transparent"><rect class="cls-3" width="16" height="16"/></g></g></svg>