<svg xmlns="http://www.w3.org/2000/svg" viewBox="0 0 30 30"><defs><style>.cls-1{fill:none;}.cls-2{fill:#5381a9;}</style></defs><g id="Ebene_2" data-name="Ebene 2"><g id="Ebene_1-2" data-name="Ebene 1"><rect class="cls-1" width="30" height="30"/><path class="cls-2" d="M15,1a9.72,9.72,0,0,0-9.72,9.72h0c0,2.66,1.62,6.69,5.14,12.13.77,1.23,2.09,3.24,4,5.83a.77.77,0,0,0,1.06.18,1.53,1.53,0,0,0,.18-.18c1.87-2.66,3.21-4.62,4-5.86q5.1-8.13,5.1-12A9.72,9.72,0,0,0,15.05,1Zm0,15.84a6,6,0,1,1,6-6,6,6,0,0,1-6,6ZM15,7a3.76,3.76,0,1,0,3.76,3.76h0A3.76,3.76,0,0,0,15,7Z"/></g></g></svg>