<svg xmlns="http://www.w3.org/2000/svg" viewBox="0 0 16 16"><defs><style>.cls-1{fill:#838181;}.cls-2{fill:none;}</style></defs><g id="Ebene_2" data-name="Ebene 2"><g id="Icons"><path class="cls-1" d="M13.35,6.73a.67.67,0,0,0-.51-.22H10.63a.7.7,0,0,0-.51.22.72.72,0,0,0-.21.55h.2a.84.84,0,0,1,.23,0,.69.69,0,0,1,.18,0,.52.52,0,0,1,.2.06.73.73,0,0,1,0,1.28.52.52,0,0,1-.2.06.69.69,0,0,1-.18,0H9.91a.76.76,0,0,0,.21.57.73.73,0,0,0,.51.21h2.2a.69.69,0,0,0,.5-.21.77.77,0,0,0,.23-.5V7.23A.66.66,0,0,0,13.35,6.73Zm-7.47,0a.73.73,0,0,0-.51-.21H3.17a.69.69,0,0,0-.51.21.74.74,0,0,0-.22.5V8.77a.66.66,0,0,0,.21.5.67.67,0,0,0,.51.22H5.37a.7.7,0,0,0,.5-.22.74.74,0,0,0,.22-.55H5.66a.69.69,0,0,1-.18,0,.52.52,0,0,1-.2-.06.73.73,0,0,1,0-1.28.52.52,0,0,1,.2-.06.69.69,0,0,1,.18,0,.84.84,0,0,1,.23,0h.2A.76.76,0,0,0,5.88,6.71Zm8.49-1A2,2,0,0,1,15,7.24V8.79a2.08,2.08,0,0,1-.63,1.52,2,2,0,0,1-1.54.63H10.63A2.19,2.19,0,0,1,8.47,8.72H7.53a2.17,2.17,0,0,1-2.16,2.21H3.16a2.05,2.05,0,0,1-1.53-.64A2,2,0,0,1,1,8.76V7.21a2.08,2.08,0,0,1,.63-1.52,2,2,0,0,1,1.54-.63H5.37a2.09,2.09,0,0,1,1.52.64,2.09,2.09,0,0,1,.64,1.58h.94a2.17,2.17,0,0,1,2.16-2.21h2.21A2.05,2.05,0,0,1,14.37,5.71Z"/></g><g id="_16x16_transparent" data-name="16x16 transparent"><rect class="cls-2" width="16" height="16"/></g></g></svg>