<svg xmlns="http://www.w3.org/2000/svg" viewBox="0 0 16 16"><defs><style>.cls-1{fill:#b7ed58;}.cls-2{fill:#53ad18;}.cls-3{fill:none;}</style></defs><g id="Ebene_2" data-name="Ebene 2"><g id="Icons"><rect class="cls-1" x="1" y="1" width="14" height="14"/><path class="cls-2" d="M8,6a2,2,0,1,0,2,2A2,2,0,0,0,8,6Zm4.9,1A5,5,0,0,0,9,3.1V1H7V3.1A5,5,0,0,0,3.1,7H1V9H3.1A5,5,0,0,0,7,12.9V15H9V12.9A5,5,0,0,0,12.9,9H15V7ZM8,12a4,4,0,1,1,4-4A4,4,0,0,1,8,12Z"/><path class="cls-2" d="M14,2V14H2V2H14m1-1H1V15H15V1Z"/></g><g id="_16x16_transparent" data-name="16x16 transparent"><rect class="cls-3" width="16" height="16"/></g></g></svg>