<svg xmlns="http://www.w3.org/2000/svg" viewBox="0 0 32 32"><defs><style>.cls-1{fill:#fff;}.cls-1,.cls-2{fill-rule:evenodd;}.cls-2{fill:#009b4f;}.cls-3{fill:none;}</style></defs><g id="Ebene_2" data-name="Ebene 2"><g id="Icons"><polygon class="cls-1" points="4.88 5.51 16 24.77 27.12 5.51 4.88 5.51"/><path id="path1882" class="cls-2" d="M2.86,3.76a.86.86,0,0,0-.74,1.29L15.25,27.81a.87.87,0,0,0,1.5,0L29.88,5.05a.86.86,0,0,0-.74-1.29Zm3,2.59L16,23.93,26.15,6.35Z"/><path id="path2869" d="M19.2,14.5a9.06,9.06,0,0,0-1.51-1A6.29,6.29,0,0,0,16.17,13a2.65,2.65,0,0,1-1.23-.5l-.21-.16-.09.08-.68.63c-.37.36-.39.37-.51.41a6.62,6.62,0,0,1-1,.2c-.13,0-.15,0-.22-.07a.82.82,0,0,1-.15-.42,2,2,0,0,0-.06-.25c-.14-.49,0-.62.65-.88a2.25,2.25,0,0,0,.54-.24,6,6,0,0,0-.76-.74A7,7,0,0,0,10.42,9.9a2.72,2.72,0,0,0-.62-.1c-.14,0-.11-.05.06-.09A.3.3,0,0,0,10,9.65l-.09,0c-.31-.06-.54-.18-.33-.18s.18,0,.18,0-.05,0-.12,0a1.65,1.65,0,0,1-.52-.2.65.65,0,0,1,.25,0c.17,0,.25,0,.25,0s0,0,0,0a4,4,0,0,1-.78-.5,2,2,0,0,1,.51.08l.16,0s0-.05-.11-.1l-.18-.13L9,8.3l-.16-.15a2.7,2.7,0,0,1,.4.14,2.31,2.31,0,0,0,.39.13,6.5,6.5,0,0,0-.68-.64c-.07,0-.09-.11,0-.09l.24.1a2.18,2.18,0,0,0,.81.26s0,0,0,0a3.51,3.51,0,0,1-.71-.6l.29.08.3.1s0,0-.08-.1a1.4,1.4,0,0,1-.34-.39s0,0,.06,0,.46.27.69.39c.42.21,1.8.76,2.28.91l.53.17a1.9,1.9,0,0,1,.88.57,4.84,4.84,0,0,0,1.1.8,1.29,1.29,0,0,0,1.05.16l.52-.08a.65.65,0,0,1,.39,0,1.6,1.6,0,0,0,.33.07.81.81,0,0,1,.27.07.58.58,0,0,1,.18.22.85.85,0,0,1-.21.05c-.36.05-.5.12-.59.3a.23.23,0,0,0,0,.29c.07.06.21.09.68.13a2,2,0,0,1,.76.19l.43.29a9,9,0,0,0,.91.59l1.19.59c.18.07-.16.07-.49,0s-.25,0-.17,0a6.32,6.32,0,0,1,.77.62s0,0-.37-.1a2.06,2.06,0,0,0-.36-.1,1.71,1.71,0,0,0,.35.29.57.57,0,0,1,.14.13,1.3,1.3,0,0,1-.32-.09,1.11,1.11,0,0,0-.31-.08,2.33,2.33,0,0,0,.35.33l.06.06a1.26,1.26,0,0,1-.29-.08,1,1,0,0,0-.28-.09s.19.24.31.33.11.12-.19,0l-.28-.1s0,0,.09.16.17.25.06.18a3.17,3.17,0,0,0-.4-.18s0,.07.1.18a.63.63,0,0,1,.1.15,1.06,1.06,0,0,1-.35-.16c-.1-.07-.1,0,0,.16s.08.15.07.15A2.07,2.07,0,0,1,19.2,14.5Zm-6.36-1,.42-.1A.84.84,0,0,0,13.8,13a4.12,4.12,0,0,1,.35-.31l.15-.15c0-.07-.05-.06-.17,0a2.24,2.24,0,0,1-.54.33L13.4,13c-.13.05-.17.05-.16,0s0-.06,0,0-.15,0-.14,0,0-.05-.1,0-.1,0-.06-.06a.27.27,0,0,0,0-.08,1,1,0,0,0-.3.08s0,0,0,0a5.29,5.29,0,0,1,.51-.74c.08-.1.14-.18.13-.19L13,12l-.39.15c-.3.11-.41.18-.46.3s-.06.23.1.83c.06.23.15.25.58.14ZM17,10.54a2,2,0,0,1,.34-.12c.09,0,.15,0,.14-.05s0-.06-.08-.08a.45.45,0,0,0-.26-.06.52.52,0,0,1-.28-.05c-.11-.06-.14,0-.74,0l-.47,0c-.13,0-.16,0-.06.06s.09,0,0,.1-.13.1-.05.1.06,0,0,.13-.09.09,0,.08l.16,0,.15,0c.07,0,.05,0,0,.12s-.07.08-.06.09a.42.42,0,0,0,.17,0l.17,0s0,0,0,.09,0,.08,0,.07l.15,0,.15,0s0,0,0,0,0,.05.21-.12a2.3,2.3,0,0,1,.41-.28Zm-.52-.22a.06.06,0,0,1,0-.08l.06,0,.06,0a.06.06,0,0,1,0,.08l-.06,0Z"/></g><g id="Boxen_transparent" data-name="Boxen transparent"><rect class="cls-3" width="32" height="32"/></g></g></svg>