<svg xmlns="http://www.w3.org/2000/svg" viewBox="0 0 18 18"><defs><style>.cls-1{fill:#7c7d7e;}.cls-2{fill:none;}</style></defs><g id="Ebene_2" data-name="Ebene 2"><g id="Icons"><path class="cls-1" d="M15.77,4.74H2.23A1.23,1.23,0,0,0,1,6v5.54a1.23,1.23,0,0,0,1.23,1.23h.7v3.6H15.07v-3.6h.7A1.23,1.23,0,0,0,17,11.51V6A1.23,1.23,0,0,0,15.77,4.74Zm-3,9.31H5.22V9h7.56ZM14.54,2.27a.62.62,0,0,0-.62-.61H4.08a.62.62,0,0,0-.62.61V3.51H14.54Z"/></g><g id="_18x18_Kopie" data-name="18x18 Kopie"><rect class="cls-2" width="18" height="18"/></g></g></svg>