<?xml version="1.0" encoding="utf-8"?>
<!-- Generator: Adobe Illustrator 26.0.1, SVG Export Plug-In . SVG Version: 6.00 Build 0)  -->
<svg version="1.1" id="Ebene_1" xmlns="http://www.w3.org/2000/svg" xmlns:xlink="http://www.w3.org/1999/xlink" x="0px" y="0px"
	 viewBox="0 0 18 18" style="enable-background:new 0 0 18 18;" xml:space="preserve">
<style type="text/css">
	.st0{fill:#5281A9;}
	.st1{fill:none;}
</style>
<path class="st0" d="M9,3.672C3.714,3.672,1,9,1,9s2.048,5.328,8,5.328c5.39,0,8-5.308,8-5.308S14.37,3.672,9,3.672z M9.012,12.33
	c-1.933,0-3.33-1.457-3.33-3.33c0-1.874,1.397-3.33,3.33-3.33s3.33,1.457,3.33,3.33C12.342,10.873,10.945,12.33,9.012,12.33z
	 M9.012,7.002C7.908,7.004,7.014,7.93,7.014,9c0,1.07,0.894,1.998,1.998,1.998S11.01,10.069,11.01,9
	C11.01,7.929,10.117,7,9.012,7.002z"/>
<rect class="st1" width="18" height="18"/>
</svg>
