<?xml version="1.0" encoding="utf-8"?>
<!-- Generator: Adobe Illustrator 26.0.1, SVG Export Plug-In . SVG Version: 6.00 Build 0)  -->
<svg version="1.1" id="Ebene_1" xmlns="http://www.w3.org/2000/svg" xmlns:xlink="http://www.w3.org/1999/xlink" x="0px" y="0px"
	 viewBox="0 0 16 16" style="enable-background:new 0 0 16 16;" xml:space="preserve">
<style type="text/css">
	.st0{fill:#5887B7;}
	.st1{fill:none;}
</style>
<path class="st0" d="M12.946,3.054c-0.317-0.317-0.664-0.604-1.037-0.856s-0.77-0.469-1.189-0.647C9.883,1.197,8.964,1,8,1
	C7.774,1,7.55,1.013,7.329,1.034c-0.075,0.007-0.147,0.02-0.221,0.03C6.963,1.082,6.819,1.102,6.677,1.13
	C6.59,1.146,6.504,1.168,6.418,1.188c-0.125,0.029-0.249,0.06-0.372,0.096C5.956,1.31,5.866,1.339,5.777,1.369
	c-0.114,0.038-0.227,0.08-0.338,0.124c-0.09,0.036-0.18,0.072-0.268,0.111c-0.106,0.047-0.21,0.099-0.314,0.152
	C4.77,1.8,4.682,1.843,4.597,1.89c-0.102,0.057-0.201,0.12-0.3,0.183c-0.08,0.05-0.162,0.098-0.24,0.151
	C3.892,2.337,3.732,2.456,3.578,2.582C2.13,3.767,1.168,5.52,1.026,7.495C1.01,7.661,1,7.828,1,8c0,3.855,3.145,7,7,7
	c0.964,0,1.883-0.197,2.72-0.552c0.418-0.178,0.816-0.395,1.189-0.647s0.72-0.539,1.037-0.856C14.214,11.678,15,9.928,15,8
	S14.214,4.322,12.946,3.054z M10.841,5.01l0.377-0.119l0.267,0.08l0.054-0.164L11.41,4.691l0.085-0.265l0.368-0.034l0.308-0.4
	l0.137-0.02c0.223,0.239,0.43,0.493,0.612,0.766l-0.161-0.043l-0.017,0.154l0.473,0.411l-0.08,0.351l-0.143-0.135l0.039-0.111
	l-0.537-0.289l-0.027-0.208l-0.243,0.182l-0.132-0.055l-0.389,0.617l-0.282,0.075l-0.555-0.103l-0.078-0.346L10.841,5.01z
	 M8.649,11.813L8,11.867l-0.977,1.535l-0.19,0.388c-0.279-0.056-0.547-0.137-0.81-0.231v-0.28l-0.217-0.827l0.112-1.348
	l-0.834-0.398l-0.52-0.697l0.102-0.661l0.524-0.5L4.564,8.366L4.255,8.51L3.513,7.757L2.642,7.667L2.558,6.952L2.262,6.623
	c0.554-2.306,2.46-4.085,4.831-4.453h0.014L8,2.45l0.203,0.446l-0.58,0.247H7.238l0.196-0.486L7.309,2.56L6.961,2.608L6.309,3.261
	l-0.25-0.291L5.332,3.261V3.81l0.816,0.5l0.835-1.143L8,4.065l0.042,0.652L6.677,4.712L4.977,6.4H3.701l-0.448,0.52l0.15,0.561
	l0.729-0.299L4.503,8l0.592,0.456l0.362-0.419L7.22,8.51l0.506,0.907l0.941,0.153l0.534,0.395L8.649,11.813z M12.884,11.317
	l-0.152-0.16l0.207-0.817l-0.575-1.439l-0.477-0.053l-1.2,0.179l-0.75-0.913L9.87,6.985l0.728-0.529l0.257-0.559l0.51-0.089
	l1.09-0.148v0.436l0.911,0.214h0.292c0.16,0.536,0.249,1.102,0.249,1.689C13.906,9.229,13.528,10.37,12.884,11.317z"/>
<rect class="st1" width="16" height="16"/>
</svg>
