<?xml version="1.0" encoding="utf-8"?>
<!-- Generator: Adobe Illustrator 26.0.1, SVG Export Plug-In . SVG Version: 6.00 Build 0)  -->
<svg version="1.1" id="Ebene_1" xmlns="http://www.w3.org/2000/svg" xmlns:xlink="http://www.w3.org/1999/xlink" x="0px" y="0px"
	 viewBox="0 0 15 13" style="enable-background:new 0 0 15 13;" xml:space="preserve">
<style type="text/css">
	.st0{fill:#C46112;}
	.st1{fill:none;}
	.st2{fill:#FFFFFF;}
</style>
<rect class="st0" width="15" height="13"/>
<rect y="1" class="st1" width="15" height="11"/>
<polygon class="st2" points="9,10 3,10 3,3 9,3 9,3 9,2 2,2 2,11 9,11 "/>
<path class="st2" d="M11.275,7.216c0,0-0.474,0.503-1.081,1.109C10.029,8.49,9.877,8.643,9.737,8.784h1.882l0.814-0.814
	c0.804-0.804,1.461-1.465,1.461-1.47s-0.658-0.666-1.462-1.47l-0.82-0.819h-1.88c0.139,0.14,0.29,0.291,0.454,0.455
	c0.602,0.602,1.073,1.085,1.073,1.101c0,0.027-4.364,0-4.364,0v0.725v0.724C6.895,7.216,11.275,7.216,11.275,7.216z"/>
</svg>
