<svg xmlns="http://www.w3.org/2000/svg" viewBox="0 0 16 16"><defs><style>.cls-1{fill:#7c7d7e;}.cls-2{fill:none;}</style></defs><g id="Ebene_2" data-name="Ebene 2"><g id="Icons"><path class="cls-1" d="M13.92,4.27H2.08A1.08,1.08,0,0,0,1,5.35v4.84a1.08,1.08,0,0,0,1.08,1.08h.61v3.15H13.31V11.27h.61A1.08,1.08,0,0,0,15,10.19V5.35A1.08,1.08,0,0,0,13.92,4.27Zm-2.61,8.15H4.69V8h6.62Zm1.54-10.3a.54.54,0,0,0-.54-.54H3.69a.54.54,0,0,0-.54.54V3.19h9.7Z"/></g><g id="_16x16_transparent" data-name="16x16 transparent"><rect class="cls-2" width="16" height="16"/></g></g></svg>