<?xml version="1.0" encoding="utf-8"?>
<!-- Generator: Adobe Illustrator 26.0.1, SVG Export Plug-In . SVG Version: 6.00 Build 0)  -->
<svg version="1.1" id="Ebene_1" xmlns="http://www.w3.org/2000/svg" xmlns:xlink="http://www.w3.org/1999/xlink" x="0px" y="0px"
	 viewBox="0 0 16 16" style="enable-background:new 0 0 16 16;" xml:space="preserve">
<style type="text/css">
	.st0{fill:#5281A9;}
	.st1{fill:#FF332E;}
	.st2{fill:none;}
</style>
<g>
	<path class="st0" d="M2.16,11.048l2.568-2.568C4.706,8.322,4.682,8.165,4.682,8c0-1.874,1.397-3.33,3.33-3.33
		c0.166,0,0.322,0.025,0.48,0.046l1.714-1.714C9.529,2.8,8.799,2.672,8,2.672C2.714,2.672,0,8,0,8S0.622,9.601,2.16,11.048z"/>
	<path class="st0" d="M13.721,5.071l-2.426,2.426c0.023,0.165,0.047,0.33,0.047,0.503c0,1.873-1.397,3.33-3.33,3.33
		c-0.174,0-0.338-0.025-0.503-0.048l-1.759,1.759c0.68,0.177,1.424,0.287,2.25,0.287c5.39,0,8-5.308,8-5.308
		S15.241,6.494,13.721,5.071z"/>
</g>
<g>
	
		<rect x="-0.96" y="7.026" transform="matrix(0.7071 -0.7071 0.7071 0.7071 -3.3137 7.9999)" class="st1" width="17.92" height="1.949"/>
</g>
<rect class="st2" width="16" height="16"/>
</svg>
