<?xml version="1.0" encoding="utf-8"?>
<!-- Generator: Adobe Illustrator 26.0.1, SVG Export Plug-In . SVG Version: 6.00 Build 0)  -->
<svg version="1.1" id="Ebene_1" xmlns="http://www.w3.org/2000/svg" xmlns:xlink="http://www.w3.org/1999/xlink" x="0px" y="0px"
	 viewBox="0 0 16 16" style="enable-background:new 0 0 16 16;" xml:space="preserve">
<style type="text/css">
	.st0{fill:#5281A9;}
	.st1{fill:none;}
</style>
<path class="st0" d="M13.086,1H2.914C1.857,1,1,1.857,1,2.914v10.172C1,14.143,1.857,15,2.914,15h10.172
	C14.143,15,15,14.143,15,13.086V2.914C15,1.857,14.143,1,13.086,1z M11.015,3.253c0.778,0,1.409,0.631,1.409,1.409
	c0,0.778-0.631,1.409-1.409,1.409c-0.778,0-1.409-0.631-1.409-1.409C9.607,3.883,10.237,3.253,11.015,3.253z M2.774,12.557
	l3.085-7.765l2.345,5.769l1.789-2.406l3.332,4.402H2.774z"/>
<rect class="st1" width="16" height="16"/>
</svg>
