<?xml version="1.0" encoding="utf-8"?>
<!-- Generator: Adobe Illustrator 26.0.1, SVG Export Plug-In . SVG Version: 6.00 Build 0)  -->
<svg version="1.1" id="Ebene_1" xmlns="http://www.w3.org/2000/svg" xmlns:xlink="http://www.w3.org/1999/xlink" x="0px" y="0px"
	 viewBox="0 0 16 16" style="enable-background:new 0 0 16 16;" xml:space="preserve">
<style type="text/css">
	.st0{fill:#FF332E;}
	.st1{fill:#5281A9;}
	.st2{fill:none;}
</style>
<path class="st0" d="M6.524,3.473c1.683,0,3.051,1.369,3.051,3.051S8.207,9.576,6.524,9.576S3.473,8.207,3.473,6.525
	S4.842,3.473,6.524,3.473 M6.524,0.973c-3.066,0-5.551,2.485-5.551,5.551c0,3.066,2.485,5.551,5.551,5.551s5.551-2.485,5.551-5.551
	C12.076,3.459,9.59,0.973,6.524,0.973L6.524,0.973z"/>
<path class="st1" d="M14.812,12.97l-3.092-3.092c-0.477,0.737-1.105,1.365-1.843,1.842l3.093,3.092c0.252,0.252,0.669,0.25,0.921,0
	l0.921-0.921C15.063,13.639,15.063,13.222,14.812,12.97z"/>
<rect class="st2" width="16" height="16"/>
</svg>
