<svg xmlns="http://www.w3.org/2000/svg" viewBox="0 0 16 16"><defs><style>.cls-1{fill:#5281a9;}.cls-2{fill:none;}</style></defs><g id="Ebene_2" data-name="Ebene 2"><g id="Icons"><path class="cls-1" d="M13,3.31H10.82V2.66a1.6,1.6,0,0,0-1.6-1.59H6.78a1.6,1.6,0,0,0-1.6,1.59v.65H3a.63.63,0,0,0-.63.63A.63.63,0,0,0,3,4.57H13a.63.63,0,0,0,.62-.63A.63.63,0,0,0,13,3.31Z"/><path class="cls-1" d="M3.31,5.67v7.19a2.08,2.08,0,0,0,2.08,2.07h5.22a2.08,2.08,0,0,0,2.08-2.07V5.67Z"/></g><g id="_16x16_transparent" data-name="16x16 transparent"><rect class="cls-2" width="16" height="16"/></g></g></svg>