<?xml version="1.0" encoding="utf-8"?>
<!-- Generator: Adobe Illustrator 26.0.1, SVG Export Plug-In . SVG Version: 6.00 Build 0)  -->
<svg version="1.1" id="Ebene_1" xmlns="http://www.w3.org/2000/svg" xmlns:xlink="http://www.w3.org/1999/xlink" x="0px" y="0px"
	 viewBox="0 0 16 16" style="enable-background:new 0 0 16 16;" xml:space="preserve">
<style type="text/css">
	.st0{fill:#5281A9;}
	.st1{fill:none;}
</style>
<path class="st0" d="M8,2.672C2.714,2.672,0,8,0,8s2.048,5.328,8,5.328c5.39,0,8-5.308,8-5.308S13.37,2.672,8,2.672z M8.012,11.33
	c-1.933,0-3.33-1.457-3.33-3.33c0-1.874,1.397-3.33,3.33-3.33s3.33,1.457,3.33,3.33C11.342,9.873,9.945,11.33,8.012,11.33z
	 M8.012,6.002C6.908,6.004,6.014,6.93,6.014,8c0,1.07,0.894,1.998,1.998,1.998S10.01,9.069,10.01,8C10.01,6.929,9.117,6,8.012,6.002
	z"/>
<rect class="st1" width="16" height="16"/>
</svg>
