<?xml version="1.0" encoding="utf-8"?>
<!-- Generator: Adobe Illustrator 26.0.1, SVG Export Plug-In . SVG Version: 6.00 Build 0)  -->
<svg version="1.1" id="Ebene_1" xmlns="http://www.w3.org/2000/svg" xmlns:xlink="http://www.w3.org/1999/xlink" x="0px" y="0px"
	 viewBox="0 0 16 16" style="enable-background:new 0 0 16 16;" xml:space="preserve">
<style type="text/css">
	.st0{fill-rule:evenodd;clip-rule:evenodd;fill:#61C620;}
	.st1{fill:#5281A9;}
	.st2{fill:none;}
</style>
<g>
	<path class="st0" d="M6.538,3.487c1.683,0,3.051,1.369,3.051,3.051S8.22,9.589,6.538,9.589S3.486,8.221,3.486,6.538
		S4.855,3.487,6.538,3.487 M6.538,0.987c-3.066,0-5.551,2.485-5.551,5.551c0,3.066,2.485,5.551,5.551,5.551s5.551-2.485,5.551-5.551
		C12.089,3.472,9.604,0.987,6.538,0.987L6.538,0.987z"/>
	<path class="st1" d="M14.825,12.984l-3.092-3.092c-0.477,0.737-1.105,1.365-1.843,1.842l3.093,3.092
		c0.252,0.252,0.669,0.25,0.921,0l0.921-0.921C15.077,13.653,15.077,13.235,14.825,12.984z"/>
</g>
<rect class="st2" width="16" height="16"/>
</svg>
