<svg xmlns="http://www.w3.org/2000/svg" viewBox="0 0 18 16"><defs><style>.cls-1{fill:#5281a9;}.cls-2{fill:none;}</style></defs><g id="Ebene_2" data-name="Ebene 2"><g id="Icons"><path class="cls-1" d="M17.917,4.484,12.509,9.965a1.476,1.476,0,0,1-1.058.444H8.084A2.9,2.9,0,0,0,6,11.282L4.02,13.293a.28.28,0,0,1-.4,0L.083,9.71a.29.29,0,0,1,0-.407L3.632,5.262A3.463,3.463,0,0,1,6.114,4.22h5.421a.593.593,0,0,1,.425.177.619.619,0,0,1,0,.866l-.9.91a.6.6,0,0,1-.427.179H8.2a.244.244,0,0,0-.173.073,2.714,2.714,0,0,0-.072.62.253.253,0,0,0,.245.248H11.02a.916.916,0,0,0,.657-.276l2.9-2.939a2.343,2.343,0,0,1,3.34,0A.29.29,0,0,1,17.917,4.484Z"/></g><g id="_16x16_transparent" data-name="16x16 transparent"><rect class="cls-2" width="18" height="16"/></g></g></svg>