<?xml version="1.0" encoding="utf-8"?>
<!-- Generator: Adobe Illustrator 26.0.0, SVG Export Plug-In . SVG Version: 6.00 Build 0)  -->
<svg version="1.1" id="Ebene_1" xmlns="http://www.w3.org/2000/svg" xmlns:xlink="http://www.w3.org/1999/xlink" x="0px" y="0px"
	 viewBox="0 0 16 16" style="enable-background:new 0 0 16 16;" xml:space="preserve">
<style type="text/css">
	.st0{fill:#F48939;}
	.st1{fill:#FFFFFF;}
</style>
<g id="Ebene_2_00000024001186260201853510000001644155530520412091_">
	<g id="aktiv">
		<path class="st0" d="M3,0h10c1.7,0,3,1.3,3,3v10c0,1.7-1.3,3-3,3H3c-1.7,0-3-1.3-3-3V3C0,1.3,1.3,0,3,0z"/>
	</g>
	<g id="Icons">
		<path class="st1" d="M10.1,8.9v0.5H1.7V8.9c0-0.8,0.6-1.4,1.4-1.4h5.7C9.5,7.6,10.1,8.2,10.1,8.9z"/>
		<path class="st1" d="M9.4,10.1v2.7c0,0.7-0.6,1.4-1.4,1.4H3.8c-0.8,0-1.4-0.6-1.4-1.4v-2.7H9.4z"/>
		<path class="st1" d="M6.6,6.6h2.2c1.3,0,2.4,1.1,2.4,2.4V9h1c0.8,0,1.4-0.6,1.4-1.4l0,0V5H6.6V6.6z M12.9,2.5H7.2
			c-0.8,0-1.4,0.6-1.4,1.4v0.4h8.4V3.9C14.2,3.1,13.6,2.5,12.9,2.5L12.9,2.5z"/>
	</g>
</g>
</svg>
