<?xml version="1.0" encoding="utf-8"?>
<!-- Generator: Adobe Illustrator 26.0.1, SVG Export Plug-In . SVG Version: 6.00 Build 0)  -->
<svg version="1.1" id="Ebene_1" xmlns="http://www.w3.org/2000/svg" xmlns:xlink="http://www.w3.org/1999/xlink" x="0px" y="0px"
	 viewBox="0 0 16 16" style="enable-background:new 0 0 16 16;" xml:space="preserve">
<style type="text/css">
	.st0{fill:#ED66CD;}
	.st1{opacity:0.5;fill:none;}
	.st2{fill:#FFFFFF;}
</style>
<g>
	<path class="st0" d="M13,16H3c-1.6,0-3-1.4-3-3V3c0-1.6,1.4-3,3-3h10c1.6,0,3,1.4,3,3v10C16,14.6,14.6,16,13,16z"/>
</g>
<g>
	<rect x="0" class="st1" width="16" height="16"/>
</g>
<path class="st2" d="M8.3,1.6C6.5,1.6,5,3,5,4.8c0,0.9,0.4,1.8,1,2.3l2.2-2.2l2.2,2.2c0.6-0.6,1-1.4,1-2.3C11.5,3,10,1.6,8.3,1.6z"
	/>
<path class="st2" d="M12,10L8.3,6.3L4.7,10h2.1c0,0.9,0,0.8,0,1.2c0,1.4,0,2.4-2.9,0.9c0,0,0.6,2.4,3.4,2.4c2.9,0.1,2.7-3.3,2.7-4.5
	L12,10z"/>
</svg>
