<?xml version="1.0" encoding="utf-8"?>
<!-- Generator: Adobe Illustrator 26.0.0, SVG Export Plug-In . SVG Version: 6.00 Build 0)  -->
<svg version="1.1" id="Ebene_1" xmlns="http://www.w3.org/2000/svg" xmlns:xlink="http://www.w3.org/1999/xlink" x="0px" y="0px"
	 viewBox="0 0 16 16" style="enable-background:new 0 0 16 16;" xml:space="preserve">
<style type="text/css">
	.st0{fill:#469B37;}
	.st1{fill:#FFFFFF;}
</style>
<g id="Ebene_2_00000154403588482594571960000004707250163739583648_">
	<g id="aktiv">
		<path class="st0" d="M3,0h10c1.7,0,3,1.3,3,3v10c0,1.7-1.3,3-3,3H3c-1.7,0-3-1.3-3-3V3C0,1.3,1.3,0,3,0z"/>
	</g>
	<g id="Icons">
		<path class="st1" d="M14.5,6.2v0.5h-13V6.2c0-0.8,0.7-1.5,1.5-1.5c0,0,0,0,0,0h10C13.8,4.7,14.5,5.4,14.5,6.2z"/>
		<path class="st1" d="M13.7,7.4v2.9c0,0.8-0.7,1.5-1.5,1.5H3.8c-0.8,0-1.5-0.7-1.5-1.5V7.4H13.7z"/>
	</g>
</g>
</svg>
