<?xml version="1.0" encoding="utf-8"?>
<!-- Generator: Adobe Illustrator 26.0.1, SVG Export Plug-In . SVG Version: 6.00 Build 0)  -->
<svg version="1.1" id="Ebene_1" xmlns="http://www.w3.org/2000/svg" xmlns:xlink="http://www.w3.org/1999/xlink" x="0px" y="0px"
	 viewBox="0 0 16 16" style="enable-background:new 0 0 16 16;" xml:space="preserve">
<style type="text/css">
	.st0{fill:#92A525;}
	.st1{fill:#FFFFFF;}
</style>
<g>
	<path class="st0" d="M13,16H3c-1.6,0-3-1.4-3-3V3c0-1.6,1.4-3,3-3h10c1.6,0,3,1.4,3,3v10C16,14.6,14.6,16,13,16z"/>
</g>
<path class="st1" d="M13.6,7l-1-2.9c-0.3-0.8-1-1.3-1.9-1.3H5.3c-0.8,0-1.6,0.5-1.9,1.3L2.4,7C1.8,7.4,1.5,8,1.5,8.7v3.5
	c0,0.6,0.4,1,1,1s1-0.4,1-1v-0.6c0,0,2.6,0.1,4.5,0.1s4.5-0.1,4.5-0.1v0.6c0,0.6,0.4,1,1,1s1-0.4,1-1V8.7C14.5,8,14.2,7.4,13.6,7z
	 M3.8,6.1l0.6-1.6C4.5,4,4.9,3.8,5.3,3.8h5.4c0.4,0,0.8,0.3,0.9,0.7l0.6,1.6c0.1,0.3-0.1,0.5-0.4,0.5c-1-0.2-2.2-0.3-3.8-0.3
	S5.2,6.4,4.2,6.5C3.9,6.6,3.7,6.3,3.8,6.1z M3.8,9.8C3.3,9.8,3,9.4,3,9s0.3-0.8,0.8-0.8S4.5,8.6,4.5,9C4.5,9.4,4.2,9.8,3.8,9.8z
	 M9.5,9.2h-3C6.2,9.2,6,9,6,8.8s0.2-0.5,0.5-0.5h3c0.3,0,0.5,0.2,0.5,0.5S9.8,9.2,9.5,9.2z M12.2,9.8c-0.4,0-0.8-0.3-0.8-0.8
	s0.3-0.8,0.8-0.8S13,8.6,13,9C13,9.4,12.7,9.8,12.2,9.8z"/>
</svg>
