<svg xmlns="http://www.w3.org/2000/svg" viewBox="0 0 16 16"><defs><style>.cls-1{fill:#31a5a8;}.cls-2{fill:#fff;}</style></defs><g id="Ebene_2" data-name="Ebene 2"><g id="aktiv"><rect class="cls-1" width="16" height="16" rx="3"/></g><g id="Icons"><path class="cls-2" d="M9,5.26c0-.67-.52-1-1.2-1A2.46,2.46,0,0,0,6.08,5L4.76,3.78A4.21,4.21,0,0,1,7.91,2.31c1.87,0,3.33.86,3.33,2.65,0,2.14-2.65,2.41-2.45,4.28H6.7C6.35,7.07,9,6.47,9,5.26ZM6.19,11.93A1.56,1.56,0,0,1,7.81,10.3a1.57,1.57,0,0,1,1.63,1.63,1.59,1.59,0,0,1-1.63,1.65A1.58,1.58,0,0,1,6.19,11.93Z"/></g></g></svg>