<?xml version="1.0" encoding="utf-8"?>
<!-- Generator: Adobe Illustrator 26.0.1, SVG Export Plug-In . SVG Version: 6.00 Build 0)  -->
<svg version="1.1" id="Ebene_1" xmlns="http://www.w3.org/2000/svg" xmlns:xlink="http://www.w3.org/1999/xlink" x="0px" y="0px"
	 viewBox="0 0 16 16" style="enable-background:new 0 0 16 16;" xml:space="preserve">
<style type="text/css">
	.st0{fill:#2A8FD3;}
	.st1{fill:#FFFFFF;}
</style>
<g>
	<path class="st0" d="M13,16H3c-1.65,0-3-1.35-3-3V3c0-1.65,1.35-3,3-3h10c1.65,0,3,1.35,3,3v10C16,14.65,14.65,16,13,16z"/>
</g>
<path class="st1" d="M3.232,7.452c0.321,0,0.619,0.1,0.865,0.269l0,0c0,0,0.36,0.245,0.747,0.51V4.788h3.528
	C8.108,4.4,7.863,4.041,7.863,4.041l0,0C7.694,3.794,7.594,3.496,7.594,3.175c0-0.844,0.684-1.529,1.529-1.529
	s1.529,0.684,1.529,1.529c0,0.321-0.1,0.619-0.269,0.865l0,0c0,0-0.245,0.36-0.51,0.747h3.443v3.451
	C12.924,7.97,12.557,7.72,12.557,7.72l0,0c-0.246-0.169-0.544-0.269-0.865-0.269c-0.844,0-1.529,0.684-1.529,1.529
	s0.684,1.529,1.529,1.529c0.321,0,0.619-0.1,0.865-0.269l0,0c0,0,0.367-0.25,0.758-0.518v3.536H4.845V9.73
	c-0.387,0.266-0.747,0.51-0.747,0.51l0,0c-0.246,0.169-0.544,0.269-0.865,0.269c-0.844,0-1.529-0.684-1.529-1.529
	S2.388,7.452,3.232,7.452z"/>
</svg>
