<svg xmlns="http://www.w3.org/2000/svg" viewBox="0 0 20 20"><defs><style>.cls-1{fill:#92a525;}.cls-2{fill:#fff;}</style></defs><g id="Ebene_2" data-name="Ebene 2"><g id="aktiv"><rect class="cls-1" width="20" height="20" rx="3.75"/></g><g id="Icons"><path class="cls-2" d="M17,8.79,15.72,5.11a2.5,2.5,0,0,0-2.36-1.67H6.64A2.5,2.5,0,0,0,4.28,5.11L3,8.79a2.49,2.49,0,0,0-1.12,2.09v4.43a1.25,1.25,0,1,0,2.49,0v-.79s3.31.17,5.63.17,5.62-.17,5.62-.17v.79a1.25,1.25,0,0,0,2.5,0V10.88A2.49,2.49,0,0,0,17,8.79ZM4.75,7.57l.71-2.05a1.25,1.25,0,0,1,1.18-.83h6.72a1.25,1.25,0,0,1,1.18.83l.71,2.05a.44.44,0,0,1-.49.59A29.59,29.59,0,0,0,10,7.81a29.59,29.59,0,0,0-4.76.35A.44.44,0,0,1,4.75,7.57Zm-.06,4.62a.94.94,0,1,1,.93-.94A.94.94,0,0,1,4.69,12.19Zm7.18-.63H8.12a.63.63,0,0,1,0-1.25h3.75a.63.63,0,1,1,0,1.25Zm3.44.63a.94.94,0,1,1,.94-.94A.95.95,0,0,1,15.31,12.19Z"/></g></g></svg>