<?xml version="1.0" encoding="utf-8"?>
<!-- Generator: Adobe Illustrator 26.0.0, SVG Export Plug-In . SVG Version: 6.00 Build 0)  -->
<svg version="1.1" id="Ebene_1" xmlns="http://www.w3.org/2000/svg" xmlns:xlink="http://www.w3.org/1999/xlink" x="0px" y="0px"
	 viewBox="0 0 20 20" style="enable-background:new 0 0 20 20;" xml:space="preserve">
<style type="text/css">
	.st0{fill:#ED66CD;}
	.st1{fill:#FFFFFF;}
</style>
<g id="Ebene_2_00000060752149503843859840000004202825080066171009_">
	<g id="aktiv">
		<path class="st0" d="M3.8,0h12.5C18.3,0,20,1.7,20,3.8v12.5c0,2.1-1.7,3.8-3.8,3.8H3.8C1.7,20,0,18.3,0,16.2V3.8
			C0,1.7,1.7,0,3.8,0z"/>
	</g>
	<g id="Icons">
		<path class="st1" d="M10.3,2c-2.2,0-4,1.8-4,4c0,1.1,0.5,2.1,1.3,2.9l2.7-2.7l2.7,2.7c1.6-1.5,1.7-4.1,0.1-5.7
			C12.4,2.5,11.4,2,10.3,2z"/>
		<path class="st1" d="M14.9,12.5l-4.6-4.6l-4.6,4.6h2.7c0,1.1,0,1,0,1.5c0,1.8,0,3-3.7,1.1c0.6,1.9,2.3,3.1,4.3,3
			c1.2,0.1,2.3-0.6,2.8-1.6c0.4-1.3,0.6-2.6,0.6-4L14.9,12.5z"/>
	</g>
</g>
</svg>
