<?xml version="1.0" encoding="utf-8"?>
<!-- Generator: Adobe Illustrator 26.0.1, SVG Export Plug-In . SVG Version: 6.00 Build 0)  -->
<svg version="1.1" id="Ebene_1" xmlns="http://www.w3.org/2000/svg" xmlns:xlink="http://www.w3.org/1999/xlink" x="0px" y="0px"
	 viewBox="0 0 20 20" style="enable-background:new 0 0 20 20;" xml:space="preserve">
<style type="text/css">
	.st0{fill:#31A5A8;}
	.st1{fill:#FFFFFF;}
</style>
<g>
	<path class="st0" d="M16.2,20H3.8C1.7,20,0,18.3,0,16.2V3.8C0,1.7,1.7,0,3.8,0h12.5C18.3,0,20,1.7,20,3.8v12.5
		C20,18.3,18.3,20,16.2,20z"/>
</g>
<g>
	<g>
		<path class="st1" d="M11.2,6.6c0-0.8-0.7-1.3-1.5-1.3c-0.8,0-1.5,0.4-2.1,0.9L5.9,4.7c1-1.1,2.3-1.8,3.9-1.8
			c2.3,0,4.2,1.1,4.2,3.3c0,2.7-3.3,3-3.1,5.3H8.4C7.9,8.8,11.2,8.1,11.2,6.6z M7.7,14.9c0-1.2,0.9-2,2-2c1.2,0,2,0.8,2,2
			s-0.9,2.1-2,2.1C8.6,17,7.7,16.1,7.7,14.9z"/>
	</g>
</g>
</svg>
