<svg xmlns="http://www.w3.org/2000/svg" viewBox="0 0 20 20"><defs><style>.cls-1{fill:#14c4df;}.cls-2{fill:#fff;}</style></defs><g id="Ebene_2" data-name="Ebene 2"><g id="aktiv"><rect class="cls-1" width="20" height="20" rx="3.75"/></g><g id="Icons"><path class="cls-2" d="M2.42,9c0,2.89,2.35,5.31,5.55,6.06l3.27,3.76-.13-3.58c3.72-.42,6.58-3,6.58-6.24,0-3.48-3.41-6.3-7.63-6.3S2.42,5.54,2.42,9ZM8.9,8.24a.62.62,0,0,1-.62.62.63.63,0,0,1-.63-.62V6.6A.63.63,0,0,1,8.28,6a.62.62,0,0,1,.62.63Zm3.77,0a.63.63,0,0,1-1.25,0V6.6a.63.63,0,1,1,1.25,0ZM7,10.21a.62.62,0,0,1,.82.33c.32.71,1.06,1.07,2.21,1.07s1.89-.36,2.2-1.07a.63.63,0,1,1,1.15.5c-.36.83-1.24,1.82-3.35,1.82s-3-1-3.35-1.82A.64.64,0,0,1,7,10.21Z"/></g></g></svg>