<svg xmlns="http://www.w3.org/2000/svg" viewBox="0 0 20 20"><defs><style>.cls-1{fill:#a261d0;}.cls-2{fill:#fff;}</style></defs><g id="Ebene_2" data-name="Ebene 2"><g id="aktiv"><rect class="cls-1" width="20" height="20" rx="3.75"/></g><g id="Icons"><path class="cls-2" d="M16.2,8.48a6.14,6.14,0,1,0-6.9,6.09v1.58H7v1.53h6.13V16.15H10.82V14.57A6.15,6.15,0,0,0,16.2,8.48Zm-6.14,3.07a3.07,3.07,0,1,1,3.07-3.07A3.06,3.06,0,0,1,10.06,11.55Zm0-4.6A1.54,1.54,0,1,0,11.6,8.48,1.54,1.54,0,0,0,10.06,7Z"/><g id="Layer_2" data-name="Layer 2"><path class="cls-2" d="M9.3,14.56v1.59H7v1.53h6.13V16.15h-2.3V14.56a6.13,6.13,0,1,0-1.53,0Zm.76-9.14A3.07,3.07,0,1,1,7,8.48,3.06,3.06,0,0,1,10.06,5.42Z"/><circle class="cls-2" cx="10.06" cy="8.48" r="1.53"/></g></g></g></svg>