<?xml version="1.0" encoding="utf-8"?>
<!-- Generator: Adobe Illustrator 26.0.1, SVG Export Plug-In . SVG Version: 6.00 Build 0)  -->
<svg version="1.1" id="Ebene_1" xmlns="http://www.w3.org/2000/svg" xmlns:xlink="http://www.w3.org/1999/xlink" x="0px" y="0px"
	 viewBox="0 0 20 20" style="enable-background:new 0 0 20 20;" xml:space="preserve">
<style type="text/css">
	.st0{fill:#58C6A2;}
	.st1{fill:#FFFFFF;}
</style>
<g>
	<path class="st0" d="M16.25,20H3.75C1.688,20,0,18.312,0,16.25V3.75C0,1.688,1.688,0,3.75,0h12.5C18.312,0,20,1.688,20,3.75v12.5
		C20,18.312,18.312,20,16.25,20z"/>
</g>
<path class="st1" d="M3.165,7.585C3.21,7.495,3.714,6.196,3.99,5.613c0.192-0.407,0.462-0.689,0.784-0.93
	c0.486-0.364,1.294-0.588,3.75-0.641c4.227-0.091,7.979-0.002,7.979-0.002v1.823h-3.135c0,0-0.415,4.524-0.446,4.866
	c-0.378,4.168,3.011,3.434,3.056,1.535h0.551c0,0-0.107,2.497-1.894,3.256c-1.289,0.548-3.887,0.183-3.752-2.522
	c0.144-2.894,0.583-7.135,0.583-7.135s-2.562,0.002-2.912,0C8.376,8.698,8,12.143,7.65,13.643c-0.396,2.097-1.923,2.609-3.023,1.683
	C3.7,14.518,4.34,13.793,5.009,12.993c0.324-0.387,1.313-1.66,1.786-3.291c0.506-1.742,0.515-3.84,0.515-3.84
	S5.932,5.708,4.947,6.171C4.484,6.388,4.172,6.817,3.835,7.364C3.709,7.569,3.694,7.633,3.506,7.605
	C3.292,7.574,3.165,7.585,3.165,7.585z"/>
</svg>
