<?xml version="1.0" encoding="utf-8"?>
<!-- Generator: Adobe Illustrator 26.0.0, SVG Export Plug-In . SVG Version: 6.00 Build 0)  -->
<svg version="1.1" id="Ebene_1" xmlns="http://www.w3.org/2000/svg" xmlns:xlink="http://www.w3.org/1999/xlink" x="0px" y="0px"
	 viewBox="0 0 20 20" style="enable-background:new 0 0 20 20;" xml:space="preserve">
<style type="text/css">
	.st0{fill:#469B37;}
	.st1{fill:#FFFFFF;}
</style>
<g id="Ebene_2_00000044154758312461530110000004218552352701281162_">
	<g id="aktiv">
		<path class="st0" d="M3.8,0h12.5C18.3,0,20,1.7,20,3.8v12.5c0,2.1-1.7,3.8-3.8,3.8H3.8C1.7,20,0,18.3,0,16.2V3.8
			C0,1.7,1.7,0,3.8,0z"/>
	</g>
	<g id="Icons">
		<path class="st1" d="M18.1,7.8v0.6H1.9V7.8c0-1,0.8-1.9,1.9-1.9h12.5C17.3,5.9,18.1,6.7,18.1,7.8z"/>
		<path class="st1" d="M17.1,9.3v3.6c0,1-0.8,1.9-1.9,1.9H4.8c-1,0-1.9-0.8-1.9-1.9V9.3H17.1z"/>
	</g>
</g>
</svg>
