<?xml version="1.0" encoding="utf-8"?>
<!-- Generator: Adobe Illustrator 26.0.0, SVG Export Plug-In . SVG Version: 6.00 Build 0)  -->
<svg version="1.1" id="Ebene_1" xmlns="http://www.w3.org/2000/svg" xmlns:xlink="http://www.w3.org/1999/xlink" x="0px" y="0px"
	 viewBox="0 0 20 20" style="enable-background:new 0 0 20 20;" xml:space="preserve">
<style type="text/css">
	.st0{fill:#F48939;}
	.st1{fill:#FFFFFF;}
</style>
<g id="Ebene_2_00000103950387557725814240000014298710049689004192_">
	<g id="aktiv">
		<path class="st0" d="M3.8,0h12.5C18.3,0,20,1.7,20,3.8v12.5c0,2.1-1.7,3.8-3.8,3.8H3.8C1.7,20,0,18.3,0,16.2V3.8
			C0,1.7,1.7,0,3.8,0z"/>
	</g>
	<g id="Icons">
		<path class="st1" d="M12.6,11.2v0.6H2.1v-0.6c0-1,0.8-1.7,1.7-1.7h7.1C11.9,9.5,12.6,10.2,12.6,11.2z"/>
		<path class="st1" d="M11.7,12.6v3.3c0,0.9-0.8,1.7-1.7,1.7H4.8C3.8,17.7,3,16.9,3,16c0,0,0,0,0,0v-3.3H11.7z"/>
		<path class="st1" d="M8.2,8.2h2.7c1.7,0,3,1.3,3,3v0.1h1.2c1,0,1.7-0.8,1.7-1.7V6.2H8.2V8.2z M16.1,3.1H9c-1,0-1.7,0.8-1.7,1.7
			c0,0,0,0,0,0v0.6h10.5V4.8C17.8,3.9,17,3.1,16.1,3.1z"/>
	</g>
</g>
</svg>
