<?xml version="1.0" encoding="utf-8"?>
<!-- Generator: Adobe Illustrator 26.0.1, SVG Export Plug-In . SVG Version: 6.00 Build 0)  -->
<svg version="1.1" id="Ebene_1" xmlns="http://www.w3.org/2000/svg" xmlns:xlink="http://www.w3.org/1999/xlink" x="0px" y="0px"
	 viewBox="0 0 20 20" style="enable-background:new 0 0 20 20;" xml:space="preserve">
<style type="text/css">
	.st0{fill:#2A8FD3;}
	.st1{fill:#FFFFFF;}
</style>
<g>
	<path class="st0" d="M16.25,20H3.75C1.688,20,0,18.312,0,16.25V3.75C0,1.688,1.688,0,3.75,0h12.5C18.312,0,20,1.688,20,3.75v12.5
		C20,18.312,18.312,20,16.25,20z"/>
</g>
<path class="st1" d="M4.041,9.314c0.402,0,0.774,0.125,1.082,0.336l0-0.001c0,0,0.45,0.306,0.934,0.638V5.984h4.41
	C10.135,5.5,9.829,5.051,9.829,5.051l0.001,0C9.617,4.743,9.493,4.37,9.493,3.969c0-1.055,0.856-1.911,1.911-1.911
	s1.911,0.856,1.911,1.911c0,0.402-0.125,0.774-0.336,1.082l0.001,0c0,0-0.306,0.45-0.638,0.934h4.304v4.313
	c-0.489-0.336-0.948-0.648-0.948-0.648l0,0.001c-0.308-0.212-0.68-0.336-1.082-0.336c-1.055,0-1.911,0.856-1.911,1.911
	s0.856,1.911,1.911,1.911c0.402,0,0.774-0.125,1.082-0.336l0,0.001c0,0,0.459-0.312,0.948-0.648v4.42H6.056v-4.41
	C5.572,12.494,5.123,12.8,5.123,12.8l0-0.001c-0.308,0.212-0.68,0.336-1.082,0.336c-1.055,0-1.911-0.856-1.911-1.911
	S2.985,9.314,4.041,9.314z"/>
</svg>
