<?xml version="1.0" encoding="utf-8"?>
<!-- Generator: Adobe Illustrator 26.0.0, SVG Export Plug-In . SVG Version: 6.00 Build 0)  -->
<svg version="1.1" id="Ebene_1" xmlns="http://www.w3.org/2000/svg" xmlns:xlink="http://www.w3.org/1999/xlink" x="0px" y="0px"
	 viewBox="0 0 22 20" style="enable-background:new 0 0 22 20;" xml:space="preserve">
<style type="text/css">
	.st0{fill:#469B37;}
	.st1{fill:#FFFFFF;}
	.st2{fill:none;}
</style>
<g id="Ebene_2_00000130644029129751388050000000758172765224289166_">
	<g id="Icons">
		<path class="st0" d="M4.8,0h12.5C19.3,0,21,1.7,21,3.8v12.5c0,2.1-1.7,3.8-3.8,3.8H4.8C2.7,20,1,18.3,1,16.2V3.8
			C1,1.7,2.7,0,4.8,0z"/>
		<path class="st1" d="M19.1,7.8v0.6H2.9V7.8c0-1,0.8-1.9,1.9-1.9h12.5C18.3,5.9,19.1,6.7,19.1,7.8z"/>
		<path class="st1" d="M18.1,9.3v3.6c0,1-0.8,1.9-1.9,1.9l0,0H5.8c-1,0-1.9-0.8-1.9-1.9V9.3H18.1z"/>
		<rect class="st2" width="22" height="20"/>
	</g>
</g>
</svg>
