<?xml version="1.0" encoding="utf-8"?>
<!-- Generator: Adobe Illustrator 26.0.0, SVG Export Plug-In . SVG Version: 6.00 Build 0)  -->
<svg version="1.1" id="Ebene_1" xmlns="http://www.w3.org/2000/svg" xmlns:xlink="http://www.w3.org/1999/xlink" x="0px" y="0px"
	 viewBox="0 0 22 22" style="enable-background:new 0 0 22 22;" xml:space="preserve">
<style type="text/css">
	.st0{fill:#469B37;}
	.st1{fill:#FFFFFF;}
	.st2{fill:none;}
</style>
<g id="Ebene_2_00000047021817828995332520000005344496418389541279_">
	<g id="Ebene_1-2">
		<path class="st0" d="M4.1,0h13.8C20.2,0,22,1.9,22,4.1v13.7c0,2.3-1.8,4.1-4.1,4.1h0H4.1C1.8,22,0,20.2,0,17.9c0,0,0,0,0,0V4.1
			C0,1.8,1.8,0,4.1,0z"/>
		<path class="st1" d="M19.9,8.5v0.7H2.1V8.5c0-1.1,0.9-2.1,2.1-2.1h0h13.7C19,6.5,19.9,7.4,19.9,8.5z"/>
		<path class="st1" d="M18.8,10.2v4c0,1.1-0.9,2.1-2.1,2.1H5.3c-1.1,0-2.1-0.9-2.1-2.1v-4L18.8,10.2z"/>
		<rect class="st2" width="22" height="22"/>
	</g>
</g>
</svg>
