<svg xmlns="http://www.w3.org/2000/svg" viewBox="0 0 32 32"><defs><style>.cls-1{fill:#afadac;}.cls-2{fill:#fff;}.cls-3{fill:#6b6c6d;}.cls-4{fill:#a35b21;}.cls-5{fill:none;opacity:0.5;}</style></defs><g id="Ebene_2" data-name="Ebene 2"><g id="deaktiviert_mit_Ecke" data-name="deaktiviert mit Ecke"><path class="cls-1" d="M16,32H6a6,6,0,0,1-6-6V6A6,6,0,0,1,6,0H26a6,6,0,0,1,6,6V16Z"/></g><g id="Icons_Rätsel_spezial" data-name="Icons Rätsel spezial"><path class="cls-2" d="M27.21,14.06,25.15,8.18A4,4,0,0,0,21.37,5.5H10.63A4,4,0,0,0,6.85,8.18l-2,5.88A4,4,0,0,0,3,17.4v7.1a2,2,0,0,0,4,0V23.24s5.28.26,9,.26,9-.26,9-.26V24.5a2,2,0,0,0,4,0V17.4A4,4,0,0,0,27.21,14.06Zm-19.62-2L8.74,8.84A2,2,0,0,1,10.63,7.5H21.37a2,2,0,0,1,1.89,1.34l1.14,3.27a.71.71,0,0,1-.78,1A47.44,47.44,0,0,0,16,12.5a47.44,47.44,0,0,0-7.62.56A.72.72,0,0,1,7.59,12.11ZM7.5,19.5A1.5,1.5,0,1,1,9,18,1.5,1.5,0,0,1,7.5,19.5Zm11.5-1H13a1,1,0,0,1,0-2h6a1,1,0,0,1,0,2Zm5.5,1A1.5,1.5,0,1,1,26,18,1.5,1.5,0,0,1,24.5,19.5Z"/></g><g id="Ecke"><path class="cls-2" d="M16,16V32H26a6,6,0,0,0,6-6V16Z"/></g><g id="Archiviert"><path class="cls-3" d="M29,.84.84,29A6.15,6.15,0,0,0,3,31.16L31.16,3A6.15,6.15,0,0,0,29,.84Z"/></g><g id="Eigener_Cache" data-name="Eigener Cache"><path class="cls-4" d="M29.86,24.34,24,19.27l-5.86,5.07a.34.34,0,0,0,.24.59h1.73v3.8h7.78v-3.8h1.73A.34.34,0,0,0,29.86,24.34Z"/></g><g id="Boxen_32x32_transparent" data-name="Boxen 32x32 transparent"><rect class="cls-5" width="32" height="32"/></g></g></svg>