<svg xmlns="http://www.w3.org/2000/svg" viewBox="0 0 32 32"><defs><style>.cls-1{fill:#afadac;}.cls-2{fill:#fff;}.cls-3{fill:#6b6c6d;}.cls-4{fill:#ff332e;}.cls-5{fill:none;opacity:0.5;}</style></defs><g id="Ebene_2" data-name="Ebene 2"><g id="deaktiviert_mit_Ecke" data-name="deaktiviert mit Ecke"><path class="cls-1" d="M16,32H6a6,6,0,0,1-6-6V6A6,6,0,0,1,6,0H26a6,6,0,0,1,6,6V16Z"/></g><g id="Icons_Rätsel_spezial" data-name="Icons Rätsel spezial"><path class="cls-2" d="M3.88,14.44c0,4.61,3.75,8.49,8.86,9.69l5.25,6-.21-5.72c5.94-.68,10.53-4.88,10.53-10,0-5.57-5.47-10.09-12.22-10.09S3.88,8.87,3.88,14.44Zm10.37-1.26a1,1,0,0,1-2,0V10.55a1,1,0,0,1,2,0Zm6,0a1,1,0,0,1-2,0V10.55a1,1,0,0,1,2,0Zm-9,3.16a1,1,0,0,1,1.32.52c.5,1.14,1.68,1.72,3.53,1.72s3-.58,3.52-1.72a1,1,0,1,1,1.83.8c-.58,1.33-2,2.92-5.35,2.92S11.32,19,10.73,17.66A1,1,0,0,1,11.25,16.34Z"/></g><g id="Ecke"><path class="cls-2" d="M16,16V32H26a6,6,0,0,0,6-6V16Z"/></g><g id="Archiviert"><path class="cls-3" d="M29,.84.84,29A6.15,6.15,0,0,0,3,31.16L31.16,3A6.15,6.15,0,0,0,29,.84Z"/></g><g id="DNF"><g id="path4201"><path class="cls-4" d="M24,19.58a.47.47,0,0,0-.31.12.36.36,0,0,0-.07.1l-.23.38h0L19,27.75h0a.37.37,0,0,0-.05.11.44.44,0,0,0,.31.54h9.33A.43.43,0,0,0,29,28a.51.51,0,0,0-.05-.22h0L24.45,19.9a.86.86,0,0,0-.14-.2A.47.47,0,0,0,24,19.58Z"/></g></g><g id="Boxen_32x32_transparent" data-name="Boxen 32x32 transparent"><rect class="cls-5" width="32" height="32"/></g></g></svg>