<?xml version="1.0" encoding="utf-8"?>
<!-- Generator: Adobe Illustrator 26.0.0, SVG Export Plug-In . SVG Version: 6.00 Build 0)  -->
<svg version="1.1" id="Ebene_1" xmlns="http://www.w3.org/2000/svg" xmlns:xlink="http://www.w3.org/1999/xlink" x="0px" y="0px"
	 viewBox="0 0 16 16" style="enable-background:new 0 0 16 16;" xml:space="preserve">
<style type="text/css">
	.st0{fill:#2A8FD3;}
	.st1{fill:#FFFFFF;}
</style>
<g id="Ebene_2_00000025424130575842028290000003603478939312352168_">
	<g id="aktiv">
		<path class="st0" d="M3,0h10c1.7,0,3,1.3,3,3v10c0,1.7-1.3,3-3,3H3c-1.7,0-3-1.3-3-3V3C0,1.3,1.3,0,3,0z"/>
	</g>
	<g id="Icons">
		<path class="st1" d="M3.2,7.5c0.6,0.1,1.1,0.4,1.6,0.7V4.8h3.3C7.9,4.2,7.5,3.7,7.5,3.2V3.1c0-0.9,0.7-1.5,1.6-1.5
			c0.9,0,1.5,0.7,1.5,1.6l0,0c-0.1,0.8-0.5,1-0.7,1.7h3.4v3.4c-0.5-0.3-1-0.6-1.6-0.7c-0.9,0.1-1.5,0.8-1.4,1.7
			c0.1,0.8,0.7,1.4,1.4,1.4h0.1c0.5,0,1-0.4,1.6-0.7v3.4H4.8V10c-0.5,0.3-1,0.5-1.6,0.6H3.2C2.3,10.6,1.7,9.8,1.8,9
			C1.8,8.2,2.4,7.6,3.2,7.5L3.2,7.5z"/>
	</g>
</g>
</svg>
