<?xml version="1.0" encoding="utf-8"?>
<!-- Generator: Adobe Illustrator 26.0.1, SVG Export Plug-In . SVG Version: 6.00 Build 0)  -->
<svg version="1.1" id="Ebene_1" xmlns="http://www.w3.org/2000/svg" xmlns:xlink="http://www.w3.org/1999/xlink" x="0px" y="0px"
	 viewBox="0 0 16 16" style="enable-background:new 0 0 16 16;" xml:space="preserve">
<style type="text/css">
	.st0{fill:#58C6A2;}
	.st1{fill:#FFFFFF;}
</style>
<g>
	<path class="st0" d="M13,16H3c-1.65,0-3-1.35-3-3V3c0-1.65,1.35-3,3-3h10c1.65,0,3,1.35,3,3v10C16,14.65,14.65,16,13,16z"/>
</g>
<path class="st1" d="M2.532,6.068c0.036-0.071,0.44-1.111,0.66-1.577c0.154-0.325,0.37-0.551,0.627-0.744
	c0.389-0.292,1.035-0.471,3-0.513c3.382-0.073,6.383-0.002,6.383-0.002V4.69h-2.508c0,0-0.332,3.619-0.357,3.893
	c-0.303,3.334,2.409,2.747,2.445,1.228h0.441c0,0-0.086,1.998-1.515,2.605c-1.031,0.438-3.109,0.147-3.002-2.017
	C8.821,8.083,9.172,4.69,9.172,4.69s-2.05,0.002-2.329,0C6.701,6.958,6.4,9.714,6.12,10.914c-0.317,1.677-1.539,2.087-2.418,1.347
	c-0.741-0.647-0.229-1.226,0.306-1.866c0.259-0.31,1.05-1.328,1.429-2.633C5.841,6.368,5.848,4.69,5.848,4.69
	S4.746,4.566,3.958,4.937c-0.37,0.174-0.62,0.517-0.889,0.954C2.967,6.055,2.955,6.106,2.805,6.084
	C2.634,6.06,2.532,6.068,2.532,6.068z"/>
</svg>
