<?xml version="1.0" encoding="utf-8"?>
<!-- Generator: Adobe Illustrator 26.0.1, SVG Export Plug-In . SVG Version: 6.00 Build 0)  -->
<svg version="1.1" id="Ebene_1" xmlns="http://www.w3.org/2000/svg" xmlns:xlink="http://www.w3.org/1999/xlink" x="0px" y="0px"
	 viewBox="0 0 32 32" style="enable-background:new 0 0 32 32;" xml:space="preserve">
<style type="text/css">
	.st0{fill:#58C6A2;}
	.st1{fill:#FFFFFF;}
</style>
<g>
	<path class="st0" d="M26,32H6c-3.3,0-6-2.7-6-6V6c0-3.3,2.7-6,6-6h20c3.3,0,6,2.7,6,6v20C32,29.3,29.3,32,26,32z"/>
</g>
<path class="st1" d="M5.064,12.131c0.072-0.143,0.88-2.225,1.321-3.159c0.308-0.651,0.741-1.104,1.256-1.49
	c0.779-0.584,2.073-0.942,6.007-1.028C20.419,6.308,26.43,6.451,26.43,6.451v2.921h-5.022c0,0-0.665,7.248-0.714,7.795
	c-0.606,6.676,4.823,5.501,4.896,2.458h0.882c0,0-0.172,4-3.034,5.216c-2.065,0.877-6.227,0.294-6.011-4.039
	c0.23-4.635,0.935-11.43,0.935-11.43s-4.105,0.004-4.664,0c-0.285,4.543-0.887,10.062-1.448,12.465
	c-0.634,3.359-3.081,4.18-4.843,2.696c-1.484-1.295-0.459-2.456,0.613-3.737c0.518-0.62,2.103-2.659,2.862-5.273
	c0.81-2.791,0.825-6.151,0.825-6.151S9.497,9.124,7.919,9.866c-0.741,0.349-1.241,1.035-1.781,1.911
	c-0.202,0.328-0.226,0.431-0.528,0.387C5.268,12.115,5.064,12.131,5.064,12.131z"/>
</svg>
