<?xml version="1.0" encoding="utf-8"?>
<!-- Generator: Adobe Illustrator 26.0.1, SVG Export Plug-In . SVG Version: 6.00 Build 0)  -->
<svg version="1.1" id="Ebene_1" xmlns="http://www.w3.org/2000/svg" xmlns:xlink="http://www.w3.org/1999/xlink" x="0px" y="0px"
	 viewBox="0 0 32 32" style="enable-background:new 0 0 32 32;" xml:space="preserve">
<style type="text/css">
	.st0{fill:#7C8CD1;}
	.st1{fill:#FFFFFF;}
	.st2{fill:none;}
</style>
<path class="st0" d="M6,0h20c3.314,0,6,2.686,6,6v20c0,3.314-2.686,6-6,6H6c-3.314,0-6-2.686-6-6V6C0,2.686,2.686,0,6,0z"/>
<g id="Icons">
	<path class="st1" d="M27.93,9.72v0.93H4.07V9.72C4.064,8.189,5.299,6.941,6.83,6.93h18.34C26.701,6.941,27.936,8.189,27.93,9.72z"
		/>
	<path class="st1" d="M26.43,12v5.41c0,1.528-1.232,2.769-2.76,2.78H8.33c-1.528-0.011-2.76-1.252-2.76-2.78V12H26.43z"/>
	<ellipse class="st1" cx="9.95" cy="24.07" rx="2.26" ry="2.29"/>
	<ellipse class="st1" cx="22.05" cy="24.07" rx="2.26" ry="2.29"/>
</g>
<g id="Boxen_32x32_transparent">
	<rect class="st2" width="32" height="32"/>
</g>
</svg>
