<svg xmlns="http://www.w3.org/2000/svg" viewBox="0 0 32 32"><defs><style>.cls-1{fill:#afadac;}.cls-2{fill:#fff;}.cls-3{fill:#6b6c6d;}.cls-4{fill:#51b70f;}.cls-5{fill:none;opacity:0.5;}</style></defs><g id="Ebene_2" data-name="Ebene 2"><g id="deaktiviert_mit_Ecke" data-name="deaktiviert mit Ecke"><path class="cls-1" d="M16,32H6a6,6,0,0,1-6-6V6A6,6,0,0,1,6,0H26a6,6,0,0,1,6,6V16Z"/></g><g id="Icons_Rätsel_spezial" data-name="Icons Rätsel spezial"><path class="cls-2" d="M27.93,9.72v.93H4.07V9.72A2.78,2.78,0,0,1,6.83,6.93H25.17A2.78,2.78,0,0,1,27.93,9.72Z"/><path class="cls-2" d="M26.43,12v5.41a2.78,2.78,0,0,1-2.76,2.78H8.33a2.78,2.78,0,0,1-2.76-2.78V12Z"/><ellipse class="cls-2" cx="9.95" cy="24.07" rx="2.26" ry="2.29"/><ellipse class="cls-2" cx="22.05" cy="24.07" rx="2.26" ry="2.29"/></g><g id="Ecke"><path class="cls-2" d="M16,16V32H26a6,6,0,0,0,6-6V16Z"/></g><g id="Archiviert"><path class="cls-3" d="M29,.84.84,29A6.15,6.15,0,0,0,3,31.16L31.16,3A6.15,6.15,0,0,0,29,.84Z"/></g><g id="Found"><path class="cls-4" d="M29.87,21.26a.7.7,0,0,1-.22.52l-5.48,5.47-1,1a.72.72,0,0,1-1,0l-1-1-2.74-2.74a.7.7,0,0,1,0-1l1-1a.72.72,0,0,1,1,0l2.23,2.23,5-5a.72.72,0,0,1,1,0l1,1A.67.67,0,0,1,29.87,21.26Z"/></g><g id="Boxen_32x32_transparent" data-name="Boxen 32x32 transparent"><rect class="cls-5" width="32" height="32"/></g></g></svg>