<svg xmlns="http://www.w3.org/2000/svg" viewBox="0 0 32 32"><defs><style>.cls-1{fill:#afadac;}.cls-2{fill:#fff;}.cls-3{fill:#6b6c6d;}.cls-4{fill:#a35b21;}</style></defs><g id="Ebene_2" data-name="Ebene 2"><g id="deaktiviert_mit_Ecke" data-name="deaktiviert mit Ecke"><path class="cls-1" d="M16,32H6a6.018,6.018,0,0,1-6-6V6A6.018,6.018,0,0,1,6,0H26a6.018,6.018,0,0,1,6,6V16.011Z"/></g><g id="Icons"><path class="cls-2" d="M20.306,17.876v.918H3.449v-.918a2.763,2.763,0,0,1,2.757-2.755H17.55A2.763,2.763,0,0,1,20.306,17.876Z"/><path class="cls-2" d="M18.808,20.129v5.344a2.763,2.763,0,0,1-2.756,2.755H7.7a2.763,2.763,0,0,1-2.757-2.755V20.129Z"/><path class="cls-2" d="M13.192,13.122H17.55a4.76,4.76,0,0,1,4.756,4.754V18.1H24.3a2.763,2.763,0,0,0,2.757-2.754V10.005H13.192ZM25.794,5H14.45a2.763,2.763,0,0,0-2.756,2.755V8.67H28.551V7.752A2.764,2.764,0,0,0,25.794,5Z"/></g><g id="Ecke"><path class="cls-2" d="M16,16V32H26a6.018,6.018,0,0,0,6-6V16Z"/></g><g id="Archiviert"><path class="cls-3" d="M29.039.84.84,29.039A6.051,6.051,0,0,0,2.961,31.16l28.2-28.2A6.051,6.051,0,0,0,29.039.84Z"/></g><g id="Owner"><path class="cls-4" d="M29.862,24.339,24,19.269l-5.862,5.07a.345.345,0,0,0,.242.588l1.734,0v3.8h7.772v-3.8l1.734,0A.345.345,0,0,0,29.862,24.339Z"/></g></g></svg>