<svg xmlns="http://www.w3.org/2000/svg" viewBox="0 0 32 32"><defs><style>.cls-1{fill:#afadac;}.cls-2{fill:#fff;}.cls-3{fill:#ff332e;}</style></defs><g id="Ebene_2" data-name="Ebene 2"><g id="deaktiviert_mit_Ecke" data-name="deaktiviert mit Ecke"><path class="cls-1" d="M16,32H6a6.018,6.018,0,0,1-6-6V6A6.018,6.018,0,0,1,6,0H26a6.018,6.018,0,0,1,6,6V16.011Z"/></g><g id="Icons"><path class="cls-2" d="M20.306,17.876v.918H3.449v-.918a2.763,2.763,0,0,1,2.757-2.755H17.55A2.763,2.763,0,0,1,20.306,17.876Z"/><path class="cls-2" d="M18.808,20.129v5.344a2.763,2.763,0,0,1-2.756,2.755H7.7a2.763,2.763,0,0,1-2.757-2.755V20.129Z"/><path class="cls-2" d="M13.192,13.122H17.55a4.76,4.76,0,0,1,4.756,4.754V18.1H24.3a2.763,2.763,0,0,0,2.757-2.754V10.005H13.192ZM25.794,5H14.45a2.763,2.763,0,0,0-2.756,2.755V8.67H28.551V7.752A2.764,2.764,0,0,0,25.794,5Z"/></g><g id="Ecke"><path class="cls-2" d="M16,16V32H26a6.018,6.018,0,0,0,6-6V16Z"/></g><g id="DNF"><g id="path4201"><path class="cls-3" d="M24,19.576a.432.432,0,0,0-.309.128.426.426,0,0,0-.07.091l-.228.39h0l-4.368,7.567,0,0a.463.463,0,0,0-.051.118.438.438,0,0,0,.31.536.412.412,0,0,0,.115.014h9.212a.437.437,0,0,0,.438-.437.432.432,0,0,0-.058-.217h0L24.45,19.9a.8.8,0,0,0-.141-.194A.432.432,0,0,0,24,19.576Z"/></g></g></g></svg>