<?xml version="1.0" encoding="utf-8"?>
<!-- Generator: Adobe Illustrator 26.0.1, SVG Export Plug-In . SVG Version: 6.00 Build 0)  -->
<svg version="1.1" id="Ebene_1" xmlns="http://www.w3.org/2000/svg" xmlns:xlink="http://www.w3.org/1999/xlink" x="0px" y="0px"
	 viewBox="0 0 32 32" style="enable-background:new 0 0 32 32;" xml:space="preserve">
<style type="text/css">
	.st0{fill:#AFADAC;}
	.st1{fill:#FFFFFF;}
	.st2{fill:#6B6C6D;}
	.st3{fill:#A35B21;}
</style>
<g>
	<path class="st0" d="M16,32H6c-3.3,0-6-2.7-6-6V6c0-3.3,2.7-6,6-6h20c3.3,0,6,2.7,6,6v10.011L16,32z"/>
</g>
<path class="st1" d="M6.465,14.903c0.643,0,1.238,0.199,1.731,0.538l0.001-0.001c0,0,0.72,0.49,1.494,1.021V9.575h7.056
	c-0.531-0.774-1.021-1.494-1.021-1.494l0.001-0.001c-0.339-0.492-0.538-1.088-0.538-1.731c0-1.689,1.369-3.057,3.057-3.057
	s3.057,1.369,3.057,3.057c0,0.643-0.199,1.238-0.538,1.731l0.001,0.001c0,0-0.49,0.72-1.021,1.494h6.886v16.941H9.69V19.46
	c-0.774,0.531-1.494,1.021-1.494,1.021L8.196,20.48c-0.492,0.339-1.088,0.538-1.731,0.538c-1.689,0-3.057-1.369-3.057-3.057
	S4.776,14.903,6.465,14.903z"/>
<g>
	<path class="st1" d="M16,16v16h10c3.3,0,6-2.7,6-6V16H16z"/>
</g>
<g>
	<g>
		<path class="st2" d="M29.039,0.84L0.84,29.039c0.518,0.873,1.248,1.604,2.121,2.121l28.199-28.2
			C30.643,2.088,29.912,1.357,29.039,0.84z"/>
	</g>
</g>
<path class="st3" d="M29.862,24.339L24,19.269l-5.862,5.07c-0.216,0.216-0.065,0.586,0.241,0.588l1.735,0.005v3.799
	c0.342,0,3.886,0,3.886,0s3.363,0,3.886,0v-3.799l1.735-0.005C29.926,24.925,30.078,24.555,29.862,24.339z"/>
</svg>
