<?xml version="1.0" encoding="utf-8"?>
<!-- Generator: Adobe Illustrator 26.0.1, SVG Export Plug-In . SVG Version: 6.00 Build 0)  -->
<svg version="1.1" id="Ebene_1" xmlns="http://www.w3.org/2000/svg" xmlns:xlink="http://www.w3.org/1999/xlink" x="0px" y="0px"
	 viewBox="0 0 32 32" style="enable-background:new 0 0 32 32;" xml:space="preserve">
<style type="text/css">
	.st0{fill:#AFADAC;}
	.st1{fill:#FFFFFF;}
	.st2{fill:#FF332E;}
</style>
<g>
	<path class="st0" d="M16,32H6c-3.3,0-6-2.7-6-6V6c0-3.3,2.7-6,6-6h20c3.3,0,6,2.7,6,6v10.011L16,32z"/>
</g>
<path class="st1" d="M6.465,14.903c0.643,0,1.238,0.199,1.731,0.538l0.001-0.001c0,0,0.72,0.49,1.494,1.021V9.575h7.056
	c-0.531-0.774-1.021-1.494-1.021-1.494l0.001-0.001c-0.339-0.492-0.538-1.088-0.538-1.731c0-1.689,1.369-3.057,3.057-3.057
	s3.057,1.369,3.057,3.057c0,0.643-0.199,1.238-0.538,1.731l0.001,0.001c0,0-0.49,0.72-1.021,1.494h6.886v16.941H9.69V19.46
	c-0.774,0.531-1.494,1.021-1.494,1.021L8.196,20.48c-0.492,0.339-1.088,0.538-1.731,0.538c-1.689,0-3.057-1.369-3.057-3.057
	S4.776,14.903,6.465,14.903z"/>
<g>
	<path class="st1" d="M16,16v16h10c3.3,0,6-2.7,6-6V16H16z"/>
</g>
<g>
	<g id="path4201_00000098214949597747964970000012473548745598220426_">
		<path class="st2" d="M24,19.576c-0.112,0-0.224,0.043-0.309,0.128c-0.028,0.028-0.051,0.059-0.07,0.092l-0.227,0.39h-0.001
			l-4.369,7.567c-0.001,0.001-0.001,0.003-0.002,0.004c-0.022,0.036-0.04,0.075-0.051,0.118c-0.063,0.233,0.076,0.473,0.309,0.535
			c0.039,0.01,0.077,0.015,0.115,0.015h9.212c0.242,0,0.438-0.196,0.438-0.437c0-0.079-0.021-0.153-0.058-0.217
			c0,0-0.001-0.001-0.001-0.001l-4.536-7.87c-0.058-0.099-0.084-0.139-0.14-0.194C24.224,19.618,24.112,19.576,24,19.576z"/>
	</g>
</g>
</svg>
