<?xml version="1.0" encoding="utf-8"?>
<!-- Generator: Adobe Illustrator 26.0.0, SVG Export Plug-In . SVG Version: 6.00 Build 0)  -->
<svg version="1.1" id="Ebene_1" xmlns="http://www.w3.org/2000/svg" xmlns:xlink="http://www.w3.org/1999/xlink" x="0px" y="0px"
	 viewBox="0 0 32 32" style="enable-background:new 0 0 32 32;" xml:space="preserve">
<style type="text/css">
	.st0{fill:#469B37;}
	.st1{fill:#FFFFFF;}
	.st2{fill:#FF332E;}
	.st3{fill:none;}
</style>
<g id="Ebene_2_00000108268213211850136150000012201830301501431742_">
	<g id="aktiv_mit_Ecke">
		<path class="st0" d="M16,32H6c-3.3,0-6-2.7-6-6V6c0-3.3,2.7-6,6-6h20c3.3,0,6,2.7,6,6v10L16,32z"/>
	</g>
	<g id="Icons_Rätsel_spezial">
		<path class="st1" d="M29,12.4v1H3v-1c0-1.7,1.3-3,3-3h20C27.7,9.4,29,10.7,29,12.4z"/>
		<path class="st1" d="M27.3,14.9v5.8c0,1.7-1.3,3-3,3H7.7c-1.7,0-3-1.3-3-3v-5.8H27.3z"/>
	</g>
	<g id="Ecke">
		<path class="st1" d="M16,16v16h10c3.3,0,6-2.7,6-6V16H16z"/>
	</g>
	<g id="DNF">
		<g id="path4201">
			<path class="st2" d="M24,19.6c-0.1,0-0.2,0-0.3,0.1c0,0-0.1,0.1-0.1,0.1l-0.2,0.4l0,0L19,27.8l0,0c0,0,0,0.1,0,0.1
				c-0.1,0.2,0.1,0.5,0.3,0.5c0,0,0,0,0,0h9.3c0.2,0,0.4-0.2,0.4-0.4c0-0.1,0-0.2,0-0.2l0,0l-4.5-7.9c0-0.1-0.1-0.1-0.1-0.2
				C24.2,19.6,24.1,19.6,24,19.6z"/>
		</g>
	</g>
	<g id="Boxen_32x32_transparent">
		<rect class="st3" width="32" height="32"/>
	</g>
</g>
</svg>
