<?xml version="1.0" encoding="utf-8"?>
<!-- Generator: Adobe Illustrator 26.0.0, SVG Export Plug-In . SVG Version: 6.00 Build 0)  -->
<svg version="1.1" id="Ebene_1" xmlns="http://www.w3.org/2000/svg" xmlns:xlink="http://www.w3.org/1999/xlink" x="0px" y="0px"
	 viewBox="0 0 32 32" style="enable-background:new 0 0 32 32;" xml:space="preserve">
<style type="text/css">
	.st0{fill:#469B37;}
	.st1{fill:#FFFFFF;}
	.st2{fill:none;}
</style>
<g id="Ebene_2_00000083801000001525081580000008488744541285245106_">
	<g id="aktiv">
		<path class="st0" d="M6,0h20c3.3,0,6,2.7,6,6v20c0,3.3-2.7,6-6,6H6c-3.3,0-6-2.7-6-6V6C0,2.7,2.7,0,6,0z"/>
	</g>
	<g id="Icons">
		<path class="st1" d="M29,12.4v1H3v-1c0-1.7,1.3-3,3-3h20C27.7,9.4,29,10.7,29,12.4z"/>
		<path class="st1" d="M27.3,14.9v5.8c0,1.7-1.3,3-3,3H7.7c-1.7,0-3-1.3-3-3v-5.8H27.3z"/>
	</g>
	<g id="Boxen_32x32_transparent">
		<rect class="st2" width="32" height="32"/>
	</g>
</g>
</svg>
