<svg xmlns="http://www.w3.org/2000/svg" viewBox="0 0 32 32"><defs><style>.cls-1{fill:#afadac;}.cls-2{fill:#fff;}.cls-3{fill:#6b6c6d;}.cls-4{fill:#ff332e;}.cls-5{fill:none;opacity:0.5;}</style></defs><g id="Ebene_2" data-name="Ebene 2"><g id="deaktiviert_mit_Ecke" data-name="deaktiviert mit Ecke"><path class="cls-1" d="M16,32H6a6,6,0,0,1-6-6V6A6,6,0,0,1,6,0H26a6,6,0,0,1,6,6V16Z"/></g><g id="Icons_Rätsel_spezial" data-name="Icons Rätsel spezial"><path class="cls-2" d="M29,12.4v1H3v-1a3,3,0,0,1,3-3H26A3,3,0,0,1,29,12.4Z"/><path class="cls-2" d="M27.33,14.85v5.81a3,3,0,0,1-3,3H7.67a3,3,0,0,1-3-3V14.85Z"/></g><g id="Ecke"><path class="cls-2" d="M16,16V32H26a6,6,0,0,0,6-6V16Z"/></g><g id="Archiviert"><path class="cls-3" d="M29,.84.84,29A6.15,6.15,0,0,0,3,31.16L31.16,3A6.15,6.15,0,0,0,29,.84Z"/></g><g id="DNF"><g id="path4201"><path class="cls-4" d="M24,19.58a.47.47,0,0,0-.31.12.36.36,0,0,0-.07.1l-.23.38h0L19,27.75h0a.37.37,0,0,0-.05.11.44.44,0,0,0,.31.54h9.33A.43.43,0,0,0,29,28a.51.51,0,0,0-.05-.22h0L24.45,19.9a.86.86,0,0,0-.14-.2A.47.47,0,0,0,24,19.58Z"/></g></g><g id="Boxen_32x32_transparent" data-name="Boxen 32x32 transparent"><rect class="cls-5" width="32" height="32"/></g></g></svg>