<svg xmlns="http://www.w3.org/2000/svg" viewBox="0 0 32 32"><defs><style>.cls-1{fill:#afadac;}.cls-2{fill:#fff;}.cls-3{fill:#51b70f;}.cls-4{fill:none;opacity:0.5;}</style></defs><g id="Ebene_2" data-name="Ebene 2"><g id="deaktiviert_mit_Ecke" data-name="deaktiviert mit Ecke"><path class="cls-1" d="M16,32H6a6,6,0,0,1-6-6V6A6,6,0,0,1,6,0H26a6,6,0,0,1,6,6V16Z"/></g><g id="Icons_Rätsel_spezial" data-name="Icons Rätsel spezial"><path class="cls-2" d="M29,12.4v1H3v-1a3,3,0,0,1,3-3H26A3,3,0,0,1,29,12.4Z"/><path class="cls-2" d="M27.33,14.85v5.81a3,3,0,0,1-3,3H7.67a3,3,0,0,1-3-3V14.85Z"/></g><g id="Ecke"><path class="cls-2" d="M16,16V32H26a6,6,0,0,0,6-6V16Z"/></g><g id="Found"><path class="cls-3" d="M29.87,21.26a.7.7,0,0,1-.22.52l-5.48,5.47-1,1a.72.72,0,0,1-1,0l-1-1-2.74-2.74a.7.7,0,0,1,0-1l1-1a.72.72,0,0,1,1,0l2.23,2.23,5-5a.72.72,0,0,1,1,0l1,1A.67.67,0,0,1,29.87,21.26Z"/></g><g id="Boxen_32x32_transparent" data-name="Boxen 32x32 transparent"><rect class="cls-4" width="32" height="32"/></g></g></svg>