<svg xmlns="http://www.w3.org/2000/svg" viewBox="0 0 32 32"><defs><style>.cls-1{fill:#afadac;}.cls-2{fill:#fff;}.cls-3{fill:#6b6c6d;}.cls-4{fill:none;opacity:0.5;}</style></defs><g id="Ebene_2" data-name="Ebene 2"><g id="deaktiviert"><rect class="cls-1" width="32" height="32" rx="6"/></g><g id="Icons"><path class="cls-2" d="M17.9,10.52c0-1.33-1-2-2.4-2A4.88,4.88,0,0,0,12.17,10L9.52,7.55a8.41,8.41,0,0,1,6.31-2.93c3.72,0,6.65,1.72,6.65,5.3,0,4.28-5.29,4.81-4.91,8.56H13.4C12.71,14.15,17.9,12.94,17.9,10.52ZM12.37,23.86a3.13,3.13,0,0,1,3.25-3.25,3.13,3.13,0,0,1,3.25,3.25,3.25,3.25,0,1,1-6.5,0Z"/></g><g id="Archiviert"><path class="cls-3" d="M29,.84.84,29A6.15,6.15,0,0,0,3,31.16L31.16,3A6.15,6.15,0,0,0,29,.84Z"/></g><g id="Boxen_32x32_transparent" data-name="Boxen 32x32 transparent"><rect class="cls-4" width="32" height="32"/></g></g></svg>