<svg xmlns="http://www.w3.org/2000/svg" viewBox="0 0 32 32"><defs><style>.cls-1{fill:#31a5a8;}.cls-2{fill:#fff;}.cls-3{fill:#51b70f;}.cls-4{fill:none;opacity:0.5;}</style></defs><g id="Ebene_2" data-name="Ebene 2"><g id="aktiv_mit_Ecke" data-name="aktiv mit Ecke"><path class="cls-1" d="M16,32H6a6,6,0,0,1-6-6V6A6,6,0,0,1,6,0H26a6,6,0,0,1,6,6V16Z"/></g><g id="Icons_Rätsel_spezial" data-name="Icons Rätsel spezial"><path class="cls-2" d="M17.9,10.52c0-1.33-1-2-2.4-2A4.88,4.88,0,0,0,12.17,10L9.52,7.55a8.41,8.41,0,0,1,6.31-2.93c3.72,0,6.65,1.72,6.65,5.3,0,4.28-5.29,4.81-4.91,8.56H13.4C12.71,14.15,17.9,12.94,17.9,10.52ZM12.37,23.86a3.13,3.13,0,0,1,3.25-3.25,3.13,3.13,0,0,1,3.25,3.25,3.25,3.25,0,1,1-6.5,0Z"/></g><g id="Ecke"><path class="cls-2" d="M16,16V32H26a6,6,0,0,0,6-6V16Z"/></g><g id="Found"><path class="cls-3" d="M29.87,21.26a.7.7,0,0,1-.22.52l-5.48,5.47-1,1a.72.72,0,0,1-1,0l-1-1-2.74-2.74a.7.7,0,0,1,0-1l1-1a.72.72,0,0,1,1,0l2.23,2.23,5-5a.72.72,0,0,1,1,0l1,1A.67.67,0,0,1,29.87,21.26Z"/></g><g id="Boxen_32x32_transparent" data-name="Boxen 32x32 transparent"><rect class="cls-4" width="32" height="32"/></g></g></svg>