<svg xmlns="http://www.w3.org/2000/svg" viewBox="0 0 32 32"><defs><style>.cls-1{fill:#a261d0;}.cls-2{fill:#fff;}.cls-3{fill:#51b70f;}.cls-4{fill:none;opacity:0.5;}</style></defs><g id="Ebene_2" data-name="Ebene 2"><g id="aktiv_mit_Ecke" data-name="aktiv mit Ecke"><path class="cls-1" d="M16,32H6a6,6,0,0,1-6-6V6A6,6,0,0,1,6,0H26a6,6,0,0,1,6,6V16Z"/></g><g id="Icons_Rätsel_spezial" data-name="Icons Rätsel spezial"><path class="cls-2" d="M25.91,13.58a9.81,9.81,0,1,0-11,9.72v2.54H11.2v2.45H21V25.84H17.32V23.3A9.8,9.8,0,0,0,25.91,13.58Zm-9.81,4.9A4.91,4.91,0,1,1,21,13.58,4.9,4.9,0,0,1,16.1,18.48Zm0-7.36a2.46,2.46,0,1,0,2.45,2.46A2.46,2.46,0,0,0,16.1,11.12Z"/><g id="Layer_2" data-name="Layer 2"><path class="cls-2" d="M14.87,23.3v2.54H11.2v2.45H21V25.84H17.33V23.3a9.81,9.81,0,1,0-2.46,0ZM16.1,8.67a4.91,4.91,0,1,1-4.9,4.91A4.91,4.91,0,0,1,16.1,8.67Z"/><circle class="cls-2" cx="16.1" cy="13.58" r="2.45"/></g></g><g id="Ecke"><path class="cls-2" d="M16,16V32H26a6,6,0,0,0,6-6V16Z"/></g><g id="Found"><path class="cls-3" d="M29.87,21.26a.7.7,0,0,1-.22.52l-5.48,5.47-1,1a.72.72,0,0,1-1,0l-1-1-2.74-2.74a.7.7,0,0,1,0-1l1-1a.72.72,0,0,1,1,0l2.23,2.23,5-5a.72.72,0,0,1,1,0l1,1A.67.67,0,0,1,29.87,21.26Z"/></g><g id="Boxen_32x32_transparent" data-name="Boxen 32x32 transparent"><rect class="cls-4" width="32" height="32"/></g></g></svg>