<?xml version="1.0" encoding="utf-8"?>
<!-- Generator: Adobe Illustrator 26.0.1, SVG Export Plug-In . SVG Version: 6.00 Build 0)  -->
<svg version="1.1" id="Ebene_1" xmlns="http://www.w3.org/2000/svg" xmlns:xlink="http://www.w3.org/1999/xlink" x="0px" y="0px"
	 viewBox="0 0 13 16" style="enable-background:new 0 0 13 16;" xml:space="preserve">
<style type="text/css">
	.st0{fill:#CC3300;}
	.st1{fill:#009933;}
	.st2{fill:none;}
</style>
<g>
	<path id="Nordpfeil_00000048461404749863618470000007533321522277642630_" class="st0" d="M4.524,0.53l1.272,2.049l1.272,2.049
		L5.6,4.982L4.131,5.337l0.197-2.403L4.524,0.53L4.524,0.53z"/>
	<path id="Mittelpunkt_00000144305118499598535840000005998966613252216244_" class="st1" d="M6.748,7.683
		c0.816,0,1.481,0.665,1.481,1.481c0,0.816-0.665,1.481-1.481,1.481c-0.816,0-1.481-0.665-1.481-1.481
		C5.267,8.348,5.933,7.683,6.748,7.683z"/>
	<path id="Symbol_00000062158105772876883410000016034333372095493286_" d="M4.122,9.343C4.764,9.244,5.513,9.09,6.285,8.909
		c-0.188-0.708-0.4-1.405-0.643-2.099C5.95,6.769,6.251,6.704,6.538,6.588c0.113,0.721,0.249,1.439,0.42,2.153
		C7.84,8.516,8.716,8.263,9.464,8.013l1.012-0.318c0.062,0.161,0.116,0.325,0.157,0.496c0.54,2.164-0.783,4.368-2.943,4.908
		c-2.164,0.54-4.368-0.783-4.908-2.946c-0.54-2.16,0.783-4.365,2.946-4.905c1.747-0.434,3.524,0.345,4.426,1.805L9.259,7.275
		C8.504,6.061,7.15,5.391,5.844,5.719C4.176,6.136,3.202,8.027,3.677,9.931s2.225,3.114,3.893,2.697
		c1.552-0.386,2.502-2.047,2.249-3.808C9.016,8.956,8.066,9.165,7.123,9.411c0.188,0.711,0.403,1.418,0.653,2.123
		c-0.318,0.014-0.612,0.103-0.899,0.226c-0.113-0.731-0.253-1.456-0.424-2.17c-0.759,0.209-1.49,0.434-2.106,0.649
		C4.337,9.924,4.248,9.63,4.122,9.343z"/>
	<path id="Westen_00000016057310640170259170000008582205173991632544_" d="M0.925,11.333l-0.092-0.188l-0.419-0.918
		c-0.03-0.067-0.012-0.116,0.052-0.146c0.019-0.009,0.041-0.017,0.067-0.024l0.051-0.014l0.057-0.014
		c0.048-0.013,0.083-0.014,0.107-0.003c0.022,0.01,0.041,0.034,0.06,0.073c0.002,0.004,0.004,0.008,0.006,0.012l0.035,0.08
		l0.018,0.042l0.052,0.121l0.167,0.431l-0.011-0.199l-0.01-0.099l-0.006-0.088l-0.003-0.054l-0.003-0.032l-0.007-0.11l-0.009-0.162
		C1.033,9.965,1.034,9.914,1.04,9.887c0.011-0.051,0.042-0.089,0.093-0.113C1.163,9.76,1.19,9.749,1.214,9.743L1.261,9.73
		l0.038-0.01c0.048-0.013,0.08-0.008,0.098,0.014c0.01,0.012,0.026,0.04,0.047,0.084l0.067,0.137l0.022,0.052l0.088,0.19
		l0.027,0.066l0.045,0.105l0.041,0.104c0.003-0.075,0-0.169-0.008-0.281L1.712,10l0.002-0.023L1.711,9.855L1.701,9.61
		C1.698,9.54,1.715,9.497,1.753,9.479C1.769,9.471,1.792,9.464,1.82,9.457l0.075-0.018L1.95,9.433
		c0.07-0.008,0.113,0.004,0.128,0.035c0.008,0.016,0.014,0.043,0.018,0.079l0.01,0.096L2.111,9.74l0.014,0.243l0.008,0.352
		l-0.002,0.135l0,0.154l-0.004,0.088l-0.005,0.245c-0.001,0.064-0.005,0.111-0.012,0.139c-0.012,0.052-0.039,0.087-0.078,0.106
		c-0.005,0.003-0.014,0.006-0.026,0.01c-0.013,0.005-0.022,0.008-0.028,0.011c-0.103,0.034-0.17,0.045-0.2,0.031
		c-0.031-0.012-0.071-0.066-0.12-0.162L1.615,11L1.59,10.949l-0.065-0.143l-0.078-0.192L1.4,10.512l0.002,0.047l0.002,0.037l0,0.025
		l0.007,0.083l0,0.033l0.002,0.068L1.41,11.02l0.003,0.187c0.004,0.185-0.022,0.291-0.076,0.317
		c-0.011,0.005-0.039,0.014-0.084,0.027c-0.072,0.021-0.12,0.03-0.143,0.028c-0.042-0.004-0.077-0.033-0.104-0.087L0.925,11.333
		L0.925,11.333z"/>
	<path id="Sueden_00000121960800394530185820000003118372165693369488_" d="M7.967,14.961l0.006,0.027
		c0.01-0.001,0.022-0.005,0.037-0.013c0.077-0.037,0.101-0.084,0.073-0.143c-0.009-0.018-0.019-0.034-0.033-0.048l-0.049-0.049
		l-0.185-0.13L7.711,14.54c-0.079-0.05-0.136-0.113-0.172-0.188c-0.032-0.067-0.042-0.143-0.029-0.226l0.011-0.068
		c0.01-0.067,0.041-0.137,0.092-0.21c0.068-0.098,0.154-0.175,0.258-0.231c0.026-0.014,0.057-0.03,0.094-0.047l0.029-0.014
		c0.069-0.033,0.12-0.051,0.153-0.055c0.058-0.008,0.1,0.015,0.126,0.069c0.005,0.014,0.015,0.046,0.03,0.094l0.005,0.015
		l0.021,0.086c0.013,0.057,0.017,0.098,0.01,0.123c-0.008,0.031-0.035,0.061-0.08,0.091l-0.093,0.047
		c-0.004,0.002-0.008,0.004-0.011,0.005c-0.071,0.034-0.114,0.037-0.127,0.01c-0.003-0.006-0.005-0.018-0.007-0.037L7.986,14.02
		c-0.06,0.039-0.079,0.083-0.056,0.13c0.013,0.027,0.038,0.053,0.074,0.076c0.016,0.009,0.047,0.028,0.091,0.058l0.052,0.036
		c0.147,0.1,0.244,0.2,0.291,0.298c0.111,0.234,0.087,0.434-0.074,0.598c-0.062,0.063-0.146,0.12-0.252,0.17
		c-0.049,0.023-0.087,0.039-0.114,0.047l-0.013,0.004L7.907,15.46c-0.048,0.015-0.087,0.013-0.117-0.007
		c-0.023-0.016-0.046-0.049-0.07-0.1l-0.013-0.044l-0.027-0.1l-0.017-0.078c-0.014-0.066-0.019-0.108-0.014-0.127
		c0.007-0.03,0.037-0.058,0.089-0.082l0.009-0.004l0.074-0.03c0.013-0.004,0.036-0.014,0.07-0.028
		c0.024-0.004,0.041,0.006,0.054,0.032C7.95,14.908,7.958,14.931,7.967,14.961L7.967,14.961z"/>
	<path id="Osten_00000082330605360789029840000011788142991032973194_" d="M11.668,7.227l0.034,0.083l0.053-0.116l0.013-0.031
		l0.027-0.056c0.022-0.044,0.044-0.071,0.067-0.082c0.063-0.03,0.138,0.011,0.223,0.123c0.054,0.07,0.104,0.155,0.151,0.254
		c0.068,0.144,0.115,0.292,0.14,0.445c0.039,0.23,0.031,0.427-0.025,0.59c-0.067,0.199-0.165,0.328-0.292,0.389
		c-0.022,0.01-0.048,0.02-0.079,0.03c-0.145,0.046-0.287,0.021-0.425-0.072c-0.092-0.062-0.169-0.157-0.229-0.285
		c-0.063-0.132-0.109-0.307-0.139-0.527c0.002-0.011,0.002-0.029,0.002-0.054c-0.004-0.252,0.051-0.449,0.164-0.59
		c0.072-0.09,0.136-0.148,0.194-0.175c0.05-0.024,0.084-0.016,0.102,0.022c0.003,0.007,0.007,0.016,0.01,0.026
		C11.662,7.214,11.665,7.223,11.668,7.227L11.668,7.227z M11.717,7.437l0.002,0.016l0.004,0.034c0.001,0.017,0.001,0.03,0.002,0.042
		l0,0.01c-0.007,0.006-0.023,0.031-0.045,0.075c-0.072,0.13-0.084,0.302-0.037,0.517c0.011,0.052,0.03,0.105,0.056,0.16
		c0.021,0.044,0.041,0.075,0.061,0.092c0.046,0.039,0.088,0.05,0.126,0.031c0.048-0.023,0.077-0.096,0.085-0.22
		c0.01-0.151-0.01-0.294-0.064-0.426l-0.052-0.132l-0.012-0.02l-0.026-0.049C11.79,7.518,11.757,7.474,11.717,7.437L11.717,7.437z"
		/>
	<path id="Norden_00000067224394915658348800000003115625645244744877_" d="M5.488,3.619L5.452,3.523L5.427,3.422L5.373,3.217
		L5.335,3.019L5.303,2.842c0.003-0.04,0.022-0.069,0.058-0.086c0.023-0.011,0.046-0.018,0.068-0.022l0.032-0.006l0.078-0.012
		c0.071-0.01,0.118,0.008,0.14,0.055c0.01,0.022,0.019,0.049,0.026,0.083l0.059,0.262l0.072,0.359l0.03,0.17l0.044,0.267
		c0.003,0.031,0.01,0.09,0.021,0.179c0.007,0.046,0.012,0.074,0.017,0.083C5.95,4.176,5.951,4.177,5.951,4.179l0.007,0.009
		l0.023,0.027c0.008,0.01,0.013,0.017,0.015,0.021C6.012,4.27,5.989,4.302,5.928,4.331C5.924,4.333,5.919,4.335,5.913,4.338
		C5.909,4.342,5.902,4.346,5.894,4.35C5.879,4.357,5.856,4.365,5.825,4.375c-0.016,0.006-0.037,0.01-0.064,0.013L5.739,4.39
		L5.693,4.395c-0.048,0.004-0.09-0.01-0.124-0.044C5.558,4.339,5.53,4.301,5.485,4.237L5.452,4.191L5.371,4.074L5.32,4.002
		L5.06,3.626l0.02,0.069l0.012,0.037l0.052,0.173L5.181,4.05l0.044,0.198l0.056,0.294c0.012,0.06-0.008,0.102-0.058,0.126
		C5.214,4.672,5.2,4.678,5.18,4.684c-0.079,0.025-0.128,0.038-0.148,0.04C4.971,4.732,4.929,4.714,4.908,4.67
		C4.901,4.655,4.893,4.622,4.883,4.573l-0.002-0.01L4.865,4.473L4.829,4.301L4.622,3.156C4.615,3.12,4.627,3.095,4.657,3.081
		c0.026-0.012,0.054-0.022,0.085-0.028l0.074-0.014c0.116-0.023,0.201-0.01,0.253,0.039l0.05,0.047L5.176,3.18
		C5.23,3.233,5.29,3.308,5.354,3.405L5.36,3.417L5.488,3.619L5.488,3.619z"/>
</g>
<rect class="st2" width="13" height="16"/>
</svg>
