<?xml version="1.0" encoding="utf-8"?>
<!-- Generator: Adobe Illustrator 26.0.1, SVG Export Plug-In . SVG Version: 6.00 Build 0)  -->
<svg version="1.1" id="Ebene_1" xmlns="http://www.w3.org/2000/svg" xmlns:xlink="http://www.w3.org/1999/xlink" x="0px" y="0px"
	 viewBox="0 0 75 75" style="enable-background:new 0 0 75 75;" xml:space="preserve">
<style type="text/css">
	.st0{fill:#043EB2;}
	.st1{fill:#FFFFFF;}
	.st2{fill:none;}
</style>
<circle class="st0" cx="37.5" cy="37.5" r="34"/>
<g>
	<path class="st1" d="M19.264,49.188c-1.021,0-1.531-0.692-1.531-2.078c0-0.198,0.01-0.401,0.031-0.609
		c0.083-0.854,0.213-1.823,0.391-2.906h-0.938c-1.448,0-2.917,0.13-4.406,0.391c-0.823,0.146-1.578,0.219-2.266,0.219
		c-0.781,0-1.172-0.37-1.172-1.109c0-0.073,0.005-0.151,0.016-0.234c0.052-0.573,0.37-1.62,0.953-3.141
		c1.281-3.239,2.974-6.901,5.078-10.984c0.906-1.76,1.786-2.641,2.641-2.641c0.812,0,1.219,0.448,1.219,1.344
		c0,0.104-0.005,0.214-0.016,0.328c-0.042,0.448-0.203,0.958-0.484,1.531c-1.792,3.604-3.437,7.339-4.937,11.203
		c1.167-0.156,2.349-0.234,3.547-0.234h1.344c0.698-3.562,1.698-7.713,3-12.453c0.552-2.052,1.359-3.078,2.422-3.078
		c0.854,0,1.281,0.609,1.281,1.828c0,0.167-0.011,0.349-0.031,0.547c-0.031,0.333-0.099,0.708-0.203,1.125
		c-1.396,5.386-2.37,9.521-2.922,12.406c1.489,0.292,2.234,0.849,2.234,1.672v0.141c-0.083,0.938-1.021,1.406-2.812,1.406
		c-0.136,0.896-0.266,1.781-0.391,2.656C21.082,48.298,20.4,49.188,19.264,49.188z"/>
	<path class="st1" d="M35.365,49.048c-1.229,0-2.365-0.339-3.406-1.016c-1.406-0.906-2.386-2.224-2.938-3.953
		c-0.417-1.302-0.625-2.692-0.625-4.172c0-0.479,0.021-0.963,0.062-1.453c0.177-2.031,0.672-3.977,1.484-5.836
		s1.885-3.385,3.219-4.578c1.333-1.192,2.875-1.789,4.625-1.789c1.812,0,3.198,0.544,4.156,1.633
		c0.958,1.089,1.588,2.451,1.891,4.086c0.208,1.104,0.312,2.219,0.312,3.344c0,0.542-0.026,1.083-0.078,1.625
		c-0.271,3.104-1.109,5.859-2.516,8.266c-0.667,1.136-1.542,2.047-2.625,2.734C37.781,48.678,36.594,49.048,35.365,49.048z
		 M35.786,45.72c0.823,0,1.552-0.427,2.188-1.281c0.552-0.729,1.005-1.578,1.359-2.547c0.604-1.625,0.995-3.453,1.172-5.484
		c0.031-0.364,0.047-0.724,0.047-1.078c0-1.531-0.292-2.932-0.875-4.203c-0.511-1.104-1.198-1.656-2.062-1.656
		c-0.375,0-0.792,0.115-1.25,0.344c-0.99,0.5-1.833,1.391-2.531,2.672c-0.969,1.781-1.552,3.802-1.75,6.062
		c-0.042,0.479-0.062,0.938-0.062,1.375c0,2.136,0.51,3.74,1.531,4.812C34.177,45.392,34.922,45.72,35.786,45.72z"/>
	<path class="st1" d="M56.668,49.188c-1.021,0-1.531-0.692-1.531-2.078c0-0.198,0.01-0.401,0.031-0.609
		c0.083-0.854,0.213-1.823,0.391-2.906h-0.938c-1.448,0-2.917,0.13-4.406,0.391c-0.823,0.146-1.578,0.219-2.266,0.219
		c-0.781,0-1.172-0.37-1.172-1.109c0-0.073,0.005-0.151,0.016-0.234c0.052-0.573,0.37-1.62,0.953-3.141
		c1.281-3.239,2.974-6.901,5.078-10.984c0.906-1.76,1.786-2.641,2.641-2.641c0.812,0,1.219,0.448,1.219,1.344
		c0,0.104-0.005,0.214-0.016,0.328c-0.042,0.448-0.203,0.958-0.484,1.531c-1.792,3.604-3.438,7.339-4.938,11.203
		c1.167-0.156,2.349-0.234,3.547-0.234h1.344c0.698-3.562,1.698-7.713,3-12.453c0.552-2.052,1.359-3.078,2.422-3.078
		c0.854,0,1.281,0.609,1.281,1.828c0,0.167-0.011,0.349-0.031,0.547c-0.031,0.333-0.099,0.708-0.203,1.125
		c-1.396,5.386-2.37,9.521-2.922,12.406c1.489,0.292,2.234,0.849,2.234,1.672v0.141c-0.083,0.938-1.021,1.406-2.812,1.406
		c-0.136,0.896-0.266,1.781-0.391,2.656C58.485,48.298,57.803,49.188,56.668,49.188z"/>
</g>
<rect class="st2" width="75" height="75"/>
</svg>
