<?xml version="1.0" encoding="utf-8"?>
<!-- Generator: Adobe Illustrator 26.0.1, SVG Export Plug-In . SVG Version: 6.00 Build 0)  -->
<svg version="1.1" id="Ebene_1" xmlns="http://www.w3.org/2000/svg" xmlns:xlink="http://www.w3.org/1999/xlink" x="0px" y="0px"
	 viewBox="0 0 76 95" style="enable-background:new 0 0 76 95;" xml:space="preserve">
<style type="text/css">
	.st0{fill:#CC3300;}
	.st1{fill:#009933;}
	.st2{fill:none;}
</style>
<g>
	<path id="Nordpfeil_00000183233233500714990790000014584850587676158336_" class="st0" d="M26.743,2.68l7.634,12.291l7.633,12.292
		l-8.813,2.129l-8.813,2.129l1.179-14.421L26.743,2.68L26.743,2.68z"/>
	<path id="Mittelpunkt_00000088105449096542290330000010379022734364660906_" class="st1" d="M40.09,45.596
		c4.895,0,8.887,3.992,8.887,8.886c0,4.895-3.992,8.887-8.887,8.887c-4.894,0-8.886-3.992-8.886-8.887S35.195,45.596,40.09,45.596z"
		/>
	<path id="Symbol_00000042705735692926276140000008316317750973397136_" d="M24.329,55.556c3.856-0.595,8.347-1.518,12.982-2.605
		c-1.128-4.245-2.399-8.429-3.856-12.592c1.846-0.246,3.651-0.636,5.373-1.333c0.677,4.327,1.497,8.634,2.523,12.921
		c5.291-1.354,10.541-2.871,15.032-4.369l6.071-1.907c0.369,0.964,0.697,1.948,0.943,2.974c3.24,12.982-4.696,26.21-17.658,29.451
		c-12.982,3.24-26.21-4.697-29.45-17.679c-3.24-12.961,4.696-26.19,17.679-29.43c10.48-2.604,21.144,2.072,26.558,10.829
		l-5.373,1.333c-4.532-7.281-12.654-11.3-20.488-9.331C24.657,36.319,18.813,47.66,21.663,59.083s13.351,18.683,23.359,16.181
		c9.311-2.317,15.012-12.285,13.495-22.847c-4.819,0.82-10.521,2.072-16.181,3.548c1.128,4.266,2.42,8.511,3.917,12.736
		c-1.907,0.082-3.671,0.615-5.394,1.354c-0.676-4.389-1.518-8.737-2.543-13.023c-4.553,1.251-8.942,2.605-12.633,3.897
		C25.621,59.042,25.088,57.279,24.329,55.556z"/>
	<path id="Westen_00000150781273839609695250000004705109194281405600_" d="M5.153,67.5L4.6,66.37l-2.515-5.508
		c-0.179-0.402-0.075-0.694,0.312-0.878c0.113-0.054,0.247-0.102,0.4-0.145l0.305-0.085l0.34-0.086
		c0.287-0.076,0.501-0.082,0.642-0.018c0.129,0.06,0.249,0.205,0.358,0.435c0.012,0.025,0.023,0.05,0.034,0.072l0.212,0.477
		l0.107,0.252l0.311,0.728l1.004,2.583l-0.068-1.194l-0.058-0.593L5.95,61.885l-0.018-0.325l-0.016-0.192l-0.042-0.661l-0.051-0.973
		c-0.023-0.446-0.016-0.751,0.014-0.915c0.066-0.306,0.254-0.532,0.559-0.677c0.181-0.086,0.343-0.148,0.49-0.185l0.282-0.076
		l0.226-0.062c0.287-0.076,0.483-0.046,0.588,0.086c0.062,0.072,0.156,0.239,0.282,0.502l0.405,0.819l0.134,0.314l0.528,1.142
		l0.159,0.393l0.269,0.629l0.249,0.624c0.018-0.45,0.003-1.013-0.046-1.689l-0.087-1.139l0.01-0.138L9.867,58.63l-0.061-1.472
		c-0.018-0.415,0.085-0.676,0.309-0.783c0.099-0.047,0.234-0.091,0.407-0.131l0.447-0.109l0.329-0.035
		c0.422-0.047,0.677,0.024,0.768,0.213c0.047,0.099,0.081,0.256,0.108,0.476l0.06,0.577l0.034,0.576l0.086,1.455l0.05,2.111
		l-0.012,0.808l0.002,0.922l-0.023,0.525l-0.031,1.468c-0.008,0.387-0.032,0.666-0.073,0.834c-0.075,0.31-0.232,0.522-0.47,0.635
		c-0.033,0.016-0.084,0.035-0.154,0.058c-0.078,0.027-0.133,0.048-0.166,0.064c-0.62,0.204-1.018,0.267-1.197,0.188
		c-0.185-0.071-0.425-0.396-0.72-0.973L9.29,65.502l-0.148-0.311L8.75,64.336l-0.47-1.154l-0.277-0.61l0.013,0.282l0.011,0.219
		l-0.001,0.152l0.04,0.498l0.002,0.196l0.011,0.406l-0.019,1.296l0.019,1.124c0.024,1.112-0.129,1.744-0.459,1.901
		c-0.066,0.031-0.234,0.086-0.502,0.16c-0.433,0.125-0.719,0.18-0.858,0.169c-0.253-0.023-0.462-0.197-0.624-0.523L5.153,67.5
		L5.153,67.5z"/>
	<path id="Sueden_00000111876749141475487090000009884605738260696217_" d="M47.4,89.267l0.035,0.163
		c0.057-0.007,0.131-0.032,0.222-0.075c0.461-0.219,0.605-0.505,0.437-0.859c-0.051-0.107-0.115-0.205-0.195-0.288l-0.292-0.295
		l-1.112-0.778l-0.629-0.395c-0.475-0.299-0.818-0.676-1.034-1.129c-0.192-0.403-0.25-0.855-0.176-1.357l0.063-0.408
		c0.062-0.4,0.244-0.82,0.552-1.259c0.407-0.587,0.924-1.05,1.548-1.387c0.155-0.084,0.342-0.178,0.565-0.284l0.173-0.082
		c0.412-0.196,0.718-0.306,0.917-0.332c0.35-0.045,0.602,0.092,0.755,0.416c0.031,0.086,0.09,0.275,0.18,0.565l0.029,0.093
		l0.125,0.518c0.08,0.343,0.102,0.59,0.062,0.74c-0.05,0.185-0.211,0.368-0.482,0.547l-0.559,0.284
		c-0.024,0.012-0.045,0.021-0.064,0.03c-0.428,0.204-0.681,0.223-0.76,0.058c-0.017-0.035-0.031-0.109-0.043-0.224l-0.2,0.095
		c-0.36,0.235-0.474,0.495-0.338,0.781c0.078,0.165,0.226,0.317,0.441,0.456c0.099,0.054,0.28,0.17,0.546,0.346l0.314,0.214
		c0.881,0.601,1.462,1.197,1.744,1.79c0.668,1.406,0.52,2.601-0.445,3.585c-0.374,0.38-0.879,0.72-1.515,1.023
		c-0.294,0.14-0.522,0.233-0.682,0.279l-0.078,0.022l-0.465,0.143c-0.29,0.09-0.524,0.075-0.701-0.042
		c-0.137-0.097-0.276-0.295-0.422-0.602l-0.08-0.265l-0.164-0.6l-0.102-0.469c-0.086-0.393-0.115-0.647-0.087-0.761
		c0.043-0.179,0.222-0.345,0.533-0.493l0.051-0.024l0.444-0.18c0.078-0.027,0.218-0.083,0.417-0.168
		c0.141-0.027,0.248,0.039,0.321,0.193C47.297,88.95,47.347,89.088,47.4,89.267L47.4,89.267z"/>
	<path id="Osten_00000016767880022294832400000010460309249408567938_" d="M69.605,42.865l0.205,0.495l0.319-0.699l0.077-0.188
		l0.16-0.333c0.131-0.261,0.264-0.426,0.402-0.491c0.38-0.181,0.826,0.067,1.338,0.739c0.322,0.422,0.625,0.932,0.907,1.525
		c0.411,0.864,0.693,1.755,0.843,2.67c0.234,1.383,0.186,2.561-0.147,3.537c-0.404,1.194-0.988,1.971-1.754,2.335
		c-0.13,0.062-0.288,0.122-0.473,0.177c-0.872,0.273-1.723,0.128-2.553-0.434c-0.553-0.373-1.012-0.945-1.376-1.71
		c-0.376-0.79-0.654-1.844-0.835-3.163c0.01-0.063,0.014-0.171,0.012-0.324c-0.024-1.51,0.305-2.691,0.983-3.538
		c0.431-0.538,0.817-0.888,1.162-1.052c0.299-0.142,0.501-0.097,0.61,0.132c0.02,0.043,0.04,0.094,0.059,0.156
		C69.574,42.784,69.592,42.838,69.605,42.865L69.605,42.865z M69.901,44.119l0.013,0.097l0.024,0.203
		c0.004,0.099,0.008,0.181,0.01,0.25l0.002,0.062c-0.045,0.039-0.135,0.188-0.272,0.447c-0.43,0.777-0.504,1.811-0.223,3.103
		c0.067,0.311,0.179,0.632,0.335,0.961c0.125,0.264,0.248,0.447,0.367,0.549c0.276,0.235,0.527,0.297,0.756,0.189
		c0.29-0.138,0.46-0.577,0.509-1.317c0.063-0.908-0.063-1.762-0.381-2.559l-0.315-0.789l-0.071-0.117l-0.154-0.293
		C70.341,44.609,70.14,44.346,69.901,44.119L69.901,44.119z"/>
	<path id="Norden_00000181795079407001478850000008820882699889045418_" d="M32.531,21.212l-0.216-0.576l-0.152-0.606l-0.323-1.226
		l-0.233-1.189l-0.19-1.063c0.017-0.24,0.132-0.411,0.349-0.514c0.138-0.066,0.273-0.11,0.407-0.131l0.193-0.034l0.466-0.07
		c0.427-0.062,0.707,0.048,0.841,0.33c0.062,0.13,0.115,0.296,0.158,0.498l0.356,1.572l0.434,2.155l0.182,1.019l0.262,1.601
		c0.017,0.184,0.059,0.542,0.128,1.072c0.04,0.274,0.074,0.442,0.101,0.5c0.004,0.008,0.008,0.016,0.012,0.025l0.043,0.052
		l0.138,0.164c0.046,0.059,0.076,0.1,0.087,0.125c0.097,0.204-0.04,0.395-0.408,0.57c-0.025,0.012-0.053,0.026-0.088,0.042
		c-0.027,0.023-0.066,0.047-0.118,0.071c-0.091,0.043-0.228,0.094-0.413,0.151c-0.094,0.037-0.223,0.063-0.386,0.08l-0.128,0.013
		l-0.275,0.027c-0.29,0.027-0.539-0.062-0.747-0.265c-0.064-0.071-0.233-0.298-0.506-0.683l-0.193-0.274l-0.485-0.703l-0.309-0.431
		l-1.558-2.257l0.12,0.412l0.074,0.22l0.311,1.036l0.219,0.88l0.266,1.191l0.336,1.763c0.07,0.358-0.048,0.611-0.35,0.754
		c-0.051,0.024-0.138,0.056-0.259,0.093c-0.475,0.147-0.77,0.227-0.885,0.239c-0.371,0.048-0.619-0.061-0.745-0.325
		c-0.043-0.091-0.094-0.283-0.154-0.578l-0.012-0.057l-0.092-0.544l-0.219-1.034l-1.241-6.871c-0.039-0.214,0.032-0.363,0.213-0.449
		c0.156-0.074,0.327-0.13,0.51-0.169l0.443-0.087c0.698-0.14,1.204-0.063,1.518,0.232l0.3,0.281l0.34,0.338
		c0.325,0.317,0.682,0.771,1.07,1.354l0.034,0.072L32.531,21.212L32.531,21.212z"/>
</g>
<rect class="st2" width="76" height="95"/>
</svg>
